<svg xmlns="http://www.w3.org/2000/svg" viewBox="0 0 1252.58 182.72"><defs><style>.cls-1{fill:#ffe527;}.cls-2{fill:none;}</style></defs><title>BG-Surf-Inc-2</title><g id="Layer_2" data-name="Layer 2"><g id="Layer_1-2" data-name="Layer 1"><path class="cls-1" d="M910.6,134.2c1.62,0,3.62,1.38,8.1,8.13l.5.77L921,124.55l0-.27-.27-.07a15.05,15.05,0,0,0-3.53-.42c-5.21,0-8.12,2.34-9.78,8-.61-3-1.67-6.4-2.91-8.12l-.17-.24-.25.14c-3.85,2.13-7.17,3.65-11.78,5.73l-.33.15.18.31a22.12,22.12,0,0,1,3.15,12v12.47a30.11,30.11,0,0,1-1.86,11.94l-.16.44h16.84l-.17-.44a29,29,0,0,1-1.94-11.94V143.06C908.06,136.27,908.65,134.2,910.6,134.2Zm-1.37,31.74h-15A30.67,30.67,0,0,0,896,154.21V141.74a22.64,22.64,0,0,0-3.06-12c3.59-1.62,7.3-3.31,11.25-5.47,1.31,2,2.39,6,2.89,9.06l.27,1.61.37-1.59c1.75-7.41,5.07-8.93,9.52-8.93a15,15,0,0,1,3.1.33l-1.61,16.45c-4.3-6.37-6.31-7.67-8.13-7.67-2.71,0-3.19,3.06-3.19,9.51v11.15A29.43,29.43,0,0,0,909.23,165.94Z"/><path class="cls-1" d="M1205,167.33a12.54,12.54,0,0,0,11-6.69,22.12,22.12,0,0,0,1.56,5.76l.08.19h12.79l-.14-.43a33.77,33.77,0,0,1-1.78-11.79V123.26l-.47.23a80.8,80.8,0,0,1-13.24,5.31l-.31.1.1.31a35.61,35.61,0,0,1,1.21,10.48V157a5.14,5.14,0,0,1-3.94,1.93c-2.45,0-3.36-1.38-3.36-5.09V123.53l-.46.21a128.78,128.78,0,0,1-13.91,5.31l-.32.11.12.32a23.87,23.87,0,0,1,1.86,10.3v15.66C1195.85,163.1,1199.12,167.33,1205,167.33Zm-10.32-37.77a132.77,132.77,0,0,0,13.19-5v29.34c0,3,.48,5.74,4,5.74a5.82,5.82,0,0,0,4.52-2.25l.07-.09V139.69a36.62,36.62,0,0,0-1.15-10.36,82.22,82.22,0,0,0,12.56-5v30.06a34.22,34.22,0,0,0,1.68,11.57h-11.48a22.87,22.87,0,0,1-1.53-6.43l-.09-1.22-.52,1.11a12.05,12.05,0,0,1-10.94,7.27c-7.06,0-8.54-6.11-8.54-11.23V139.78A24.28,24.28,0,0,0,1194.72,129.56Z"/><path class="cls-1" d="M863,167.33a12.56,12.56,0,0,0,11-6.68,22.17,22.17,0,0,0,1.55,5.75l.09.19h12.79l-.14-.43a33.8,33.8,0,0,1-1.79-11.79V123.26l-.47.23a80.7,80.7,0,0,1-13.23,5.31l-.32.1.1.31a35.3,35.3,0,0,1,1.22,10.48V157a5.17,5.17,0,0,1-3.94,1.93c-2.45,0-3.37-1.38-3.37-5.09V123.53l-.46.21a129.36,129.36,0,0,1-13.9,5.31l-.33.11.12.32a23.9,23.9,0,0,1,1.87,10.3v15.66C853.78,163.1,857,167.33,863,167.33Zm-10.32-37.77a131.82,131.82,0,0,0,13.19-5v29.34c0,3,.49,5.74,4,5.74a5.8,5.8,0,0,0,4.51-2.25l.08-.09V139.69a37,37,0,0,0-1.15-10.36,82.11,82.11,0,0,0,12.55-5v30.06a34.22,34.22,0,0,0,1.68,11.57H876a22.53,22.53,0,0,1-1.52-6.43l-.09-1.22-.53,1.11A12,12,0,0,1,863,166.67c-7.05,0-8.53-6.11-8.53-11.23V139.78A24.31,24.31,0,0,0,852.64,129.56Z"/><path class="cls-1" d="M1252.58,134.2v-.65c-2.63.08-3.1,3.14-3.1,9.51v11.15a29.45,29.45,0,0,0,1.83,11.73h-15a30.67,30.67,0,0,0,1.75-11.73V141.74a22.55,22.55,0,0,0-3.07-12c3.59-1.62,7.3-3.31,11.25-5.47,1.31,2,2.39,6,2.9,9.06l.26,1.61.38-1.59a14.76,14.76,0,0,1,2.78-6.28v-1a12.63,12.63,0,0,0-3,5.67c-.62-3-1.67-6.4-2.91-8.12l-.17-.24-.25.14c-3.86,2.13-7.17,3.65-11.79,5.73l-.32.15.17.31a22.13,22.13,0,0,1,3.16,12v12.47a30.13,30.13,0,0,1-1.87,11.94l-.16.44h16.85l-.17-.44a28.84,28.84,0,0,1-1.95-11.94V143.06C1250.13,136.38,1250.71,134.27,1252.58,134.2Z"/><path class="cls-1" d="M1091.22,21.92c2.4,0,7.21,4.91,9.71,9.91l.4.79L1104.88,18l-.22-.12c-1.86-1-4.46-1.52-8-1.52-7.72,0-15.51,5.23-15.66,16.9h-4l-.7,3.68h4.74V60.79a44.72,44.72,0,0,1-1.79,14l-.14.42h16.66l-.16-.43c-1.72-4.76-1.86-9.72-1.86-14V36.93h7.49l.6-3.68h-8.79c-2.12-4.35-3.24-7.61-3.24-9.44C1089.82,22.56,1090.29,21.92,1091.22,21.92Zm1.34,11.79.09.19h8.43l-.38,2.38h-7.59V60.79c0,4.21.13,9.06,1.75,13.78H1080a46.18,46.18,0,0,0,1.68-13.78V36.28h-4.61l.46-2.38h4.15v-.33c0-8.24,4.64-16.57,15-16.57a16.73,16.73,0,0,1,7.42,1.32l-3,12.45c-2.5-4.55-7.14-9.5-9.89-9.5-1.3,0-2,.93-2,2.54C1089.17,25.76,1090.34,29.19,1092.56,33.71Z"/><path class="cls-1" d="M800.34,74.77l-.19.45H817l-.2-.45c-1.78-4-1.86-6.64-1.86-11.27V43a5,5,0,0,1,4-2.17c2,0,3.29.85,3.29,5.09V61c0,6.43.34,10.85,1.07,13.93l.06.25h13.91l-.14-.42a39.79,39.79,0,0,1-2.2-14V44.31c0-7.66-3.26-11.88-9.18-11.88a12.44,12.44,0,0,0-10.94,6.85,23.7,23.7,0,0,0-2-6.92l-.14-.29-.3.14c-3.74,1.83-7.75,3.53-11.87,5.24l-.32.14.15.31c1.78,3.63,1.86,5.6,1.86,9.69V63.5C802.2,68.26,802,70.76,800.34,74.77Zm.74-36.85c3.91-1.63,7.71-3.24,11.29-5a23,23,0,0,1,1.88,7.54l.08,1.33.54-1.22c2.09-4.71,6.14-7.51,10.86-7.51,7,0,8.53,6.11,8.53,11.23V60.79a40.82,40.82,0,0,0,2.09,13.78h-12.5c-.68-3-1-7.33-1-13.53V45.87c0-4.07-1.14-5.74-3.94-5.74a5.71,5.71,0,0,0-4.6,2.51l-.07.09V63.5c0,4.54.08,7.18,1.72,11.07H801.12c1.55-3.85,1.73-6.5,1.73-11.07V47.59C802.85,43.62,802.77,41.49,801.08,37.92Z"/><path class="cls-1" d="M2.54,75l.09.18H15.42l-.14-.42A33.8,33.8,0,0,1,13.49,63V31.9l-.47.23A82.29,82.29,0,0,1,0,37.38v2.09a39.47,39.47,0,0,1,.79,8.86V65.68a7.79,7.79,0,0,1-.79.75v.82A7,7,0,0,0,1.36,66l.08-.09V48.33A36.62,36.62,0,0,0,.29,38a82.11,82.11,0,0,0,12.55-5V63a34.19,34.19,0,0,0,1.69,11.56H3a22.46,22.46,0,0,1-1.52-6.42l-.09-1.22L.9,68A14,14,0,0,1,0,69.66v1.15a14.86,14.86,0,0,0,1-1.53A22.54,22.54,0,0,0,2.54,75Z"/><path class="cls-1" d="M1063.83,42.83c1.62,0,3.62,1.39,8.09,8.14l.51.76,1.81-18.54,0-.27-.27-.07a15.05,15.05,0,0,0-3.53-.42c-5.22,0-8.12,2.34-9.78,8-.61-3-1.67-6.4-2.91-8.13l-.17-.23-.25.14c-3.85,2.12-7.17,3.65-11.79,5.73l-.32.15.18.31a22.12,22.12,0,0,1,3.15,12V62.85a30,30,0,0,1-1.87,11.94l-.15.43h16.84l-.17-.44a28.92,28.92,0,0,1-1.94-11.93V51.69C1061.29,44.9,1061.88,42.83,1063.83,42.83Zm-1.37,31.74h-15a30.62,30.62,0,0,0,1.75-11.72V50.38a22.61,22.61,0,0,0-3.06-12c3.59-1.62,7.3-3.31,11.24-5.47,1.31,2,2.4,5.94,2.9,9.06l.26,1.61L1061,42c1.75-7.41,5.07-8.93,9.52-8.93a15,15,0,0,1,3.1.33L1072,49.86c-4.3-6.37-6.32-7.68-8.13-7.68-2.72,0-3.2,3.07-3.2,9.51V62.85A29.4,29.4,0,0,0,1062.46,74.57Z"/><path class="cls-1" d="M999.79,58.83c0-7-4.43-10.89-8.76-13.73l-6.73-4.26c-6.61-4.22-8.62-6.53-8.62-9.89,0-2.16,1.61-3.61,4-3.61,6.09,0,12.36,7,15.62,13.51l.47.95,2.56-19.88-.3-.06a55.41,55.41,0,0,0-11-1.41c-12.06,0-21.16,7.37-21.16,17.14,0,7.43,3.77,10.29,9.51,13.81l9.1,5.57c4.79,2.94,6.4,5.1,6.4,8.58a4.08,4.08,0,0,1-4.26,4.19c-4.39,0-8.23-4.33-11.75-13.25l-.15-.37-10.14,6.59.08.24c3.22,10,11.55,13.59,17.69,13.59A17.4,17.4,0,0,0,999.79,58.83ZM982.32,75.89c-6.16,0-13.83-3.4-17-12.91l9-5.88C978,66,982,70.39,986.59,70.39a4.72,4.72,0,0,0,4.91-4.84c0-3.7-1.75-6.09-6.71-9.13l-9.1-5.58c-5.72-3.5-9.2-6.14-9.2-13.25,0-9.4,8.82-16.49,20.51-16.49a53.44,53.44,0,0,1,10.62,1.33l-2.2,17.2c-3.46-6.4-9.65-12.94-15.72-12.94C977,26.69,975,28.44,975,31c0,3.63,2.08,6.07,8.92,10.44l6.72,4.26c4.19,2.74,8.47,6.45,8.47,13.18A16.77,16.77,0,0,1,982.32,75.89Z"/><path class="cls-1" d="M1175.43,161.1c-4.38,0-8.23-4.33-11.75-13.24l-.14-.37-10.14,6.58.08.24c3.22,10,11.54,13.59,17.69,13.59a17.4,17.4,0,0,0,17.46-17.71c0-7-4.42-10.89-8.76-13.72l-6.72-4.27c-6.61-4.22-8.62-6.53-8.62-9.89,0-2.16,1.61-3.61,4-3.61,6.08,0,12.36,7,15.61,13.51l.48,1,2.55-19.89-.29-.06a55.62,55.62,0,0,0-11.06-1.4c-12,0-21.15,7.36-21.15,17.13,0,7.44,3.77,10.3,9.51,13.81l9.1,5.57c4.79,2.94,6.4,5.1,6.4,8.58A4.09,4.09,0,0,1,1175.43,161.1Zm4.92-4.19c0-3.7-1.76-6.09-6.71-9.13l-9.1-5.58c-5.73-3.5-9.2-6.14-9.2-13.25,0-9.4,8.82-16.48,20.5-16.48a54.1,54.1,0,0,1,10.63,1.32L1184.26,131c-3.45-6.41-9.64-13-15.71-13-2.75,0-4.67,1.75-4.67,4.26,0,3.64,2.08,6.07,8.92,10.44l6.72,4.26c4.19,2.74,8.46,6.45,8.46,13.18a16.75,16.75,0,0,1-16.81,17.06c-6.16,0-13.83-3.4-17-12.91l9.06-5.88c3.59,8.94,7.58,13.29,12.2,13.29A4.72,4.72,0,0,0,1180.35,156.91Z"/><path class="cls-1" d="M1235.37,69.24a7.26,7.26,0,0,0-14.51,0,7.26,7.26,0,0,0,14.51,0Zm-7.22,6.56a6.56,6.56,0,1,1-.08-13.12,6.56,6.56,0,1,1,.08,13.12Z"/><path class="cls-1" d="M1048,167.65c7.1,0,11.79-4.52,12.87-12.41l.08-.58-.63.28a17.06,17.06,0,0,1-6.74,1.89c-7.62,0-10.58-5.22-10.58-18.61,0-7.71,1.71-8.7,3.2-8.7,3.27,0,6.81,4.53,11.12,11.33l.44.7,3-16-.24-.1a22.38,22.38,0,0,0-8.33-1.66c-13,0-21.4,8.91-21.4,22.71C1030.81,159.35,1037.57,167.65,1048,167.65Zm4.18-43.21A21.75,21.75,0,0,1,1060,126l-2.58,13.86c-4.23-6.6-7.78-10.94-11.23-10.94-2.7,0-3.85,2.8-3.85,9.35,0,13.86,3.15,19.26,11.23,19.26a16.53,16.53,0,0,0,6.56-1.75C1059,162.9,1054.59,167,1048,167c-10.06,0-16.57-8-16.57-20.5C1031.46,133.1,1039.61,124.44,1052.21,124.44Z"/><path class="cls-1" d="M1012.13,166.34l.06.25h13.9l-.14-.43a40,40,0,0,1-2.19-14V135.68c0-7.67-3.26-11.89-9.18-11.89a12.46,12.46,0,0,0-10.94,6.85,24,24,0,0,0-2-6.91l-.14-.3-.3.15c-3.74,1.83-7.75,3.52-11.87,5.24L989,129l.15.31c1.78,3.64,1.85,5.6,1.85,9.7v15.9c0,4.76-.17,7.26-1.86,11.28l-.19.45h16.82l-.2-.46c-1.78-4-1.86-6.64-1.86-11.27V134.31a5,5,0,0,1,4-2.16c2,0,3.28.85,3.28,5.08V152.4C1011.05,158.83,1011.39,163.26,1012.13,166.34Zm-4.36-34.84a5.7,5.7,0,0,0-4.6,2.5l-.07.09v20.77c0,4.55.08,7.18,1.72,11.08H990c1.55-3.86,1.72-6.51,1.72-11.08V139c0-4-.07-6.11-1.77-9.68,3.92-1.63,7.72-3.24,11.3-5a23,23,0,0,1,1.88,7.54l.08,1.33.54-1.22c2.08-4.7,6.14-7.51,10.86-7.51,7,0,8.53,6.11,8.53,11.24v16.48a40.9,40.9,0,0,0,2.09,13.78h-12.5c-.68-3-1-7.34-1-13.54V137.23C1011.7,133.16,1010.56,131.5,1007.77,131.5Z"/><path class="cls-1" d="M1028.77,75l.09.18h12.79l-.14-.42A33.56,33.56,0,0,1,1039.72,63V31.9l-.47.23A80.8,80.8,0,0,1,1026,37.44l-.31.1.1.31A35.28,35.28,0,0,1,1027,48.33V65.68a5.12,5.12,0,0,1-3.93,1.92c-2.46,0-3.37-1.37-3.37-5.08V32.16l-.46.21a130.78,130.78,0,0,1-13.91,5.32l-.32.11.12.31a23.93,23.93,0,0,1,1.87,10.3V64.08c0,7.66,3.26,11.88,9.18,11.88a12.53,12.53,0,0,0,11-6.68A22.52,22.52,0,0,0,1028.77,75Zm-12.58.27c-7.05,0-8.53-6.11-8.53-11.23V48.41a24.29,24.29,0,0,0-1.79-10.21,129.29,129.29,0,0,0,13.19-5V62.52c0,3,.49,5.73,4,5.73a5.8,5.8,0,0,0,4.51-2.24l.08-.09V48.33A36.63,36.63,0,0,0,1026.51,38a82.22,82.22,0,0,0,12.56-5V63a34.17,34.17,0,0,0,1.68,11.56h-11.48a22.46,22.46,0,0,1-1.52-6.42l-.09-1.22-.53,1.11A12,12,0,0,1,1016.19,75.31Z"/><path class="cls-1" d="M1201.26,76.29c7.1,0,11.79-4.53,12.87-12.42l.08-.57-.64.28a17.13,17.13,0,0,1-6.74,1.89c-7.61,0-10.58-5.22-10.58-18.61,0-7.71,1.71-8.7,3.2-8.7,3.28,0,6.82,4.53,11.13,11.33l.44.7,3-16-.25-.1a22.33,22.33,0,0,0-8.32-1.66c-13,0-21.4,8.91-21.4,22.71C1184,68,1190.8,76.29,1201.26,76.29Zm4.18-43.21a21.62,21.62,0,0,1,7.83,1.51l-2.59,13.86c-4.22-6.6-7.77-10.94-11.23-10.94-2.7,0-3.85,2.79-3.85,9.35,0,13.86,3.15,19.26,11.23,19.26a16.42,16.42,0,0,0,6.57-1.76c-1.18,7.18-5.58,11.28-12.14,11.28-10.07,0-16.57-8-16.57-20.5C1184.69,41.74,1192.84,33.08,1205.44,33.08Z"/><path class="cls-1" d="M938,113.29c2.4,0,7.21,4.9,9.71,9.9l.4.8,3.55-14.64-.22-.12c-1.86-1-4.46-1.51-7.95-1.51-7.72,0-15.51,5.22-15.65,16.89h-4.05l-.7,3.68h4.74v23.87a45,45,0,0,1-1.78,14l-.14.43h16.65l-.16-.44c-1.72-4.76-1.86-9.72-1.86-14V128.29H948l.6-3.68h-8.79c-2.12-4.35-3.24-7.61-3.24-9.44C936.59,113.92,937.06,113.29,938,113.29Zm1.35,11.79.09.18h8.43l-.39,2.38h-7.59v24.52c0,4.2.14,9.06,1.75,13.78H926.79a46.22,46.22,0,0,0,1.68-13.78V127.64h-4.6l.45-2.38h4.15v-.33c0-8.24,4.65-16.56,15-16.56a16.59,16.59,0,0,1,7.42,1.32l-3,12.44c-2.5-4.55-7.14-9.49-9.89-9.49-1.3,0-2,.92-2,2.53C935.94,117.12,937.12,120.55,939.34,125.08Z"/><path class="cls-1" d="M982.82,113.08l.16-.44H965l.16.44a39,39,0,0,1,2.44,13.9v25.18a45.76,45.76,0,0,1-2.19,14l-.14.43h17.55l-.15-.43a42.86,42.86,0,0,1-2.2-14V127A39,39,0,0,1,982.82,113.08Zm-.92,52.86H966.15a46.33,46.33,0,0,0,2.09-13.78V127a40,40,0,0,0-2.31-13.69h16.12A39.87,39.87,0,0,0,979.81,127v25.18A43.71,43.71,0,0,0,981.9,165.94Z"/><path class="cls-1" d="M1142.41,74.77l-.19.45H1159l-.21-.45c-1.77-4-1.85-6.64-1.85-11.27V43a5,5,0,0,1,4-2.17c2,0,3.28.85,3.28,5.09V61c0,6.43.34,10.85,1.07,13.93l.06.25h13.91l-.14-.42a40,40,0,0,1-2.2-14V44.31c0-7.66-3.26-11.88-9.18-11.88a12.44,12.44,0,0,0-10.93,6.85,23.71,23.71,0,0,0-2-6.92l-.14-.29-.29.14c-3.74,1.83-7.75,3.53-11.87,5.24l-.32.14.15.31c1.78,3.63,1.85,5.6,1.85,9.69V63.5C1144.27,68.26,1144.1,70.76,1142.41,74.77Zm.74-36.85c3.91-1.63,7.72-3.24,11.3-5a23.47,23.47,0,0,1,1.88,7.54l.08,1.33.54-1.22c2.08-4.71,6.14-7.51,10.85-7.51,7,0,8.53,6.11,8.53,11.23V60.79a40.58,40.58,0,0,0,2.1,13.78h-12.5c-.68-3-1-7.33-1-13.53V45.87c0-4.07-1.14-5.74-3.93-5.74a5.75,5.75,0,0,0-4.61,2.51l-.06.09V63.5c0,4.54.08,7.18,1.71,11.07H1143.2c1.55-3.85,1.72-6.5,1.72-11.07V47.59C1144.92,43.62,1144.84,41.49,1143.15,37.92Z"/><path class="cls-1" d="M1136,21.71l.17-.44h-18l.17.44a39.07,39.07,0,0,1,2.44,13.91V60.79a45.48,45.48,0,0,1-2.2,14l-.14.42H1136l-.14-.43a42.78,42.78,0,0,1-2.2-14V35.62A39.29,39.29,0,0,1,1136,21.71Zm-.92,52.86h-15.74a46.28,46.28,0,0,0,2.09-13.78V35.62a39.89,39.89,0,0,0-2.32-13.7h16.12a40.22,40.22,0,0,0-2.23,13.7V60.79A43.91,43.91,0,0,0,1135.12,74.57Z"/><path class="cls-1" d="M1074.93,167.82a7.22,7.22,0,1,0-7.3-7.22A7.24,7.24,0,0,0,1074.93,167.82Zm-.09-13.78a6.57,6.57,0,1,1,.09,13.13,6.57,6.57,0,1,1-.09-13.13Z"/><path class="cls-1" d="M298.67,113.08l.16-.44h-18l.16.44a39,39,0,0,1,2.44,13.9v25.18a45.76,45.76,0,0,1-2.19,14l-.14.43h17.55l-.15-.43a42.86,42.86,0,0,1-2.2-14V127A39,39,0,0,1,298.67,113.08Zm-.92,52.86H282a46.33,46.33,0,0,0,2.09-13.78V127a40,40,0,0,0-2.31-13.69H297.9A39.87,39.87,0,0,0,295.66,127v25.18A43.71,43.71,0,0,0,297.75,165.94Z"/><path class="cls-1" d="M390.78,167.82a7.22,7.22,0,1,0-7.3-7.22A7.24,7.24,0,0,0,390.78,167.82ZM390.69,154a6.57,6.57,0,1,1,.09,13.13,6.57,6.57,0,1,1-.09-13.13Z"/><path class="cls-1" d="M253.84,113.29c2.4,0,7.21,4.9,9.71,9.9l.4.8,3.55-14.64-.22-.12c-1.86-1-4.46-1.51-7.95-1.51-7.72,0-15.51,5.22-15.65,16.89h-4.05l-.7,3.68h4.74v23.87a45,45,0,0,1-1.78,14l-.14.43H258.4l-.16-.44c-1.72-4.76-1.86-9.72-1.86-14V128.29h7.49l.6-3.68h-8.79c-2.12-4.35-3.24-7.61-3.24-9.44C252.44,113.92,252.91,113.29,253.84,113.29Zm1.35,11.79.09.18h8.43l-.39,2.38h-7.59v24.52c0,4.2.14,9.06,1.75,13.78H242.64a46.22,46.22,0,0,0,1.68-13.78V127.64h-4.6l.45-2.38h4.15v-.33c0-8.24,4.64-16.56,15-16.56a16.59,16.59,0,0,1,7.42,1.32l-3,12.44c-2.5-4.55-7.14-9.49-9.89-9.49-1.3,0-2.05.92-2.05,2.53C251.79,117.12,253,120.55,255.19,125.08Z"/><path class="cls-1" d="M226.45,134.2c1.62,0,3.62,1.38,8.1,8.13l.5.77,1.81-18.55,0-.27-.27-.07a15.05,15.05,0,0,0-3.53-.42c-5.21,0-8.12,2.34-9.78,8-.61-3-1.67-6.4-2.91-8.12l-.17-.24-.25.14c-3.85,2.13-7.17,3.65-11.78,5.73l-.33.15.18.31a22.12,22.12,0,0,1,3.15,12v12.47a30.11,30.11,0,0,1-1.86,11.94l-.16.44H226l-.17-.44a29,29,0,0,1-1.94-11.94V143.06C223.91,136.27,224.5,134.2,226.45,134.2Zm-1.37,31.74h-15a30.67,30.67,0,0,0,1.75-11.73V141.74a22.64,22.64,0,0,0-3.06-12c3.59-1.62,7.3-3.31,11.25-5.47,1.31,2,2.39,6,2.89,9.06l.27,1.61.37-1.59c1.75-7.41,5.07-8.93,9.52-8.93a15,15,0,0,1,3.1.33l-1.61,16.45c-4.3-6.37-6.31-7.67-8.13-7.67-2.71,0-3.19,3.06-3.19,9.51v11.15A29.43,29.43,0,0,0,225.08,165.94Z"/><path class="cls-1" d="M407.07,21.92c2.4,0,7.21,4.91,9.71,9.91l.4.79L420.72,18l-.21-.12c-1.86-1-4.46-1.52-7.95-1.52-7.72,0-15.51,5.23-15.66,16.9h-4l-.7,3.68h4.74V60.79a44.72,44.72,0,0,1-1.79,14l-.14.42h16.66l-.16-.43c-1.72-4.76-1.86-9.72-1.86-14V36.93h7.49l.6-3.68h-8.79c-2.12-4.35-3.24-7.61-3.24-9.44C405.67,22.56,406.14,21.92,407.07,21.92Zm1.34,11.79.09.19h8.43l-.38,2.38H409V60.79c0,4.21.13,9.06,1.75,13.78H395.87a46.18,46.18,0,0,0,1.68-13.78V36.28h-4.61l.46-2.38h4.15v-.33c0-8.24,4.64-16.57,15-16.57A16.73,16.73,0,0,1,420,18.32l-3,12.45c-2.5-4.55-7.14-9.5-9.89-9.5-1.3,0-2.05.93-2.05,2.54C405,25.76,406.19,29.19,408.41,33.71Z"/><path class="cls-1" d="M315.64,58.83c0-7-4.43-10.89-8.76-13.73l-6.73-4.26c-6.61-4.22-8.62-6.53-8.62-9.89,0-2.16,1.61-3.61,4-3.61,6.09,0,12.36,7,15.62,13.51l.47.95,2.56-19.88-.3-.06a55.41,55.41,0,0,0-11-1.41c-12.06,0-21.16,7.37-21.16,17.14,0,7.43,3.77,10.29,9.51,13.81L300.3,57c4.79,2.94,6.4,5.1,6.4,8.58a4.08,4.08,0,0,1-4.26,4.19c-4.39,0-8.23-4.33-11.75-13.25l-.15-.37L280.4,62.71l.08.24C283.7,73,292,76.54,298.17,76.54A17.4,17.4,0,0,0,315.64,58.83ZM298.17,75.89c-6.16,0-13.83-3.4-17-12.91l9.05-5.88c3.59,8.94,7.58,13.29,12.21,13.29a4.72,4.72,0,0,0,4.91-4.84c0-3.7-1.75-6.09-6.71-9.13l-9.1-5.58c-5.72-3.5-9.2-6.14-9.2-13.25,0-9.4,8.82-16.49,20.51-16.49a53.44,53.44,0,0,1,10.62,1.33l-2.2,17.2c-3.46-6.4-9.65-12.94-15.72-12.94-2.75,0-4.67,1.75-4.67,4.26,0,3.63,2.08,6.07,8.92,10.44l6.72,4.26c4.19,2.74,8.47,6.45,8.47,13.18A16.77,16.77,0,0,1,298.17,75.89Z"/><path class="cls-1" d="M344.62,75l.09.18H357.5l-.14-.42A33.56,33.56,0,0,1,355.57,63V31.9l-.47.23a80.8,80.8,0,0,1-13.24,5.31l-.31.1.1.31a35.28,35.28,0,0,1,1.21,10.48V65.68a5.12,5.12,0,0,1-3.93,1.92c-2.46,0-3.37-1.37-3.37-5.08V32.16l-.46.21a130.78,130.78,0,0,1-13.91,5.32l-.32.11.12.31a23.93,23.93,0,0,1,1.87,10.3V64.08c0,7.66,3.26,11.88,9.18,11.88a12.53,12.53,0,0,0,11-6.68A22.12,22.12,0,0,0,344.62,75ZM332,75.31c-7.05,0-8.53-6.11-8.53-11.23V48.41a24.29,24.29,0,0,0-1.79-10.21,130.2,130.2,0,0,0,13.19-5V62.52c0,3,.49,5.73,4,5.73A5.8,5.8,0,0,0,343.44,66l.07-.09V48.33A36.62,36.62,0,0,0,342.36,38a82.22,82.22,0,0,0,12.56-5V63a34.17,34.17,0,0,0,1.68,11.56H345.12a22.46,22.46,0,0,1-1.52-6.42l-.1-1.22L343,68A12,12,0,0,1,332,75.31Z"/><path class="cls-1" d="M328,166.34l.06.25h13.9l-.14-.43a40,40,0,0,1-2.19-14V135.68c0-7.67-3.26-11.89-9.18-11.89a12.46,12.46,0,0,0-10.94,6.85,24,24,0,0,0-2-6.91l-.14-.3-.3.15c-3.74,1.83-7.75,3.52-11.87,5.24l-.32.13.15.31c1.78,3.64,1.85,5.6,1.85,9.7v15.9c0,4.76-.17,7.26-1.86,11.28l-.19.45h16.82l-.2-.46c-1.78-4-1.86-6.64-1.86-11.27V134.31a5,5,0,0,1,4-2.16c2,0,3.28.85,3.28,5.08V152.4C326.9,158.83,327.24,163.26,328,166.34Zm-4.36-34.84A5.7,5.7,0,0,0,319,134l-.07.09v20.77c0,4.55.08,7.18,1.72,11.08H305.82c1.55-3.86,1.72-6.51,1.72-11.08V139c0-4-.07-6.11-1.77-9.68,3.92-1.63,7.72-3.24,11.3-5a23,23,0,0,1,1.88,7.54l.08,1.33.54-1.22c2.08-4.7,6.14-7.51,10.86-7.51,7.05,0,8.53,6.11,8.53,11.24v16.48a40.9,40.9,0,0,0,2.09,13.78h-12.5c-.68-3-1-7.34-1-13.54V137.23C327.55,133.16,326.41,131.5,323.62,131.5Z"/><path class="cls-1" d="M379.68,42.83c1.62,0,3.62,1.39,8.09,8.14l.51.76,1.81-18.54,0-.27-.27-.07a15.05,15.05,0,0,0-3.53-.42c-5.22,0-8.12,2.34-9.78,8-.62-3-1.67-6.4-2.91-8.13l-.17-.23-.25.14c-3.85,2.12-7.17,3.65-11.79,5.73l-.32.15.18.31a22.12,22.12,0,0,1,3.15,12V62.85a30,30,0,0,1-1.87,11.94l-.15.43h16.84l-.17-.44a28.94,28.94,0,0,1-1.95-11.93V51.69C377.13,44.9,377.73,42.83,379.68,42.83Zm-1.37,31.74h-15a30.62,30.62,0,0,0,1.75-11.72V50.38a22.53,22.53,0,0,0-3.07-12c3.6-1.62,7.31-3.31,11.25-5.47,1.31,2,2.4,5.94,2.9,9.06l.26,1.61L376.8,42c1.75-7.41,5.07-8.93,9.52-8.93a15,15,0,0,1,3.1.33l-1.61,16.45c-4.3-6.37-6.32-7.68-8.13-7.68-2.72,0-3.2,3.07-3.2,9.51V62.85A29.4,29.4,0,0,0,378.31,74.57Z"/><path class="cls-1" d="M178.81,167.33a12.57,12.57,0,0,0,11-6.68,22.17,22.17,0,0,0,1.55,5.75l.09.19h12.79l-.14-.43a33.8,33.8,0,0,1-1.79-11.79V123.26l-.47.23a80.7,80.7,0,0,1-13.23,5.31l-.32.1.1.31a35.3,35.3,0,0,1,1.22,10.48V157A5.17,5.17,0,0,1,185.7,159c-2.45,0-3.37-1.38-3.37-5.09V123.53l-.46.21a129.36,129.36,0,0,1-13.9,5.31l-.33.11.12.32a23.9,23.9,0,0,1,1.87,10.3v15.66C169.63,163.1,172.89,167.33,178.81,167.33Zm-10.32-37.77a131.82,131.82,0,0,0,13.19-5v29.34c0,3,.49,5.74,4,5.74a5.8,5.8,0,0,0,4.51-2.25l.08-.09V139.69a37,37,0,0,0-1.15-10.36,82.11,82.11,0,0,0,12.55-5v30.06a34.22,34.22,0,0,0,1.68,11.57H191.89a22.53,22.53,0,0,1-1.52-6.43l-.09-1.22-.53,1.11a12,12,0,0,1-10.94,7.27c-7.05,0-8.53-6.11-8.53-11.23V139.78A24.31,24.31,0,0,0,168.49,129.56Z"/><path class="cls-1" d="M363.88,167.65c7.1,0,11.79-4.52,12.87-12.41l.08-.58-.63.28a17.06,17.06,0,0,1-6.74,1.89c-7.62,0-10.58-5.22-10.58-18.61,0-7.71,1.71-8.7,3.2-8.7,3.27,0,6.81,4.53,11.12,11.33l.44.7,3-16-.24-.1a22.42,22.42,0,0,0-8.33-1.66c-13,0-21.4,8.91-21.4,22.71C346.66,159.35,353.42,167.65,363.88,167.65Zm4.18-43.21a21.75,21.75,0,0,1,7.83,1.51l-2.58,13.86c-4.23-6.6-7.78-10.94-11.23-10.94-2.7,0-3.85,2.8-3.85,9.35,0,13.86,3.15,19.26,11.23,19.26a16.53,16.53,0,0,0,6.56-1.75c-1.18,7.17-5.58,11.27-12.14,11.27-10.06,0-16.57-8-16.57-20.5C347.31,133.1,355.46,124.44,368.06,124.44Z"/><path class="cls-1" d="M37.6,42.83c1.63,0,3.62,1.39,8.1,8.14l.5.76L48,33.19l0-.27-.26-.07a15.18,15.18,0,0,0-3.53-.42c-5.22,0-8.13,2.34-9.79,8-.61-3-1.66-6.4-2.91-8.13l-.16-.23-.26.14C27.28,34.34,24,35.87,19.35,38L19,38.1l.18.31a22.13,22.13,0,0,1,3.16,12V62.85a30.13,30.13,0,0,1-1.87,11.94l-.16.43H37.17L37,74.78a28.77,28.77,0,0,1-1.95-11.93V51.69C35.06,44.9,35.65,42.83,37.6,42.83ZM36.23,74.57h-15A30.64,30.64,0,0,0,23,62.85V50.38a22.62,22.62,0,0,0-3.07-12c3.59-1.62,7.3-3.31,11.25-5.47,1.31,2,2.39,5.94,2.89,9.06l.27,1.61L34.72,42c1.75-7.41,5.07-8.93,9.53-8.93a15,15,0,0,1,3.09.33L45.73,49.86c-4.3-6.37-6.31-7.68-8.13-7.68-2.71,0-3.19,3.07-3.19,9.51V62.85A29.56,29.56,0,0,0,36.23,74.57Z"/><path class="cls-1" d="M20,129.52c3.28,0,6.82,4.53,11.12,11.33l.45.7,3-16-.25-.1A22.33,22.33,0,0,0,26,123.79c-13,0-21.4,8.91-21.4,22.71,0,12.85,6.76,21.15,17.22,21.15,7.09,0,11.78-4.52,12.86-12.41l.08-.58-.63.28a17.06,17.06,0,0,1-6.74,1.89c-7.61,0-10.58-5.22-10.58-18.61C16.8,130.51,18.51,129.52,20,129.52Zm-3.85,8.7c0,13.86,3.15,19.26,11.23,19.26a16.53,16.53,0,0,0,6.56-1.75C32.77,162.9,28.37,167,21.81,167c-10.07,0-16.57-8-16.57-20.5,0-13.4,8.14-22.06,20.75-22.06A21.84,21.84,0,0,1,33.82,126l-2.59,13.86C27,133.21,23.46,128.87,20,128.87,17.3,128.87,16.15,131.67,16.15,138.22Z"/><path class="cls-1" d="M65,21.92c2.4,0,7.22,4.91,9.71,9.91l.4.79L78.65,18l-.22-.12c-1.85-1-4.45-1.52-7.94-1.52-7.73,0-15.52,5.23-15.66,16.9h-4l-.7,3.68h4.75V60.79A45,45,0,0,1,53,74.8l-.14.42H69.55l-.15-.43c-1.73-4.76-1.87-9.72-1.87-14V36.93H75l.59-3.68H66.83c-2.12-4.35-3.24-7.61-3.24-9.44C63.59,22.56,64.06,21.92,65,21.92Zm1.35,11.79.09.19h8.43l-.39,2.38H66.88V60.79c0,4.21.14,9.06,1.75,13.78H53.79a46.21,46.21,0,0,0,1.69-13.78V36.28H50.87l.45-2.38h4.16v-.33c0-8.24,4.64-16.57,15-16.57a16.65,16.65,0,0,1,7.41,1.32l-3,12.45c-2.5-4.55-7.14-9.5-9.89-9.5-1.3,0-2,.93-2,2.54C62.94,25.76,64.12,29.19,66.34,33.71Z"/><path class="cls-1" d="M48.7,167.82a7.22,7.22,0,1,0-7.29-7.22A7.23,7.23,0,0,0,48.7,167.82ZM48.62,154a6.57,6.57,0,1,1,.08,13.13A6.57,6.57,0,1,1,48.62,154Z"/><path class="cls-1" d="M116.19,74.77l-.19.45h16.81l-.2-.45c-1.78-4-1.86-6.64-1.86-11.27V43a5,5,0,0,1,4-2.17c2,0,3.28.85,3.28,5.09V61c0,6.43.35,10.85,1.08,13.93l.06.25H153.1L153,74.8a39.79,39.79,0,0,1-2.2-14V44.31c0-7.66-3.26-11.88-9.18-11.88a12.44,12.44,0,0,0-10.94,6.85,23.7,23.7,0,0,0-2-6.92l-.14-.29-.3.14c-3.74,1.83-7.75,3.53-11.87,5.24l-.32.14.15.31c1.78,3.63,1.86,5.6,1.86,9.69V63.5C118.05,68.26,117.87,70.76,116.19,74.77Zm.74-36.85c3.91-1.63,7.71-3.24,11.29-5a23,23,0,0,1,1.88,7.54l.08,1.33.54-1.22c2.09-4.71,6.14-7.51,10.86-7.51,7,0,8.53,6.11,8.53,11.23V60.79a40.82,40.82,0,0,0,2.09,13.78H139.7c-.68-3-1-7.33-1-13.53V45.87c0-4.07-1.14-5.74-3.94-5.74a5.71,5.71,0,0,0-4.6,2.51l-.07.09V63.5c0,4.54.08,7.18,1.72,11.07H117c1.55-3.85,1.73-6.5,1.73-11.07V47.59C118.7,43.62,118.62,41.49,116.93,37.92Z"/><path class="cls-1" d="M109.82,21.71l.17-.44H92l.17.44a39.29,39.29,0,0,1,2.43,13.91V60.79a45.77,45.77,0,0,1-2.19,14l-.14.42h17.55l-.15-.43a42.78,42.78,0,0,1-2.2-14V35.62A39.29,39.29,0,0,1,109.82,21.71Zm-.92,52.86H93.15a46.29,46.29,0,0,0,2.1-13.78V35.62a39.89,39.89,0,0,0-2.32-13.7h16.12a40,40,0,0,0-2.24,13.7V60.79A43.62,43.62,0,0,0,108.9,74.57Z"/><path class="cls-1" d="M175,76.29c7.1,0,11.79-4.53,12.87-12.42l.08-.57-.63.28a17.22,17.22,0,0,1-6.74,1.89C173,65.47,170,60.25,170,46.86c0-7.71,1.71-8.7,3.2-8.7,3.28,0,6.82,4.53,11.12,11.33l.44.7,3-16-.24-.1a22.38,22.38,0,0,0-8.33-1.66c-13,0-21.39,8.91-21.39,22.71C157.82,68,164.57,76.29,175,76.29Zm4.18-43.21a21.63,21.63,0,0,1,7.84,1.51l-2.59,13.86c-4.23-6.6-7.78-10.94-11.23-10.94-2.7,0-3.85,2.79-3.85,9.35,0,13.86,3.15,19.26,11.23,19.26a16.37,16.37,0,0,0,6.56-1.76C186,71.54,181.6,75.64,175,75.64c-10.06,0-16.56-8-16.56-20.5C158.47,41.74,166.61,33.08,179.21,33.08Z"/><path class="cls-1" d="M149.21,161.1c-4.39,0-8.23-4.33-11.75-13.24l-.15-.37-10.13,6.58.07.24c3.23,10,11.55,13.59,17.7,13.59a17.4,17.4,0,0,0,17.46-17.71c0-7-4.43-10.89-8.76-13.72l-6.73-4.27c-6.6-4.22-8.62-6.53-8.62-9.89,0-2.16,1.62-3.61,4-3.61,6.09,0,12.36,7,15.62,13.51l.48,1L161,113.28l-.29-.06a55.72,55.72,0,0,0-11.06-1.4c-12.06,0-21.15,7.36-21.15,17.13,0,7.44,3.76,10.3,9.5,13.81l9.1,5.57c4.79,2.94,6.41,5.1,6.41,8.58A4.09,4.09,0,0,1,149.21,161.1Zm4.92-4.19c0-3.7-1.76-6.09-6.72-9.13l-9.1-5.58c-5.72-3.5-9.19-6.14-9.19-13.25,0-9.4,8.81-16.48,20.5-16.48a54.18,54.18,0,0,1,10.63,1.32L158,131c-3.46-6.41-9.65-13-15.72-13-2.75,0-4.67,1.75-4.67,4.26,0,3.64,2.09,6.07,8.93,10.44L153.3,137c4.18,2.74,8.46,6.45,8.46,13.18A16.76,16.76,0,0,1,145,167.25c-6.17,0-13.84-3.4-17-12.91l9-5.88c3.59,8.94,7.59,13.29,12.21,13.29A4.72,4.72,0,0,0,154.13,156.91Z"/><path class="cls-1" d="M209.14,69.24a7.26,7.26,0,0,0-14.51,0,7.26,7.26,0,0,0,14.51,0Zm-7.21,6.56a6.56,6.56,0,1,1-.08-13.12,6.56,6.56,0,1,1,.08,13.12Z"/><path class="cls-1" d="M749.14,21.92c2.4,0,7.22,4.91,9.71,9.91l.4.79L762.8,18l-.22-.12c-1.85-1-4.45-1.52-7.94-1.52-7.73,0-15.52,5.23-15.66,16.9h-4.05l-.7,3.68H739V60.79a45,45,0,0,1-1.79,14l-.14.42H753.7l-.15-.43c-1.73-4.76-1.87-9.72-1.87-14V36.93h7.5l.59-3.68H751c-2.12-4.35-3.23-7.61-3.23-9.44C747.75,22.56,748.21,21.92,749.14,21.92Zm1.35,11.79.09.19H759l-.39,2.38H751V60.79c0,4.21.14,9.06,1.75,13.78H737.94a46.21,46.21,0,0,0,1.69-13.78V36.28H735l.45-2.38h4.16v-.33c0-8.24,4.64-16.57,15-16.57a16.65,16.65,0,0,1,7.41,1.32l-3,12.45c-2.5-4.55-7.14-9.5-9.89-9.5-1.3,0-2,.93-2,2.54C747.09,25.76,748.27,29.19,750.49,33.71Z"/><path class="cls-1" d="M721.75,42.83c1.63,0,3.62,1.39,8.1,8.14l.5.76,1.81-18.54,0-.27-.26-.07a15.18,15.18,0,0,0-3.53-.42c-5.22,0-8.13,2.34-9.79,8-.61-3-1.66-6.4-2.91-8.13l-.16-.23-.26.14c-3.85,2.12-7.16,3.65-11.78,5.73l-.33.15.18.31a22.13,22.13,0,0,1,3.16,12V62.85a30.13,30.13,0,0,1-1.87,11.94l-.16.43h16.84l-.16-.44a28.77,28.77,0,0,1-1.95-11.93V51.69C719.21,44.9,719.8,42.83,721.75,42.83Zm-1.37,31.74h-15a30.62,30.62,0,0,0,1.75-11.72V50.38a22.62,22.62,0,0,0-3.07-12c3.59-1.62,7.3-3.31,11.25-5.47,1.31,2,2.39,5.94,2.9,9.06l.26,1.61.37-1.59c1.75-7.41,5.08-8.93,9.53-8.93a15,15,0,0,1,3.09.33l-1.61,16.45c-4.3-6.37-6.31-7.68-8.13-7.68-2.71,0-3.19,3.07-3.19,9.51V62.85A29.56,29.56,0,0,0,720.38,74.57Z"/><path class="cls-1" d="M640.74,113.08l.17-.44h-18l.17.44a39,39,0,0,1,2.44,13.9v25.18a45.46,45.46,0,0,1-2.2,14l-.14.43h17.55l-.15-.43a42.86,42.86,0,0,1-2.19-14V127A39.2,39.2,0,0,1,640.74,113.08Zm-.92,52.86H624.08a46.33,46.33,0,0,0,2.09-13.78V127a39.79,39.79,0,0,0-2.32-13.69H640A40.12,40.12,0,0,0,637.74,127v25.18A44,44,0,0,0,639.82,165.94Z"/><path class="cls-1" d="M670.05,166.34l.06.25H684l-.14-.43a40,40,0,0,1-2.2-14V135.68c0-7.67-3.26-11.89-9.18-11.89a12.49,12.49,0,0,0-10.94,6.85,23.64,23.64,0,0,0-2-6.91l-.14-.3-.29.15c-3.75,1.83-7.76,3.52-11.88,5.24L647,129l.16.31c1.77,3.64,1.85,5.6,1.85,9.7v15.9c0,4.76-.18,7.26-1.86,11.28l-.19.45h16.81l-.2-.46c-1.77-4-1.86-6.64-1.86-11.27V134.31a5.05,5.05,0,0,1,4-2.16c2,0,3.29.85,3.29,5.08V152.4C669,158.83,669.32,163.26,670.05,166.34Zm-4.36-34.84a5.72,5.72,0,0,0-4.6,2.5l-.07.09v20.77c0,4.55.08,7.18,1.72,11.08H647.89c1.55-3.86,1.73-6.51,1.73-11.08V139c0-4-.08-6.11-1.77-9.68,3.91-1.63,7.72-3.24,11.29-5a23,23,0,0,1,1.88,7.54l.09,1.33.54-1.22c2.08-4.7,6.14-7.51,10.85-7.51,7,0,8.53,6.11,8.53,11.24v16.48a40.9,40.9,0,0,0,2.09,13.78H670.63c-.68-3-1-7.34-1-13.54V137.23C669.63,133.16,668.49,131.5,665.69,131.5Z"/><path class="cls-1" d="M657.71,58.83c0-7-4.42-10.89-8.76-13.73l-6.72-4.26c-6.61-4.22-8.63-6.53-8.63-9.89,0-2.16,1.62-3.61,4-3.61,6.09,0,12.37,7,15.62,13.51l.48.95,2.55-19.88-.29-.06a55.52,55.52,0,0,0-11.06-1.41c-12.06,0-21.15,7.37-21.15,17.14,0,7.43,3.76,10.29,9.5,13.81l9.1,5.57c4.79,2.94,6.41,5.1,6.41,8.58a4.09,4.09,0,0,1-4.27,4.19c-4.39,0-8.23-4.33-11.75-13.25l-.15-.37-10.13,6.59.07.24c3.23,10,11.55,13.59,17.7,13.59A17.4,17.4,0,0,0,657.71,58.83ZM640.25,75.89c-6.16,0-13.83-3.4-17-12.91l9-5.88c3.59,8.94,7.59,13.29,12.21,13.29a4.72,4.72,0,0,0,4.92-4.84c0-3.7-1.76-6.09-6.72-9.13l-9.1-5.58c-5.72-3.5-9.19-6.14-9.19-13.25,0-9.4,8.81-16.49,20.5-16.49a53.44,53.44,0,0,1,10.63,1.33l-2.21,17.2c-3.46-6.4-9.65-12.94-15.72-12.94-2.75,0-4.67,1.75-4.67,4.26,0,3.63,2.09,6.07,8.93,10.44l6.72,4.26c4.18,2.74,8.46,6.45,8.46,13.18A16.76,16.76,0,0,1,640.25,75.89Z"/><path class="cls-1" d="M893.29,69.24a7.26,7.26,0,0,0-14.51,0,7.26,7.26,0,0,0,14.51,0Zm-7.21,6.56A6.56,6.56,0,1,1,886,62.68a6.56,6.56,0,1,1,.08,13.12Z"/><path class="cls-1" d="M686.69,75l.09.18h12.79l-.14-.42A33.8,33.8,0,0,1,697.64,63V31.9l-.47.23a80.35,80.35,0,0,1-13.23,5.31l-.31.1.09.31a35.3,35.3,0,0,1,1.22,10.48V65.68A5.15,5.15,0,0,1,681,67.6c-2.45,0-3.36-1.37-3.36-5.08V32.16l-.46.21a131.63,131.63,0,0,1-13.91,5.32l-.32.11.12.31a24.05,24.05,0,0,1,1.86,10.3V64.08c0,7.66,3.26,11.88,9.18,11.88a12.54,12.54,0,0,0,11-6.68A22.54,22.54,0,0,0,686.69,75Zm-12.58.27c-7.05,0-8.53-6.11-8.53-11.23V48.41a24.13,24.13,0,0,0-1.79-10.21,130.45,130.45,0,0,0,13.2-5V62.52c0,3,.48,5.73,4,5.73A5.79,5.79,0,0,0,685.51,66l.08-.09V48.33A36.62,36.62,0,0,0,684.44,38,81.71,81.71,0,0,0,697,33V63a34.19,34.19,0,0,0,1.69,11.56H687.2a22.14,22.14,0,0,1-1.53-6.42l-.09-1.22L685.05,68A12,12,0,0,1,674.11,75.31Z"/><path class="cls-1" d="M859.18,76.29c7.1,0,11.79-4.53,12.87-12.42l.08-.57-.63.28a17.22,17.22,0,0,1-6.74,1.89c-7.61,0-10.58-5.22-10.58-18.61,0-7.71,1.71-8.7,3.2-8.7,3.28,0,6.82,4.53,11.12,11.33l.45.7,3-16-.24-.1a22.37,22.37,0,0,0-8.32-1.66c-13,0-21.4,8.91-21.4,22.71C842,68,848.72,76.29,859.18,76.29Zm4.19-43.21a21.62,21.62,0,0,1,7.83,1.51l-2.59,13.86c-4.23-6.6-7.78-10.94-11.23-10.94-2.7,0-3.85,2.79-3.85,9.35,0,13.86,3.15,19.26,11.23,19.26a16.37,16.37,0,0,0,6.56-1.76c-1.18,7.18-5.57,11.28-12.14,11.28-10.06,0-16.56-8-16.56-20.5C842.62,41.74,850.76,33.08,863.37,33.08Z"/><path class="cls-1" d="M794,21.71l.17-.44h-18l.17.44a39.29,39.29,0,0,1,2.44,13.91V60.79a45.48,45.48,0,0,1-2.2,14l-.14.42H794l-.15-.43a42.78,42.78,0,0,1-2.2-14V35.62A39.29,39.29,0,0,1,794,21.71Zm-.92,52.86H777.3a46.29,46.29,0,0,0,2.1-13.78V35.62a39.89,39.89,0,0,0-2.32-13.7H793.2A40,40,0,0,0,791,35.62V60.79A43.9,43.9,0,0,0,793.05,74.57Z"/><path class="cls-1" d="M833.36,161.1c-4.39,0-8.23-4.33-11.75-13.24l-.15-.37-10.13,6.58.07.24c3.23,10,11.55,13.59,17.7,13.59a17.4,17.4,0,0,0,17.46-17.71c0-7-4.43-10.89-8.76-13.72l-6.73-4.27c-6.6-4.22-8.62-6.53-8.62-9.89,0-2.16,1.62-3.61,4-3.61,6.09,0,12.36,7,15.62,13.51l.48,1,2.55-19.89-.29-.06a55.72,55.72,0,0,0-11.06-1.4c-12.06,0-21.15,7.36-21.15,17.13,0,7.44,3.76,10.3,9.5,13.81l9.1,5.57c4.79,2.94,6.41,5.1,6.41,8.58A4.09,4.09,0,0,1,833.36,161.1Zm4.92-4.19c0-3.7-1.76-6.09-6.72-9.13l-9.1-5.58c-5.72-3.5-9.19-6.14-9.19-13.25,0-9.4,8.81-16.48,20.5-16.48a54.1,54.1,0,0,1,10.63,1.32L842.19,131c-3.46-6.41-9.65-13-15.72-13-2.75,0-4.67,1.75-4.67,4.26,0,3.64,2.09,6.07,8.93,10.44l6.72,4.26c4.18,2.74,8.46,6.45,8.46,13.18a16.76,16.76,0,0,1-16.81,17.06c-6.17,0-13.84-3.4-17-12.91l9-5.88c3.59,8.94,7.59,13.29,12.21,13.29A4.72,4.72,0,0,0,838.28,156.91Z"/><path class="cls-1" d="M595.91,113.29c2.41,0,7.22,4.9,9.72,9.9l.39.8,3.55-14.64-.22-.12c-1.85-1-4.45-1.51-7.94-1.51-7.72,0-15.52,5.22-15.66,16.89h-4l-.69,3.68h4.74v23.87a44.7,44.7,0,0,1-1.79,14l-.14.43h16.66l-.16-.44c-1.72-4.76-1.87-9.72-1.87-14V128.29H606l.6-3.68h-8.79c-2.12-4.35-3.24-7.61-3.24-9.44C594.52,113.92,595,113.29,595.91,113.29Zm1.35,11.79.09.18h8.43l-.38,2.38h-7.6v24.52c0,4.2.14,9.06,1.75,13.78H584.71a45.92,45.92,0,0,0,1.69-13.78V127.64h-4.61l.45-2.38h4.16v-.33c0-8.24,4.64-16.56,15-16.56a16.51,16.51,0,0,1,7.41,1.32l-3,12.44c-2.5-4.55-7.13-9.49-9.89-9.49-1.3,0-2,.92-2,2.53C593.87,117.12,595,120.55,597.26,125.08Z"/><path class="cls-1" d="M517.11,76.29c7.1,0,11.79-4.53,12.87-12.42l.07-.57-.63.28a17.13,17.13,0,0,1-6.74,1.89c-7.61,0-10.58-5.22-10.58-18.61,0-7.71,1.71-8.7,3.2-8.7,3.28,0,6.82,4.53,11.13,11.33l.44.7,3-16-.25-.1a22.33,22.33,0,0,0-8.32-1.66c-13,0-21.4,8.91-21.4,22.71C499.89,68,506.65,76.29,517.11,76.29Zm4.18-43.21a21.62,21.62,0,0,1,7.83,1.51l-2.59,13.86c-4.22-6.6-7.77-10.94-11.23-10.94-2.7,0-3.85,2.79-3.85,9.35,0,13.86,3.15,19.26,11.23,19.26a16.42,16.42,0,0,0,6.57-1.76c-1.18,7.18-5.58,11.28-12.14,11.28-10.07,0-16.57-8-16.57-20.5C500.54,41.74,508.69,33.08,521.29,33.08Z"/><path class="cls-1" d="M491.28,161.1c-4.38,0-8.23-4.33-11.75-13.24l-.14-.37-10.14,6.58.08.24c3.22,10,11.54,13.59,17.69,13.59a17.4,17.4,0,0,0,17.46-17.71c0-7-4.42-10.89-8.76-13.72L489,132.2c-6.61-4.22-8.62-6.53-8.62-9.89,0-2.16,1.61-3.61,4-3.61,6.08,0,12.36,7,15.61,13.51l.48,1L503,113.28l-.29-.06a55.62,55.62,0,0,0-11.06-1.4c-12.06,0-21.15,7.36-21.15,17.13,0,7.44,3.76,10.3,9.5,13.81l9.11,5.57c4.79,2.94,6.4,5.1,6.4,8.58A4.09,4.09,0,0,1,491.28,161.1Zm4.92-4.19c0-3.7-1.76-6.09-6.71-9.13l-9.11-5.58c-5.72-3.5-9.19-6.14-9.19-13.25,0-9.4,8.82-16.48,20.5-16.48a54.1,54.1,0,0,1,10.63,1.32L500.11,131c-3.45-6.41-9.64-13-15.71-13-2.75,0-4.67,1.75-4.67,4.26,0,3.64,2.08,6.07,8.92,10.44l6.72,4.26c4.19,2.74,8.46,6.45,8.46,13.18A16.75,16.75,0,0,1,487,167.25c-6.16,0-13.83-3.4-17-12.91l9.06-5.88c3.59,8.94,7.58,13.29,12.2,13.29A4.72,4.72,0,0,0,496.2,156.91Z"/><path class="cls-1" d="M551.22,69.24a7.26,7.26,0,0,0-14.51,0,7.26,7.26,0,0,0,14.51,0ZM544,75.8a6.56,6.56,0,1,1-.08-13.12A6.56,6.56,0,1,1,544,75.8Z"/><path class="cls-1" d="M706,167.65c7.09,0,11.78-4.52,12.86-12.41l.08-.58-.63.28a17.06,17.06,0,0,1-6.74,1.89c-7.61,0-10.58-5.22-10.58-18.61,0-7.71,1.71-8.7,3.2-8.7,3.28,0,6.82,4.53,11.13,11.33l.44.7,3-16-.25-.1a22.33,22.33,0,0,0-8.32-1.66c-13,0-21.4,8.91-21.4,22.71C688.74,159.35,695.5,167.65,706,167.65Zm4.18-43.21A21.84,21.84,0,0,1,718,126l-2.59,13.86c-4.22-6.6-7.77-10.94-11.23-10.94-2.7,0-3.85,2.8-3.85,9.35,0,13.86,3.15,19.26,11.23,19.26a16.53,16.53,0,0,0,6.56-1.75C716.92,162.9,712.52,167,706,167c-10.07,0-16.57-8-16.57-20.5C689.39,133.1,697.53,124.44,710.14,124.44Z"/><path class="cls-1" d="M458.26,74.77l-.19.45h16.81l-.2-.45c-1.77-4-1.85-6.64-1.85-11.27V43a5,5,0,0,1,4-2.17c2,0,3.28.85,3.28,5.09V61c0,6.43.34,10.85,1.07,13.93l.06.25h13.91L495,74.8a40,40,0,0,1-2.2-14V44.31c0-7.66-3.26-11.88-9.18-11.88a12.44,12.44,0,0,0-10.93,6.85,23.71,23.71,0,0,0-2-6.92l-.14-.29-.29.14c-3.74,1.83-7.75,3.53-11.87,5.24l-.32.14.15.31c1.78,3.63,1.85,5.6,1.85,9.69V63.5C460.12,68.26,460,70.76,458.26,74.77ZM459,37.92c3.91-1.63,7.72-3.24,11.3-5a23.47,23.47,0,0,1,1.88,7.54l.08,1.33.54-1.22c2.08-4.71,6.14-7.51,10.85-7.51,7.05,0,8.53,6.11,8.53,11.23V60.79a40.58,40.58,0,0,0,2.1,13.78h-12.5c-.68-3-1-7.33-1-13.53V45.87c0-4.07-1.14-5.74-3.93-5.74a5.75,5.75,0,0,0-4.61,2.51l-.06.09V63.5c0,4.54.07,7.18,1.71,11.07H459.05c1.55-3.85,1.72-6.5,1.72-11.07V47.59C460.77,43.62,460.69,41.49,459,37.92Z"/><path class="cls-1" d="M451.89,21.71l.17-.44h-18l.17.44a39.07,39.07,0,0,1,2.44,13.91V60.79a45.48,45.48,0,0,1-2.2,14l-.14.42h17.55l-.14-.43a42.78,42.78,0,0,1-2.2-14V35.62A39.29,39.29,0,0,1,451.89,21.71ZM451,74.57H435.23a46.28,46.28,0,0,0,2.09-13.78V35.62A39.89,39.89,0,0,0,435,21.92h16.12a40.22,40.22,0,0,0-2.23,13.7V60.79A43.91,43.91,0,0,0,451,74.57Z"/><path class="cls-1" d="M732.85,167.82a7.22,7.22,0,1,0-7.29-7.22A7.23,7.23,0,0,0,732.85,167.82ZM732.77,154a6.57,6.57,0,1,1,.08,13.13,6.57,6.57,0,1,1-.08-13.13Z"/><path class="cls-1" d="M568.53,134.2c1.62,0,3.62,1.38,8.09,8.13l.51.77,1.81-18.55,0-.27-.26-.07a15.12,15.12,0,0,0-3.53-.42c-5.22,0-8.13,2.34-9.78,8-.62-3-1.67-6.4-2.91-8.12l-.17-.24-.25.14c-3.86,2.13-7.17,3.65-11.79,5.73l-.32.15.17.31a22.13,22.13,0,0,1,3.16,12v12.47a30.13,30.13,0,0,1-1.87,11.94l-.16.44H568.1l-.17-.44A28.84,28.84,0,0,1,566,154.21V143.06C566,136.27,566.58,134.2,568.53,134.2Zm-1.37,31.74h-15a30.67,30.67,0,0,0,1.75-11.73V141.74a22.55,22.55,0,0,0-3.07-12c3.59-1.62,7.3-3.31,11.25-5.47,1.31,2,2.39,6,2.9,9.06l.26,1.61.38-1.59c1.74-7.41,5.07-8.93,9.52-8.93a14.94,14.94,0,0,1,3.09.33l-1.6,16.45c-4.3-6.37-6.32-7.67-8.13-7.67-2.72,0-3.2,3.06-3.2,9.51v11.15A29.45,29.45,0,0,0,567.16,165.94Z"/><path class="cls-1" d="M520.88,167.33a12.54,12.54,0,0,0,11-6.69,22.54,22.54,0,0,0,1.55,5.76l.09.19h12.79l-.14-.43a33.77,33.77,0,0,1-1.78-11.79V123.26l-.47.23a80.8,80.8,0,0,1-13.24,5.31l-.31.1.1.31a35.61,35.61,0,0,1,1.21,10.48V157a5.15,5.15,0,0,1-3.94,1.93c-2.45,0-3.36-1.38-3.36-5.09V123.53l-.46.21A128.78,128.78,0,0,1,510,129.05l-.32.11.12.32a23.87,23.87,0,0,1,1.86,10.3v15.66C511.7,163.1,515,167.33,520.88,167.33Zm-10.31-37.77a132.77,132.77,0,0,0,13.19-5v29.34c0,3,.48,5.74,4,5.74a5.82,5.82,0,0,0,4.52-2.25l.07-.09V139.69a36.62,36.62,0,0,0-1.15-10.36,82.22,82.22,0,0,0,12.56-5v30.06a34.22,34.22,0,0,0,1.68,11.57H534a22.53,22.53,0,0,1-1.53-6.43l-.09-1.22-.52,1.11a12.06,12.06,0,0,1-11,7.27c-7,0-8.53-6.11-8.53-11.23V139.78A24.28,24.28,0,0,0,510.57,129.56Z"/><rect class="cls-2" width="1252.58" height="182.72"/></g></g></svg>