<svg xmlns="http://www.w3.org/2000/svg" viewBox="0 0 709.68 709.68"><defs><style>.cls-1{fill:#fff;}.cls-2{fill:none;}</style></defs><title>Reel-Loop</title><g id="Layer_2" data-name="Layer 2"><g id="Layer_1-2" data-name="Layer 1"><path class="cls-1" d="M377.49,61.53,364,72.42v.09L402.8,76l-.29,3.3-44.17-4,.27-3,15.22-12.13C389,48.05,398.77,42.46,399.75,31.56c.74-8.34-3.71-14.37-14.43-15.33a25.57,25.57,0,0,0-20.52,7.5L362.92,21c4-3.61,11.15-9.07,23.25-8,12.55,1.12,18.19,8.27,17.27,18.63C402.32,44.16,391,50.64,377.49,61.53Z"/><path class="cls-1" d="M435,89C421.86,85,411.22,72.52,418.11,49.62s22.68-27.47,35.81-23.52S477.6,42.55,470.7,65.45,448.11,93,435,89Zm18-59.72c-11.18-3.37-25.12.79-31.32,21.41S424.78,82.37,436,85.73s25-.73,31.21-21.34S464.15,32.64,453,29.27Z"/><path class="cls-1" d="M484.94,108.2l-3.3-1.63L508.1,53l-18-1.81.32-3.13,19.84,1.8,2.8,1.39Z"/><path class="cls-1" d="M511.65,125.7c-8.54-6.08-10-11.64-10.83-14.6l3.27-1.74c.86,2.76,2,8.18,9.69,13.68,11.61,8.27,24,9,37.29-9.7-5.34.83-13.46.35-22.68-6.22-11.09-7.9-13.31-18.74-5.57-29.6,7.58-10.64,19.6-10.55,30.39-2.87,11.84,8.44,14,22.39,1.5,39.93C539.5,135.93,525.07,135.26,511.65,125.7Zm18.83-21c9.74,6.94,17.8,6.58,22.57,5.91,9.88-15,7.81-26.52-1.63-33.24s-19.2-6.67-25.6,2.32S521,97.88,530.48,104.66Z"/><path class="cls-1" d="M593.32,208.54l8.85-33c-.84-1-1.66-2.09-2.48-3.2L588.18,156.8l-21.43,15.89-2.19-3,51-37.8,14,18.92c10.79,14.56,11.5,25.26,1.6,32.6-7.83,5.81-17.08,4.3-26.17-4.88l-9,33.66Zm33.57-55.92-11.73-15.81-24.39,18.07,11.34,15.3c9.75,13.16,19,16.18,26.81,10.37C637.12,174.47,636.47,165.56,626.89,152.62Z"/><path class="cls-1" d="M648.9,218.31c5.7,12.16,1.49,22.26-10.84,28l-2,.94L619,210.89c-11,5.69-14.33,14.94-8.59,27.19,4.53,9.66,10.55,12.53,12.22,13.27l-1.88,2.51c-1.91-.83-8.57-4.21-13.65-15-6.48-13.83-2.32-25.33,11.09-31.62S643.51,206.82,648.9,218.31Zm-27.07-8.75,15.58,33.24c10-4.77,13.26-13.13,8.53-23.21C641.49,210.1,632.19,205.42,621.83,209.56Z"/><path class="cls-1" d="M669,274.66c3.35,13-2.65,22.15-15.83,25.55l-2.14.55-10-38.92c-11.91,3.54-16.85,12-13.47,25.13,2.66,10.34,8,14.27,9.55,15.31l-2.3,2.11c-1.73-1.17-7.65-5.72-10.64-17.3-3.82-14.79,2.4-25.32,16.74-29S665.81,262.37,669,274.66Zm-25-13.6,9.16,35.54c10.67-2.85,15.46-10.45,12.68-21.23C663.22,265.22,654.94,258.9,644,261.06Z"/><path class="cls-1" d="M631.67,322.42l-.45-3.65,64.84-7.94.45,3.65Z"/><path class="cls-1" d="M86.33,481.43l16.2,6.27.08,0L86.19,452.28l3-1.39,18.67,40.22-2.75,1.28L87,485.28c-18.07-7-27.82-12.75-37.75-8.14-7.6,3.52-10.6,10.39-6.06,20.15a25.58,25.58,0,0,0,16.75,14l-1.44,3c-5.14-1.68-13.44-5.13-18.55-16.14-5.31-11.43-1.93-19.9,7.5-24.27C58.88,468.61,70.13,475.15,86.33,481.43Z"/><path class="cls-1" d="M81.37,417.91c3.14,13.34-2.38,28.82-25.67,34.3S20.57,446.3,17.43,433s2.41-28.73,25.69-34.21S78.23,404.56,81.37,417.91ZM20.66,432.2c2.67,11.37,13.25,21.35,34.2,16.42s25.87-18.56,23.2-29.93S64.92,397.4,44,402.33,18,420.82,20.66,432.2Z"/><path class="cls-1" d="M73,365l.24,3.67-59.59,3.85L21.1,389l-2.87,1.29L9.87,372.25l-.2-3.12Z"/><path class="cls-1" d="M74.83,333.15c-1,10.44-5.09,14.49-7.24,16.69l-3.14-2c2-2.12,6.1-5.79,7-15.22,1.36-14.2-4.14-25.26-27-27.45,3.39,4.2,7,11.48,6,22.75-1.3,13.55-9.58,20.9-22.86,19.63-13-1.25-18.93-11.7-17.67-24.89,1.38-14.47,12.39-23.31,33.82-21.26C69.76,303.93,76.39,316.76,74.83,333.15Zm-27.64-5.78c1.14-11.91-3.2-18.7-6.17-22.5-17.92-1.06-26.87,6.49-28,18s3.82,20,14.81,21S46.08,339,47.19,327.37Z"/><path class="cls-1" d="M105.73,221l-33,8.84c-.43,1.22-1,2.49-1.53,3.75l-7.69,17.73L88,262l-1.47,3.37L28.27,240.05l9.38-21.6c7.21-16.63,16.12-22.59,27.42-17.68,9,3.88,12.27,12.64,8.87,25.1l33.62-9.08ZM40.52,219.9,32.69,238l27.85,12.09,7.58-17.47c6.52-15,4.52-24.52-4.43-28.4C54.32,200.11,46.93,205.13,40.52,219.9Z"/><path class="cls-1" d="M86.41,168c7.68-11,18.53-12.42,29.7-4.63l1.81,1.26-23,33c10.45,6.73,20.1,4.94,27.84-6.15,6.1-8.76,5.58-15.4,5.39-17.22l3.1.37c.24,2.07.64,9.54-6.19,19.35-8.74,12.52-20.78,14.67-32.93,6.2S79.15,178.41,86.41,168Zm6,27.82,21-30.11c-9.11-6.24-18-4.92-24.36,4.21C83,178.51,83.6,188.91,92.36,195.81Z"/><path class="cls-1" d="M125.16,122.43c9.59-9.41,20.51-8.79,30.05.93l1.55,1.58L128.07,153.1c9,8.54,18.85,8.57,28.5-.91,7.61-7.47,8.33-14.1,8.47-15.92l3,.94c-.15,2.08-1.13,9.49-9.67,17.86-10.9,10.7-23.13,10.59-33.5,0S116.1,131.32,125.16,122.43Zm.71,28.43,26.2-25.71c-7.8-7.81-16.77-8.15-24.72-.36C119.87,132.14,118.54,142.47,125.87,150.86Z"/><path class="cls-1" d="M185.18,130.85l-2.94,2.22L143,80.89l2.94-2.22Z"/><path class="cls-1" d="M595.56,523.63l-2.67-17.16-.07-.06-22.43,31.92-2.71-1.91,25.49-36.28,2.49,1.75,2.89,19.24c3,19.16,2.88,30.46,11.84,36.76,6.84,4.81,14.29,4,20.48-4.83a25.63,25.63,0,0,0,3.77-21.52l3.33-.25c1.11,5.28,2.27,14.19-4.71,24.13C626,565.73,617,567,608.49,561.06,598.18,553.81,598.22,540.8,595.56,523.63Z"/><path class="cls-1" d="M543,559.69c10-9.39,26.15-12.35,42.54,5.07S598,598.14,588,607.53s-26.09,12.29-42.47-5.14S533,569.08,543,559.69Zm42.74,45.43c8.51-8,11.87-22.15-2.88-37.83s-29-13.13-37.52-5.12-11.87,22,2.88,37.7S577.25,613.12,585.76,605.12Z"/><path class="cls-1" d="M501.41,593.35l3.07-2L537.6,641l10.56-14.68,2.55,1.84-11.48,16.28-2.6,1.74Z"/><path class="cls-1" d="M472.9,607.73c9.54-4.35,15.08-2.84,18.06-2.08l-.13,3.7c-2.81-.63-8.06-2.38-16.68,1.55-13,5.93-19.81,16.22-10.25,37.15,2-5,6.43-11.84,16.72-16.54,12.39-5.65,22.89-2.15,28.43,10,5.42,11.89-.67,22.25-12.72,27.76-13.22,6-26.38.91-35.32-18.67C450.12,626.73,457.92,614.57,472.9,607.73Zm8.81,26.83c-10.88,5-14.59,12.12-16.4,16.58,8,16.06,19.05,20,29.6,15.21S510.28,653.07,505.7,643,492.34,629.7,481.71,634.56Z"/><path class="cls-1" d="M360.33,637l24.17,24.17c1.27-.24,2.64-.39,4-.55l19.19-2.2-3-26.51,3.66-.42,7.23,63.07-23.4,2.68c-18,2.07-27.62-2.66-29-14.91-1.11-9.69,4.82-16.94,17.32-20.23l-24.68-24.58Zm31.64,57,19.56-2.24-3.46-30.16-18.92,2.17c-16.27,1.86-23.49,8.34-22.38,18C367.93,692,376,695.9,392,694.06Z"/><path class="cls-1" d="M324.07,680.28c-13.38-1.14-20-9.83-18.86-23.4l.19-2.2,40.05,3.42c.6-12.41-5.78-19.88-19.25-21-10.63-.91-16.13,2.87-17.6,3.94l-1.24-2.87c1.68-1.24,7.94-5.33,19.85-4.31,15.22,1.3,23.1,10.65,21.84,25.41S336.72,681.36,324.07,680.28Zm21.12-19.06-36.58-3.13c-.85,11,4.74,18,15.83,19C334.89,678,343.6,672.26,345.19,661.22Z"/><path class="cls-1" d="M265.24,669.5C252.3,665.9,247.37,656.13,251,643l.59-2.13,38.74,10.77c2.88-12.09-2-20.61-15-24.23-10.28-2.86-16.38-.16-18,.62l-.68-3c1.88-.91,8.79-3.77,20.31-.56,14.71,4.09,20.73,14.73,16.76,29S277.47,672.9,265.24,669.5Zm24.27-14.83-35.37-9.84c-2.87,10.67,1.32,18.61,12.05,21.59C276.29,669.23,285.91,665.22,289.51,654.67Z"/><path class="cls-1" d="M242.52,613.31l3.39,1.44-25.54,60.12L217,673.43Z"/><circle class="cls-2" cx="354.84" cy="354.84" r="354.84"/></g></g></svg>