<svg xmlns="http://www.w3.org/2000/svg" viewBox="0 0 709.68 709.68"><defs><style>.cls-1,.cls-2{fill:none;}.cls-1{stroke:#ffe527;stroke-miterlimit:10;stroke-width:0.5px;}</style></defs><title>Title-1_2</title><g id="Layer_2" data-name="Layer 2"><g id="Layer_1-2" data-name="Layer 1"><path class="cls-1" d="M384.15,27.77l-2.48,35.42a35.26,35.26,0,0,0,1.64,14.25l-17.43-1.22a38.19,38.19,0,0,0,3.6-13.88L372,26.92l-1.14-.08c-5.65-.4-9.28,3.37-13.8,12.68l1.7-17.23L398,25l-.88,17.28c-3-10.48-6.09-14.07-11.73-14.47Z"/><path class="cls-1" d="M430.67,43.13l-5.09,17c-3-7.28-4.76-9.38-6.61-9.74-2.25-.45-3.29,1.86-4.58,8.45l-2.16,11a29.15,29.15,0,0,0-.39,12.2l-15.61-3.07a30.38,30.38,0,0,0,4.18-11.46l2.4-12.23A22.55,22.55,0,0,0,402,42.67c4.46-1,8.32-2,12.69-3.35,1.05,2.3,1.34,6.78,1.24,9.85,3.09-6.82,6.68-8,11.42-7.11A14.21,14.21,0,0,1,430.67,43.13Z"/><path class="cls-1" d="M445.91,91.32a14.29,14.29,0,0,1,.14-5.73c-3.79,2.64-8.22,3.78-12.82,2.28-5.22-1.7-7.48-6.15-5.9-11,1.93-5.93,8.38-6.67,15.25-7.36,7.85-.8,9-1.2,9.63-3.07l1.32-4c1.45-4.45,1.81-8.21-1.62-9.33-2.41-.79-4.11.73-5.06,3.61a20.05,20.05,0,0,0-.72,8l-11.44-4.6.58-1.79C437.74,50.79,445,46.77,454.9,50c9.67,3.16,12.38,9.65,8.79,20.64l-3.61,11.07c-1.88,5.77-2.56,8.91-2,13.58Zm.75-7.86,2.52-7.72c.64-1.95.19-2.44-1.21-2.9-4.52-1.47-6.28-.32-7.4,3.11s0,6.2,2.85,7.14A9.11,9.11,0,0,0,446.66,83.46Z"/><path class="cls-1" d="M510.24,74.34c-3.93,1.58-6.63,4.38-11.11,8.78l-21.59,21.41-5.62-2.69,3-30.28c.62-6.43,1.14-10.18.23-14l16.57,7.92a11.94,11.94,0,0,0-2.5,3.71,30,30,0,0,0-2.43,7.57l-3,16.92L495.54,81a24.26,24.26,0,0,0,3.79-5.64,15.93,15.93,0,0,0,1.59-5.42Z"/><path class="cls-1" d="M531.06,112.65l-17.63-11.41c-3,6.28-2.82,11.46,4.34,16.1a18.27,18.27,0,0,0,8.11,3,14.69,14.69,0,0,1-19.19,2c-8.74-5.66-10.3-16.83-3.35-27.56,6.69-10.33,17.31-15,27.29-8.51,8.54,5.53,8.4,14,3.72,21.26Zm-7.16-11.57c4.76-7.36,5-10.8,2.83-12.23s-5.75.28-10.52,7.65c-.49.76-1,1.51-1.4,2.32l5.16,3.34C521.9,103.41,522.33,103.49,523.9,101.08Z"/><path class="cls-1" d="M532,125l19.4-24.07c2.63-3.26,4.68-5.81,5.71-9.83a88,88,0,0,0,14,4.62l-29.69,36.85c-2.93,3.64-4.45,5.78-5.68,10.06l-12.33-9.93C527.25,130.57,529,128.63,532,125Z"/><path class="cls-1" d="M591.31,165.22c-10.45,9.47-22.9,11.12-30.55,2.68a9.05,9.05,0,0,1-2.16-8.12l-4.3.14L550,155.18l32-29a24.56,24.56,0,0,0,6.51-8.45c4.46,2.49,8.88,4.68,13.31,6.75l-17,15.42a11.4,11.4,0,0,1,11.43,3.7C600.88,148.79,600.91,156.52,591.31,165.22Zm-12.11-6.29c8.75-7.93,10.16-11.86,7.69-14.71a6.83,6.83,0,0,0-4.42-2.19l-16.71,15.14c-3.47,3.14-2.94,6.53-1.51,8.11C566.4,167.65,570.69,166.64,579.2,158.93Z"/><path class="cls-1" d="M588.19,202.34a14.39,14.39,0,0,1,3.63-4.44c-4.62-.23-8.82-2-11.54-6-3.09-4.54-2.15-9.44,2.05-12.3,5.16-3.5,10.71-.14,16.57,3.52,6.7,4.17,7.86,4.57,9.49,3.46l3.53-2.39c3.86-2.63,6.45-5.38,4.43-8.37-1.43-2.1-3.71-1.94-6.22-.24a20.05,20.05,0,0,0-5.49,5.92l-6.24-10.64,1.56-1.06c6.58-4.47,14.78-3.2,20.63,5.42,5.72,8.41,3.89,15.2-5.67,21.7l-9.64,6.54c-5,3.41-7.47,5.48-9.9,9.5Zm5.41-5.75,6.72-4.56c1.69-1.16,1.64-1.82.81-3-2.67-3.93-4.76-4.09-7.75-2.07s-3.82,4.88-2.12,7.39A8.92,8.92,0,0,0,593.6,196.59Z"/><path class="cls-1" d="M631.83,208.05c-1.76.89-2.25,4.09-2.89,11.13l-.51,5.32c-.34,3.49-1.52,8.78-6.85,11.49-6.72,3.43-15.22.67-19-6.79a18.13,18.13,0,0,1,1.19-18.09l9.38,3.79c-4.75,8-5.37,13.13-4,15.83.74,1.46,2,2.19,3.56,1.41,1.83-.93,2.66-2.92,3.1-8.57l.6-7.67c.54-6.53,1.43-10.57,6.1-13,6.36-3.24,14.85-.11,19.91,9.64a28.91,28.91,0,0,1,3,9.26l-13.68,5.31c3.88-5.57,5.44-13.35,3.21-17.74C634.17,208,633,207.45,631.83,208.05Z"/><path class="cls-1" d="M642,269.62,635,249.86c-6.18,3.17-9.2,7.38-6.33,15.41a18.4,18.4,0,0,0,4.63,7.32,14.7,14.7,0,0,1-16.49-10c-3.51-9.8,2-19.63,14.08-23.94,11.58-4.14,22.85-1.38,26.85,9.81,3.43,9.58-1.84,16.26-10,19.16Zm1.33-13.54c8.26-3,10.57-5.52,9.68-8s-4.74-3.27-13-.32c-.85.31-1.7.61-2.52,1l2.07,5.79C640.37,256.72,640.66,257.05,643.36,256.08Z"/><path class="cls-1" d="M626.5,297.28c-2.17-9.86,4.22-18.23,16.72-21,12.33-2.71,23.43,2.32,26.39,15.78a21.9,21.9,0,0,1,.16,8.36l-15.18.48c6.21-6.15,9.47-10.39,8.77-13.6-.51-2.32-3.24-2.89-9.57-1.5-12.66,2.78-17.92,6.71-16.16,14.72a17.73,17.73,0,0,0,3.42,6.38C633.21,307.56,628,304,626.5,297.28Z"/><path class="cls-1" d="M632.89,335.21a14.43,14.43,0,0,1,5.33-2.11c-3.91-2.46-6.7-6.09-7.11-10.91-.48-5.47,2.73-9.29,7.79-9.73,6.21-.53,9.42,5.11,12.74,11.16,3.81,6.92,4.63,7.83,6.59,7.66l4.25-.36c4.66-.41,8.26-1.54,7.95-5.14-.22-2.53-2.28-3.5-5.3-3.24a20.18,20.18,0,0,0-7.69,2.47l-.24-12.32,1.88-.16c7.92-.69,14.45,4.42,15.35,14.8.88,10.13-4,15.16-15.55,16.16l-11.6,1c-6,.52-9.21,1.12-13.28,3.45Zm7.53-2.38,8.09-.7c2-.18,2.32-.78,2.19-2.25-.41-4.74-2.16-5.91-5.75-5.59s-5.72,2.38-5.46,5.41A8.92,8.92,0,0,0,640.42,332.83Z"/><path class="cls-1" d="M630,407.65l1.14-13.24c3.5-.52,9.73-.23,14,.14l15,1.3c4.17.36,5.5-.76,5.71-3.21a5.52,5.52,0,0,0-2-4.54L646,386.56a45.53,45.53,0,0,0-14.24,1L633,373.34l28.92,2.49c4.16.36,5.49-.76,5.7-3.13a5.37,5.37,0,0,0-2-4.53L645,366.39c-4.66-.4-7.28-.54-11.52.9l1.36-15.77c3.93,2.07,6.53,2.46,11.19,2.86l15.85,1.37c4.08.35,6.13.45,10-1,1.29,4.06,2.65,8.29,4.2,12.29a22.86,22.86,0,0,1-8.1,1.36c4.79,2.64,7.12,7.2,6.72,11.78-.42,4.9-3.53,7.51-8.91,7.87,5,2.66,7.6,7.32,7.19,12.14-.5,5.72-4.85,8.47-12.29,7.83l-16.42-1.42A41.1,41.1,0,0,0,630,407.65Z"/><path class="cls-1" d="M642.05,451.94c-14.24-3.87-21.73-13.21-18.92-23.58a7.92,7.92,0,0,1,3-4.61l-5.38-1.46a29.88,29.88,0,0,0-12-1.32l4.15-15.28a30,30,0,0,0,11.06,5l27.94,7.59c5.3,1.44,7.46,1.95,12.6,1.47.45,4.29,1.2,8.4,2,12.87a26.31,26.31,0,0,1-6.84.18,11.18,11.18,0,0,1,3.2,11.67C661,451.23,654.55,455.34,642.05,451.94Zm-1.26-13.51c11.4,3.09,15.55,2.18,16.56-1.54a6.8,6.8,0,0,0-.55-4.82L635,426.16c-4.51-1.23-7.08,1-7.64,3.1C626.55,432.35,629.71,435.42,640.79,438.43Z"/><path class="cls-1" d="M325.52,681.91,328,646.49a35.47,35.47,0,0,0-1.63-14.26l17.42,1.22a38.65,38.65,0,0,0-3.6,13.89l-2.48,35.42,1.15.08c5.64.39,9.28-3.38,13.79-12.68L351,687.38l-39.26-2.74.88-17.28c3,10.48,6.08,14.07,11.73,14.46Z"/><path class="cls-1" d="M279,666.55l5.09-17c3,7.28,4.76,9.38,6.61,9.74,2.25.44,3.29-1.86,4.59-8.46l2.15-10.94a29,29,0,0,0,.4-12.21l15.61,3.07a30.25,30.25,0,0,0-4.18,11.47l-2.41,12.23a22.43,22.43,0,0,0,.8,12.52c-4.47,1-8.32,2-12.69,3.35-1.06-2.29-1.34-6.78-1.24-9.85-3.1,6.83-6.68,8-11.43,7.11A14.87,14.87,0,0,1,279,666.55Z"/><path class="cls-1" d="M263.77,618.36a14.48,14.48,0,0,1-.15,5.73c3.8-2.64,8.23-3.79,12.82-2.29,5.23,1.71,7.49,6.15,5.91,11-1.93,5.92-8.39,6.66-15.25,7.36-7.86.8-9,1.19-9.63,3.06l-1.32,4.06c-1.45,4.44-1.82,8.2,1.61,9.32,2.42.79,4.12-.72,5.06-3.61a20.17,20.17,0,0,0,.73-8L275,649.53l-.59,1.8c-2.46,7.56-9.73,11.57-19.63,8.34C245.11,656.52,242.39,650,246,639L249.59,628c1.89-5.76,2.56-8.91,2-13.57Zm-.76,7.86-2.51,7.72c-.64,1.95-.2,2.44,1.21,2.89,4.52,1.48,6.28.33,7.39-3.1s0-6.2-2.84-7.14A9,9,0,0,0,263,626.22Z"/><path class="cls-1" d="M199.43,635.33c3.94-1.57,6.64-4.37,11.11-8.78l21.59-21.4,5.63,2.69-3,30.28c-.63,6.43-1.14,10.18-.23,14l-16.58-7.93a11.82,11.82,0,0,0,2.5-3.71,29.52,29.52,0,0,0,2.44-7.56l3-16.93-11.73,12.76a23.45,23.45,0,0,0-3.79,5.64,15.87,15.87,0,0,0-1.59,5.42Z"/><path class="cls-1" d="M178.62,597l17.62,11.41c3-6.27,2.83-11.46-4.33-16.09a18.38,18.38,0,0,0-8.12-3,14.7,14.7,0,0,1,19.2-2c8.74,5.66,10.3,16.83,3.35,27.57-6.69,10.32-17.32,15-27.3,8.51-8.53-5.53-8.4-14-3.72-21.27Zm7.16,11.57c-4.77,7.37-5,10.81-2.84,12.23s5.75-.28,10.52-7.64c.49-.76,1-1.52,1.4-2.32l-5.16-3.34C187.77,606.27,187.34,606.18,185.78,608.59Z"/><path class="cls-1" d="M177.72,584.68l-19.4,24.08c-2.62,3.25-4.68,5.81-5.71,9.83a87.54,87.54,0,0,0-14-4.63l29.68-36.84c2.94-3.64,4.45-5.79,5.69-10.06L186.34,577C182.43,579.1,180.65,581,177.72,584.68Z"/><path class="cls-1" d="M118.36,544.46c10.46-9.47,22.9-11.13,30.56-2.68a9,9,0,0,1,2.15,8.12l4.3-.14,4.3,4.74-32,29a24.41,24.41,0,0,0-6.51,8.44c-4.46-2.48-8.89-4.67-13.31-6.75l17-15.42a11.42,11.42,0,0,1-11.43-3.69C108.79,560.88,108.76,553.16,118.36,544.46Zm12.12,6.28c-8.75,7.93-10.16,11.87-7.69,14.72a6.85,6.85,0,0,0,4.42,2.19l16.71-15.14c3.46-3.14,2.93-6.54,1.5-8.12C143.27,542,139,543,130.48,550.74Z"/><path class="cls-1" d="M121.48,507.33a14.41,14.41,0,0,1-3.62,4.45c4.62.23,8.82,2,11.54,6,3.08,4.54,2.15,9.44-2.06,12.29-5.15,3.51-10.71.14-16.56-3.51-6.7-4.17-7.87-4.57-9.49-3.47l-3.53,2.4c-3.87,2.63-6.46,5.38-4.43,8.36,1.43,2.1,3.7,2,6.21.24a20.15,20.15,0,0,0,5.5-5.91l6.23,10.63-1.56,1.06c-6.58,4.47-14.78,3.2-20.63-5.41-5.71-8.41-3.88-15.21,5.68-21.7l9.63-6.55c5-3.41,7.48-5.47,9.9-9.5Zm-5.41,5.76-6.71,4.56c-1.7,1.15-1.65,1.81-.82,3,2.68,3.93,4.77,4.1,7.75,2.07s3.83-4.88,2.12-7.39A8.89,8.89,0,0,0,116.07,513.09Z"/><path class="cls-1" d="M77.85,501.62c1.75-.89,2.24-4.08,2.89-11.13l.51-5.32c.34-3.48,1.51-8.77,6.85-11.49,6.72-3.42,15.21-.66,19,6.79a18.11,18.11,0,0,1-1.18,18.09l-9.38-3.78c4.74-8,5.37-13.13,4-15.84-.75-1.46-2-2.18-3.57-1.4-1.82.93-2.65,2.92-3.09,8.57l-.6,7.67c-.54,6.53-1.43,10.57-6.11,13-6.36,3.23-14.85.11-19.91-9.65a29,29,0,0,1-3-9.26L78,482.52c-3.89,5.56-5.45,13.35-3.21,17.73C75.5,501.71,76.68,502.22,77.85,501.62Z"/><path class="cls-1" d="M67.65,440.05l7.07,19.77c6.18-3.17,9.2-7.39,6.33-15.42a18.43,18.43,0,0,0-4.62-7.32,14.69,14.69,0,0,1,16.48,10c3.51,9.81-2,19.63-14.08,23.94C67.25,475.21,56,472.45,52,461.25c-3.43-9.57,1.85-16.25,10-19.15ZM66.31,453.6c-8.26,2.95-10.56,5.52-9.68,8s4.74,3.27,13,.31c.85-.3,1.7-.61,2.52-1l-2.07-5.79C69.31,453,69,452.63,66.31,453.6Z"/><path class="cls-1" d="M83.17,412.4c2.17,9.85-4.22,18.22-16.71,21C54.12,436.08,43,431.05,40.07,417.6a21.75,21.75,0,0,1-.16-8.37l15.17-.48c-6.2,6.15-9.47,10.4-8.76,13.6.51,2.32,3.24,2.9,9.57,1.51,12.65-2.79,17.92-6.71,16.16-14.72a17.69,17.69,0,0,0-3.42-6.39C76.46,402.12,81.69,405.67,83.17,412.4Z"/><path class="cls-1" d="M76.78,374.47a14.36,14.36,0,0,1-5.33,2.11c3.92,2.45,6.7,6.08,7.12,10.9.47,5.48-2.73,9.29-7.8,9.73-6.21.54-9.41-5.11-12.74-11.16-3.81-6.91-4.63-7.83-6.59-7.66l-4.25.37c-4.65.4-8.26,1.54-7.95,5.13.22,2.54,2.28,3.51,5.31,3.25a20,20,0,0,0,7.68-2.48L52.48,397l-1.88.16c-7.93.69-14.46-4.43-15.36-14.8-.88-10.13,4-15.17,15.56-16.17l11.6-1c6-.53,9.2-1.13,13.28-3.46Zm-7.53,2.38-8.09.7c-2,.18-2.31.78-2.19,2.25.41,4.73,2.16,5.9,5.76,5.59S70.44,383,70.18,380A8.86,8.86,0,0,0,69.25,376.85Z"/><path class="cls-1" d="M79.65,302l-1.14,13.23c-3.5.52-9.73.23-14-.14l-15-1.29c-4.17-.36-5.5.76-5.71,3.21a5.47,5.47,0,0,0,2,4.53l17.89,1.55a45.59,45.59,0,0,0,14.25-1l-1.23,14.22-28.92-2.5c-4.17-.36-5.5.76-5.7,3.13a5.42,5.42,0,0,0,2,4.54l20.59,1.77c4.66.41,7.28.55,11.52-.9l-1.36,15.77c-3.94-2.07-6.54-2.46-11.2-2.86l-15.84-1.36c-4.09-.36-6.14-.45-10,1-1.3-4.06-2.66-8.3-4.21-12.3a23.36,23.36,0,0,1,8.1-1.36A12.22,12.22,0,0,1,35,329.53c.43-4.9,3.53-7.51,8.91-7.87-5-2.66-7.6-7.33-7.18-12.15.49-5.71,4.85-8.47,12.28-7.82L65.4,303.1A41.38,41.38,0,0,0,79.65,302Z"/><path class="cls-1" d="M67.62,257.74c14.25,3.87,21.74,13.21,18.92,23.57a7.94,7.94,0,0,1-3,4.62l5.38,1.46a30.07,30.07,0,0,0,12.05,1.32L96.78,304a29.88,29.88,0,0,0-11.06-5l-27.93-7.59c-5.3-1.44-7.46-1.94-12.6-1.47-.45-4.28-1.2-8.4-2-12.87a27.32,27.32,0,0,1,6.85-.18,11.19,11.19,0,0,1-3.21-11.66C48.65,258.44,55.12,254.34,67.62,257.74Zm1.26,13.51c-11.39-3.1-15.55-2.19-16.56,1.53a6.79,6.79,0,0,0,.56,4.83l21.76,5.91c4.51,1.22,7.08-1,7.64-3.11C83.12,277.32,80,274.26,68.88,271.25Z"/><circle class="cls-2" cx="354.84" cy="354.84" r="354.84"/></g></g></svg>