<svg xmlns="http://www.w3.org/2000/svg">
<defs>
<font id="Canoodle-Regular" horiz-adv-x="400" >
  <font-face 
    font-family="Canoodle"
    font-weight="400"
    font-stretch="normal"
    units-per-em="1000"
    panose-1="0 0 0 0 0 0 0 0 0 0"
    ascent="962"
    descent="-38"
    x-height="642"
    cap-height="652"
    bbox="-47 -218 856 922"
    underline-thickness="0"
    underline-position="0"
    unicode-range="U+000D-F6C3"
  />
<missing-glyph horiz-adv-x="738" 
d="M196 630l12 -13q9 -9 9 -16q0 -3 -3 -8l-49 -49q55 -54 55 -61q0 -2 -3 -5l-15 -16q-9 -11 -22 -11l-54 53q-52 -53 -61 -53l-6 3q-2 2 -8 6.5t-8 6.5q-11 9 -11 22l53 54l-53 51q-2 2 -2 6q0 5 8 13l12 12q11 9 17 9q5 0 8 -3l50 -48l52 52q3 3 5 3q6 0 14 -8zM201 418
l12 -11q8 -8 8 -14q0 -4 -3 -8l-46 -44q52 -47 52 -55q0 -1 -3 -4l-13 -14q-10 -10 -21 -10l-51 47q-48 -47 -58 -47q-2 0 -4 3l-16 11q-10 10 -10 20l50 48l-50 46q-2 2 -2 5q0 5 7 12l12 11q8 8 15 8q6 0 8 -2l47 -44l48 47q3 3 6 3q6 0 12 -8zM558 633l18 -16
q12 -10 12 -19q0 -6 -4 -11l-67 -61q75 -68 75 -77q0 -2 -4 -6l-20 -20q-14 -14 -31 -14l-74 66q-71 -66 -84 -66q-3 0 -7 4q-18 12 -22 16q-15 13 -15 28l72 67l-72 65q-3 2 -3 7q0 8 10 16l18 16q13 11 22 11q7 0 12 -4l68 -61l70 66q6 4 8 4q7 0 18 -11zM235 222l15 -16
q11 -11 11 -19q0 -4 -4 -10l-58 -61q65 -66 65 -76q0 -2 -3 -5l-18 -20q-11 -13 -26 -13l-65 64q-62 -65 -73 -65q-2 0 -6 4q-17 14 -19 16q-13 11 -13 27l63 67l-64 63q-2 2 -2 7q0 7 9 16l15 16q14 10 20 10t10 -3l59 -60l61 65q4 3 7 3q8 0 16 -10zM466 392l14 -11
q9 -9 9 -15q0 -4 -3 -8l-53 -45q59 -49 59 -57q0 -2 -3 -4l-16 -15q-12 -10 -24 -10l-58 49q-57 -49 -66 -49q-3 0 -5 3q-15 9 -18 12q-11 9 -11 20l56 50l-57 47q-2 4 -2 6q0 1 8 12l14 11q11 9 18 9q4 0 9 -3l53 -45l56 48q3 3 6 3q6 0 14 -8zM437 193l11 -11q8 -8 8 -14
q0 -4 -3 -7l-44 -44q49 -45 49 -53q0 -1 -2 -5l-13 -14q-11 -9 -20 -9l-48 46q-47 -47 -54 -47q-1 0 -2.5 1.5t-2.5 1.5q-11 9 -14 12q-10 8 -10 19l47 48l-47 45q-2 1 -2 5t7 11l11 11q8 8 15 8q4 0 7 -3l44 -42l46 46q2 2 5 2q5 0 12 -7zM682 211l13 -13q10 -10 10 -18

<glyph glyph-name=".notdef" horiz-adv-x="738" 
d="M196 630l12 -13q9 -9 9 -16q0 -3 -3 -8l-49 -49q55 -54 55 -61q0 -2 -3 -5l-15 -16q-9 -11 -22 -11l-54 53q-52 -53 -61 -53l-6 3q-2 2 -8 6.5t-8 6.5q-11 9 -11 22l53 54l-53 51q-2 2 -2 6q0 5 8 13l12 12q11 9 17 9q5 0 8 -3l50 -48l52 52q3 3 5 3q6 0 14 -8zM201 418
l12 -11q8 -8 8 -14q0 -4 -3 -8l-46 -44q52 -47 52 -55q0 -1 -3 -4l-13 -14q-10 -10 -21 -10l-51 47q-48 -47 -58 -47q-2 0 -4 3l-16 11q-10 10 -10 20l50 48l-50 46q-2 2 -2 5q0 5 7 12l12 11q8 8 15 8q6 0 8 -2l47 -44l48 47q3 3 6 3q6 0 12 -8zM558 633l18 -16
q12 -10 12 -19q0 -6 -4 -11l-67 -61q75 -68 75 -77q0 -2 -4 -6l-20 -20q-14 -14 -31 -14l-74 66q-71 -66 -84 -66q-3 0 -7 4q-18 12 -22 16q-15 13 -15 28l72 67l-72 65q-3 2 -3 7q0 8 10 16l18 16q13 11 22 11q7 0 12 -4l68 -61l70 66q6 4 8 4q7 0 18 -11zM235 222l15 -16
q11 -11 11 -19q0 -4 -4 -10l-58 -61q65 -66 65 -76q0 -2 -3 -5l-18 -20q-11 -13 -26 -13l-65 64q-62 -65 -73 -65q-2 0 -6 4q-17 14 -19 16q-13 11 -13 27l63 67l-64 63q-2 2 -2 7q0 7 9 16l15 16q14 10 20 10t10 -3l59 -60l61 65q4 3 7 3q8 0 16 -10zM466 392l14 -11
q9 -9 9 -15q0 -4 -3 -8l-53 -45q59 -49 59 -57q0 -2 -3 -4l-16 -15q-12 -10 -24 -10l-58 49q-57 -49 -66 -49q-3 0 -5 3q-15 9 -18 12q-11 9 -11 20l56 50l-57 47q-2 4 -2 6q0 1 8 12l14 11q11 9 18 9q4 0 9 -3l53 -45l56 48q3 3 6 3q6 0 14 -8zM437 193l11 -11q8 -8 8 -14
q0 -4 -3 -7l-44 -44q49 -45 49 -53q0 -1 -2 -5l-13 -14q-11 -9 -20 -9l-48 46q-47 -47 -54 -47q-1 0 -2.5 1.5t-2.5 1.5q-11 9 -14 12q-10 8 -10 19l47 48l-47 45q-2 1 -2 5t7 11l11 11q8 8 15 8q4 0 7 -3l44 -42l46 46q2 2 5 2q5 0 12 -7zM682 211l13 -13q10 -10 10 -18
q0 -4 -3 -9l-53 -53q59 -58 59 -67q0 -2 -3 -5l-16 -18q-11 -11 -23 -11l-58 57q-55 -58 -65 -58q-2 0 -6 4q-2 2 -8.5 7t-8.5 7q-11 11 -11 24l56 59l-57 55q-2 2 -2 7q0 6 8 14l14 14q9 9 17 9q5 0 9 -3l53 -53l55 57q3 3 6 3q7 0 14 -9zM666 382l9 -10q7 -7 7 -12
q0 -4 -3 -7l-36 -38q41 -42 41 -48l-2 -4l-11 -12q-6 -8 -17 -8l-40 40q-37 -41 -45 -41q-1 0 -4 3l-12 10q-7 7 -7 17l38 42l-39 40q-1 1 -1 4q0 6 5 11l10 9q7 7 12 7q4 0 6 -2l37 -38l38 41q2 2 4 2q4 0 10 -6zM674 579l6 -7q5 -5 5 -9q0 -1 -2 -5l-25 -27q28 -30 28 -35
v-1q-1 -1 -1 -2l-8 -9q-6 -6 -11 -6l-27 30q-27 -30 -31 -30q-1 0 -3 2l-8 7q-6 6 -6 13l27 30l-27 29q-1 1 -1 3q0 4 4 8l6 7q8 5 9 5q2 0 4 -2l25 -27l26 29q2 2 3 2q4 0 7 -5zM310 597l6 -7q5 -5 5 -9q0 -1 -2 -5l-25 -27q28 -30 28 -35v-1q-1 -1 -1 -2l-8 -9
q-6 -6 -11 -6l-27 30q-27 -30 -31 -30q-1 0 -3 2l-8 7q-6 6 -6 13l27 30l-27 29q-1 1 -1 3q0 4 4 8l6 7q7 5 9 5t4 -2l25 -27l26 29q2 2 3 2q4 0 7 -5z" />
    <glyph glyph-name=".null" horiz-adv-x="0" 
 />
    <glyph glyph-name="nonmarkingreturn" horiz-adv-x="333" 
 />
    <glyph glyph-name="NULL" horiz-adv-x="0" 
 />
    <glyph glyph-name="NULL" horiz-adv-x="0" 
 />
    <glyph glyph-name="CR" unicode="&#xd;" horiz-adv-x="290" 
 />
    <glyph glyph-name="space" unicode=" " horiz-adv-x="290" 
 />
    <glyph glyph-name="exclam" unicode="!" horiz-adv-x="170" 
d="M45 202q-15 350 -15 437v36q4 11 20 11l62 1q22 0 22 -26l2 -461q-12 -21 -47 -21h-12q-31 0 -32 23zM45 58q0 21 11.5 38.5t29.5 17.5q54 0 54 -53q0 -20 -13.5 -37t-31.5 -17q-20 0 -35 14.5t-15 36.5z" />
    <glyph glyph-name="quotedbl" unicode="&#x22;" horiz-adv-x="256" 
d="M55 716l26 -1q29 0 31 -13q-5 -53 -10 -123q-5 -65 -11 -77.5t-35 -12.5q-4 0 -6 1.5t-5.5 4.5t-6.5 5l-8 203v3q0 10 25 10zM169 714l26 -1q29 0 31 -13q-5 -53 -10 -123q-5 -65 -11 -77.5t-35 -12.5q-4 0 -6 1.5t-5.5 4.5t-6.5 5l-8 203v3q0 10 25 10z" />
    <glyph glyph-name="numbersign" unicode="#" horiz-adv-x="510" 
d="M254 140v9l14 72l-89 -1l-15 -70q-2 -22 -23 -22h-73q-6 0 -6 13v9l14 70h-31q-15 1 -15 27l1 26q2 30 23 31q6 0 19 -0.5t20 -0.5l24 121h-46q-15 1 -15 27l1 26q2 30 23 31q10 0 27.5 -0.5t26.5 -0.5l14 71q5 27 27 27h62q19 0 19 -16l-18 -83h88l14 71q5 27 27 27h62
q19 0 19 -16l-18 -83q49 -1 49 -9q0 -4 0.5 -18t0.5 -18q0 -23 -14 -34l-52 -1l-26 -123q65 -1 65 -10q0 -4 0.5 -18t0.5 -18q0 -23 -14 -34l-69 -1l-15 -72q-2 -22 -23 -22h-73q-6 0 -6 13zM196 302h89l24 123l-88 -1z" />
    <glyph glyph-name="dollar" unicode="$" horiz-adv-x="372" 
d="M166 710h22v-38q128 0 128 -156q-3 -25 -19 -27h-56q-16 1 -21.5 13.5t-4 27.5t-3.5 27.5t-20 12.5h-2l-2 1l1 -156q6 -6 32 -30t36.5 -34.5t30.5 -34.5t29 -41.5t17 -43.5t8 -53q0 -77 -38.5 -125t-113.5 -54v-39l-26 -2v40q-120 3 -120 167q0 16 6.5 19t35.5 3h18
q19 0 29 -6q10 -7 14.5 -40.5t16.5 -41.5l1 202q-46 36 -75.5 68.5t-41.5 61t-15 46t-3 42.5q0 60 37.5 102t98.5 49v40zM240 164q0 59 -51 114l1 -183q50 7 50 69zM128 500q5 -29 37 -62v132q-39 -8 -39 -51q0 -5 2 -19z" />
    <glyph glyph-name="percent" unicode="%" horiz-adv-x="620" 
d="M194 6v9l141 645q5 27 27 27h38q19 0 19 -16l-146 -656q-2 -22 -23 -22h-50q-6 0 -6 13zM244 651q16 -39 16 -173q0 -32 -2.5 -51.5t-13 -44t-35.5 -36.5t-66 -12t-74 17.5t-36 47.5q-3 41 -3 80q0 15 0.5 32t1.5 37.5t1 33.5v2q3 29 6 43.5t13.5 31.5t31.5 24t56 7
q90 0 104 -39zM178 620q-6 17 -35 17q-23 0 -29 -18q-6 -108 -6 -180v-27q2 -12 9.5 -17.5t27.5 -5.5q16 0 24 5t9.5 11t1.5 16v7q0 151 -2 192zM574 323q16 -39 16 -173q0 -32 -2.5 -51.5t-13 -44t-35.5 -36.5t-66 -12t-74 17.5t-36 47.5q-3 40 -3 80q0 15 0.5 32t1.5 37.5
t1 33.5v2q3 29 6 43.5t13.5 31.5t31.5 24t56 7q90 0 104 -39zM508 292q-6 17 -35 17q-23 0 -29 -18q-6 -108 -6 -180v-27q2 -12 9.5 -17.5t27.5 -5.5q16 0 24 5t9.5 11t1.5 16v7q0 151 -2 192z" />
    <glyph glyph-name="ampersand" unicode="&#x26;" horiz-adv-x="515" 
d="M302 18q-33 -15 -67 -15q-59 0 -112.5 38.5t-79.5 96.5q-13 31 -13 74q0 73 24 129t78 110q3 2 3 11q-50 46 -50 87q0 56 43 92.5t102 36.5q48 0 84.5 -36.5t36.5 -83.5q0 -13 -15 -18l-63 -16q-8 0 -12 6.5t-6 14.5t-11.5 14.5t-26.5 6.5q-25 -5 -25 -15q0 -18 11.5 -29
t25 -19t16.5 -18q2 -7 2 -18v-19q0 -30 -8.5 -38t-26 -11.5t-30.5 -17.5q-17 -19 -34.5 -77t-17.5 -108q0 -92 65 -92q30 0 49.5 8.5t28.5 26t12 28t5 28.5q0 2 0.5 4.5t0.5 3.5q1 3 1 4q0 7 -6 12h-10q-34 0 -68 -37h-4q-6 0 -14 10l-16 80q0 15 25.5 26.5t45.5 13.5
q25 7 75 11q23 6 50 37q5 7 9 20t10 20t20 7h67q9 -6 9 -17q0 -25 -10.5 -54t-29.5 -42q-1 -1 -15.5 -9t-15.5 -9q-5 -4 -8 -7.5t-3.5 -5.5t-1 -9t-0.5 -11q0 -3 -0.5 -8t-0.5 -8q-2 -33 -4 -51.5t-8 -46.5t-15.5 -45.5t-27.5 -35.5t-43 -30z" />
    <glyph glyph-name="quotesingle" unicode="'" horiz-adv-x="142" 
d="M55 716l26 -1q29 0 31 -13q-5 -53 -10 -123q-5 -65 -11 -77.5t-35 -12.5q-4 0 -6 1.5t-5.5 4.5t-6.5 5l-8 203v3q0 10 25 10z" />
    <glyph glyph-name="parenleft" unicode="(" horiz-adv-x="286" 
d="M143 25q-39 28 -66.5 90.5t-37 116.5t-9.5 95q0 118 35 219t115 137q25 0 25 -18v-61q0 -5 -19.5 -28t-24.5 -36q-22 -43 -22 -193q0 -259 105 -301q12 -9 12 -22q0 -19 -15 -28h-16q-42 0 -82 29z" />
    <glyph glyph-name="parenright" unicode=")" horiz-adv-x="286" 
d="M143 25q-40 -29 -82 -29h-16q-15 9 -15 28q0 13 12 22q105 42 105 301q0 150 -22 193q-5 13 -24.5 36t-19.5 28v61q0 18 25 18q80 -36 115 -137t35 -219q0 -41 -9.5 -95t-37 -116.5t-66.5 -90.5z" />
    <glyph glyph-name="asterisk" unicode="*" horiz-adv-x="407" 
d="M339 493l14 -13q8 -6 8 -15t-7 -16l-85 -79q-8 -8 -10 -9q72 -45 95 -62.5t23 -30.5q0 -9 -10 -22q-7 -8 -25 -8l-98 61q1 -22 1 -55q0 -47 -8 -59.5t-35 -13.5q-8 0 -22 14l-3 98q-70 -66 -89 -66q-12 0 -26 14q-5 3 -5 14v9l103 97l-117 73q-5 4 -6 4q-7 4 -7 10
q0 1 6 13l12 15q10 10 19 10q7 0 15 -5q6 -4 27 -17.5t32 -19.5l32 -20l-3 117q0 15 21 15h22q23 0 26 -22q1 -24 1 -67v-30l68 64q5 4 5 5q5 4 11 4t15 -7z" />
    <glyph glyph-name="plus" unicode="+" horiz-adv-x="485" 
d="M224 544l34 -1q38 -2 40 -26l-2 -132q59 -1 90 -2t46.5 -4t18.5 -6.5t3 -10.5q0 -5 0.5 -21t0.5 -20q0 -29 -16 -44l-144 1q-1 -58 -2.5 -89.5t-5 -46.5t-6.5 -17.5t-11 -2.5q-5 0 -20 -1.5t-19 -1.5q-29 0 -44 16l1 144l-141 1q-17 1 -17 34l1 34q2 38 26 40l132 -2
l1 141q1 17 34 17z" />
    <glyph glyph-name="comma" unicode="," horiz-adv-x="160" 
d="M30 47q1 23 15 38t35 15t35.5 -14.5t14.5 -35.5q0 -61 -38 -124l-16 2l10 72q0 -3 -8 -3q-15 0 -31.5 12.5t-16.5 37.5z" />
    <glyph glyph-name="hyphen" unicode="-" horiz-adv-x="431" 
d="M30 325l1 29q2 32 23 34q12 0 34 -0.5t32 -0.5q260 -3 275 -8q5 -2 5 -8q0 -5 0.5 -21t0.5 -19q0 -25 -14 -38l-337 3h-5q-15 0 -15 29z" />
    <glyph glyph-name="period" unicode="." horiz-adv-x="160" 
d="M30 50q0 21 14.5 35.5t35.5 14.5t35.5 -14.5t14.5 -35.5t-14.5 -35.5t-35.5 -14.5t-35.5 14.5t-14.5 35.5z" />
    <glyph glyph-name="slash" unicode="/" horiz-adv-x="285" 
d="M30 6v9l117 645q5 27 27 27h62q19 0 19 -16l-123 -656q-2 -22 -23 -22h-73q-6 0 -6 13z" />
    <glyph glyph-name="zero" unicode="0" horiz-adv-x="369" 
d="M317 605q22 -79 22 -332q0 -39 -1 -64.5t-5.5 -62t-15 -59t-27 -45t-44 -33.5t-64.5 -11q-55 0 -99.5 34t-48.5 91q-4 68 -4 152q0 28 0.5 60.5t1.5 72.5t1 64v4q3 45 5.5 67.5t11.5 53.5t23 45.5t40 25.5t64 11q122 0 140 -74zM228 545q-2 13 -16 23t-30 10
q-32 0 -39 -35q-8 -165 -8 -344v-52q2 -23 12.5 -33.5t36.5 -10.5q16 0 26.5 5t14.5 15t5 18.5t1 23.5v12q0 289 -3 368z" />
    <glyph glyph-name="one" unicode="1" horiz-adv-x="170" 
d="M41 40q-11 110 -11 620q0 15 33 15l13 1h18h4l3 -1q25 0 30 -12v-16q0 -26 4.5 -184.5t4.5 -246.5q0 -184 -18 -188q-14 -3 -41 -3h-23q-14 0 -17 15z" />
    <glyph glyph-name="two" unicode="2" horiz-adv-x="366" 
d="M68 106v9q0 36 4.5 63t30.5 90t77 149q31 53 31 121q0 41 -33 41q-28 0 -39.5 -15.5t-14 -32t-9.5 -17.5h-40q-37 0 -44 14q0 1 -0.5 7.5t-0.5 8.5v9q0 128 138 128q75 0 111.5 -30.5t36.5 -104.5q0 -98 -26 -141q-110 -178 -110 -267q0 -15 11 -18h25q37 0 111 -4
q9 -6 9 -21l-2 -61q-3 -16 -11 -17q-5 0 -20 0.5t-25 0.5h-178q-5 -1 -7 -1q-18 0 -21 24q-4 33 -4 65z" />
    <glyph glyph-name="three" unicode="3" horiz-adv-x="406" 
d="M49 77q0 8 9 21q5 8 23 29.5t19 23.5q6 9 12 9q5 0 27 -20.5t42 -20.5q33 0 53.5 25t27 56t6.5 68q0 110 -72 122q-4 1 -17 2t-21 3t-16 8.5t-8 17.5q0 1 -1.5 24.5t-1.5 31.5v7q1 19 17 30t32 22.5t17 31.5q0 3 -22.5 4.5t-65 2t-45.5 0.5h-10q-24 0 -24 15v71
q0 18 22 22l285 -12q19 -2 19 -17v-8l-6 -58q-6 -8 -34.5 -40t-45.5 -57v-4q49 -34 77.5 -88.5t28.5 -119.5q0 -115 -52.5 -189.5t-149.5 -74.5q-35 0 -80 16.5t-45 45.5z" />
    <glyph glyph-name="four" unicode="4" horiz-adv-x="480" 
d="M250 17v145q0 14 -8 22q-33 3 -63 3q-15 0 -48 -1t-52 -1q-2 0 -9 -0.5t-11 -0.5q-28 0 -29 23q4 19 61 332q15 90 15 117q7 28 24 28h70q13 0 13 -18v-8l-56 -338v-6q0 -19 16 -19h67q10 0 10 19q0 4 -1 14.5t-1 15.5q0 50 8.5 59t50.5 9q2 0 15 -0.5t16 -0.5
q7 0 13.5 -5t6.5 -13v-98q0 -2 3.5 -5.5t6.5 -5.5l4 -3h66q11 0 11 -29l1 -14v-18q0 -2 -2 -7.5t-2 -8.5q-1 -10 -11 -16q-1 0 -7.5 -0.5t-7.5 -0.5h-62l1 -155q0 -27 -22 -27h-66q-15 0 -21 12z" />
    <glyph glyph-name="five" unicode="5" horiz-adv-x="403" 
d="M34 92q0 13 24.5 43t35.5 30l3 -1h4q2 -1 14 -10t16 -11.5t15 -9.5t18 -9.5t17 -5t19 -2.5q32 0 51.5 31t19.5 73q0 49 -27.5 84.5t-82.5 35.5q-46 0 -110 -31h-8q-13 0 -13 12v335q0 17 27 21h150q72 0 110 -3q18 -4 18 -36v-30q0 -32 -21 -32h-174q-3 0 -5.5 -5
t-2.5 -9q0 -19 3 -66t3 -56q1 -10 14 -10q10 1 28 1q176 0 192 -185q1 -7 1 -20q0 -54 -21.5 -104t-60.5 -80q-40 -31 -92 -31q-82 0 -154 61q-11 11 -11 20z" />
    <glyph glyph-name="six" unicode="6" horiz-adv-x="477" 
d="M30 303q0 99 29 192q58 187 178 187q103 0 150 -74q2 0 4 -13l-50 -49q-3 -4 -11 -4q-1 0 -30 17.5t-48 19.5h-4q-40 0 -73 -72t-33 -129q0 -11 7 -11q2 0 3 1q55 34 135 34q75 0 117.5 -50t42.5 -129q0 -106 -59.5 -161t-164.5 -55h-14q-61 9 -103 59.5t-59 111.5
t-17 125zM152 218q0 -48 26 -78.5t69 -30.5q5 0 19 2q78 12 78 113q0 73 -88 84h-9q-45 0 -70 -25.5t-25 -64.5z" />
    <glyph glyph-name="seven" unicode="7" horiz-adv-x="391" 
d="M69 16v5l162 515v7q0 9 -11 20h-178q-5 2 -11 24v15q0 2 -0.5 10.5t-0.5 14.5q0 33 12 41q30 2 55 2q59 0 243 -8q21 0 21 -20q0 -35 -21 -103l-158 -499q-6 -26 -14.5 -33t-28.5 -7h-21h-11.5h-13.5l-6 1q-18 0 -18 15z" />
    <glyph glyph-name="eight" unicode="8" horiz-adv-x="491" 
d="M259 0q-121 1 -175 59.5t-54 185.5q0 67 27.5 118t77.5 74l-3 6q-2 5 -13 16.5t-16.5 30.5t-5.5 59v6q1 63 43 92.5t111 29.5q64 0 103.5 -38.5t39.5 -97.5q0 -12 -1 -19q-2 -18 -5 -31.5t-5 -20t-6.5 -17.5t-6.5 -18q81 -68 90 -185q1 -10 1 -30q0 -95 -52.5 -157
t-149.5 -63zM131 262q0 -4 0.5 -10.5t0.5 -9.5q2 -34 4 -49.5t9 -37t19 -30t34.5 -15.5t55.5 -7h14q48 0 71.5 41.5t23.5 95.5q0 28 -6 48q-7 26 -21.5 42.5t-36 23t-35.5 8t-37 1.5h-9q-43 -4 -65 -30.5t-22 -70.5zM199 507q3 -48 53 -48q6 0 13.5 0.5t9.5 0.5q28 0 28 49
q0 31 -10 49t-41 18q-53 0 -53 -59v-10z" />
    <glyph glyph-name="nine" unicode="9" horiz-adv-x="477" 
d="M447 386q0 -99 -29 -192q-58 -187 -178 -187q-103 0 -150 74q-2 0 -4 13l50 49q3 4 11 4q1 0 30 -17.5t48 -19.5h4q40 0 73 72t33 129q0 11 -7 11q-2 0 -3 -1q-55 -34 -135 -34q-75 0 -117.5 50t-42.5 129q0 106 59.5 161t164.5 55h14q61 -9 103 -59.5t59 -111.5t17 -125
zM325 471q0 48 -26 78.5t-69 30.5q-5 0 -19 -2q-78 -12 -78 -113q0 -73 88 -84h9q45 0 70 25.5t25 64.5z" />
    <glyph glyph-name="colon" unicode=":" horiz-adv-x="160" 
d="M30 500q0 21 14.5 35.5t35.5 14.5t35.5 -14.5t14.5 -35.5t-14.5 -35.5t-35.5 -14.5t-35.5 14.5t-14.5 35.5zM30 50q0 21 14.5 35.5t35.5 14.5t35.5 -14.5t14.5 -35.5t-14.5 -35.5t-35.5 -14.5t-35.5 14.5t-14.5 35.5z" />
    <glyph glyph-name="semicolon" unicode=";" horiz-adv-x="160" 
d="M30 500q0 21 14.5 35.5t35.5 14.5t35.5 -14.5t14.5 -35.5t-14.5 -35.5t-35.5 -14.5t-35.5 14.5t-14.5 35.5zM30 47q1 23 15 38t35 15t35.5 -14.5t14.5 -35.5q0 -61 -38 -124l-16 2l10 72q0 -3 -8 -3q-15 0 -31.5 12.5t-16.5 37.5z" />
    <glyph glyph-name="less" unicode="&#x3c;" horiz-adv-x="494" 
d="M437 155l-386 68q-16 3 -16 8l-5 110q0 21 17 27l357 139q27 10 34 10q12 0 12 -12v-81q0 -15 -10 -20q-44 -16 -134 -43.5t-140 -46.5l-18 -7l-4 -3q-5 -4 -5 -6q0 -6 12 -6q6 -1 13 -2t27 -3t46 -4.5t83.5 -8.5t126.5 -14q17 -2 17 -22v-72q0 -13 -12 -13q-9 0 -15 2z
" />
    <glyph glyph-name="equal" unicode="=" horiz-adv-x="487" 
d="M30 271l1 28q2 31 26 33q14 0 39.5 -0.5t36.5 -0.5q297 -3 313 -8q6 -2 6 -8q0 -4 0.5 -19.5t0.5 -18.5q0 -24 -16 -36l-384 2h-6q-17 1 -17 28zM34 412l1 27q2 31 26 33q366 -4 385 -7q10 -3 10 -9q0 -4 0.5 -19.5t0.5 -19.5q0 -24 -16 -36l-384 3h-6q-17 1 -17 28z" />
    <glyph glyph-name="greater" unicode="&#x3e;" horiz-adv-x="494" 
d="M443 223l-386 -68q-6 -2 -15 -2q-12 0 -12 13v72q0 20 17 22q69 8 126.5 14t83.5 8.5t46 4.5t27 3t13 2q12 0 12 6q0 2 -5 6l-4 3l-18 7q-50 19 -140 46.5t-134 43.5q-10 5 -10 20v81q0 12 12 12q6 0 34 -10l357 -139q17 -6 17 -27l-5 -110q0 -5 -16 -8z" />
    <glyph glyph-name="question" unicode="?" horiz-adv-x="342" 
d="M126 207l-3 52q0 91 33 174q5 13 18.5 37.5t21.5 45.5t8 42q0 36 -32 36q-14 0 -24.5 -15.5t-16 -34t-13 -34t-16.5 -15.5h-4l-55 23q-13 6 -13 26q0 54 30.5 95t77.5 56q24 4 38 4q56 0 96 -34.5t40 -97.5q0 -50 -33 -106t-43 -90q-15 -148 -15 -158q-5 -21 -29 -21h-39
q-23 0 -27 15zM127 41q0 24 14 47.5t35 23.5q48 0 48 -60q0 -25 -18 -42t-41 -17q-17 0 -27.5 14.5t-10.5 33.5z" />
    <glyph glyph-name="at" unicode="@" horiz-adv-x="596" 
d="M250 232q-30 0 -53 16t-23 45q0 20 9.5 37t21 27.5t34 22t34 16t36.5 13.5l6 2q0 14 -0.5 20.5t-2 14t-5 10.5t-10.5 3q-12 0 -21.5 -15t-31.5 -15h-18q-30 0 -30 18q0 38 37 62t83 24q51 0 73 -32t22 -80v-4l-3 -125q5 -67 45 -67q6 0 9 1q34 12 34 137v23
q0 107 -55.5 187t-146.5 83q-63 0 -108 -37t-65 -92.5t-20 -121.5q0 -53 9 -104t29.5 -103.5t62 -88t98.5 -43.5h12q52 0 91 36h95q-67 -100 -193 -100q-86 0 -150 56.5t-94.5 140.5t-30.5 181q0 62 15.5 119.5t46 106t82.5 78t119 29.5q70 0 122.5 -25t83 -70t46.5 -98.5
t21 -119.5v-42q0 -32 -4.5 -61t-15.5 -61t-34.5 -51t-57.5 -19q-42 0 -79 22t-44 59q-5 5 -10 5q-6 0 -29.5 -9.5t-41.5 -10.5zM287 333q-9 0 -20 -7.5t-11 -14.5q0 -8 15 -9q30 0 30 16q0 15 -14 15z" />
    <glyph glyph-name="A" unicode="A" horiz-adv-x="356" 
d="M203 249h-52q-12 0 -14 -6v-16q0 -27 3.5 -91.5t3.5 -90.5v-17q-5 -8 -13 -8h-76q-5 0 -8.5 2t-5 4t-3 6.5t-1.5 7t-0.5 8t-0.5 6.5q-3 99 -3 202q0 41 -1.5 105t-1.5 88q0 74 11 119t43 75q32 31 102 31q117 0 124 -185l16 -438q0 -18 -42 -18h-17q-12 0 -26.5 5.5
t-15.5 12.5l-9 171q-2 23 -13 27zM130 364l2 -20q0 -2 4.5 -5t6.5 -3h54q5 0 8.5 2.5t5 8t2 9t1 10t0.5 7.5q-1 120 -9 161.5t-40 41.5q-16 0 -25.5 -10t-9.5 -26v-176z" />
    <glyph glyph-name="B" unicode="B" horiz-adv-x="358" 
d="M36 32q0 36 -1.5 106t-1.5 105l-3 432q0 15 20 23q9 0 33.5 1.5t43.5 1.5q119 0 164 -59q26 -44 26 -98q0 -48 -21 -94t-58 -78q0 -4 17 -16q12 -8 18 -13q55 -43 55 -140q0 -58 -22.5 -107.5t-60.5 -69.5q-1 -1 -3 -1t-4 -0.5t-4 -0.5q-44 -3 -109 -3h-69q-11 0 -20 11z
M122 592l3 -168h5q87 0 87 144q0 48 -63 48q-17 0 -26 -2q-6 -8 -6 -18v-4zM142 284v-180q0 -14 15 -14q37 0 53 32t16 74v9q1 4 1 13q0 30 -15.5 52.5t-42.5 22.5h-7q-2 0 -6 -0.5t-6 -0.5z" />
    <glyph glyph-name="C" unicode="C" horiz-adv-x="339" 
d="M132 558q-3 -78 -3 -361v-11q0 -19 1.5 -29t11.5 -20t30 -12q2 0 5 -0.5t4 -0.5q23 0 31 16.5t12 35t18 21.5h5q20 0 41 -11t21 -37v-5q-4 -56 -44.5 -89t-90.5 -33q-34 0 -59 10.5t-40 32.5t-25 44.5t-14 58t-5 60.5t-1 63q0 247 19 326q18 72 129 72q66 0 92.5 -33.5
t34.5 -102.5q-45 -36 -67 -36q-16 0 -26 33v1q-2 2 -3 5q-6 34 -35 34q-15 0 -28 -9.5t-14 -22.5z" />
    <glyph glyph-name="D" unicode="D" horiz-adv-x="376" 
d="M32 27l-2 635q0 20 25 20h18q157 0 215 -82t58 -277q0 -82 -19 -146t-68 -110.5t-125 -50.5h-6l-87 3zM132 171v-43q2 -8 25 -8q35 0 61 73.5t26 160.5q0 67 -18.5 129t-41.5 82q-19 17 -43 17q-13 0 -13 -19q0 -58 2 -188.5t2 -203.5z" />
    <glyph glyph-name="E" unicode="E" horiz-adv-x="286" 
d="M41 36q-11 337 -11 554q0 51 5.5 63.5t30.5 12.5h62q124 0 124 -21v-72q0 -3 -8 -11q-17 0 -48.5 1t-47.5 1q-20 0 -20 -20q0 -61 7 -142q3 -2 17 -2h17q41 0 42 -16l5 -87q0 -13 -33 -13h-15q-20 0 -23 1q-7 -6 -7 -30v-51q0 -34 1 -52q2 -14 6.5 -19t17.5 -5q11 0 34 1
t35 1q24 0 24 -19v-66q0 -25 -17 -25h-188q-7 0 -10 16z" />
    <glyph glyph-name="F" unicode="F" horiz-adv-x="300" 
d="M30 37l6 631q0 9 5 13.5t11 5.5t18 1q31 0 92 -2t91 -2q7 0 12 -4.5t5 -11.5v-69q0 -19 -19 -19h-93q-23 0 -23 -14v-245q0 -8 11 -11h21q34 0 45.5 -5.5t11.5 -29.5q0 -5 0.5 -16t0.5 -17q0 -38 -19 -38q-9 0 -25.5 3t-24.5 3q-10 0 -13 -4.5t-3 -15.5q0 -26 -0.5 -76
t-0.5 -75q0 -23 -35 -23h-34q-40 0 -40 21z" />
    <glyph glyph-name="G" unicode="G" horiz-adv-x="402" 
d="M30 311v8q0 35 0.5 58t4 64.5t10 70t20 63t32.5 55.5t48.5 35.5t66.5 14.5q100 0 146 -104v-10q0 -14 -7 -16l-81 -40q-21 65 -58 65q-38 0 -58.5 -68.5t-20.5 -162.5t19.5 -163t53.5 -69q27 0 43 8.5t23 27t8.5 35t1.5 46.5q0 33 -12 33h-53q-3 0 -7 6.5t-4 9.5v68
q0 4 3.5 9t7.5 5q6 0 49.5 1.5t51.5 1.5h10q31 0 37 -20q7 -37 7 -109q0 -71 -24 -139q-29 -81 -143 -81q-175 0 -175 297z" />
    <glyph glyph-name="H" unicode="H" horiz-adv-x="372" 
d="M33 31q0 5 -0.5 34.5t-0.5 35.5q0 1 -0.5 35t-1 95.5t-0.5 130.5q0 64 2 284q0 17 9.5 22t28.5 5q41 0 54 -6t13 -27q0 -29 -1.5 -87.5t-1.5 -87.5q0 -16 1.5 -52t1.5 -54q3 -12 20 -12q6 0 33.5 3.5t29.5 5.5l8 8l5 287q0 8 6.5 13t14.5 5h57q26 0 26 -42l5 -575v-4
q0 -31 -15 -31h-70q-18 0 -18 25v190q0 16 -13 22h-29q-60 0 -60 -26q0 -21 1.5 -63t1.5 -64v-35q0 -49 -11 -49h-81q-11 0 -15 14z" />
    <glyph glyph-name="I" unicode="I" horiz-adv-x="175" 
d="M30 48q0 124 4 310t4 275q0 8 7 13.5t15 5.5h59q26 0 26 -40q0 -5 -0.5 -14t-0.5 -12q0 -42 -5 -277t-5 -255v-3q0 -25 -9 -25h-83q-12 0 -12 22z" />
    <glyph glyph-name="J" unicode="J" horiz-adv-x="249" 
d="M86 107q30 0 30 226q0 74 -3 183.5t-3 115.5v5q-1 5 -1 7q0 15 6.5 19t19.5 4q23 0 71 -3q11 -6 11 -21q0 -16 1 -50t1 -54q0 -37 -0.5 -111.5t-0.5 -109.5q0 -46 -0.5 -74.5t-3 -62.5t-7 -54t-12.5 -41.5t-19.5 -33t-28.5 -22t-39 -14.5t-51 -4q-27 0 -27 19v58
q0 4 3.5 11t7.5 7h45z" />
    <glyph glyph-name="K" unicode="K" horiz-adv-x="388" 
d="M30 58l3 606q1 19 33 19q39 0 50.5 -4.5t11.5 -19.5v-11q0 -17 0.5 -120.5t0.5 -121.5q0 -6 5 -6q31 10 52.5 70t21.5 122v53q0 19 10 24.5t31 5.5q4 0 19.5 -0.5t19.5 -0.5q28 -1 28 -62v-4q0 -132 -75 -247q5 -2 13 -7.5t28 -29t35.5 -54.5t28 -89t12.5 -129v-20
q0 -31 -17 -31l-71 -1q-7 0 -7 22v23q0 27 -6 65t-18 80.5t-35.5 71.5t-53.5 30q-6 0 -12.5 -3t-6.5 -8q0 -52 -0.5 -137t-0.5 -118q0 -9 -2.5 -13.5t-18 -8.5t-45.5 -4h-23q-7 0 -10 10z" />
    <glyph glyph-name="L" unicode="L" horiz-adv-x="258" 
d="M32 107q1 74 6 251.5t5 273.5v5q3 38 9.5 46.5t38.5 8.5h21q36 0 36 -25q0 -24 -2 -73t-6 -171.5t-7 -291.5q0 -17 12 -21t36 -4h5q14 0 21.5 -1t14 -6.5t6.5 -16.5l-1 -51q0 -23 -19 -23q-88 -4 -148 -4h-5q-25 0 -25 36q0 8 1 26.5t1 40.5z" />
    <glyph glyph-name="M" unicode="M" horiz-adv-x="525" 
d="M30 40l1 12q24 566 29 597q3 18 8 21l45 2h1q79 0 86 -28l61 -220q43 182 56 214.5t39 32.5h8l66 -6q10 -1 17.5 -21t7.5 -31l40 -546v-27q-2 -10 -16 -10h-72q-15 1 -17 24q-2 29 -7.5 110t-17.5 305q-27 -92 -46 -144.5t-31.5 -72t-23.5 -19.5q-25 0 -31 5
q-10 7 -16 19.5t-10.5 31.5t-21.5 72t-42 119q-2 -21 -2 -182q0 -285 -19 -285l-82 1q-10 0 -10 26z" />
    <glyph glyph-name="N" unicode="N" horiz-adv-x="406" 
d="M243 76l-109 341q-1 -59 -1 -181l-1 -188q0 -18 -2.5 -22.5t-14.5 -7.5q-1 0 -12.5 -1t-20.5 -1q-52 0 -52 26v322q0 37 0.5 112.5t0.5 113.5q0 6 -0.5 18.5t-0.5 19.5q0 51 25 51l82 -1q22 0 28 -21q86 -279 109 -343l1 137q0 28 -1.5 85t-1.5 87q0 45 25 45l62 -1
q14 0 16 -16q1 -61 1 -183q0 -70 -1.5 -207.5t-1.5 -220.5q-3 -16 -21 -16l-71 1q-25 0 -38 51z" />
    <glyph glyph-name="O" unicode="O" 
d="M200 26q-43 0 -75.5 16.5t-50 41.5t-28 62.5t-13.5 70.5t-3 74q0 107 12 222q4 31 13.5 60t26.5 56t45.5 43t64.5 16q46 0 79.5 -16t52.5 -40.5t29.5 -64t13.5 -75.5t3 -86q0 -301 -73 -349q-46 -31 -97 -31zM210 577q-76 0 -76 -190q0 -16 0.5 -41t0.5 -34
q0 -168 54 -168q47 0 64 45.5t18 126.5v86q0 92 -11.5 133.5t-49.5 41.5z" />
    <glyph glyph-name="P" unicode="P" horiz-adv-x="341" 
d="M30 646q0 9 5.5 14.5t29.5 10t67 4.5q33 0 52 -1q77 -11 101 -48.5t26 -125.5v-30q0 -99 -31.5 -145t-129.5 -53v-24q0 -20 3.5 -99t3.5 -136q-5 -10 -16 -10h-66q-19 0 -21 25zM147 386v-8q0 -3 13 -3q61 0 61 114q0 41 -14 68t-43 27q-12 0 -23 -4z" />
    <glyph glyph-name="Q" unicode="Q" horiz-adv-x="430" 
d="M240 9q-118 0 -163.5 48t-45.5 172q0 10 -0.5 29.5t-0.5 28.5q0 156 18.5 238t57 112.5t110.5 30.5q49 0 84 -16.5t54 -41.5t30 -67t13.5 -79t2.5 -91v-20q0 -68 -1 -99.5t-8 -71.5t-21 -70q-8 -18 -17.5 -32.5t-13.5 -21.5t-4 -16q0 -6 3 -17t3 -16q0 -11 -11 -17
l-53 -22h-5q-11 0 -15.5 19.5t-16.5 19.5zM197 568q-40 -3 -52.5 -59.5t-12.5 -164.5v-82q0 -32 2 -55.5t8 -50.5t21 -41.5t37 -14.5q25 0 42.5 6.5t28.5 23.5t17.5 34t9.5 50.5t3.5 59t0.5 73.5q0 19 -0.5 54t-0.5 51q0 76 -18.5 96t-71.5 20h-14z" />
    <glyph glyph-name="R" unicode="R" horiz-adv-x="356" 
d="M36 19l-6 627q0 44 17 44h161q109 0 109 -149q0 -52 -23.5 -113t-46.5 -93q0 -2 1 -3q75 -87 75 -216q0 -1 1.5 -27t1.5 -43q0 -50 -12 -50h-81q-2 0 -5 3.5t-3 5.5q0 137 -12 188q-11 52 -55 52l-6 -1h-7q-3 -1 -5.5 -2.5t-4.5 -4.5t-3 -5.5t-1.5 -6.5t-0.5 -6.5
t-0.5 -7.5t-0.5 -6l5 -177q0 -32 -12 -32h-74q-12 0 -12 23zM133 396q0 -17 12 -17l3 1h3q30 28 43.5 57t13.5 72q0 46 -9 63t-45 17q-13 0 -17 -7.5t-5 -23.5z" />
    <glyph glyph-name="S" unicode="S" horiz-adv-x="372" 
d="M44 165q0 16 6.5 19t35.5 3h18q19 0 29 -6q8 -5 11.5 -20t4 -29t8 -25.5t23.5 -11.5q60 0 60 69q0 36 -21.5 74t-52.5 62q-47 36 -76.5 69t-41.5 61.5t-15 46t-3 42.5q0 66 44.5 109.5t113.5 43.5q128 0 128 -156q-3 -25 -19 -27h-56q-16 1 -21.5 13.5t-4 27.5t-3.5 27.5
t-20 12.5q-4 1 -12 1q-28 0 -41 -15t-13 -37q0 -5 2 -19q5 -25 29.5 -52.5t54.5 -54.5t60 -57t50 -71t20 -87q0 -82 -44 -131t-129 -49q-125 0 -125 167z" />
    <glyph glyph-name="T" unicode="T" horiz-adv-x="328" 
d="M129 30l-8 544q0 12 -19 12q-6 0 -20.5 0.5t-21.5 0.5q-19 0 -24 5.5t-5 21.5v17q0 2 -0.5 9.5t-0.5 11.5q0 27 14 32h19q14 0 56.5 0.5t71.5 0.5q78 0 96 -3q11 -3 11 -10v-75q0 -13 -21 -13q-22 0 -43 -3q-10 -4 -11 -15l2 -518q-1 -21 -7.5 -26.5t-23.5 -5.5h-50
q-5 0 -10 4t-5 10z" />
    <glyph glyph-name="U" unicode="U" horiz-adv-x="411" 
d="M216 4q-39 0 -69 10.5t-49 27.5t-32.5 44.5t-19.5 53t-9.5 62.5t-4 65.5t-1 68t-1.5 63.5v44q0 109 10 185q4 27 27 27h60q2 0 7 -3t5 -6v-383q0 -98 17.5 -127t79.5 -29q21 0 30.5 29t9.5 64l2 446h84q2 0 7 -2.5t6 -6.5q6 -235 6 -334v-64q0 -42 -2 -70t-11.5 -61
t-26.5 -53t-48.5 -34.5t-76.5 -16.5z" />
    <glyph glyph-name="V" unicode="V" horiz-adv-x="415" 
d="M147 23l-116 620l-1 3v5q0 10 4 13t15 6h69q18 -1 25 -11q3 -4 4.5 -10t2 -14t1.5 -11l57 -400l61 422q1 18 24 18h78q8 0 14 -8v-20l-119 -600q-3 -23 -27 -23h-70q-21 0 -22 10z" />
    <glyph glyph-name="W" unicode="W" horiz-adv-x="531" 
d="M30 646q4 25 18 25h74q13 0 15 -17q0 -4 0.5 -24t0.5 -24q0 -54 -1.5 -192.5t-1.5 -184.5q0 -101 27 -101q43 0 43 123q0 11 -0.5 30t-0.5 25v9q1 44 12.5 53.5t53.5 9.5h26q15 -1 17 -28l6 -145q4 -25 15.5 -43t21.5 -18q11 0 18 10t12.5 44.5t6.5 96.5q0 9 0.5 30
t0.5 34q0 30 -3 120t-3 149q0 23 17 23h65q23 0 23 -25q0 -1 0.5 -3t0.5 -4q7 -56 7 -200q0 -101 -4 -225q-8 -70 -40 -110t-87 -40q-23 0 -60 28t-41 28q-2 0 -6 -6t-7 -12.5t-4 -7.5q-34 -46 -85 -46q-68 0 -99 44t-38 125v449z" />
    <glyph glyph-name="X" unicode="X" horiz-adv-x="453" 
d="M30 26v7q72 200 115 313q9 24 9 28l-99 258q-5 10 -5 17q0 13 17 13h9q5 0 77 -4l77 -210l70 188q6 15 15 22l85 4q23 0 23 -17v-7l-131 -278v-8q0 -18 46 -147t66 -175v-6q0 -12 -7 -12h-93q-13 0 -20 18l-65 223l-79 -229q-5 -12 -16 -12h-84q-10 0 -10 14z" />
    <glyph glyph-name="Y" unicode="Y" horiz-adv-x="409" 
d="M155 20v269q0 11 -12 19q-73 8 -93 33.5t-20 111.5q0 32 2.5 98t2.5 102q0 28 37 28q2 0 5.5 -0.5t12.5 -0.5h25q22 -2 22 -19q0 -31 -2 -105t-2 -106q0 -4 0.5 -13t0.5 -13q1 -22 83 -22q56 0 57 44l5 215q0 11 8 15q57 5 71 5q20 0 20 -14q0 -21 0.5 -58.5t0.5 -54.5
q0 -111 -15 -166t-64 -71q-5 -1 -14.5 -2t-17 -2.5t-11.5 -6.5v-28q0 -31 1 -93t1 -93q0 -46 -1 -69q-4 -13 -15 -13h-78z" />
    <glyph glyph-name="Z" unicode="Z" horiz-adv-x="350" 
d="M31 51q0 2 -0.5 19t-0.5 21v23q0 36 10 54l169 378v4q0 7 -3 7h-157q-19 0 -19 50v10q0 43 17 43h65q33 0 99 -2.5t99 -2.5l7 -9v-4q0 -3 0.5 -9t0.5 -13v-15v-14v-15q0 -33 -23 -93.5t-113 -248.5l-34 -82q-1 -5 -1 -12t9 -7h122q23 0 33 -1q9 -4 9 -27l-4 -47
q-2 -18 -10 -31h-266q-9 0 -9 24z" />
    <glyph glyph-name="bracketleft" unicode="[" horiz-adv-x="198" 
d="M40 693q53 3 86 3h11q30 0 30 -18v-59q0 -13 -7 -13h-26l-8 -8q-1 -1 -1 -52l2 -441q3 -5 22 -10.5t19 -16.5v-60q0 -18 -23 -18h-94q-8 0 -14 5t-6 13l-1 660q0 13 10 15z" />
    <glyph glyph-name="backslash" unicode="\" horiz-adv-x="285" 
d="M255 15v-9q0 -13 -6 -13h-73q-21 0 -23 22l-123 656q0 16 19 16h62q22 0 27 -27z" />
    <glyph glyph-name="bracketright" unicode="]" horiz-adv-x="198" 
d="M158 693q10 -2 10 -15l-1 -660q0 -8 -6 -13t-14 -5h-94q-23 0 -23 18v60q0 11 19 16.5t22 10.5l2 441q0 51 -1 52l-8 8h-26q-7 0 -7 13v59q0 18 30 18h11q34 0 86 -3z" />
    <glyph glyph-name="asciicircum" unicode="^" horiz-adv-x="414" 
d="M32 486q39 57 87 129q39 59 49.5 72t21.5 13l41 1q23 0 32 -13q4 -4 36.5 -64.5t79.5 -121.5q5 -10 5 -15q0 -9 -9 -9h-102l-61 117q-5 0 -8 -5q-32 -41 -64 -105q-10 -18 -26 -18l-72 -1q-3 0 -7.5 4.5t-4.5 5.5q0 7 2 10z" />
    <glyph glyph-name="underscore" unicode="_" horiz-adv-x="623" 
d="M576 5l-531 -6q-15 0 -15 25q0 4 0.5 9.5t0.5 6.5v7q0 17 1.5 24t9 12.5t24.5 5.5q66 3 411 3h95q20 0 20 -29v-15q0 -2 0.5 -7t0.5 -9q0 -27 -17 -27z" />
    <glyph glyph-name="grave" unicode="`" horiz-adv-x="222" 
d="M122 818l70 -90l-89 -6l-73 76z" />
    <glyph glyph-name="a" unicode="a" horiz-adv-x="381" 
d="M30 51q3 71 3 217v119q0 66 3 106.5t12.5 78.5t28.5 57.5t51 31t79 11.5h15q33 -1 56 -11.5t35.5 -24t20 -41t9.5 -46.5t4 -57v-2q1 -60 4 -462q0 -24 -20 -24h-64q-23 0 -23 40v17q0 125 -2 175q-5 11 -20 11l-74 1q-18 0 -18 -20v-202q0 -4 -6.5 -9t-11.5 -5h-61
q-21 0 -21 39zM136 378q0 -32 24 -33q24 0 54 -2h9q21 0 23 29q2 58 2 77q0 68 -7 92.5t-25 24.5q-2 0 -13 1t-20 1q-47 -3 -47 -83v-107z" />
    <glyph glyph-name="b" unicode="b" horiz-adv-x="375" 
d="M48 32q-18 558 -18 602q0 21 1 27q2 8 30 12.5t47 4.5h6q89 0 141 -45.5t52 -130.5v-3q-2 -85 -81 -123q0 -2 12.5 -8t30 -17.5t34.5 -29t29.5 -48.5t12.5 -70v-11q-1 -33 -5.5 -56.5t-15.5 -52t-35.5 -46t-61.5 -22.5q-38 -5 -149 -5q-29 0 -30 22zM149 110
q1 -2 2.5 -3.5t1.5 -2.5h14q20 0 30.5 1.5t23 9t18 24.5t5.5 45q0 17 -1 27q-6 86 -90 86q-7 0 -11 -7zM131 439q1 -7 11 -7q29 0 50.5 15.5t21.5 42.5q-1 42 -24 62.5t-52 20.5q-10 0 -10 -14v-10q0 -68 3 -110z" />
    <glyph glyph-name="c" unicode="c" horiz-adv-x="359" 
d="M139 151q2 -13 15.5 -22.5t29.5 -9.5q31 0 38 34q1 3 2 5l1 1q0 1 1 3q15 28 27 30q22 0 72 -36q-8 -68 -36.5 -101t-99.5 -33q-120 0 -138 71q-21 77 -21 321q0 46 1.5 75t10 69.5t24 63.5t45.5 40t73 17q54 0 97.5 -32.5t47.5 -88.5v-4q0 -26 -22.5 -37t-44.5 -11h-5
q-12 2 -17.5 14t-7 25t-11 23.5t-29.5 10.5q-1 0 -4.5 -0.5t-5.5 -0.5q-16 -2 -26 -7t-14 -14.5t-5 -17t-1 -21.5v-12q0 -279 3 -355z" />
    <glyph glyph-name="d" unicode="d" horiz-adv-x="378" 
d="M30 674q0 15 10 21h20q40 0 65.5 -1t54.5 -4.5t46 -10t36.5 -19t30 -29.5t21.5 -43t16.5 -57.5t10 -76t6 -96t1.5 -118.5v-8q-1 -34 -4.5 -56.5t-12.5 -47.5t-26.5 -40.5t-45 -28.5t-69 -19t-98.5 -6q-38 0 -40 36v14q0 109 -22 590zM134 585v-18q0 -63 5 -186t6 -151
q0 -4 1 -34t1 -35q4 -26 8 -28q56 8 73 36.5t17 115.5v25l-2 33q-9 150 -26 195q-19 51 -60 51q-12 0 -23 -4z" />
    <glyph glyph-name="e" unicode="e" horiz-adv-x="315" 
d="M33 666q5 13 24 13h81q82 0 114 -2q9 -3 12 -11q1 -23 1 -71q0 -5 -1 -7.5t-2.5 -5.5t-5.5 -4.5t-10 -1.5h-108l-9 -9l6 -165l84 -3q15 -1 15 -42v-8l-3 -24q0 -21 -14 -21h-76q-1 0 -2 -1l-1.5 -1.5t-1.5 -0.5l-3 -3l5 -154q3 -19 20 -19h107q20 0 20 -27l-5 -57
q-2 -12 -15 -16l-211 -8q-7 0 -11 11.5t-8 70.5t-4 170q0 32 -0.5 96.5t-0.5 97.5q0 98 3 203z" />
    <glyph glyph-name="f" unicode="f" horiz-adv-x="310" 
d="M30 79l4 584q17 18 116 18l96 -4q22 -1 31 -14q3 -36 3 -72q0 -9 -10 -13q-3 0 -19.5 -0.5t-20.5 -0.5q-13 0 -38.5 2t-37.5 2q-18 0 -20 -15v-115q0 -5 0.5 -16t1.5 -20v-9l9 -7l61 -8q24 -4 27 -18q4 -40 4 -48q0 -28 -9 -36q-26 -3 -54 -3q-6 0 -15.5 0.5t-13.5 0.5
q-11 0 -11 -9v-17q0 -33 2.5 -102t2.5 -104q0 -16 -1 -23t-7.5 -13.5t-20.5 -7.5q-24 -4 -52 -4h-5q-9 0 -11 6q-5 6 -7.5 16t-3 15.5t-1 19.5t-0.5 15z" />
    <glyph glyph-name="g" unicode="g" horiz-adv-x="385" 
d="M203 5q-50 0 -85 26t-53.5 72.5t-26.5 98.5t-8 115q0 56 0.5 87t3.5 76.5t8.5 70t16.5 54t27 44t40 25t56 10.5q42 0 71.5 -26t54.5 -98v-1q1 -1 1 -2q0 -2 -2 -4.5t-4 -4.5t-5 -4l-2 -1l-54 -25h-4q-7 0 -13.5 17t-19.5 34t-35 17h-4q-38 -2 -38 -145q0 -13 0.5 -33
t0.5 -27q0 -81 6 -147q0 -39 22.5 -84t58.5 -45q16 0 29 14q17 12 17 52v41q-8 13 -43 13q-8 4 -8 11v69q0 19 27 19h100q12 0 14 -10v-9q3 -42 3 -68v-20q0 -3 -0.5 -7t-0.5 -7q-2 -39 -4.5 -59t-10.5 -48t-25.5 -46t-45.5 -30l-3 -2q-30 -13 -62 -13z" />
    <glyph glyph-name="h" unicode="h" horiz-adv-x="387" 
d="M261 59l-5 149l-3 50l-8 9h-69q-15 0 -20 -1q-11 -4 -11 -18q0 -23 1 -81.5t1 -76.5q0 -67 -32 -68h-19q-32 0 -39.5 8.5t-8.5 40.5l-18 612q0 8 6 14.5t15 6.5h66q16 0 18 -23q1 -29 3.5 -138.5t6.5 -171.5h102q-7 224 -7 241q0 35 2 52t5.5 21.5t11.5 4.5h63
q16 0 20 -13v-10q0 -19 4 -76.5t7.5 -192t3.5 -339.5q0 -23 -48 -23t-48 23z" />
    <glyph glyph-name="i" unicode="i" horiz-adv-x="175" 
d="M35 26q-5 78 -5 146q0 85 8 267q8 160 11 208q0 5 4.5 9.5t10.5 4.5h65q16 0 16 -22l-14 -596q0 -23 -19 -25l-62 -9q-6 0 -10.5 5.5t-4.5 11.5z" />
    <glyph glyph-name="j" unicode="j" horiz-adv-x="244" 
d="M33 6q-3 33 -3 67q0 25 10 25h48q29 0 29 69q0 83 -15 276t-16 223v7q0 24 38 24h28q2 0 8 0.5t11 0.5q43 0 43 -488q0 -49 -2 -78.5t-9.5 -59t-22.5 -44.5t-40.5 -24t-63.5 -9h-27q-16 5 -16 11z" />
    <glyph glyph-name="k" unicode="k" horiz-adv-x="379" 
d="M43 61l-13 608q5 18 22 18h65q12 0 16 -13q3 -71 3 -209q0 -12 -0.5 -28t-0.5 -18q0 -1 0.5 -6t1 -8t3 -6t5.5 -3q26 0 46 50t27 86q7 49 7 140q4 16 30 16q4 0 11 -0.5t10 -0.5h26q7 0 12 -4.5t7 -13t2.5 -16.5t1 -20t1.5 -18v-8q0 -43 -14 -92t-29.5 -81.5t-34 -66
t-20.5 -38.5q0 -1 2 -3q38 -21 70 -79.5t45 -136.5q4 -28 4 -33q0 -8 -0.5 -12t-1 -6.5t-3.5 -3.5t-5 -1.5t-8.5 -1t-11.5 -1.5l-53 -10q-7 0 -11.5 7t-4.5 13q-32 108 -52 150.5t-40 42.5q-8 0 -12 -11v-15q0 -28 5 -82t5 -81v-20q-5 -7 -13 -7h-81q-15 0 -19 23z" />
    <glyph glyph-name="l" unicode="l" horiz-adv-x="294" 
d="M43 39q-1 86 -7 283.5t-6 319.5v18q2 12 28 12h15q8 0 23 -1.5t27 -1.5q14 0 14 -69l6 -468l8 -8h95q7 0 12.5 -5.5t5.5 -11.5v-64q0 -18 -26 -20q-20 -2 -63 -2q-21 0 -56 0.5t-39 0.5h-28q-9 4 -9 17z" />
    <glyph glyph-name="m" unicode="m" horiz-adv-x="510" 
d="M30 34l10 632q7 12 16 12h92q23 0 26 -16q42 -181 61 -223q2 -12 9 -12q9 0 11 12q22 62 56 209q4 30 23 30l123 -7q23 -127 23 -626q0 -32 -16 -32h-68q-7 0 -11.5 7t-4.5 14l-9 474l-73 -220q-8 -21 -38 -21q-2 0 -7 0.5t-6 0.5h-12.5h-16.5l-7 1q-9 0 -15 9t-23 59.5
t-45 155.5l6 -486q0 -6 -7 -11q-48 -2 -63 -2q-21 0 -27.5 8t-6.5 32z" />
    <glyph glyph-name="n" unicode="n" horiz-adv-x="441" 
d="M283 22l-148 471q-3 0 -3 -53q0 -33 2.5 -180.5t2.5 -235.5q0 -25 -34 -25q-3 0 -9 0.5t-9 0.5q-2 0 -8.5 -0.5t-10.5 -0.5q-28 0 -32 14l-1 287q0 42 -1.5 125.5t-1.5 124.5q0 8 0.5 49t0.5 49q2 15 16 15h117q18 0 18 -11l138 -460l-23 459q6 13 18 13h70q12 0 15 -8
v-6q0 -13 3 -90.5t3 -116.5q0 -5 2.5 -129t2.5 -194q0 -113 -6 -113h-102q-13 0 -20 15z" />
    <glyph glyph-name="o" unicode="o" horiz-adv-x="369" 
d="M52 72q-22 79 -22 332q0 39 1 64.5t5.5 62t15 59t27 45t44 33.5t64.5 11q55 0 99.5 -34t48.5 -91q4 -68 4 -152q0 -28 -0.5 -60.5t-1.5 -72.5t-1 -64v-4q-3 -45 -5.5 -67.5t-11.5 -53.5t-23 -45.5t-40 -25.5t-64 -11q-122 0 -140 74zM141 132q2 -13 16 -23t30 -10
q32 0 39 35q8 165 8 344v52q-2 23 -12.5 33.5t-36.5 10.5q-16 0 -26.5 -5t-14.5 -15t-5 -18.5t-1 -23.5v-12q0 -289 3 -368z" />
    <glyph glyph-name="p" unicode="p" horiz-adv-x="341" 
d="M30 627v39q0 15 33 15q49 0 137 -8q26 -2 46 -13t31.5 -31t19 -39.5t10 -49t3.5 -47.5t1 -47v-35q0 -38 -1.5 -60t-9.5 -54.5t-23 -50.5t-45 -31.5t-73 -13.5h-13q-5 -1 -5 -5q0 -5 2 -7v-173q0 -4 -5.5 -7t-10.5 -3h-70q-21 0 -21 25zM139 350v-29q5 -12 21 -12
q14 0 27 7t13 20v165q0 77 -48 77h-9q-4 -2 -6 -8v-58q0 -25 1 -81t1 -81z" />
    <glyph glyph-name="q" unicode="q" horiz-adv-x="399" 
d="M219 24q-9 0 -26.5 -4t-27.5 -4q-45 0 -74 26t-41.5 74.5t-16 89t-3.5 97.5v76q0 44 0.5 67.5t2.5 57.5t6.5 52t12 41t19.5 34.5t29.5 23t41 16t53.5 4.5q41 0 70.5 -10.5t48.5 -34.5t30.5 -49.5t16.5 -69t6.5 -78.5t1.5 -91v-15q0 -58 -1.5 -89t-13 -76.5t-33.5 -81.5
v-14l25 -62v-5q0 -13 -14 -17l-64 -20h-7q-17 0 -22 31t-20 31zM134 450l1 -206q0 -117 46 -117q27 0 45 12t26 34.5t11 44.5t3 53q0 27 0.5 83t0.5 86q0 24 -1.5 40t-7 39.5t-20.5 35.5t-38 12q-39 0 -52.5 -31t-13.5 -86z" />
    <glyph glyph-name="r" unicode="r" horiz-adv-x="364" 
d="M30 64l13 594q2 25 15 29q24 3 69 3h95q53 -5 75 -42.5t27 -97.5q0 -123 -4 -163q-6 -25 -18 -40t-26.5 -24t-18.5 -14q0 -3 1 -4q76 -161 76 -259q0 -5 -6 -8.5t-16 -6t-18.5 -4t-18.5 -2.5t-12 -1q-5 0 -8 2t-5.5 7.5t-3.5 8.5t-2.5 10.5t-1.5 8.5q0 41 -29.5 129.5
t-58.5 88.5q-19 0 -21 -9v-109q0 -19 -0.5 -58t-0.5 -58q0 -21 -14 -21h-70q-18 0 -18 40zM144 557l-3 -174q0 -17 25 -17q23 0 35 6.5t17 25.5q4 42 4 108v49q-8 32 -41 32q-34 0 -37 -30z" />
    <glyph glyph-name="s" unicode="s" horiz-adv-x="339" 
d="M45 153v37q0 21 2 29q3 13 10 13h17q24 0 41 -1q16 -2 18 -34t6 -63.5t25 -33.5q7 -1 20 -1q20 0 26 8t6 28v23q0 5 -2 21q-8 57 -30.5 99.5t-47.5 66.5t-49.5 46t-40.5 53.5t-16 74.5q0 60 39.5 107t97.5 47q30 0 52.5 -9t35.5 -23t21.5 -32.5t11 -34t2.5 -31.5
q0 -17 -1 -26t-7 -18.5t-18 -10.5l-15 -2q-15 -1 -21 -1h-5q-17 0 -17 8q-6 80 -34 80q-24 0 -37 -15t-13 -40q0 -18 16 -40t40.5 -47t50.5 -56.5t48.5 -81.5t31.5 -109v-11q0 -85 -33.5 -122t-101.5 -37q-60 0 -94.5 34.5t-34.5 104.5z" />
    <glyph glyph-name="t" unicode="t" horiz-adv-x="347" 
d="M124 27q0 82 0.5 246t0.5 246v27q0 3 -3.5 10t-7.5 7l-66 -1q-12 0 -15 6t-3 22v9q0 24 1.5 35.5t9.5 20t25 8.5h15q124 0 194 -2q16 0 28 -3q14 -1 14 -32q0 -4 -0.5 -10.5t-0.5 -8.5v-15q0 -14 -6 -24t-16 -10l-71 -4l1 -518q0 -28 -15 -28h-67q-18 0 -18 19z" />
    <glyph glyph-name="u" unicode="u" horiz-adv-x="386" 
d="M30 599v4q2 53 28 53h1l59 -3q15 0 17 -11v-55q0 -7 -0.5 -31.5t-0.5 -47.5v-94q0 -133 10.5 -214.5t43.5 -81.5q15 0 28 12.5t16 29.5q2 9 4 16.5t3.5 19.5t2 23t1.5 32.5t1.5 41.5t1 56.5t1.5 71t2 92t2 112.5q0 16 22 20h47q36 0 36 -26q-2 -20 -2 -82v-72
q0 -57 -1 -94t-3.5 -85.5t-7 -79t-12 -66t-19 -56.5t-27.5 -40t-37.5 -27.5t-48.5 -8.5q-46 0 -78.5 19t-49.5 46.5t-26.5 73t-11.5 81.5t-2 89v282z" />
    <glyph glyph-name="v" unicode="v" horiz-adv-x="418" 
d="M117 38l-87 592q0 20 25 25h50q15 0 21 -5.5t8 -23.5q0 -50 59 -442q0 -13 9 -13q0 16 86 475h84q16 0 16 -13q-7 -34 -20.5 -107t-37.5 -193t-61 -292q-4 -19 -19 -19h-119q-12 0 -14 16z" />
    <glyph glyph-name="w" unicode="w" horiz-adv-x="533" 
d="M201 14q-15 -3 -28 -3q-31 0 -55 15t-39.5 45t-25.5 64.5t-15 82.5t-6.5 90.5t-1.5 96.5q0 46 2 122.5t2 101.5q0 28 15 28h78q16 0 16 -18q0 -1 -1 -4v-3q-5 -56 -5 -134q0 -30 1 -93.5t1 -97.5q6 -109 9.5 -140.5t13.5 -31.5q3 0 5 1q23 12 35 59t17 102t8 65
q2 14 21 16h6q5 0 13 0.5t17.5 1t18.5 0.5h15q10 0 10 -12q0 -2 2 -21.5t4 -38.5t5.5 -46t8.5 -49t10.5 -42.5t14 -32t17.5 -11.5q7 0 8 35t1 192q0 37 -3 109t-3 108q0 33 1 49q3 15 21 15h59q24 0 24 -21l5 -429q0 -175 -115 -175h-4q-32 1 -55 26.5t-46 97.5
q-25 -72 -44 -96t-38 -24z" />
    <glyph glyph-name="x" unicode="x" horiz-adv-x="452" 
d="M30 7q0 3 3 12q44 124 111 293q7 17 7 24q0 17 -121 308v12q8 12 32 12h39q22 0 27 -3q6 -3 9 -7.5t6 -14t4 -11.5l68 -170q7 -10 15 -10q6 0 10 11l62 181q8 25 40 25q2 0 8 -0.5t19 -0.5h32q16 -1 16 -17v-7l-125 -311q-4 -9 -4 -21l1 -8l133 -295q0 -14 -10 -14h-84
q-20 0 -33 30l-71 150q-4 7 -10 7t-10 -9q-39 -114 -62 -164q-10 -14 -22 -14h-79q-3 0 -7 4.5t-4 7.5z" />
    <glyph glyph-name="y" unicode="y" 
d="M31 572v75q0 22 9.5 28.5t26.5 6.5h53q11 0 18 -12v-20q0 -21 -2.5 -64t-2.5 -65v-29q0 -93 35 -93q15 0 43.5 3t39.5 3q13 5 13 70q0 28 -1 82t-1 81v4q0 40 17 40h71q14 0 16 -18v-7q4 -51 4 -116q0 -66 -4 -125q-2 -36 -17 -56.5t-31.5 -25.5t-31.5 -11.5t-18 -18.5
v-62q0 -37 3 -109t3 -108v-14q-7 -13 -41 -13q-6 0 -16.5 0.5t-13.5 0.5h-10q-25 0 -26 21l-8 275q0 7 -12.5 10t-29.5 4.5t-21 3.5q-66 28 -66 184q0 15 0.5 40t0.5 35z" />
    <glyph glyph-name="z" unicode="z" horiz-adv-x="346" 
d="M33 116q2 7 144 329l30 80v5q0 9 -12 11q-20 0 -64 -0.5t-70 -0.5q-22 0 -26.5 8.5t-4.5 35.5v10q0 16 0.5 24t6 16t15.5 8h195q2 0 19 -1.5t21 -1.5q21 -2 21 -20v-105q0 -22 -13 -42l-146 -337q-4 -4 -4 -10q0 -7 4 -8l155 5q12 -4 12 -13l-1 -69q0 -16 -9 -18
q-33 0 -105.5 -3.5t-111.5 -3.5h-38q-19 0 -19 45z" />
    <glyph glyph-name="braceleft" unicode="{" horiz-adv-x="243" 
d="M30 310v4q1 25 19 34.5t22 27.5l2 37v15q0 20 -3 57.5t-3 56.5q0 4 0.5 10t0.5 10q15 123 97 123q14 0 22 -2q16 0 16 -27v-7q0 -3 -0.5 -7.5t-1 -16t-1.5 -25.5q-2 -11 -20.5 -17t-22.5 -12l-1 -12q0 -9 2.5 -18.5t6 -21.5t5.5 -19q7 -27 7 -62q0 -57 -21 -96
q-1 -1 -7.5 -7t-9.5 -11t-3 -10t3 -8q30 -31 30 -90q0 -23 -1 -35v-32q0 -41 19 -55q1 -1 9.5 -5.5t9.5 -4.5q6 -4 6 -16q1 -7 1 -32v-7q-1 -30 -28 -30q-86 0 -102 60q-14 41 -22 189q-1 20 -16 31t-15 31z" />
    <glyph glyph-name="bar" unicode="|" horiz-adv-x="160" 
d="M33 17l-3 651q0 19 35 19h13q2 0 7.5 0.5t9.5 0.5q33 0 35 -17v-648q0 -25 -35 -25h-27q-35 0 -35 19z" />
    <glyph glyph-name="braceright" unicode="}" horiz-adv-x="243" 
d="M213 314v-4q0 -20 -15 -31t-16 -31q-8 -148 -22 -189q-16 -60 -102 -60q-27 0 -28 30v7q0 25 1 32q0 12 6 16q1 0 9.5 4.5t9.5 5.5q19 14 19 55v32q-1 12 -1 35q0 59 30 90q3 3 3 8t-3 10t-9.5 11t-7.5 7q-21 39 -21 96q0 35 7 62q2 7 5.5 19t6 21.5t2.5 18.5l-1 12
q-4 6 -22.5 12t-20.5 17q-1 11 -1.5 20.5t-1 14t-0.5 8v6.5v7q0 27 16 27q8 2 22 2q82 0 97 -123q0 -4 0.5 -10t0.5 -10q0 -19 -3 -56.5t-3 -57.5v-15l2 -37q4 -18 22 -27.5t19 -34.5z" />
    <glyph glyph-name="exclamdown" unicode="&#xa1;" horiz-adv-x="170" 
d="M125 492q15 -350 15 -437v-36q-4 -11 -20 -11l-62 -1q-22 0 -22 26l-2 461q12 21 47 21h12q31 0 32 -23zM125 636q0 -21 -11.5 -38.5t-29.5 -17.5q-54 0 -54 53q0 20 13.5 37t31.5 17q20 0 35 -14.5t15 -36.5z" />
    <glyph glyph-name="cent" unicode="&#xa2;" horiz-adv-x="364" 
d="M175 728l24 -6l-1 -26q53 -3 92.5 -33t43.5 -80v-4q0 -24 -23 -34.5t-45 -10.5h-5q-12 2 -18 13.5t-7 23.5t-11 22t-29 10l-6 -249q24 5 32 32q1 3 2 5l1 1l1 1v2q5 10 7 14.5t7.5 9t12.5 4.5q21 0 73 -34q-8 -64 -37 -95t-102 -31v-21h-26v22q-97 4 -112 66
q-19 76 -19 156q0 201 144 210zM137 395v-11q3 -16 27 -27l7 242q-22 -5 -27.5 -18t-5.5 -36v-11v-73.5t-0.5 -36.5t-0.5 -15v-14z" />
    <glyph glyph-name="sterling" unicode="&#xa3;" horiz-adv-x="448" 
d="M30 213l1 25q0 29 13 30q2 0 7 -0.5t8 -0.5v94q0 46 0.5 74.5t3 62.5t7 54t12.5 41.5t19.5 33t28.5 22t39 14.5t51 4q27 0 27 -19v-58q0 -4 -3.5 -11t-7.5 -7h-45q-30 0 -30 -226v-80l49.5 -1.5t25.5 -2.5t10.5 -3.5t1.5 -5.5v-35q0 -23 -8 -33l-78 1l3 -77
q252 -3 252 -17q0 -5 0.5 -21.5t0.5 -20.5q0 -25 -13 -39l-327 3q-3 0 -7 1q-11 5 -11 21t-1 50t-1 54v47h-19q-9 1 -9 26z" />
    <glyph glyph-name="yen" unicode="&#xa5;" 
d="M56 246l1 20q0 23 19 24q31 -1 83 -1v6q0 7 -12.5 10t-29.5 4.5t-21 3.5q-66 28 -66 184q0 15 0.5 40t0.5 35v75q0 22 9.5 28.5t26.5 6.5h53q11 0 18 -12v-20q0 -21 -2.5 -64t-2.5 -65v-29q0 -93 35 -93q15 0 43.5 3t39.5 3q13 5 13 70q0 28 -1 82t-1 81v4q0 40 17 40h71
q14 0 16 -18v-7q4 -51 4 -116q0 -66 -4 -125q-2 -36 -17 -56.5t-31.5 -25.5t-31.5 -11.5t-18 -18.5v-16q97 -2 97 -10q0 -3 0.5 -14.5t0.5 -13.5q0 -19 -12 -27h-86v-23q95 -2 95 -10q0 -3 0.5 -14.5t0.5 -13.5q0 -19 -12 -27h-81q0 -12 1 -34.5t1.5 -41t0.5 -34.5v-14
q-7 -13 -41 -13q-6 0 -16.5 0.5t-13.5 0.5h-10q-25 0 -26 21l-4 116l-97 1q-12 1 -12 21l1 20q0 23 19 24q33 -1 87 -1v23l-93 1q-12 1 -12 21z" />
    <glyph glyph-name="brokenbar" unicode="&#xa6;" horiz-adv-x="167" 
d="M83 690h31q11 -2 16 -8t5 -18q0 -3 -0.5 -8.5t-0.5 -6.5q0 -4 1.5 -42t1.5 -42v-208q-1 -11 -5.5 -15t-17.5 -8h-48q-36 0 -36 17v321q0 18 36 18h17zM83 282h5q16 0 24 -1t16.5 -6t8.5 -16v-237q0 -23 -54 -23h-10q-43 0 -43 19v247q0 17 47 17h6z" />
    <glyph glyph-name="section" unicode="&#xa7;" horiz-adv-x="315" 
d="M30 375v4q0 45 30.5 79.5t76.5 39.5q-1 3 -4 8t-4 7q-1 1 -2.5 5t-2.5 6l-5 10q-20 43 -20 49q0 3 6 7q25 10 59.5 25t55.5 24q15 7 22 7q10 0 21 -20l2 -3q1 -1 1 -5q0 -2 -3 -7l-87 -41q107 -142 109 -195v-4q0 -40 -24.5 -72.5t-62.5 -43.5l3 -7q41 -87 41 -95
q0 -6 -5 -6q-20 -8 -43 -18t-38.5 -17t-33.5 -14q-15 -7 -23 -7q-3 0 -6 2.5t-5 5.5l-4 6l-2 3q0 1 -2 3l-2 3q-1 1 -1 5q0 3 3 7l97 40q-22 23 -59.5 58.5t-50.5 50t-25 41.5t-12 59zM104 372q2 -29 16 -43t33 -14q27 0 43 15.5t16 41.5q0 28 -18 46t-39 18q-42 0 -51 -64z
" />
    <glyph glyph-name="dieresis" unicode="&#xa8;" horiz-adv-x="298" 
d="M30 767q0 18 14 30.5t34 12.5t34 -12.5t14 -30.5t-14 -30.5t-34 -12.5t-34 12.5t-14 30.5zM172 770q0 18 14 30.5t34 12.5t34 -12.5t14 -30.5t-14 -30.5t-34 -12.5t-34 12.5t-14 30.5z" />
    <glyph glyph-name="copyright" unicode="&#xa9;" horiz-adv-x="470" 
d="M231 270q-89 0 -145 52.5t-56 148.5q0 3 0.5 8t0.5 8q4 89 56 152t146 63h9q86 0 142 -70t56 -148q0 -99 -54 -156.5t-155 -57.5zM227 656q-69 0 -109 -54t-40 -128q0 -77 43 -118t125 -41q75 0 106.5 42t31.5 118q0 73 -41 127t-116 54zM122 483q0 61 21.5 95t79.5 34
q47 0 70.5 -23.5t23.5 -64.5q0 -11 -1 -16l-60 -8q-8 0 -10.5 29t-20.5 29h-5q-9 -1 -15 -25t-6 -56q0 -85 36 -85h5q5 0 6 4l4 38q0 3 9 3h55q14 0 14 -13v-5q0 -32 -15.5 -49.5t-64.5 -17.5q-99 0 -118 69q-8 28 -8 62z" />
    <glyph glyph-name="ordfeminine" unicode="&#xaa;" horiz-adv-x="297" 
d="M106 418q-30 0 -53 16t-23 45q0 20 9.5 37t21 27.5t34 22t34 16t36.5 13.5l6 2q0 14 -0.5 20.5t-2 14t-5 10.5t-10.5 3q-12 0 -21.5 -15t-31.5 -15h-18q-30 0 -30 18q0 38 37 62t83 24q51 0 73 -32t22 -80v-4l-3 -145q0 -19 -12 -24q-13 -4 -23 -8t-13.5 -5t-7.5 -1
q-7 0 -16 9t-15 9t-29.5 -9.5t-41.5 -10.5zM143 519q-9 0 -20 -7.5t-11 -14.5q0 -8 15 -9q30 0 30 16q0 15 -14 15z" />
    <glyph glyph-name="guillemotleft" unicode="&#xab;" horiz-adv-x="485" 
d="M234 117q-56 41 -125 91q-54 39 -66 50t-12 23v28q0 3 -0.5 9.5t-0.5 9.5q0 26 12 38q62 68 160 162l23 26q8 8 15 8q8 0 8 -9v-96q0 -19 -21.5 -43.5t-53 -51.5t-39.5 -36q-3 -3 -3 -9q0 -7 5 -11q39 -33 100 -64q17 -10 17 -29v-83q0 -15 -10 -15q-6 0 -9 2zM436 128
q-56 41 -125 91q-54 39 -66 50t-12 23v28q0 3 -0.5 9.5t-0.5 9.5q0 26 12 38q62 68 160 162l23 26q8 8 15 8q8 0 8 -9v-96q0 -19 -21.5 -43.5t-53 -51.5t-39.5 -36q-3 -3 -3 -9q0 -7 5 -11q39 -33 100 -64q17 -10 17 -29v-83q0 -15 -10 -15q-6 0 -9 2z" />
    <glyph glyph-name="logicalnot" unicode="&#xac;" horiz-adv-x="489" 
d="M30 314l1 34q2 38 26 40q360 -5 383 -9q14 -3 14 -11q0 -61 4 -119q1 -16 1 -40q0 -30 -10.5 -36t-52.5 -6h-4q-4 0 -20 8l-7 102l-318 3q-17 1 -17 34z" />
    <glyph glyph-name="registered" unicode="&#xae;" horiz-adv-x="470" 
d="M231 270q-89 0 -145 52.5t-56 148.5q0 3 0.5 8t0.5 8q4 89 56 152t146 63h9q86 0 142 -70t56 -148q0 -99 -54 -156.5t-155 -57.5zM227 656q-69 0 -109 -54t-40 -128q0 -77 43 -118t125 -41q75 0 106.5 42t31.5 118q0 73 -41 127t-116 54zM140 373q1 25 1.5 93t5.5 134
q10 10 35 10h84q59 -3 67 -53q0 -19 -0.5 -33.5t-1 -21t-0.5 -7.5q-1 -3 -3.5 -6.5t-6.5 -6.5t-8.5 -5.5t-8.5 -4.5t-7.5 -3.5t-5.5 -2.5t-1 -2q50 -59 50 -98q0 -6 -48 -8h-6q-13 0 -19 14q0 16 -15.5 42.5t-34.5 26.5q-5 0 -8 -4v-27q0 -8 1 -22t1 -22q0 -3 -0.5 -4.5
t-2.5 -2.5t-6 -1h-50q-12 0 -12 15zM215 560l-2 -66q0 -7 16 -7q29 0 34 13q3 15 3 40v19q-4 12 -27 12t-24 -11z" />
    <glyph glyph-name="macron" unicode="&#xaf;" horiz-adv-x="288" 
d="M30 755l1 24q2 27 14 29q8 0 21.5 -0.5t19.5 -0.5q163 -3 170 -8q2 -1 2 -5v-34q0 -22 -8 -31l-207 2h-3q-10 0 -10 24z" />
    <glyph glyph-name="degree" unicode="&#xb0;" horiz-adv-x="230" 
d="M30 627q0 38 25 64.5t60 26.5t60 -26.5t25 -64.5t-25 -64.5t-60 -26.5t-60 26.5t-25 64.5zM80 625q0 -32 43 -32q11 0 20 9.5t9 22.5t-9.5 22.5t-22.5 9.5q-40 0 -40 -32z" />
    <glyph glyph-name="plusminus" unicode="&#xb1;" horiz-adv-x="485" 
d="M224 544l34 -1q38 -2 40 -26l-2 -132q59 -1 90 -2t46.5 -4t18.5 -6.5t3 -10.5q0 -5 0.5 -21t0.5 -20q0 -29 -16 -44l-144 1q-1 -58 -2.5 -89.5t-5 -46.5t-6.5 -17.5t-11 -2.5q-5 0 -20 -1.5t-19 -1.5q-29 0 -44 16l1 144l-141 1q-17 1 -17 34l1 34q2 38 26 40l132 -2
l1 141q1 17 34 17zM28 31l1 32q2 35 26 37q62 -1 158 -2q176 -2 205.5 -4t29.5 -12q0 -5 2 -22.5t2 -21.5q0 -27 -16 -41l-385 3h-6q-17 1 -17 31z" />
    <glyph glyph-name="acute" unicode="&#xb4;" horiz-adv-x="222" 
d="M30 728l70 90l92 -20l-73 -76z" />
    <glyph glyph-name="paragraph" unicode="&#xb6;" horiz-adv-x="485" 
d="M325 20l-2 586h-72l6 -572q0 -25 -15 -26l-54 -3q-10 0 -14 9q-2 40 -2 110v62q0 44 -1 62l-1 24q-34 1 -57.5 10t-38 23.5t-23.5 40t-12.5 51t-6.5 65.5l-2 30v20q0 76 19 110.5t77 48.5l303 -3q26 0 26 -35q0 -19 -12 -28h-48v-579q0 -24 -26 -24h-19q-25 0 -25 18z
" />
    <glyph glyph-name="periodcentered" unicode="&#xb7;" horiz-adv-x="160" 
d="M30 358q0 21 14.5 35.5t35.5 14.5t35.5 -14.5t14.5 -35.5t-14.5 -35.5t-35.5 -14.5t-35.5 14.5t-14.5 35.5z" />
    <glyph glyph-name="cedilla" unicode="&#xb8;" horiz-adv-x="264" 
d="M80 24h80l-28 -52q2 1 5 1q37 0 67 -25.5t30 -65.5q0 -49 -28.5 -74.5t-70.5 -25.5q-71 0 -105 72l57 39q7 -19 21.5 -30t28.5 -11t22.5 9.5t8.5 26.5q0 13 -7 21t-16 8q-13 0 -28 -25l-55 30z" />
    <glyph glyph-name="ordmasculine" unicode="&#xba;" horiz-adv-x="289" 
d="M47 455q-17 36 -17 147q0 27 3 43.5t13 37.5t35.5 31t65.5 10q41 0 74 -15t35 -40q3 -35 3 -68q0 -27 -2 -87v-2q-3 -25 -6 -37t-13.5 -26.5t-31.5 -20.5t-56 -6q-90 0 -103 33zM112 482q6 -15 35 -15q24 0 28 15q6 69 6 153v23q-3 20 -36 20q-16 0 -24 -4.5t-9.5 -9.5
t-1.5 -14v-5q0 -128 2 -163z" />
    <glyph glyph-name="guillemotright" unicode="&#xbb;" horiz-adv-x="485" 
d="M49 128q-3 -2 -9 -2q-10 0 -10 15v83q0 19 17 29q61 31 100 64q5 4 5 11q0 6 -3 9q-8 9 -39.5 36t-53 51.5t-21.5 43.5v96q0 9 8 9q7 0 15 -8l23 -26q98 -94 160 -162q12 -12 12 -38q0 -3 -0.5 -9.5t-0.5 -9.5v-28q0 -12 -12 -23t-66 -50q-69 -50 -125 -91zM251 117
q-3 -2 -9 -2q-10 0 -10 15v83q0 19 17 29q61 31 100 64q5 4 5 11q0 6 -3 9q-8 9 -39.5 36t-53 51.5t-21.5 43.5v96q0 9 8 9q7 0 15 -8l23 -26q98 -94 160 -162q12 -12 12 -38q0 -3 -0.5 -9.5t-0.5 -9.5v-28q0 -12 -12 -23t-66 -50q-69 -50 -125 -91z" />
    <glyph glyph-name="questiondown" unicode="&#xbf;" horiz-adv-x="342" 
d="M216 485l3 -52q0 -91 -33 -174q-5 -13 -18.5 -37.5t-21.5 -45.5t-8 -42q0 -36 32 -36q18 0 29.5 24.5t21 49.5t19.5 25h4l55 -23q13 -6 13 -26q0 -54 -30.5 -95t-77.5 -56q-24 -4 -38 -4q-56 0 -96 34.5t-40 97.5q0 50 33 106t43 90q15 148 15 158q5 21 29 21h39
q23 0 27 -15zM215 651q0 -24 -14 -47.5t-35 -23.5q-48 0 -48 60q0 25 18 42t41 17q17 0 27.5 -14.5t10.5 -33.5z" />
    <glyph glyph-name="Agrave" unicode="&#xc0;" horiz-adv-x="356" 
d="M203 249h-52q-12 0 -14 -6v-16q0 -27 3.5 -91.5t3.5 -90.5v-17q-5 -8 -13 -8h-76q-5 0 -8.5 2t-5 4t-3 6.5t-1.5 7t-0.5 8t-0.5 6.5q-3 99 -3 202q0 41 -1.5 105t-1.5 88q0 74 11 119t43 75q32 31 102 31q117 0 124 -185l16 -438q0 -18 -42 -18h-17q-12 0 -26.5 5.5
t-15.5 12.5l-9 171q-2 23 -13 27zM130 364l2 -20q0 -2 4.5 -5t6.5 -3h54q5 0 8.5 2.5t5 8t2 9t1 10t0.5 7.5q-1 120 -9 161.5t-40 41.5q-16 0 -25.5 -10t-9.5 -26v-176zM176 808l70 -90l-89 -6l-73 76z" />
    <glyph glyph-name="Aacute" unicode="&#xc1;" horiz-adv-x="356" 
d="M203 249h-52q-12 0 -14 -6v-16q0 -27 3.5 -91.5t3.5 -90.5v-17q-5 -8 -13 -8h-76q-5 0 -8.5 2t-5 4t-3 6.5t-1.5 7t-0.5 8t-0.5 6.5q-3 99 -3 202q0 41 -1.5 105t-1.5 88q0 74 11 119t43 75q32 31 102 31q117 0 124 -185l16 -438q0 -18 -42 -18h-17q-12 0 -26.5 5.5
t-15.5 12.5l-9 171q-2 23 -13 27zM130 364l2 -20q0 -2 4.5 -5t6.5 -3h54q5 0 8.5 2.5t5 8t2 9t1 10t0.5 7.5q-1 120 -9 161.5t-40 41.5q-16 0 -25.5 -10t-9.5 -26v-176zM84 718l70 90l92 -20l-73 -76z" />
    <glyph glyph-name="Acircumflex" unicode="&#xc2;" horiz-adv-x="356" 
d="M203 249h-52q-12 0 -14 -6v-16q0 -27 3.5 -91.5t3.5 -90.5v-17q-5 -8 -13 -8h-76q-5 0 -8.5 2t-5 4t-3 6.5t-1.5 7t-0.5 8t-0.5 6.5q-3 99 -3 202q0 41 -1.5 105t-1.5 88q0 74 11 119t43 75q32 31 102 31q117 0 124 -185l16 -438q0 -18 -42 -18h-17q-12 0 -26.5 5.5
t-15.5 12.5l-9 171q-2 23 -13 27zM130 364l2 -20q0 -2 4.5 -5t6.5 -3h54q5 0 8.5 2.5t5 8t2 9t1 10t0.5 7.5q-1 120 -9 161.5t-40 41.5q-16 0 -25.5 -10t-9.5 -26v-176zM42 718q53 81 77.5 103.5t45.5 22.5q23 0 48 -23.5t79 -105.5l-81 -7l-45 63l-43 -61z" />
    <glyph glyph-name="Atilde" unicode="&#xc3;" horiz-adv-x="356" 
d="M203 249h-52q-12 0 -14 -6v-16q0 -27 3.5 -91.5t3.5 -90.5v-17q-5 -8 -13 -8h-76q-5 0 -8.5 2t-5 4t-3 6.5t-1.5 7t-0.5 8t-0.5 6.5q-3 99 -3 202q0 41 -1.5 105t-1.5 88q0 74 11 119t43 75q32 31 102 31q117 0 124 -185l16 -438q0 -18 -42 -18h-17q-12 0 -26.5 5.5
t-15.5 12.5l-9 171q-2 23 -13 27zM130 364l2 -20q0 -2 4.5 -5t6.5 -3h54q5 0 8.5 2.5t5 8t2 9t1 10t0.5 7.5q-1 120 -9 161.5t-40 41.5q-16 0 -25.5 -10t-9.5 -26v-176zM127 784q-14 0 -14 -21q0 -4 0.5 -13t0.5 -14q0 -12 -5 -17l-54 3q-10 36 -10 61q0 67 76 67
q17 0 37 -20t35 -39.5t18 -19.5q2 0 2 4q0 3 3.5 18t3.5 39v8l59 -5q5 -10 5 -28q0 -33 -18.5 -63t-47.5 -30q-34 0 -54.5 11.5t-27 25t-9.5 33.5z" />
    <glyph glyph-name="Adieresis" unicode="&#xc4;" horiz-adv-x="356" 
d="M203 249h-52q-12 0 -14 -6v-16q0 -27 3.5 -91.5t3.5 -90.5v-17q-5 -8 -13 -8h-76q-5 0 -8.5 2t-5 4t-3 6.5t-1.5 7t-0.5 8t-0.5 6.5q-3 99 -3 202q0 41 -1.5 105t-1.5 88q0 74 11 119t43 75q32 31 102 31q117 0 124 -185l16 -438q0 -18 -42 -18h-17q-12 0 -26.5 5.5
t-15.5 12.5l-9 171q-2 23 -13 27zM130 364l2 -20q0 -2 4.5 -5t6.5 -3h54q5 0 8.5 2.5t5 8t2 9t1 10t0.5 7.5q-1 120 -9 161.5t-40 41.5q-16 0 -25.5 -10t-9.5 -26v-176zM44 751q0 18 14 30.5t34 12.5t34 -12.5t14 -30.5t-14 -30.5t-34 -12.5t-34 12.5t-14 30.5zM186 754
q0 18 14 30.5t34 12.5t34 -12.5t14 -30.5t-14 -30.5t-34 -12.5t-34 12.5t-14 30.5z" />
    <glyph glyph-name="Aring" unicode="&#xc5;" horiz-adv-x="356" 
d="M60 731q0 39 32 67t77 28t77 -28t32 -67q0 -42 -37 -71q63 -37 69 -171l16 -438q0 -18 -42 -18h-17q-12 0 -26.5 5.5t-15.5 12.5l-9 171q-2 23 -13 27h-52q-12 0 -14 -6v-16q0 -27 3.5 -91.5t3.5 -90.5v-17q-5 -8 -13 -8h-76q-5 0 -8.5 2t-5 4t-3 6.5t-1.5 7t-0.5 8
t-0.5 6.5q-3 99 -3 202q0 41 -1.5 105t-1.5 88q0 74 11 119t43 75q9 9 17 13q-41 30 -41 75zM130 364l2 -20q0 -2 4.5 -5t6.5 -3h54q5 0 8.5 2.5t5 8t2 9t1 10t0.5 7.5q-1 120 -9 161.5t-40 41.5q-16 0 -25.5 -10t-9.5 -26v-176zM124 729q0 -33 55 -33q15 0 26 10t11 23
q0 14 -12 23.5t-28 9.5q-52 0 -52 -33z" />
    <glyph glyph-name="AE" unicode="&#xc6;" horiz-adv-x="464" 
d="M232 35q-4 114 -5 171l-1 20q-2 24 -14 28h-54q-13 0 -15 -6v-17q0 -29 3.5 -96t3.5 -95v-18q-5 -8 -14 -8h-80q-5 0 -8.5 2t-5.5 4t-3.5 7t-1.5 7t-0.5 8.5t-0.5 7.5q-3 104 -3 212q0 42 -1.5 109.5t-1.5 92.5q0 78 11.5 125t45.5 79q33 32 90 32h7q6 0 17.5 -0.5
t16.5 -0.5q134 -2 173.5 -5.5t39.5 -15.5v-76q0 -4 -8 -12q-15 0 -45 1t-46 1q-18 0 -18 -21q0 -75 6 -150q3 -2 16 -2h16q39 0 40 -17l5 -91q0 -14 -32 -14h-14q-19 0 -21 1q-7 -6 -7 -32v-54q0 -36 1 -55q2 -15 6.5 -20t16.5 -5q10 0 31.5 1t33.5 1q22 0 22 -20v-69
q0 -27 -16 -27h-177q-9 0 -9 17zM135 375l2 -21q0 -2 5 -5.5t7 -3.5h57q15 0 17 24q-1 34 -2 88q-2 92 -8 116t-35 24h-6q-37 -2 -37 -38v-184z" />
    <glyph glyph-name="Ccedilla" unicode="&#xc7;" horiz-adv-x="361" 
d="M82 106q-52 86 -52 250q0 88 16.5 165.5t52 129.5t82.5 52q38 0 64 -16.5t49 -51.5q11 -24 11 -33q0 -14 -9 -18l-58 -34h-4q-9 0 -16 18.5t-16 20.5h-12q-27 0 -42.5 -69t-15.5 -166q0 -88 17 -152t51 -68q20 0 30 11t11 24t5 24t14 11h55q16 0 16 -23q0 -74 -20.5 -109
t-82.5 -39l-12 -23q2 1 5 1q37 0 67 -25.5t30 -65.5q0 -49 -28.5 -74.5t-70.5 -25.5q-71 0 -105 72l57 39q7 -19 21.5 -30t28.5 -11t22.5 9.5t8.5 26.5q0 13 -7 21t-16 8q-13 0 -28 -25l-55 30l14 80q-49 18 -78 66z" />
    <glyph glyph-name="Egrave" unicode="&#xc8;" horiz-adv-x="286" 
d="M41 36q-11 337 -11 554q0 51 5.5 63.5t30.5 12.5h62q124 0 124 -21v-72q0 -3 -8 -11q-17 0 -48.5 1t-47.5 1q-20 0 -20 -20q0 -61 7 -142q3 -2 17 -2h17q41 0 42 -16l5 -87q0 -13 -33 -13h-15q-20 0 -23 1q-7 -6 -7 -30v-51q0 -34 1 -52q2 -14 6.5 -19t17.5 -5q11 0 34 1
t35 1q24 0 24 -19v-66q0 -25 -17 -25h-188q-7 0 -10 16zM140 791l70 -90l-89 -6l-73 76z" />
    <glyph glyph-name="Eacute" unicode="&#xc9;" horiz-adv-x="286" 
d="M41 36q-11 337 -11 554q0 51 5.5 63.5t30.5 12.5h62q124 0 124 -21v-72q0 -3 -8 -11q-17 0 -48.5 1t-47.5 1q-20 0 -20 -20q0 -61 7 -142q3 -2 17 -2h17q41 0 42 -16l5 -87q0 -13 -33 -13h-15q-20 0 -23 1q-7 -6 -7 -30v-51q0 -34 1 -52q2 -14 6.5 -19t17.5 -5q11 0 34 1
t35 1q24 0 24 -19v-66q0 -25 -17 -25h-188q-7 0 -10 16zM56 695l70 90l92 -20l-73 -76z" />
    <glyph glyph-name="Ecircumflex" unicode="&#xca;" horiz-adv-x="286" 
d="M41 36q-11 337 -11 554q0 51 5.5 63.5t30.5 12.5h62q124 0 124 -21v-72q0 -3 -8 -11q-17 0 -48.5 1t-47.5 1q-20 0 -20 -20q0 -61 7 -142q3 -2 17 -2h17q41 0 42 -16l5 -87q0 -13 -33 -13h-15q-20 0 -23 1q-7 -6 -7 -30v-51q0 -34 1 -52q2 -14 6.5 -19t17.5 -5q11 0 34 1
t35 1q24 0 24 -19v-66q0 -25 -17 -25h-188q-7 0 -10 16zM12 713q53 81 77.5 103.5t45.5 22.5q23 0 48 -23.5t79 -105.5l-81 -7l-45 63l-43 -61z" />
    <glyph glyph-name="Edieresis" unicode="&#xcb;" horiz-adv-x="286" 
d="M41 36q-11 337 -11 554q0 51 5.5 63.5t30.5 12.5h62q124 0 124 -21v-72q0 -3 -8 -11q-17 0 -48.5 1t-47.5 1q-20 0 -20 -20q0 -61 7 -142q3 -2 17 -2h17q41 0 42 -16l5 -87q0 -13 -33 -13h-15q-20 0 -23 1q-7 -6 -7 -30v-51q0 -34 1 -52q2 -14 6.5 -19t17.5 -5q11 0 34 1
t35 1q24 0 24 -19v-66q0 -25 -17 -25h-188q-7 0 -10 16zM20 742q0 18 14 30.5t34 12.5t34 -12.5t14 -30.5t-14 -30.5t-34 -12.5t-34 12.5t-14 30.5zM162 745q0 18 14 30.5t34 12.5t34 -12.5t14 -30.5t-14 -30.5t-34 -12.5t-34 12.5t-14 30.5z" />
    <glyph glyph-name="Igrave" unicode="&#xcc;" horiz-adv-x="175" 
d="M30 48q0 124 4 310t4 275q0 8 7 13.5t15 5.5h59q26 0 26 -40q0 -5 -0.5 -14t-0.5 -12q0 -42 -5 -277t-5 -255v-3q0 -25 -9 -25h-83q-12 0 -12 22zM85 781l70 -90l-89 -6l-73 76z" />
    <glyph glyph-name="Iacute" unicode="&#xcd;" horiz-adv-x="175" 
d="M30 48q0 124 4 310t4 275q0 8 7 13.5t15 5.5h59q26 0 26 -40q0 -5 -0.5 -14t-0.5 -12q0 -42 -5 -277t-5 -255v-3q0 -25 -9 -25h-83q-12 0 -12 22zM7 687l70 90l92 -20l-73 -76z" />
    <glyph glyph-name="Icircumflex" unicode="&#xce;" horiz-adv-x="175" 
d="M30 48q0 124 4 310t4 275q0 8 7 13.5t15 5.5h59q26 0 26 -40q0 -5 -0.5 -14t-0.5 -12q0 -42 -5 -277t-5 -255v-3q0 -25 -9 -25h-83q-12 0 -12 22zM-37 705q53 81 77.5 103.5t45.5 22.5q23 0 48 -23.5t79 -105.5l-81 -7l-45 63l-43 -61z" />
    <glyph glyph-name="Idieresis" unicode="&#xcf;" horiz-adv-x="175" 
d="M30 48q0 124 4 310t4 275q0 8 7 13.5t15 5.5h59q26 0 26 -40q0 -5 -0.5 -14t-0.5 -12q0 -42 -5 -277t-5 -255v-3q0 -25 -9 -25h-83q-12 0 -12 22zM-29 732q0 18 14 30.5t34 12.5t34 -12.5t14 -30.5t-14 -30.5t-34 -12.5t-34 12.5t-14 30.5zM113 735q0 18 14 30.5t34 12.5
t34 -12.5t14 -30.5t-14 -30.5t-34 -12.5t-34 12.5t-14 30.5z" />
    <glyph glyph-name="Eth" unicode="&#xd0;" horiz-adv-x="398" 
d="M30 313v27q2 30 11 32q2 0 6 -0.5t6 -0.5l-1 291q0 20 25 20h18q157 0 215 -82t58 -277q0 -82 -19 -146t-68 -110.5t-125 -50.5h-6l-87 3l-9 8l-1 258l-16 1q-7 0 -7 27zM154 171v-43q2 -8 25 -8q35 0 61 73.5t26 160.5q0 67 -18.5 129t-41.5 82q-19 17 -43 17
q-13 0 -13 -19q0 -12 0.5 -62t1 -93t0.5 -39q23 0 33.5 -2t12.5 -4t2 -7v-38q0 -23 -6 -35h-41q1 -36 1 -112z" />
    <glyph glyph-name="Ntilde" unicode="&#xd1;" horiz-adv-x="406" 
d="M243 76l-109 341q-1 -59 -1 -181l-1 -188q0 -18 -2.5 -22.5t-14.5 -7.5q-1 0 -12.5 -1t-20.5 -1q-52 0 -52 26v322q0 37 0.5 112.5t0.5 113.5q0 6 -0.5 18.5t-0.5 19.5q0 51 25 51l82 -1q22 0 28 -21q86 -279 109 -343l1 137q0 28 -1.5 85t-1.5 87q0 45 25 45l62 -1
q14 0 16 -16q1 -61 1 -183q0 -70 -1.5 -207.5t-1.5 -220.5q-3 -16 -21 -16l-71 1q-25 0 -38 51zM167 771q-14 0 -14 -21q0 -4 0.5 -13t0.5 -14q0 -12 -5 -17l-54 3q-10 36 -10 61q0 67 76 67q17 0 37 -19.5t35 -39.5t18 -20q2 0 2 4q0 2 3.5 18t3.5 39v8l59 -5q5 -10 5 -28
q0 -33 -18.5 -63t-47.5 -30q-34 0 -54.5 11.5t-27 25t-9.5 33.5z" />
    <glyph glyph-name="Ograve" unicode="&#xd2;" 
d="M200 26q-43 0 -75.5 16.5t-50 41.5t-28 62.5t-13.5 70.5t-3 74q0 107 12 222q4 31 13.5 60t26.5 56t45.5 43t64.5 16q46 0 79.5 -16t52.5 -40.5t29.5 -64t13.5 -75.5t3 -86q0 -301 -73 -349q-46 -31 -97 -31zM210 577q-76 0 -76 -190q0 -16 0.5 -41t0.5 -34
q0 -168 54 -168q47 0 64 45.5t18 126.5v86q0 92 -11.5 133.5t-49.5 41.5zM197 803l70 -90l-89 -6l-73 76z" />
    <glyph glyph-name="Oacute" unicode="&#xd3;" 
d="M200 26q-43 0 -75.5 16.5t-50 41.5t-28 62.5t-13.5 70.5t-3 74q0 107 12 222q4 31 13.5 60t26.5 56t45.5 43t64.5 16q46 0 79.5 -16t52.5 -40.5t29.5 -64t13.5 -75.5t3 -86q0 -301 -73 -349q-46 -31 -97 -31zM210 577q-76 0 -76 -190q0 -16 0.5 -41t0.5 -34
q0 -168 54 -168q47 0 64 45.5t18 126.5v86q0 92 -11.5 133.5t-49.5 41.5zM115 711l70 90l92 -20l-73 -76z" />
    <glyph glyph-name="Ocircumflex" unicode="&#xd4;" 
d="M200 26q-43 0 -75.5 16.5t-50 41.5t-28 62.5t-13.5 70.5t-3 74q0 107 12 222q4 31 13.5 60t26.5 56t45.5 43t64.5 16q46 0 79.5 -16t52.5 -40.5t29.5 -64t13.5 -75.5t3 -86q0 -301 -73 -349q-46 -31 -97 -31zM210 577q-76 0 -76 -190q0 -16 0.5 -41t0.5 -34
q0 -168 54 -168q47 0 64 45.5t18 126.5v86q0 92 -11.5 133.5t-49.5 41.5zM73 723q53 81 77.5 103.5t45.5 22.5q23 0 48 -23.5t79 -105.5l-81 -7l-45 63l-43 -61z" />
    <glyph glyph-name="Otilde" unicode="&#xd5;" 
d="M200 26q-43 0 -75.5 16.5t-50 41.5t-28 62.5t-13.5 70.5t-3 74q0 107 12 222q4 31 13.5 60t26.5 56t45.5 43t64.5 16q46 0 79.5 -16t52.5 -40.5t29.5 -64t13.5 -75.5t3 -86q0 -301 -73 -349q-46 -31 -97 -31zM210 577q-76 0 -76 -190q0 -16 0.5 -41t0.5 -34
q0 -168 54 -168q47 0 64 45.5t18 126.5v86q0 92 -11.5 133.5t-49.5 41.5zM156 769q-14 0 -14 -21q0 -4 0.5 -13t0.5 -14q0 -12 -5 -17l-54 3q-10 36 -10 61q0 67 76 67q17 0 37 -19.5t35 -39.5t18 -20q2 0 2 4q0 3 3.5 18.5t3.5 38.5v8l59 -5q5 -10 5 -28q0 -33 -18.5 -63
t-47.5 -30q-34 0 -54.5 11.5t-27 25t-9.5 33.5z" />
    <glyph glyph-name="Odieresis" unicode="&#xd6;" 
d="M200 26q-43 0 -75.5 16.5t-50 41.5t-28 62.5t-13.5 70.5t-3 74q0 107 12 222q4 31 13.5 60t26.5 56t45.5 43t64.5 16q46 0 79.5 -16t52.5 -40.5t29.5 -64t13.5 -75.5t3 -86q0 -301 -73 -349q-46 -31 -97 -31zM210 577q-76 0 -76 -190q0 -16 0.5 -41t0.5 -34
q0 -168 54 -168q47 0 64 45.5t18 126.5v86q0 92 -11.5 133.5t-49.5 41.5zM79 750q0 18 14 30.5t34 12.5t34 -12.5t14 -30.5t-14 -30.5t-34 -12.5t-34 12.5t-14 30.5zM221 753q0 18 14 30.5t34 12.5t34 -12.5t14 -30.5t-14 -30.5t-34 -12.5t-34 12.5t-14 30.5z" />
    <glyph glyph-name="multiply" unicode="&#xd7;" horiz-adv-x="420" 
d="M344 497l24 -24q17 -17 17 -30q0 -9 -6 -16l-93 -94q62 -61 83 -84.5t21 -32.5q0 -4 -5 -9l-28 -31q-20 -20 -42 -20l-103 100q-99 -101 -116 -101q-4 0 -10 6q-3 3 -15 12t-16 13q-20 18 -20 42l100 103l-101 98q-4 4 -4 11q0 10 15 25l24 24q19 17 31 17q9 0 16 -6
l94 -93l98 101q7 5 11 5q11 0 25 -16z" />
    <glyph glyph-name="Oslash" unicode="&#xd8;" 
d="M200 26q-56 0 -94 27l-6 -19l-30 18l9 27q-49 62 -49 212q0 107 12 222q4 31 13.5 60t26.5 56t45.5 43t64.5 16q50 0 86 -19l6 19l32 -14l-9 -25q38 -35 50.5 -95t12.5 -148q0 -301 -73 -349q-46 -31 -97 -31zM271 402q0 82 -7 117l-114 -338q13 -37 39 -37q47 0 64 45.5
t18 126.5v86zM210 577q-76 0 -76 -190q0 -16 0.5 -41t0.5 -34q0 -41 2 -61l105 314q-12 12 -32 12z" />
    <glyph glyph-name="Ugrave" unicode="&#xd9;" horiz-adv-x="411" 
d="M216 4q-39 0 -69 10.5t-49 27.5t-32.5 44.5t-19.5 53t-9.5 62.5t-4 65.5t-1 68t-1.5 63.5v44q0 109 10 185q4 27 27 27h60q2 0 7 -3t5 -6v-383q0 -98 17.5 -127t79.5 -29q21 0 30.5 29t9.5 64l2 446h84q2 0 7 -2.5t6 -6.5q6 -235 6 -334v-64q0 -42 -2 -70t-11.5 -61
t-26.5 -53t-48.5 -34.5t-76.5 -16.5zM214 777l70 -90l-89 -6l-73 76z" />
    <glyph glyph-name="Uacute" unicode="&#xda;" horiz-adv-x="411" 
d="M216 4q-39 0 -69 10.5t-49 27.5t-32.5 44.5t-19.5 53t-9.5 62.5t-4 65.5t-1 68t-1.5 63.5v44q0 109 10 185q4 27 27 27h60q2 0 7 -3t5 -6v-383q0 -98 17.5 -127t79.5 -29q21 0 30.5 29t9.5 64l2 446h84q2 0 7 -2.5t6 -6.5q6 -235 6 -334v-64q0 -42 -2 -70t-11.5 -61
t-26.5 -53t-48.5 -34.5t-76.5 -16.5zM120 693l70 90l92 -20l-73 -76z" />
    <glyph glyph-name="Ucircumflex" unicode="&#xdb;" horiz-adv-x="411" 
d="M216 4q-39 0 -69 10.5t-49 27.5t-32.5 44.5t-19.5 53t-9.5 62.5t-4 65.5t-1 68t-1.5 63.5v44q0 109 10 185q4 27 27 27h60q2 0 7 -3t5 -6v-383q0 -98 17.5 -127t79.5 -29q21 0 30.5 29t9.5 64l2 446h84q2 0 7 -2.5t6 -6.5q6 -235 6 -334v-64q0 -42 -2 -70t-11.5 -61
t-26.5 -53t-48.5 -34.5t-76.5 -16.5zM88 699q53 81 77.5 103.5t45.5 22.5q23 0 48 -23.5t79 -105.5l-81 -7l-45 63l-43 -61z" />
    <glyph glyph-name="Udieresis" unicode="&#xdc;" horiz-adv-x="411" 
d="M216 4q-39 0 -69 10.5t-49 27.5t-32.5 44.5t-19.5 53t-9.5 62.5t-4 65.5t-1 68t-1.5 63.5v44q0 109 10 185q4 27 27 27h60q2 0 7 -3t5 -6v-383q0 -98 17.5 -127t79.5 -29q21 0 30.5 29t9.5 64l2 446h84q2 0 7 -2.5t6 -6.5q6 -235 6 -334v-64q0 -42 -2 -70t-11.5 -61
t-26.5 -53t-48.5 -34.5t-76.5 -16.5zM96 732q0 18 14 30.5t34 12.5t34 -12.5t14 -30.5t-14 -30.5t-34 -12.5t-34 12.5t-14 30.5zM238 735q0 18 14 30.5t34 12.5t34 -12.5t14 -30.5t-14 -30.5t-34 -12.5t-34 12.5t-14 30.5z" />
    <glyph glyph-name="Yacute" unicode="&#xdd;" horiz-adv-x="417" 
d="M150 20v269q0 11 -12 19q-71 8 -89.5 33t-18.5 112q0 32 2.5 98t2.5 102q0 28 37 28q2 0 7.5 -0.5t16 -0.5h26.5q22 -2 22 -19q0 -31 -5 -95.5t-5 -96.5q0 -5 0.5 -13t0.5 -13q1 -13 24.5 -24t50.5 -11q54 0 57 44l12 209q0 11 8 15q57 5 80 5q20 0 20 -14q0 -12 -1 -21
q-3 -40 -4.5 -90t-2 -77t-4.5 -58.5t-11.5 -49t-23 -32t-40.5 -22.5q-4 -1 -13 -2t-15.5 -2.5t-10.5 -6.5v-28q0 -31 1 -93t1 -93q0 -46 -1 -69q-4 -13 -15 -13h-87zM121 719l70 90l92 -20l-73 -76z" />
    <glyph glyph-name="Thorn" unicode="&#xde;" horiz-adv-x="354" 
d="M48 23l-17 604l-1 7v10t0.5 9.5t0.5 8.5q1 4 6.5 7.5t9.5 3.5h80q5 0 11 -5.5t6 -10.5v-131q0 -4 12 -10h17q81 0 116 -38t35 -123q0 -84 -30 -127.5t-104 -43.5q-4 0 -30 2q-11 -4 -12 -6v-13q0 -25 2 -72t2 -71v-18q-6 -8 -15 -8h-70q-17 0 -19 25zM166 413h-6
q-14 0 -14 -8v-111q0 -12 23 -12q47 0 55 31v24q1 24 1 26q0 29 -14 39.5t-45 10.5z" />
    <glyph glyph-name="germandbls" unicode="&#xdf;" horiz-adv-x="456" 
d="M262 122q12 2 38 2q12 1 18 25t6 48q0 31 -7 48q-11 26 -27.5 45.5t-29.5 29.5t-44 31q-38 26 -48 57t-10 84q0 8 7 40.5t7 37.5q0 10 -15 10q-1 0 -4.5 -0.5t-5.5 -0.5q-13 -1 -13 -254q0 -36 0.5 -88t0.5 -60v-14q0 -19 1.5 -56.5t1.5 -55.5v-23q-1 -5 -19 -11h-37
q-30 0 -37 6t-9 38q-5 76 -6 325q0 53 2 91t9 82.5t19.5 72.5t36 46.5t55.5 18.5q13 0 19 -1q89 -6 89 -71q0 -21 -11 -63.5t-11 -59.5q0 -26 14 -47t27.5 -30.5t42.5 -26.5l9 -6q95 -58 95 -206q0 -156 -135 -172q-34 0 -34 20l-1 77q0 9 6 11z" />
    <glyph glyph-name="agrave" unicode="&#xe0;" horiz-adv-x="399" 
d="M30 51q3 71 3 217v119q0 66 3 106.5t12.5 78.5t28.5 57.5t51 31t79 11.5h15q33 -1 56 -11.5t35.5 -24t20 -41t9.5 -46.5t4 -57v-2q1 -60 4 -462q0 -24 -20 -24h-64q-23 0 -23 40v17q0 125 -2 175q-5 11 -20 11l-74 1q-18 0 -18 -20v-202q0 -4 -6.5 -9t-11.5 -5h-61
q-21 0 -21 39zM136 378q0 -32 24 -33q24 0 54 -2h9q21 0 23 29q2 58 2 77q0 68 -7 92.5t-25 24.5q-2 0 -13 1t-20 1q-47 -3 -47 -83v-107zM210 818l70 -90l-89 -6l-73 76z" />
    <glyph glyph-name="aacute" unicode="&#xe1;" horiz-adv-x="399" 
d="M30 51q3 71 3 217v119q0 66 3 106.5t12.5 78.5t28.5 57.5t51 31t79 11.5h15q33 -1 56 -11.5t35.5 -24t20 -41t9.5 -46.5t4 -57v-2q1 -60 4 -462q0 -24 -20 -24h-64q-23 0 -23 40v17q0 125 -2 175q-5 11 -20 11l-74 1q-18 0 -18 -20v-202q0 -4 -6.5 -9t-11.5 -5h-61
q-21 0 -21 39zM136 378q0 -32 24 -33q24 0 54 -2h9q21 0 23 29q2 58 2 77q0 68 -7 92.5t-25 24.5q-2 0 -13 1t-20 1q-47 -3 -47 -83v-107zM118 728l70 90l92 -20l-73 -76z" />
    <glyph glyph-name="acircumflex" unicode="&#xe2;" horiz-adv-x="399" 
d="M30 51q3 71 3 217v119q0 66 3 106.5t12.5 78.5t28.5 57.5t51 31t79 11.5h15q33 -1 56 -11.5t35.5 -24t20 -41t9.5 -46.5t4 -57v-2q1 -60 4 -462q0 -24 -20 -24h-64q-23 0 -23 40v17q0 125 -2 175q-5 11 -20 11l-74 1q-18 0 -18 -20v-202q0 -4 -6.5 -9t-11.5 -5h-61
q-21 0 -21 39zM136 378q0 -32 24 -33q24 0 54 -2h9q21 0 23 29q2 58 2 77q0 68 -7 92.5t-25 24.5q-2 0 -13 1t-20 1q-47 -3 -47 -83v-107zM76 710q53 81 77.5 103.5t45.5 22.5q23 0 48 -23.5t79 -105.5l-81 -7l-45 63l-43 -61z" />
    <glyph glyph-name="atilde" unicode="&#xe3;" horiz-adv-x="381" 
d="M30 51q3 71 3 217v119q0 66 3 106.5t12.5 78.5t28.5 57.5t51 31t79 11.5h15q33 -1 56 -11.5t35.5 -24t20 -41t9.5 -46.5t4 -57v-2q1 -60 4 -462q0 -24 -20 -24h-64q-23 0 -23 40v17q0 125 -2 175q-5 11 -20 11l-74 1q-18 0 -18 -20v-202q0 -4 -6.5 -9t-11.5 -5h-61
q-21 0 -21 39zM136 378q0 -32 24 -33q24 0 54 -2h9q21 0 23 29q2 58 2 77q0 68 -7 92.5t-25 24.5q-2 0 -13 1t-20 1q-47 -3 -47 -83v-107zM153 766q-14 0 -14 -21q0 -4 0.5 -13t0.5 -14q0 -12 -5 -17l-54 3q-10 36 -10 61q0 67 76 67q17 0 37 -20t35 -39.5t18 -19.5q2 0 2 4
q0 3 3.5 18t3.5 39v8l59 -5q5 -10 5 -28q0 -33 -18.5 -63t-47.5 -30q-34 0 -54.5 11.5t-27 25t-9.5 33.5z" />
    <glyph glyph-name="adieresis" unicode="&#xe4;" horiz-adv-x="399" 
d="M30 51q3 71 3 217v119q0 66 3 106.5t12.5 78.5t28.5 57.5t51 31t79 11.5h15q82 -3 110 -48.5t34 -139.5l3 -448q0 -24 -20 -24h-64q-23 0 -23 40v17q0 118 -2 168q-5 11 -20 11h-92q-18 0 -18 -20v-202q0 -4 -6.5 -9t-11.5 -5h-61q-21 0 -21 39zM136 378q0 -32 24 -33
q23 0 68 -3h9q21 0 23 32q1 15 1 48v57q0 61 -11 75t-67 14q-47 0 -47 -83v-107zM80 743q0 18 14 30.5t34 12.5t34 -12.5t14 -30.5t-14 -30.5t-34 -12.5t-34 12.5t-14 30.5zM222 746q0 18 14 30.5t34 12.5t34 -12.5t14 -30.5t-14 -30.5t-34 -12.5t-34 12.5t-14 30.5z" />
    <glyph glyph-name="aring" unicode="&#xe5;" horiz-adv-x="399" 
d="M92 723q0 39 32 67t77 28t77 -28t32 -67q0 -36 -27 -63q45 -17 61.5 -59.5t21.5 -116.5l3 -448q0 -24 -20 -24h-64q-23 0 -23 40v17q0 118 -2 168q-5 11 -20 11h-92q-18 0 -18 -20v-202q0 -4 -6.5 -9t-11.5 -5h-61q-21 0 -21 39q0 35 1.5 106.5t1.5 110.5v119
q0 129 16 189.5t71 82.5q-28 28 -28 64zM136 378q0 -36 24 -37q1 0 11 0.5t24 0.5h25h17q21 0 23 32q1 15 1 48v57q0 61 -11 75t-67 14q-47 0 -47 -83v-107zM156 721q0 -33 55 -33q15 0 26 10t11 23q0 14 -12 23.5t-28 9.5q-52 0 -52 -33z" />
    <glyph glyph-name="ae" unicode="&#xe6;" horiz-adv-x="542" 
d="M30 51q3 71 3 217v119q0 164 35 223.5t140 59.5h40q9 0 54.5 -1t101.5 -2.5t75 -1.5q9 -3 12 -11q1 -23 1 -71q0 -5 -1 -7.5t-2.5 -5.5t-5.5 -4.5t-10 -1.5h-108l-9 -9l6 -165l84 -3q15 -1 15 -42v-8l-3 -24q0 -21 -14 -21h-76q-1 0 -2 -1l-1.5 -1.5t-1.5 -0.5l-3 -3
l5 -154q3 -19 20 -19h107q20 0 20 -27l-5 -57q-2 -12 -15 -16q-94 -3 -141 -3q-40 0 -59 2.5t-22 5.5t-4 11l-8 211q-5 8 -18 8h-92q-18 0 -18 -20v-202q0 -4 -6.5 -9t-11.5 -5h-61q-21 0 -21 39zM136 378q0 -32 24 -33q23 0 68 -3h9q15 0 20 16v182q-4 17 -20 22.5t-54 5.5
q-47 0 -47 -83v-107z" />
    <glyph glyph-name="ccedilla" unicode="&#xe7;" horiz-adv-x="365" 
d="M141 132q2 -13 16 -23t30 -10q32 0 39 35q1 3 2 5l1 1q5 13 7 18t8 10.5t14 5.5q22 0 73 -37q-8 -69 -36.5 -103.5t-98.5 -35.5l-14 -26q2 1 5 1q37 0 67 -25.5t30 -65.5q0 -49 -28.5 -74.5t-70.5 -25.5q-71 0 -105 72l57 39q7 -19 21.5 -30t28.5 -11t22.5 9.5t8.5 26.5
q0 13 -7 21t-16 8q-13 0 -28 -25l-55 30l14 83q-62 16 -75 67q-21 80 -21 332q0 39 1 64.5t5.5 62t15 59t27 45t44 33.5t64.5 11q55 0 99.5 -34t48.5 -91v-5q0 -27 -23 -38t-45 -11h-5q-12 2 -18 14.5t-7.5 25.5t-11.5 24t-30 11q-1 0 -4.5 -0.5t-5.5 -0.5q-22 -2 -32.5 -12
t-12.5 -20t-2 -30v-12q0 -289 3 -368z" />
    <glyph glyph-name="egrave" unicode="&#xe8;" horiz-adv-x="315" 
d="M33 666q5 13 24 13h81q82 0 114 -2q9 -3 12 -11q1 -23 1 -71q0 -5 -1 -7.5t-2.5 -5.5t-5.5 -4.5t-10 -1.5h-108l-9 -9l6 -165l84 -3q15 -1 15 -42v-8l-3 -24q0 -21 -14 -21h-76q-1 0 -2 -1l-1.5 -1.5t-1.5 -0.5l-3 -3l5 -154q3 -19 20 -19h107q20 0 20 -27l-5 -57
q-2 -12 -15 -16l-211 -8q-7 0 -11 11.5t-8 70.5t-4 170q0 32 -0.5 96.5t-0.5 97.5q0 98 3 203zM168 818l70 -90l-89 -6l-73 76z" />
    <glyph glyph-name="eacute" unicode="&#xe9;" horiz-adv-x="315" 
d="M33 666q5 13 24 13h81q82 0 114 -2q9 -3 12 -11q1 -23 1 -71q0 -5 -1 -7.5t-2.5 -5.5t-5.5 -4.5t-10 -1.5h-108l-9 -9l6 -165l84 -3q15 -1 15 -42v-8l-3 -24q0 -21 -14 -21h-76q-1 0 -2 -1l-1.5 -1.5t-1.5 -0.5l-3 -3l5 -154q3 -19 20 -19h107q20 0 20 -27l-5 -57
q-2 -12 -15 -16l-211 -8q-7 0 -11 11.5t-8 70.5t-4 170q0 32 -0.5 96.5t-0.5 97.5q0 98 3 203zM76 728l70 90l92 -20l-73 -76z" />
    <glyph glyph-name="ecircumflex" unicode="&#xea;" horiz-adv-x="315" 
d="M33 666q5 13 24 13h81q82 0 114 -2q9 -3 12 -11q1 -23 1 -71q0 -5 -1 -7.5t-2.5 -5.5t-5.5 -4.5t-10 -1.5h-108l-9 -9l6 -165l84 -3q15 -1 15 -42v-8l-3 -24q0 -21 -14 -21h-76q-1 0 -2 -1l-1.5 -1.5t-1.5 -0.5l-3 -3l5 -154q3 -19 20 -19h107q20 0 20 -27l-5 -57
q-2 -12 -15 -16l-211 -8q-7 0 -11 11.5t-8 70.5t-4 170q0 32 -0.5 96.5t-0.5 97.5q0 98 3 203zM14 726q53 81 77.5 103.5t45.5 22.5q23 0 48 -23.5t79 -105.5l-81 -7l-45 63l-43 -61z" />
    <glyph glyph-name="edieresis" unicode="&#xeb;" horiz-adv-x="315" 
d="M33 666q5 13 24 13h81q82 0 114 -2q9 -3 12 -11q1 -23 1 -71q0 -5 -1 -7.5t-2.5 -5.5t-5.5 -4.5t-10 -1.5h-108l-9 -9l6 -165l84 -3q15 -1 15 -42v-8l-3 -24q0 -21 -14 -21h-76q-1 0 -2 -1l-1.5 -1.5t-1.5 -0.5l-3 -3l5 -154q3 -19 20 -19h107q20 0 20 -27l-5 -57
q-2 -12 -15 -16l-211 -8q-7 0 -11 11.5t-8 70.5t-4 170q0 32 -0.5 96.5t-0.5 97.5q0 98 3 203zM38 767q0 18 14 30.5t34 12.5t34 -12.5t14 -30.5t-14 -30.5t-34 -12.5t-34 12.5t-14 30.5zM180 770q0 18 14 30.5t34 12.5t34 -12.5t14 -30.5t-14 -30.5t-34 -12.5t-34 12.5
t-14 30.5z" />
    <glyph glyph-name="igrave" unicode="&#xec;" horiz-adv-x="171" 
d="M45 58q-15 140 -15 411q0 128 1 208q0 5 4.5 9.5t10.5 4.5h65q15 0 17 -22l13 -596q0 -23 -18 -25l-62 -9q-7 0 -11.5 6t-4.5 13zM97 818l70 -90l-89 -6l-73 76z" />
    <glyph glyph-name="iacute" unicode="&#xed;" horiz-adv-x="171" 
d="M45 58q-15 140 -15 411q0 128 1 208q0 5 4.5 9.5t10.5 4.5h65q15 0 17 -22l13 -596q0 -23 -18 -25l-62 -9q-7 0 -11.5 6t-4.5 13zM5 728l70 90l92 -20l-73 -76z" />
    <glyph glyph-name="icircumflex" unicode="&#xee;" horiz-adv-x="171" 
d="M45 58q-15 140 -15 411q0 128 1 208q0 5 4.5 9.5t10.5 4.5h65q15 0 17 -22l13 -596q0 -23 -18 -25l-62 -9q-7 0 -11.5 6t-4.5 13zM-39 732q53 81 77.5 103.5t45.5 22.5q23 0 48 -23.5t79 -105.5l-81 -7l-45 63l-43 -61z" />
    <glyph glyph-name="idieresis" unicode="&#xef;" horiz-adv-x="171" 
d="M45 58q-15 140 -15 411q0 128 1 208q0 5 4.5 9.5t10.5 4.5h65q15 0 17 -22l13 -596q0 -23 -18 -25l-62 -9q-7 0 -11.5 6t-4.5 13zM-33 767q0 18 14 30.5t34 12.5t34 -12.5t14 -30.5t-14 -30.5t-34 -12.5t-34 12.5t-14 30.5zM109 770q0 18 14 30.5t34 12.5t34 -12.5
t14 -30.5t-14 -30.5t-34 -12.5t-34 12.5t-14 30.5z" />
    <glyph glyph-name="eth" unicode="&#xf0;" horiz-adv-x="390" 
d="M30 323v27q2 30 11 32q3 0 7 -0.5t7 -0.5l-13 293q0 15 10 21h20q40 0 65.5 -1t54.5 -4.5t46 -10t36.5 -19t30 -29.5t21.5 -43t16.5 -57.5t10 -76t6 -96t1.5 -118.5v-8q-1 -34 -4.5 -56.5t-12.5 -47.5t-26.5 -40.5t-45 -28.5t-69 -19t-98.5 -6q-38 0 -40 36v14
q0 47 -6 211l-21 1q-7 0 -7 27zM146 585v-18q0 -81 5 -188q23 0 33.5 -1.5t13 -4t2.5 -7.5v-38q0 -23 -6 -35h-39l2 -63q0 -4 1 -34t1 -35q4 -26 8 -28q56 8 73 36.5t17 115.5v25l-2 33q-9 150 -26 195q-19 51 -60 51q-12 0 -23 -4z" />
    <glyph glyph-name="ntilde" unicode="&#xf1;" horiz-adv-x="441" 
d="M283 22l-148 471q-3 0 -3 -53q0 -33 2.5 -180.5t2.5 -235.5q0 -25 -34 -25q-3 0 -9 0.5t-9 0.5q-2 0 -8.5 -0.5t-10.5 -0.5q-28 0 -32 14l-1 287q0 42 -1.5 125.5t-1.5 124.5q0 8 0.5 49t0.5 49q2 15 16 15h117q18 0 18 -11l138 -460l-23 459q6 13 18 13h70q12 0 15 -8
v-6q0 -13 3 -90.5t3 -116.5q0 -5 2.5 -129t2.5 -194q0 -113 -6 -113h-102q-13 0 -20 15zM183 756q-14 0 -14 -21q0 -4 0.5 -13t0.5 -14q0 -12 -5 -17l-54 3q-10 36 -10 61q0 67 76 67q17 0 37 -20t35 -39.5t18 -19.5q2 0 2 4q0 3 3.5 18t3.5 39v8l59 -5q5 -10 5 -28
q0 -33 -18.5 -63t-47.5 -30q-34 0 -54.5 11.5t-27 25t-9.5 33.5z" />
    <glyph glyph-name="ograve" unicode="&#xf2;" horiz-adv-x="369" 
d="M52 72q-22 79 -22 332q0 39 1 64.5t5.5 62t15 59t27 45t44 33.5t64.5 11q55 0 99.5 -34t48.5 -91q4 -68 4 -152q0 -28 -0.5 -60.5t-1.5 -72.5t-1 -64v-4q-3 -45 -5.5 -67.5t-11.5 -53.5t-23 -45.5t-40 -25.5t-64 -11q-122 0 -140 74zM141 132q2 -13 16 -23t30 -10
q32 0 39 35q8 165 8 344v52q-2 23 -12.5 33.5t-36.5 10.5q-16 0 -26.5 -5t-14.5 -15t-5 -18.5t-1 -23.5v-12q0 -289 3 -368zM195 818l70 -90l-89 -6l-73 76z" />
    <glyph glyph-name="oacute" unicode="&#xf3;" horiz-adv-x="369" 
d="M52 72q-22 79 -22 332q0 39 1 64.5t5.5 62t15 59t27 45t44 33.5t64.5 11q55 0 99.5 -34t48.5 -91q4 -68 4 -152q0 -28 -0.5 -60.5t-1.5 -72.5t-1 -64v-4q-3 -45 -5.5 -67.5t-11.5 -53.5t-23 -45.5t-40 -25.5t-64 -11q-122 0 -140 74zM141 132q2 -13 16 -23t30 -10
q32 0 39 35q8 165 8 344v52q-2 23 -12.5 33.5t-36.5 10.5q-16 0 -26.5 -5t-14.5 -15t-5 -18.5t-1 -23.5v-12q0 -289 3 -368zM103 728l70 90l92 -20l-73 -76z" />
    <glyph glyph-name="ocircumflex" unicode="&#xf4;" horiz-adv-x="369" 
d="M52 72q-22 79 -22 332q0 39 1 64.5t5.5 62t15 59t27 45t44 33.5t64.5 11q55 0 99.5 -34t48.5 -91q4 -68 4 -152q0 -28 -0.5 -60.5t-1.5 -72.5t-1 -64v-4q-3 -45 -5.5 -67.5t-11.5 -53.5t-23 -45.5t-40 -25.5t-64 -11q-122 0 -140 74zM141 132q2 -13 16 -23t30 -10
q32 0 39 35q8 165 8 344v52q-2 23 -12.5 33.5t-36.5 10.5q-16 0 -26.5 -5t-14.5 -15t-5 -18.5t-1 -23.5v-12q0 -289 3 -368zM57 712q53 81 77.5 103.5t45.5 22.5q23 0 48 -23.5t79 -105.5l-81 -7l-45 63l-43 -61z" />
    <glyph glyph-name="otilde" unicode="&#xf5;" horiz-adv-x="369" 
d="M52 72q-22 79 -22 332q0 39 1 64.5t5.5 62t15 59t27 45t44 33.5t64.5 11q55 0 99.5 -34t48.5 -91q4 -68 4 -152q0 -28 -0.5 -60.5t-1.5 -72.5t-1 -64v-4q-3 -45 -5.5 -67.5t-11.5 -53.5t-23 -45.5t-40 -25.5t-64 -11q-122 0 -140 74zM141 132q2 -13 16 -23t30 -10
q32 0 39 35q8 165 8 344v52q-2 23 -12.5 33.5t-36.5 10.5q-16 0 -26.5 -5t-14.5 -15t-5 -18.5t-1 -23.5v-12q0 -289 3 -368zM137 768q-14 0 -14 -21q0 -4 0.5 -13t0.5 -14q0 -12 -5 -17l-54 3q-10 36 -10 61q0 67 76 67q17 0 37 -20t35 -39.5t18 -19.5q2 0 2 4q0 3 3.5 18
t3.5 39v8l59 -5q5 -10 5 -28q0 -33 -18.5 -63t-47.5 -30q-34 0 -54.5 11.5t-27 25t-9.5 33.5z" />
    <glyph glyph-name="odieresis" unicode="&#xf6;" horiz-adv-x="369" 
d="M52 72q-22 79 -22 332q0 39 1 64.5t5.5 62t15 59t27 45t44 33.5t64.5 11q55 0 99.5 -34t48.5 -91q4 -68 4 -152q0 -28 -0.5 -60.5t-1.5 -72.5t-1 -64v-4q-3 -45 -5.5 -67.5t-11.5 -53.5t-23 -45.5t-40 -25.5t-64 -11q-122 0 -140 74zM141 132q2 -13 16 -23t30 -10
q32 0 39 35q8 165 8 344v52q-2 23 -12.5 33.5t-36.5 10.5q-16 0 -26.5 -5t-14.5 -15t-5 -18.5t-1 -23.5v-12q0 -289 3 -368zM69 745q0 18 14 30.5t34 12.5t34 -12.5t14 -30.5t-14 -30.5t-34 -12.5t-34 12.5t-14 30.5zM211 748q0 18 14 30.5t34 12.5t34 -12.5t14 -30.5
t-14 -30.5t-34 -12.5t-34 12.5t-14 30.5z" />
    <glyph glyph-name="divide" unicode="&#xf7;" horiz-adv-x="493" 
d="M30 321l1 28q2 31 27 33q374 -4 393 -7q11 -3 11 -9q0 -5 0.5 -20.5t0.5 -18.5q0 -24 -16 -36l-394 2h-6q-17 1 -17 28zM204 178q0 21 14.5 35.5t35.5 14.5t35.5 -14.5t14.5 -35.5t-14.5 -35.5t-35.5 -14.5t-35.5 14.5t-14.5 35.5zM198 478q0 21 14.5 35.5t35.5 14.5
t35.5 -14.5t14.5 -35.5t-14.5 -35.5t-35.5 -14.5t-35.5 14.5t-14.5 35.5z" />
    <glyph glyph-name="oslash" unicode="&#xf8;" horiz-adv-x="369" 
d="M262 684l38 -6l-11 -35q42 -35 46 -89q4 -68 4 -152q0 -28 -0.5 -60.5t-1.5 -72.5t-1 -64v-4q-3 -45 -5.5 -67.5t-11.5 -53.5t-23 -45.5t-40 -25.5t-64 -11q-61 0 -97 19l-5 -17l-26 12l7 24q-15 15 -19 36q-22 79 -22 332q0 39 1 64.5t5.5 62t15 59t27 45t44 33.5
t64.5 11q36 0 69 -15zM141 132q2 -13 16 -23t30 -10q32 0 39 35q8 157 8 330l-94 -303q0 -20 1 -29zM138 500v-236l87 295q-11 15 -40 15q-16 0 -26.5 -5t-14.5 -15t-5 -18.5t-1 -23.5v-12z" />
    <glyph glyph-name="ugrave" unicode="&#xf9;" horiz-adv-x="386" 
d="M30 599v4q2 53 28 53h1l59 -3q15 0 17 -11v-55q0 -7 -0.5 -31.5t-0.5 -47.5v-94q0 -133 10.5 -214.5t43.5 -81.5q15 0 28 12.5t16 29.5q2 9 4 16.5t3.5 19.5t2 23t1.5 32.5t1.5 41.5t1 56.5t1.5 71t2 92t2 112.5q0 16 22 20h47q36 0 36 -26q-2 -20 -2 -82v-72
q0 -57 -1 -94t-3.5 -85.5t-7 -79t-12 -66t-19 -56.5t-27.5 -40t-37.5 -27.5t-48.5 -8.5q-46 0 -78.5 19t-49.5 46.5t-26.5 73t-11.5 81.5t-2 89v282zM204 778l70 -90l-89 -6l-73 76z" />
    <glyph glyph-name="uacute" unicode="&#xfa;" horiz-adv-x="386" 
d="M30 599v4q2 53 28 53h1l59 -3q15 0 17 -11v-55q0 -7 -0.5 -31.5t-0.5 -47.5v-94q0 -133 10.5 -214.5t43.5 -81.5q15 0 28 12.5t16 29.5q2 9 4 16.5t3.5 19.5t2 23t1.5 32.5t1.5 41.5t1 56.5t1.5 71t2 92t2 112.5q0 16 22 20h47q36 0 36 -26q-2 -20 -2 -82v-72
q0 -57 -1 -94t-3.5 -85.5t-7 -79t-12 -66t-19 -56.5t-27.5 -40t-37.5 -27.5t-48.5 -8.5q-46 0 -78.5 19t-49.5 46.5t-26.5 73t-11.5 81.5t-2 89v282zM112 686l70 90l92 -20l-73 -76z" />
    <glyph glyph-name="ucircumflex" unicode="&#xfb;" horiz-adv-x="386" 
d="M30 599v4q2 53 28 53h1l59 -3q15 0 17 -11v-55q0 -7 -0.5 -31.5t-0.5 -47.5v-94q0 -133 10.5 -214.5t43.5 -81.5q15 0 28 12.5t16 29.5q2 9 4 16.5t3.5 19.5t2 23t1.5 32.5t1.5 41.5t1 56.5t1.5 71t2 92t2 112.5q0 16 22 20h47q36 0 36 -26q-2 -20 -2 -82v-72
q0 -57 -1 -94t-3.5 -85.5t-7 -79t-12 -66t-19 -56.5t-27.5 -40t-37.5 -27.5t-48.5 -8.5q-46 0 -78.5 19t-49.5 46.5t-26.5 73t-11.5 81.5t-2 89v282zM70 692q53 81 77.5 103.5t45.5 22.5q23 0 48 -23.5t79 -105.5l-81 -7l-45 63l-43 -61z" />
    <glyph glyph-name="udieresis" unicode="&#xfc;" horiz-adv-x="386" 
d="M30 599v4q2 53 28 53h1l59 -3q15 0 17 -11v-55q0 -7 -0.5 -31.5t-0.5 -47.5v-94q0 -133 10.5 -214.5t43.5 -81.5q15 0 28 12.5t16 29.5q2 9 4 16.5t3.5 19.5t2 23t1.5 32.5t1.5 41.5t1 56.5t1.5 71t2 92t2 112.5q0 16 22 20h47q36 0 36 -26q-2 -20 -2 -82v-72
q0 -57 -1 -94t-3.5 -85.5t-7 -79t-12 -66t-19 -56.5t-27.5 -40t-37.5 -27.5t-48.5 -8.5q-46 0 -78.5 19t-49.5 46.5t-26.5 73t-11.5 81.5t-2 89v282zM72 735q0 18 14 30.5t34 12.5t34 -12.5t14 -30.5t-14 -30.5t-34 -12.5t-34 12.5t-14 30.5zM214 738q0 18 14 30.5t34 12.5
t34 -12.5t14 -30.5t-14 -30.5t-34 -12.5t-34 12.5t-14 30.5z" />
    <glyph glyph-name="yacute" unicode="&#xfd;" 
d="M31 572v75q0 22 9.5 28.5t26.5 6.5h53q11 0 18 -12v-20q0 -21 -2.5 -64t-2.5 -65v-29q0 -93 35 -93q15 0 43.5 3t39.5 3q13 5 13 70q0 28 -1 82t-1 81v4q0 40 17 40h71q14 0 16 -18v-7q4 -51 4 -116q0 -66 -4 -125q-2 -36 -17 -56.5t-31.5 -25.5t-31.5 -11.5t-18 -18.5
v-62q0 -37 3 -109t3 -108v-14q-7 -13 -41 -13q-6 0 -16.5 0.5t-13.5 0.5h-10q-25 0 -26 21l-8 275q0 7 -12.5 10t-29.5 4.5t-21 3.5q-66 28 -66 184q0 15 0.5 40t0.5 35zM119 710l70 90l92 -20l-73 -76z" />
    <glyph glyph-name="thorn" unicode="&#xfe;" horiz-adv-x="357" 
d="M40 15l-10 619q0 47 25 47h61q17 0 19 -21q8 -54 9 -122q3 -16 10 -17h16q86 0 121.5 -45t35.5 -138q0 -82 -40 -117.5t-128 -51.5q-6 0 -16 -10v-45q0 -16 1.5 -48t1.5 -47v-21q-6 -8 -13 -8h-68q-25 0 -25 25zM173 416q-31 0 -31 -8v-126q0 -12 33 -12q48 1 48 59
q0 7 -0.5 19.5t-0.5 17.5v20q-3 13 -19 21.5t-30 8.5z" />
    <glyph glyph-name="ydieresis" unicode="&#xff;" 
d="M31 572v75q0 22 9.5 28.5t26.5 6.5h53q11 0 18 -12v-20q0 -21 -2.5 -64t-2.5 -65v-29q0 -93 35 -93q15 0 43.5 3t39.5 3q13 5 13 70q0 28 -1 82t-1 81v4q0 40 17 40h71q14 0 16 -18v-7q4 -51 4 -116q0 -66 -4 -125q-2 -36 -17 -56.5t-31.5 -25.5t-31.5 -11.5t-18 -18.5
v-62q0 -37 3 -109t3 -108v-14q-7 -13 -41 -13q-6 0 -16.5 0.5t-13.5 0.5h-10q-25 0 -26 21l-8 275q0 7 -12.5 10t-29.5 4.5t-21 3.5q-66 28 -66 184q0 15 0.5 40t0.5 35zM81 767q0 18 14 30.5t34 12.5t34 -12.5t14 -30.5t-14 -30.5t-34 -12.5t-34 12.5t-14 30.5zM223 770
q0 18 14 30.5t34 12.5t34 -12.5t14 -30.5t-14 -30.5t-34 -12.5t-34 12.5t-14 30.5z" />
    <glyph glyph-name="Amacron" unicode="&#x100;" horiz-adv-x="356" 
d="M203 249h-52q-12 0 -14 -6v-16q0 -27 3.5 -91.5t3.5 -90.5v-17q-5 -8 -13 -8h-76q-5 0 -8.5 2t-5 4t-3 6.5t-1.5 7t-0.5 8t-0.5 6.5q-3 99 -3 202q0 41 -1.5 105t-1.5 88q0 74 11 119t43 75q32 31 102 31q117 0 124 -185l16 -438q0 -18 -42 -18h-17q-12 0 -26.5 5.5
t-15.5 12.5l-9 171q-2 23 -13 27zM130 364l2 -20q0 -2 4.5 -5t6.5 -3h54q5 0 8.5 2.5t5 8t2 9t1 10t0.5 7.5q-1 120 -9 161.5t-40 41.5q-16 0 -25.5 -10t-9.5 -26v-176zM50 747l1 24q2 27 14 29q8 0 21.5 -0.5t19.5 -0.5q163 -3 170 -8q2 -1 2 -5v-34q0 -22 -8 -31l-207 2
h-3q-10 0 -10 24z" />
    <glyph glyph-name="amacron" unicode="&#x101;" horiz-adv-x="381" 
d="M30 51q3 71 3 217v119q0 66 3 106.5t12.5 78.5t28.5 57.5t51 31t79 11.5h15q33 -1 56 -11.5t35.5 -24t20 -41t9.5 -46.5t4 -57v-2q1 -60 4 -462q0 -24 -20 -24h-64q-23 0 -23 40v17q0 125 -2 175q-5 11 -20 11l-74 1q-18 0 -18 -20v-202q0 -4 -6.5 -9t-11.5 -5h-61
q-21 0 -21 39zM136 378q0 -32 24 -33q24 0 54 -2h9q21 0 23 29q2 58 2 77q0 68 -7 92.5t-25 24.5q-2 0 -13 1t-20 1q-47 -3 -47 -83v-107zM72 729l1 24q2 27 14 29q8 0 21.5 -0.5t19.5 -0.5q163 -3 170 -8q2 -1 2 -5v-34q0 -22 -8 -31l-207 2h-3q-10 0 -10 24z" />
    <glyph glyph-name="Abreve" unicode="&#x102;" horiz-adv-x="356" 
d="M203 249h-52q-12 0 -14 -6v-16q0 -27 3.5 -91.5t3.5 -90.5v-17q-5 -8 -13 -8h-76q-5 0 -8.5 2t-5 4t-3 6.5t-1.5 7t-0.5 8t-0.5 6.5q-3 99 -3 202q0 41 -1.5 105t-1.5 88q0 74 11 119t43 75q32 31 102 31q117 0 124 -185l16 -438q0 -18 -42 -18h-17q-12 0 -26.5 5.5
t-15.5 12.5l-9 171q-2 23 -13 27zM130 364l2 -20q0 -2 4.5 -5t6.5 -3h54q5 0 8.5 2.5t5 8t2 9t1 10t0.5 7.5q-1 120 -9 161.5t-40 41.5q-16 0 -25.5 -10t-9.5 -26v-176zM134 811q0 -13 10 -22.5t24 -9.5q13 0 23.5 11t10.5 30q0 2 -0.5 4t-0.5 4l57 13q4 -24 4 -32
q0 -39 -24 -68t-68 -29q-43 0 -74.5 24t-31.5 67q0 22 7 44l67 -17q-4 -16 -4 -19z" />
    <glyph glyph-name="abreve" unicode="&#x103;" horiz-adv-x="381" 
d="M30 51q3 71 3 217v119q0 66 3 106.5t12.5 78.5t28.5 57.5t51 31t79 11.5h15q33 -1 56 -11.5t35.5 -24t20 -41t9.5 -46.5t4 -57v-2q1 -60 4 -462q0 -24 -20 -24h-64q-23 0 -23 40v17q0 125 -2 175q-5 11 -20 11l-74 1q-18 0 -18 -20v-202q0 -4 -6.5 -9t-11.5 -5h-61
q-21 0 -21 39zM136 378q0 -32 24 -33q24 0 54 -2h9q21 0 23 29q2 58 2 77q0 68 -7 92.5t-25 24.5q-2 0 -13 1t-20 1q-47 -3 -47 -83v-107zM156 793q0 -13 10 -22.5t24 -9.5q13 0 23.5 11t10.5 30q0 2 -0.5 4t-0.5 4l57 13q4 -24 4 -32q0 -39 -24 -68t-68 -29q-43 0 -74.5 24
t-31.5 67q0 22 7 44l67 -17q-4 -16 -4 -19z" />
    <glyph glyph-name="Aogonek" unicode="&#x104;" horiz-adv-x="356" 
d="M326 -59l-1 -59q-20 -2 -47 -2q-42 0 -69 27t-27 64q0 38 42 86l-8 165q-2 23 -13 27h-52q-12 0 -14 -6v-16q0 -27 3.5 -91.5t3.5 -90.5v-17q-5 -8 -13 -8h-76q-5 0 -8.5 2t-5 4t-3 6.5t-1.5 7t-0.5 8t-0.5 6.5q-3 99 -3 202q0 41 -1.5 105t-1.5 88q0 74 11 119t43 75
q32 31 102 31q117 0 124 -185l16 -438q0 -18 -42 -18h-7q-12 -29 -12 -44q0 -43 61 -48zM130 364l2 -20q0 -2 4.5 -5t6.5 -3h54q5 0 8.5 2.5t5 8t2 9t1 10t0.5 7.5q-1 120 -9 161.5t-40 41.5q-16 0 -25.5 -10t-9.5 -26v-176z" />
    <glyph glyph-name="aogonek" unicode="&#x105;" horiz-adv-x="381" 
d="M354 -107l-1 -59q-20 -2 -47 -2q-42 0 -69 27t-27 64q0 40 42 86q-8 9 -8 35v17q0 125 -2 175q-5 11 -20 11l-74 1q-18 0 -18 -20v-202q0 -4 -6.5 -9t-11.5 -5h-61q-21 0 -21 39q3 71 3 217v119q0 66 3 106.5t12.5 78.5t28.5 57.5t51 31t79 11.5h15q33 -1 56 -11.5
t35.5 -24t20 -41t9.5 -46.5t4 -57v-2q1 -60 4 -462q0 -24 -20 -24h-17q-21 -46 -21 -63q0 -43 61 -48zM136 378q0 -32 24 -33q24 0 54 -2h9q21 0 23 29q2 58 2 77q0 68 -7 92.5t-25 24.5q-2 0 -13 1t-20 1q-47 -3 -47 -83v-107z" />
    <glyph glyph-name="Cacute" unicode="&#x106;" horiz-adv-x="339" 
d="M132 558q-3 -78 -3 -361v-11q0 -19 1.5 -29t11.5 -20t30 -12q2 0 5 -0.5t4 -0.5q23 0 31 16.5t12 35t18 21.5h5q20 0 41 -11t21 -37v-5q-4 -56 -44.5 -89t-90.5 -33q-34 0 -59 10.5t-40 32.5t-25 44.5t-14 58t-5 60.5t-1 63q0 247 19 326q18 72 129 72q66 0 92.5 -33.5
t34.5 -102.5q-45 -36 -67 -36q-16 0 -26 33v1q-2 2 -3 5q-6 34 -35 34q-15 0 -28 -9.5t-14 -22.5zM82 726l70 90l92 -20l-73 -76z" />
    <glyph glyph-name="cacute" unicode="&#x107;" horiz-adv-x="359" 
d="M139 151q2 -13 15.5 -22.5t29.5 -9.5q31 0 38 34q1 3 2 5l1 1q0 1 1 3q15 28 27 30q22 0 72 -36q-8 -68 -36.5 -101t-99.5 -33q-120 0 -138 71q-21 77 -21 321q0 46 1.5 75t10 69.5t24 63.5t45.5 40t73 17q54 0 97.5 -32.5t47.5 -88.5v-4q0 -26 -22.5 -37t-44.5 -11h-5
q-12 2 -17.5 14t-7 25t-11 23.5t-29.5 10.5q-1 0 -4.5 -0.5t-5.5 -0.5q-16 -2 -26 -7t-14 -14.5t-5 -17t-1 -21.5v-12q0 -279 3 -355zM86 712l70 90l92 -20l-73 -76z" />
    <glyph glyph-name="Ccircumflex" unicode="&#x108;" horiz-adv-x="339" 
d="M132 558q-3 -78 -3 -361v-11q0 -19 1.5 -29t11.5 -20t30 -12q2 0 5 -0.5t4 -0.5q23 0 31 16.5t12 35t18 21.5h5q20 0 41 -11t21 -37v-5q-4 -56 -44.5 -89t-90.5 -33q-34 0 -59 10.5t-40 32.5t-25 44.5t-14 58t-5 60.5t-1 63q0 247 19 326q18 72 129 72q66 0 92.5 -33.5
t34.5 -102.5q-45 -36 -67 -36q-16 0 -26 33v1q-2 2 -3 5q-6 34 -35 34q-15 0 -28 -9.5t-14 -22.5zM40 726q53 81 77.5 103.5t45.5 22.5q23 0 48 -23.5t79 -105.5l-81 -7l-45 63l-43 -61z" />
    <glyph glyph-name="ccircumflex" unicode="&#x109;" horiz-adv-x="359" 
d="M139 151q2 -13 15.5 -22.5t29.5 -9.5q31 0 38 34q1 3 2 5l1 1q0 1 1 3q15 28 27 30q22 0 72 -36q-8 -68 -36.5 -101t-99.5 -33q-120 0 -138 71q-21 77 -21 321q0 46 1.5 75t10 69.5t24 63.5t45.5 40t73 17q54 0 97.5 -32.5t47.5 -88.5v-4q0 -26 -22.5 -37t-44.5 -11h-5
q-12 2 -17.5 14t-7 25t-11 23.5t-29.5 10.5q-1 0 -4.5 -0.5t-5.5 -0.5q-16 -2 -26 -7t-14 -14.5t-5 -17t-1 -21.5v-12q0 -279 3 -355zM44 712q53 81 77.5 103.5t45.5 22.5q23 0 48 -23.5t79 -105.5l-81 -7l-45 63l-43 -61z" />
    <glyph glyph-name="Cdotaccent" unicode="&#x10a;" horiz-adv-x="339" 
d="M132 558q-3 -78 -3 -361v-11q0 -19 1.5 -29t11.5 -20t30 -12q2 0 5 -0.5t4 -0.5q23 0 31 16.5t12 35t18 21.5h5q20 0 41 -11t21 -37v-5q-4 -56 -44.5 -89t-90.5 -33q-34 0 -59 10.5t-40 32.5t-25 44.5t-14 58t-5 60.5t-1 63q0 247 19 326q18 72 129 72q66 0 92.5 -33.5
t34.5 -102.5q-45 -36 -67 -36q-16 0 -26 33v1q-2 2 -3 5q-6 34 -35 34q-15 0 -28 -9.5t-14 -22.5zM100 779q0 24 18.5 40.5t45.5 16.5t45.5 -16.5t18.5 -40.5q0 -23 -18.5 -40t-45.5 -17t-45.5 17t-18.5 40z" />
    <glyph glyph-name="cdotaccent" unicode="&#x10b;" horiz-adv-x="359" 
d="M139 151q2 -13 15.5 -22.5t29.5 -9.5q31 0 38 34q1 3 2 5l1 1q0 1 1 3q15 28 27 30q22 0 72 -36q-8 -68 -36.5 -101t-99.5 -33q-120 0 -138 71q-21 77 -21 321q0 46 1.5 75t10 69.5t24 63.5t45.5 40t73 17q54 0 97.5 -32.5t47.5 -88.5v-4q0 -26 -22.5 -37t-44.5 -11h-5
q-12 2 -17.5 14t-7 25t-11 23.5t-29.5 10.5q-1 0 -4.5 -0.5t-5.5 -0.5q-16 -2 -26 -7t-14 -14.5t-5 -17t-1 -21.5v-12q0 -279 3 -355zM104 765q0 24 18.5 40.5t45.5 16.5t45.5 -16.5t18.5 -40.5q0 -23 -18.5 -40t-45.5 -17t-45.5 17t-18.5 40z" />
    <glyph glyph-name="Ccaron" unicode="&#x10c;" horiz-adv-x="339" 
d="M132 558q-3 -78 -3 -361v-11q0 -19 1.5 -29t11.5 -20t30 -12q2 0 5 -0.5t4 -0.5q23 0 31 16.5t12 35t18 21.5h5q20 0 41 -11t21 -37v-5q-4 -56 -44.5 -89t-90.5 -33q-34 0 -59 10.5t-40 32.5t-25 44.5t-14 58t-5 60.5t-1 63q0 247 19 326q18 72 129 72q66 0 92.5 -33.5
t34.5 -102.5q-45 -36 -67 -36q-16 0 -26 33v1q-2 2 -3 5q-6 34 -35 34q-15 0 -28 -9.5t-14 -22.5zM46 851l88 1l28 -74l30 74l94 -1q-45 -67 -72.5 -96t-51.5 -29q-23 0 -50 29.5t-66 95.5z" />
    <glyph glyph-name="ccaron" unicode="&#x10d;" horiz-adv-x="359" 
d="M139 151q2 -13 15.5 -22.5t29.5 -9.5q31 0 38 34q1 3 2 5l1 1q0 1 1 3q15 28 27 30q22 0 72 -36q-8 -68 -36.5 -101t-99.5 -33q-120 0 -138 71q-21 77 -21 321q0 46 1.5 75t10 69.5t24 63.5t45.5 40t73 17q54 0 97.5 -32.5t47.5 -88.5v-4q0 -26 -22.5 -37t-44.5 -11h-5
q-12 2 -17.5 14t-7 25t-11 23.5t-29.5 10.5q-1 0 -4.5 -0.5t-5.5 -0.5q-16 -2 -26 -7t-14 -14.5t-5 -17t-1 -21.5v-12q0 -279 3 -355zM50 837l88 1l28 -74l30 74l94 -1q-45 -67 -72.5 -96t-51.5 -29q-23 0 -50 29.5t-66 95.5z" />
    <glyph glyph-name="Dcaron" unicode="&#x10e;" horiz-adv-x="376" 
d="M32 27l-2 635q0 20 25 20h18q157 0 215 -82t58 -277q0 -82 -19 -146t-68 -110.5t-125 -50.5h-6l-87 3zM132 171v-43q2 -8 25 -8q35 0 61 73.5t26 160.5q0 67 -18.5 129t-41.5 82q-19 17 -43 17q-13 0 -13 -19q0 -58 2 -188.5t2 -203.5zM18 841l88 1l28 -74l30 74l94 -1
q-45 -67 -72.5 -96t-51.5 -29q-23 0 -50 29.5t-66 95.5z" />
    <glyph glyph-name="dcaron" unicode="&#x10f;" horiz-adv-x="378" 
d="M30 674q0 15 10 21h20q40 0 65.5 -1t54.5 -4.5t46 -10t36.5 -19t30 -29.5t21.5 -43t16.5 -57.5t10 -76t6 -96t1.5 -118.5v-8q-1 -34 -4.5 -56.5t-12.5 -47.5t-26.5 -40.5t-45 -28.5t-69 -19t-98.5 -6q-38 0 -40 36v14q0 109 -22 590zM134 585v-18q0 -63 5 -186t6 -151
q0 -4 1 -34t1 -35q4 -26 8 -28q56 8 73 36.5t17 115.5v25l-2 33q-9 150 -26 195q-19 51 -60 51q-12 0 -23 -4zM18 837l88 1l28 -74l30 74l94 -1q-45 -67 -72.5 -96t-51.5 -29q-23 0 -50 29.5t-66 95.5z" />
    <glyph glyph-name="Dcroat" unicode="&#x110;" horiz-adv-x="398" 
d="M30 313v27q2 30 11 32q2 0 6 -0.5t6 -0.5l-1 291q0 20 25 20h18q157 0 215 -82t58 -277q0 -82 -19 -146t-68 -110.5t-125 -50.5h-6l-87 3l-9 8l-1 258l-16 1q-7 0 -7 27zM154 171v-43q2 -8 25 -8q35 0 61 73.5t26 160.5q0 67 -18.5 129t-41.5 82q-19 17 -43 17
q-13 0 -13 -19q0 -12 0.5 -62t1 -93t0.5 -39q23 0 33.5 -2t12.5 -4t2 -7v-38q0 -23 -6 -35h-41q1 -36 1 -112z" />
    <glyph glyph-name="dcroat" unicode="&#x111;" horiz-adv-x="390" 
d="M30 323v27q2 30 11 32q3 0 7 -0.5t7 -0.5l-13 293q0 15 10 21h20q40 0 65.5 -1t54.5 -4.5t46 -10t36.5 -19t30 -29.5t21.5 -43t16.5 -57.5t10 -76t6 -96t1.5 -118.5v-8q-1 -34 -4.5 -56.5t-12.5 -47.5t-26.5 -40.5t-45 -28.5t-69 -19t-98.5 -6q-38 0 -40 36v14
q0 47 -6 211l-21 1q-7 0 -7 27zM146 585v-18q0 -81 5 -188q23 0 33.5 -1.5t13 -4t2.5 -7.5v-38q0 -23 -6 -35h-39l2 -63q0 -4 1 -34t1 -35q4 -26 8 -28q56 8 73 36.5t17 115.5v25l-2 33q-9 150 -26 195q-19 51 -60 51q-12 0 -23 -4z" />
    <glyph glyph-name="Emacron" unicode="&#x112;" horiz-adv-x="286" 
d="M41 36q-11 337 -11 554q0 51 5.5 63.5t30.5 12.5h62q124 0 124 -21v-72q0 -3 -8 -11q-17 0 -48.5 1t-47.5 1q-20 0 -20 -20q0 -61 7 -142q3 -2 17 -2h17q41 0 42 -16l5 -87q0 -13 -33 -13h-15q-20 0 -23 1q-7 -6 -7 -30v-51q0 -34 1 -52q2 -14 6.5 -19t17.5 -5q11 0 34 1
t35 1q24 0 24 -19v-66q0 -25 -17 -25h-188q-7 0 -10 16zM16 735l1 24q2 27 14 29q8 0 21.5 -0.5t19.5 -0.5q163 -3 170 -8q2 -1 2 -5v-34q0 -22 -8 -31l-207 2h-3q-10 0 -10 24z" />
    <glyph glyph-name="emacron" unicode="&#x113;" horiz-adv-x="315" 
d="M33 666q5 13 24 13h81q82 0 114 -2q9 -3 12 -11q1 -23 1 -71q0 -5 -1 -7.5t-2.5 -5.5t-5.5 -4.5t-10 -1.5h-108l-9 -9l6 -165l84 -3q15 -1 15 -42v-8l-3 -24q0 -21 -14 -21h-76q-1 0 -2 -1l-1.5 -1.5t-1.5 -0.5l-3 -3l5 -154q3 -19 20 -19h107q20 0 20 -27l-5 -57
q-2 -12 -15 -16l-211 -8q-7 0 -11 11.5t-8 70.5t-4 170q0 32 -0.5 96.5t-0.5 97.5q0 98 3 203zM20 743l1 24q2 27 14 29q8 0 21.5 -0.5t19.5 -0.5q163 -3 170 -8q2 -1 2 -5v-34q0 -22 -8 -31l-207 2h-3q-10 0 -10 24z" />
    <glyph glyph-name="Ebreve" unicode="&#x114;" horiz-adv-x="286" 
d="M41 36q-11 337 -11 554q0 51 5.5 63.5t30.5 12.5h62q124 0 124 -21v-72q0 -3 -8 -11q-17 0 -48.5 1t-47.5 1q-20 0 -20 -20q0 -61 7 -142q3 -2 17 -2h17q41 0 42 -16l5 -87q0 -13 -33 -13h-15q-20 0 -23 1q-7 -6 -7 -30v-51q0 -34 1 -52q2 -14 6.5 -19t17.5 -5q11 0 34 1
t35 1q24 0 24 -19v-66q0 -25 -17 -25h-188q-7 0 -10 16zM100 799q0 -13 10 -22.5t24 -9.5q13 0 23.5 11t10.5 30q0 2 -0.5 4t-0.5 4l57 13q4 -24 4 -32q0 -39 -24 -68t-68 -29q-43 0 -74.5 24t-31.5 67q0 22 7 44l67 -17q-4 -16 -4 -19z" />
    <glyph glyph-name="ebreve" unicode="&#x115;" horiz-adv-x="315" 
d="M33 666q5 13 24 13h81q82 0 114 -2q9 -3 12 -11q1 -23 1 -71q0 -5 -1 -7.5t-2.5 -5.5t-5.5 -4.5t-10 -1.5h-108l-9 -9l6 -165l84 -3q15 -1 15 -42v-8l-3 -24q0 -21 -14 -21h-76q-1 0 -2 -1l-1.5 -1.5t-1.5 -0.5l-3 -3l5 -154q3 -19 20 -19h107q20 0 20 -27l-5 -57
q-2 -12 -15 -16l-211 -8q-7 0 -11 11.5t-8 70.5t-4 170q0 32 -0.5 96.5t-0.5 97.5q0 98 3 203zM104 807q0 -13 10 -22.5t24 -9.5q13 0 23.5 11t10.5 30q0 2 -0.5 4t-0.5 4l57 13q4 -24 4 -32q0 -39 -24 -68t-68 -29q-43 0 -74.5 24t-31.5 67q0 22 7 44l67 -17q-4 -16 -4 -19
z" />
    <glyph glyph-name="Edotaccent" unicode="&#x116;" horiz-adv-x="286" 
d="M41 36q-11 337 -11 554q0 51 5.5 63.5t30.5 12.5h62q124 0 124 -21v-72q0 -3 -8 -11q-17 0 -48.5 1t-47.5 1q-20 0 -20 -20q0 -61 7 -142q3 -2 17 -2h17q41 0 42 -16l5 -87q0 -13 -33 -13h-15q-20 0 -23 1q-7 -6 -7 -30v-51q0 -34 1 -52q2 -14 6.5 -19t17.5 -5q11 0 34 1
t35 1q24 0 24 -19v-66q0 -25 -17 -25h-188q-7 0 -10 16zM68 759q0 24 18.5 40.5t45.5 16.5t45.5 -16.5t18.5 -40.5q0 -23 -18.5 -40t-45.5 -17t-45.5 17t-18.5 40z" />
    <glyph glyph-name="edotaccent" unicode="&#x117;" horiz-adv-x="315" 
d="M33 666q5 13 24 13h81q82 0 114 -2q9 -3 12 -11q1 -23 1 -71q0 -5 -1 -7.5t-2.5 -5.5t-5.5 -4.5t-10 -1.5h-108l-9 -9l6 -165l84 -3q15 -1 15 -42v-8l-3 -24q0 -21 -14 -21h-76q-1 0 -2 -1l-1.5 -1.5t-1.5 -0.5l-3 -3l5 -154q3 -19 20 -19h107q20 0 20 -27l-5 -57
q-2 -12 -15 -16l-211 -8q-7 0 -11 11.5t-8 70.5t-4 170q0 32 -0.5 96.5t-0.5 97.5q0 98 3 203zM72 767q0 24 18.5 40.5t45.5 16.5t45.5 -16.5t18.5 -40.5q0 -23 -18.5 -40t-45.5 -17t-45.5 17t-18.5 40z" />
    <glyph glyph-name="Eogonek" unicode="&#x118;" horiz-adv-x="286" 
d="M240 -91l-1 -59q-20 -2 -47 -2q-42 0 -69 27t-27 64t37 81h-82q-7 0 -10 16q-11 337 -11 554q0 51 5.5 63.5t30.5 12.5h62q124 0 124 -21v-72q0 -3 -8 -11q-17 0 -48.5 1t-47.5 1q-20 0 -20 -20q0 -61 7 -142q3 -2 17 -2h17q41 0 42 -16l5 -87q0 -13 -33 -13h-15
q-20 0 -23 1q-7 -6 -7 -30v-51q0 -34 1 -52q2 -14 6.5 -19t17.5 -5q11 0 34 1t35 1q24 0 24 -19v-66q0 -25 -17 -25h-39q-21 -46 -21 -63q0 -43 61 -48z" />
    <glyph glyph-name="eogonek" unicode="&#x119;" horiz-adv-x="315" 
d="M262 -81l-1 -59q-20 -2 -47 -2q-42 0 -69 27t-27 64q0 33 29 71l-93 -3q-7 0 -11 11.5t-8 70.5t-4 170q0 32 -0.5 96.5t-0.5 97.5q0 98 3 203q5 13 24 13h81q82 0 114 -2q9 -3 12 -11q1 -23 1 -71q0 -5 -1 -7.5t-2.5 -5.5t-5.5 -4.5t-10 -1.5h-108l-9 -9l6 -165l84 -3
q15 -1 15 -42v-8l-3 -24q0 -21 -14 -21h-76q-1 0 -2 -1l-1.5 -1.5t-1.5 -0.5l-3 -3l5 -154q3 -19 20 -19h107q20 0 20 -27l-5 -57q-2 -12 -15 -16l-46 -2q-18 -40 -18 -56q0 -43 61 -48z" />
    <glyph glyph-name="Ecaron" unicode="&#x11a;" horiz-adv-x="286" 
d="M41 36q-11 337 -11 554q0 51 5.5 63.5t30.5 12.5h62q124 0 124 -21v-72q0 -3 -8 -11q-17 0 -48.5 1t-47.5 1q-20 0 -20 -20q0 -61 7 -142q3 -2 17 -2h17q41 0 42 -16l5 -87q0 -13 -33 -13h-15q-20 0 -23 1q-7 -6 -7 -30v-51q0 -34 1 -52q2 -14 6.5 -19t17.5 -5q11 0 34 1
t35 1q24 0 24 -19v-66q0 -25 -17 -25h-188q-7 0 -10 16zM14 831l88 1l28 -74l30 74l94 -1q-45 -67 -72.5 -96t-51.5 -29q-23 0 -50 29.5t-66 95.5z" />
    <glyph glyph-name="ecaron" unicode="&#x11b;" horiz-adv-x="315" 
d="M33 666q5 13 24 13h81q82 0 114 -2q9 -3 12 -11q1 -23 1 -71q0 -5 -1 -7.5t-2.5 -5.5t-5.5 -4.5t-10 -1.5h-108l-9 -9l6 -165l84 -3q15 -1 15 -42v-8l-3 -24q0 -21 -14 -21h-76q-1 0 -2 -1l-1.5 -1.5t-1.5 -0.5l-3 -3l5 -154q3 -19 20 -19h107q20 0 20 -27l-5 -57
q-2 -12 -15 -16l-211 -8q-7 0 -11 11.5t-8 70.5t-4 170q0 32 -0.5 96.5t-0.5 97.5q0 98 3 203zM18 839l88 1l28 -74l30 74l94 -1q-45 -67 -72.5 -96t-51.5 -29q-23 0 -50 29.5t-66 95.5z" />
    <glyph glyph-name="Gcircumflex" unicode="&#x11c;" horiz-adv-x="402" 
d="M30 311v8q0 35 0.5 58t4 64.5t10 70t20 63t32.5 55.5t48.5 35.5t66.5 14.5q100 0 146 -104v-10q0 -14 -7 -16l-81 -40q-21 65 -58 65q-38 0 -58.5 -68.5t-20.5 -162.5t19.5 -163t53.5 -69q27 0 43 8.5t23 27t8.5 35t1.5 46.5q0 33 -12 33h-53q-3 0 -7 6.5t-4 9.5v68
q0 4 3.5 9t7.5 5q6 0 49.5 1.5t51.5 1.5h10q31 0 37 -20q7 -37 7 -109q0 -71 -24 -139q-29 -81 -143 -81q-175 0 -175 297zM74 718q53 81 77.5 103.5t45.5 22.5q23 0 48 -23.5t79 -105.5l-81 -7l-45 63l-43 -61z" />
    <glyph glyph-name="gcircumflex" unicode="&#x11d;" horiz-adv-x="385" 
d="M203 5q-50 0 -85 26t-53.5 72.5t-26.5 98.5t-8 115q0 56 0.5 87t3.5 76.5t8.5 70t16.5 54t27 44t40 25t56 10.5q42 0 71.5 -26t54.5 -98v-1q1 -1 1 -2q0 -2 -2 -4.5t-4 -4.5t-5 -4l-2 -1l-54 -25h-4q-7 0 -13.5 17t-19.5 34t-35 17h-4q-38 -2 -38 -145q0 -13 0.5 -33
t0.5 -27q0 -81 6 -147q0 -39 22.5 -84t58.5 -45q16 0 29 14q17 12 17 52v41q-8 13 -43 13q-8 4 -8 11v69q0 19 27 19h100q12 0 14 -10v-9q3 -42 3 -68v-20q0 -3 -0.5 -7t-0.5 -7q-2 -39 -4.5 -59t-10.5 -48t-25.5 -46t-45.5 -30l-3 -2q-30 -13 -62 -13zM67 732
q53 81 77.5 103.5t45.5 22.5q23 0 48 -23.5t79 -105.5l-81 -7l-45 63l-43 -61z" />
    <glyph glyph-name="Gbreve" unicode="&#x11e;" horiz-adv-x="402" 
d="M30 311v8q0 35 0.5 58t4 64.5t10 70t20 63t32.5 55.5t48.5 35.5t66.5 14.5q100 0 146 -104v-10q0 -14 -7 -16l-81 -40q-21 65 -58 65q-38 0 -58.5 -68.5t-20.5 -162.5t19.5 -163t53.5 -69q27 0 43 8.5t23 27t8.5 35t1.5 46.5q0 33 -12 33h-53q-3 0 -7 6.5t-4 9.5v68
q0 4 3.5 9t7.5 5q6 0 49.5 1.5t51.5 1.5h10q31 0 37 -20q7 -37 7 -109q0 -71 -24 -139q-29 -81 -143 -81q-175 0 -175 297zM166 811q0 -13 10 -22.5t24 -9.5q13 0 23.5 11t10.5 30q0 2 -0.5 4t-0.5 4l57 13q4 -24 4 -32q0 -39 -24 -68t-68 -29q-43 0 -74.5 24t-31.5 67
q0 22 7 44l67 -17q-4 -16 -4 -19z" />
    <glyph glyph-name="gbreve" unicode="&#x11f;" horiz-adv-x="385" 
d="M203 5q-50 0 -85 26t-53.5 72.5t-26.5 98.5t-8 115q0 56 0.5 87t3.5 76.5t8.5 70t16.5 54t27 44t40 25t56 10.5q42 0 71.5 -26t54.5 -98v-1q1 -1 1 -2q0 -2 -2 -4.5t-4 -4.5t-5 -4l-2 -1l-54 -25h-4q-7 0 -13.5 17t-19.5 34t-35 17h-4q-38 -2 -38 -145q0 -13 0.5 -33
t0.5 -27q0 -81 6 -147q0 -39 22.5 -84t58.5 -45q16 0 29 14q17 12 17 52v41q-8 13 -43 13q-8 4 -8 11v69q0 19 27 19h100q12 0 14 -10v-9q3 -42 3 -68v-20q0 -3 -0.5 -7t-0.5 -7q-2 -39 -4.5 -59t-10.5 -48t-25.5 -46t-45.5 -30l-3 -2q-30 -13 -62 -13zM145 807
q0 -13 10 -22.5t24 -9.5q13 0 23.5 11t10.5 30q0 2 -0.5 4t-0.5 4l57 13q4 -24 4 -32q0 -39 -24 -68t-68 -29q-43 0 -74.5 24t-31.5 67q0 22 7 44l67 -17q-4 -16 -4 -19z" />
    <glyph glyph-name="Gdotaccent" unicode="&#x120;" horiz-adv-x="402" 
d="M30 311v8q0 35 0.5 58t4 64.5t10 70t20 63t32.5 55.5t48.5 35.5t66.5 14.5q100 0 146 -104v-10q0 -14 -7 -16l-81 -40q-21 65 -58 65q-38 0 -58.5 -68.5t-20.5 -162.5t19.5 -163t53.5 -69q27 0 43 8.5t23 27t8.5 35t1.5 46.5q0 33 -12 33h-53q-3 0 -7 6.5t-4 9.5v68
q0 4 3.5 9t7.5 5q6 0 49.5 1.5t51.5 1.5h10q31 0 37 -20q7 -37 7 -109q0 -71 -24 -139q-29 -81 -143 -81q-175 0 -175 297zM134 771q0 24 18.5 40.5t45.5 16.5t45.5 -16.5t18.5 -40.5q0 -23 -18.5 -40t-45.5 -17t-45.5 17t-18.5 40z" />
    <glyph glyph-name="gdotaccent" unicode="&#x121;" horiz-adv-x="385" 
d="M203 5q-50 0 -85 26t-53.5 72.5t-26.5 98.5t-8 115q0 56 0.5 87t3.5 76.5t8.5 70t16.5 54t27 44t40 25t56 10.5q42 0 71.5 -26t54.5 -98v-1q1 -1 1 -2q0 -2 -2 -4.5t-4 -4.5t-5 -4l-2 -1l-54 -25h-4q-7 0 -13.5 17t-19.5 34t-35 17h-4q-38 -2 -38 -145q0 -13 0.5 -33
t0.5 -27q0 -81 6 -147q0 -39 22.5 -84t58.5 -45q16 0 29 14q17 12 17 52v41q-8 13 -43 13q-8 4 -8 11v69q0 19 27 19h100q12 0 14 -10v-9q3 -42 3 -68v-20q0 -3 -0.5 -7t-0.5 -7q-2 -39 -4.5 -59t-10.5 -48t-25.5 -46t-45.5 -30l-3 -2q-30 -13 -62 -13zM104 769
q0 24 18.5 40.5t45.5 16.5t45.5 -16.5t18.5 -40.5q0 -23 -18.5 -40t-45.5 -17t-45.5 17t-18.5 40z" />
    <glyph glyph-name="Gcommaaccent" unicode="&#x122;" horiz-adv-x="402" 
d="M30 311v8q0 35 0.5 58t4 64.5t10 70t20 63t32.5 55.5t48.5 35.5t66.5 14.5q100 0 146 -104v-10q0 -14 -7 -16l-81 -40q-21 65 -58 65q-38 0 -58.5 -68.5t-20.5 -162.5t19.5 -163t53.5 -69q27 0 43 8.5t23 27t8.5 35t1.5 46.5q0 33 -12 33h-53q-3 0 -7 6.5t-4 9.5v68
q0 4 3.5 9t7.5 5q6 0 49.5 1.5t51.5 1.5h10q31 0 37 -20q7 -37 7 -109q0 -71 -24 -139q-29 -81 -143 -81q-175 0 -175 297zM156 -83q1 23 15 38t35 15t35.5 -14.5t14.5 -35.5q0 -61 -38 -124l-16 2l10 72q0 -3 -8 -3q-15 0 -31.5 12.5t-16.5 37.5z" />
    <glyph glyph-name="gcommaaccent" unicode="&#x123;" horiz-adv-x="385" 
d="M203 5q-50 0 -85 26t-53.5 72.5t-26.5 98.5t-8 115q0 56 0.5 87t3.5 76.5t8.5 70t16.5 54t27 44t40 25t56 10.5q42 0 71.5 -26t54.5 -98v-1q1 -1 1 -2q0 -2 -2 -4.5t-4 -4.5t-5 -4l-2 -1l-54 -25h-4q-7 0 -13.5 17t-19.5 34t-35 17h-4q-38 -2 -38 -145q0 -13 0.5 -33
t0.5 -27q0 -81 6 -147q0 -39 22.5 -84t58.5 -45q16 0 29 14q17 12 17 52v41q-8 13 -43 13q-8 4 -8 11v69q0 19 27 19h100q12 0 14 -10v-9q3 -42 3 -68v-20q0 -3 -0.5 -7t-0.5 -7q-2 -39 -4.5 -59t-10.5 -48t-25.5 -46t-45.5 -30l-3 -2q-30 -13 -62 -13zM152 -65q1 23 15 38
t35 15t35.5 -14.5t14.5 -35.5q0 -61 -38 -124l-16 2l10 72q0 -3 -8 -3q-15 0 -31.5 12.5t-16.5 37.5z" />
    <glyph glyph-name="Hcircumflex" unicode="&#x124;" horiz-adv-x="372" 
d="M33 31q0 5 -0.5 34.5t-0.5 35.5q0 1 -0.5 35t-1 95.5t-0.5 130.5q0 64 2 284q0 17 9.5 22t28.5 5q41 0 54 -6t13 -27q0 -29 -1.5 -87.5t-1.5 -87.5q0 -16 1.5 -52t1.5 -54q3 -12 20 -12q6 0 33.5 3.5t29.5 5.5l8 8l5 287q0 8 6.5 13t14.5 5h57q26 0 26 -42l5 -575v-4
q0 -31 -15 -31h-70q-18 0 -18 25v190q0 16 -13 22h-29q-60 0 -60 -26q0 -21 1.5 -63t1.5 -64v-35q0 -49 -11 -49h-81q-11 0 -15 14zM56 702q53 81 77.5 103.5t45.5 22.5q23 0 48 -23.5t79 -105.5l-81 -7l-45 63l-43 -61z" />
    <glyph glyph-name="hcircumflex" unicode="&#x125;" horiz-adv-x="387" 
d="M261 59l-5 149l-3 50l-8 9h-69q-15 0 -20 -1q-11 -4 -11 -18q0 -23 1 -81.5t1 -76.5q0 -67 -32 -68h-19q-32 0 -39.5 8.5t-8.5 40.5l-18 612q0 8 6 14.5t15 6.5h66q16 0 18 -23q1 -29 3.5 -138.5t6.5 -171.5h102q-7 224 -7 241q0 35 2 52t5.5 21.5t11.5 4.5h63
q16 0 20 -13v-10q0 -19 4 -76.5t7.5 -192t3.5 -339.5q0 -23 -48 -23t-48 23zM68 732q53 81 77.5 103.5t45.5 22.5q23 0 48 -23.5t79 -105.5l-81 -7l-45 63l-43 -61z" />
    <glyph glyph-name="Hbar" unicode="&#x126;" horiz-adv-x="372" 
d="M33 31q0 5 -0.5 34.5t-0.5 35.5q0 1 -0.5 35t-1 95.5t-0.5 130.5q0 64 2 284q0 17 9.5 22t28.5 5q41 0 54 -6t13 -27q0 -32 -1 -47q84 -2 96 -2l1 60q0 8 6.5 13t14.5 5h57q26 0 26 -42l5 -575v-4q0 -31 -15 -31h-70q-18 0 -18 25v190q0 16 -13 22h-29q-60 0 -60 -26
q0 -21 1.5 -63t1.5 -64v-35q0 -49 -11 -49h-81q-11 0 -15 14zM220 356l8 8l2 151l-96 1v-51q0 -16 1.5 -52t1.5 -54q3 -12 20 -12q6 0 33.5 3.5t29.5 5.5z" />
    <glyph glyph-name="hbar" unicode="&#x127;" horiz-adv-x="387" 
d="M261 59l-5 149l-3 50l-8 9h-69q-15 0 -20 -1q-11 -4 -11 -18q0 -23 1 -81.5t1 -76.5q0 -67 -32 -68h-19q-32 0 -39.5 8.5t-8.5 40.5l-18 612q0 8 6 14.5t15 6.5h66q16 0 18 -23l3 -100q90 -2 102 -2v33q0 35 2 52t5.5 21.5t11.5 4.5h63q16 0 20 -13v-10q0 -19 4 -76.5
t7.5 -192t3.5 -339.5q0 -23 -48 -23t-48 23zM247 371l-5 132l-103 1q1 -65 6 -133h102z" />
    <glyph glyph-name="Itilde" unicode="&#x128;" horiz-adv-x="175" 
d="M30 48q0 124 4 310t4 275q0 8 7 13.5t15 5.5h59q26 0 26 -40q0 -5 -0.5 -14t-0.5 -12q0 -42 -5 -277t-5 -255v-3q0 -25 -9 -25h-83q-12 0 -12 22zM51 758q-14 0 -14 -21q0 -4 0.5 -13t0.5 -14q0 -12 -5 -17l-54 3q-10 36 -10 61q0 67 76 67q17 0 37 -20t35 -39.5
t18 -19.5q2 0 2 4q0 3 3.5 18t3.5 39v8l59 -5q5 -10 5 -28q0 -33 -18.5 -63t-47.5 -30q-34 0 -54.5 11.5t-27 25t-9.5 33.5z" />
    <glyph glyph-name="itilde" unicode="&#x129;" horiz-adv-x="171" 
d="M45 58q-15 140 -15 411q0 128 1 208q0 5 4.5 9.5t10.5 4.5h65q15 0 17 -22l13 -596q0 -23 -18 -25l-62 -9q-7 0 -11.5 6t-4.5 13zM35 798q-14 0 -14 -21q0 -4 0.5 -13t0.5 -14q0 -12 -5 -17l-54 3q-10 36 -10 61q0 67 76 67q17 0 37 -20t35 -39.5t18 -19.5q2 0 2 4
q0 3 3.5 18t3.5 39v8l59 -5q5 -10 5 -28q0 -33 -18.5 -63t-47.5 -30q-34 0 -54.5 11.5t-27 25t-9.5 33.5z" />
    <glyph glyph-name="Imacron" unicode="&#x12a;" horiz-adv-x="175" 
d="M30 48q0 124 4 310t4 275q0 8 7 13.5t15 5.5h59q26 0 26 -40q0 -5 -0.5 -14t-0.5 -12q0 -42 -5 -277t-5 -255v-3q0 -25 -9 -25h-83q-12 0 -12 22zM-26 721l1 24q2 27 14 29q8 0 21.5 -0.5t19.5 -0.5q163 -3 170 -8q2 -1 2 -5v-34q0 -22 -8 -31l-207 2h-3q-10 0 -10 24z
" />
    <glyph glyph-name="imacron" unicode="&#x12b;" horiz-adv-x="171" 
d="M45 58q-15 140 -15 411q0 128 1 208q0 5 4.5 9.5t10.5 4.5h65q15 0 17 -22l13 -596q0 -23 -18 -25l-62 -9q-7 0 -11.5 6t-4.5 13zM-42 761l1 24q2 27 14 29q8 0 21.5 -0.5t19.5 -0.5q163 -3 170 -8q2 -1 2 -5v-34q0 -22 -8 -31l-207 2h-3q-10 0 -10 24z" />
    <glyph glyph-name="Ibreve" unicode="&#x12c;" horiz-adv-x="175" 
d="M30 48q0 124 4 310t4 275q0 8 7 13.5t15 5.5h59q26 0 26 -40q0 -5 -0.5 -14t-0.5 -12q0 -42 -5 -277t-5 -255v-3q0 -25 -9 -25h-83q-12 0 -12 22zM58 785q0 -13 10 -22.5t24 -9.5q13 0 23.5 11t10.5 30q0 2 -0.5 4.5t-0.5 3.5l57 13q4 -24 4 -32q0 -39 -24 -68t-68 -29
q-43 0 -74.5 24t-31.5 67q0 22 7 44l67 -17q-4 -16 -4 -19z" />
    <glyph glyph-name="ibreve" unicode="&#x12d;" horiz-adv-x="171" 
d="M45 58q-15 140 -15 411q0 128 1 208q0 5 4.5 9.5t10.5 4.5h65q15 0 17 -22l13 -596q0 -23 -18 -25l-62 -9q-7 0 -11.5 6t-4.5 13zM42 825q0 -13 10 -22.5t24 -9.5q13 0 23.5 11t10.5 30q0 2 -0.5 4.5t-0.5 3.5l57 13q4 -24 4 -32q0 -39 -24 -68t-68 -29q-43 0 -74.5 24
t-31.5 67q0 22 7 44l67 -17q-4 -16 -4 -19z" />
    <glyph glyph-name="Iogonek" unicode="&#x12e;" horiz-adv-x="175" 
d="M158 -91l-1 -59q-20 -2 -47 -2q-42 0 -69 27t-27 64q0 40 43 87h-15q-12 0 -12 22q0 124 4 310t4 275q0 8 7 13.5t15 5.5h59q26 0 26 -40q0 -5 -0.5 -14t-0.5 -12q0 -42 -5 -277t-5 -255v-3q0 -25 -9 -25h-5q-23 -50 -23 -69q0 -43 61 -48z" />
    <glyph glyph-name="iogonek" unicode="&#x12f;" horiz-adv-x="175" 
d="M154 -101l-1 -59q-20 -2 -47 -2q-42 0 -69 27t-27 64t37 80q-12 3 -12 17q-5 78 -5 146q0 85 8 267q8 160 11 208q0 5 4.5 9.5t10.5 4.5h65q16 0 16 -22l-14 -596q0 -19 -13 -24q-25 -52 -25 -72q0 -43 61 -48z" />
    <glyph glyph-name="Idotaccent" unicode="&#x130;" horiz-adv-x="175" 
d="M30 48q0 124 4 310t4 275q0 8 7 13.5t15 5.5h59q26 0 26 -40q0 -5 -0.5 -14t-0.5 -12q0 -42 -5 -277t-5 -255v-3q0 -25 -9 -25h-83q-12 0 -12 22zM26 745q0 24 18.5 40.5t45.5 16.5t45.5 -16.5t18.5 -40.5q0 -23 -18.5 -40t-45.5 -17t-45.5 17t-18.5 40z" />
    <glyph glyph-name="dotlessi" unicode="&#x131;" horiz-adv-x="171" 
d="M45 58q-15 140 -15 411q0 128 1 208q0 5 4.5 9.5t10.5 4.5h65q15 0 17 -22l13 -596q0 -23 -18 -25l-62 -9q-7 0 -11.5 6t-4.5 13z" />
    <glyph glyph-name="IJ" unicode="&#x132;" horiz-adv-x="424" 
d="M30 48q0 124 4 310t4 275q0 8 7 13.5t15 5.5h59q26 0 26 -40q0 -5 -0.5 -14t-0.5 -12q0 -42 -5 -277t-5 -255v-3q0 -25 -9 -25h-83q-12 0 -12 22zM261 107q30 0 30 226q0 74 -3 183.5t-3 115.5l-1 5v7q0 15 6.5 19t19.5 4q23 0 71 -3q11 -6 11 -21q0 -16 1 -50t1 -54
q0 -37 -0.5 -111.5t-0.5 -109.5q0 -46 -0.5 -74.5t-3 -62.5t-7 -54t-12.5 -41.5t-19.5 -33t-28.5 -22t-39 -14.5t-51 -4q-27 0 -27 19v58q0 4 3.5 11t7.5 7h45z" />
    <glyph glyph-name="ij" unicode="&#x133;" horiz-adv-x="419" 
d="M35 26q-5 78 -5 146q0 85 8 267q8 160 11 208q0 5 4.5 9.5t10.5 4.5h65q16 0 16 -22l-14 -596q0 -23 -19 -25l-62 -9q-6 0 -10.5 5.5t-4.5 11.5zM208 6q-3 33 -3 67q0 25 10 25h48q29 0 29 69q0 83 -15 276t-16 223v7q0 24 38 24h28q1 0 8 0.5t11 0.5q43 0 43 -488
q0 -49 -2 -78.5t-9.5 -59t-22.5 -44.5t-40.5 -24t-63.5 -9h-27q-16 5 -16 11z" />
    <glyph glyph-name="Jcircumflex" unicode="&#x134;" horiz-adv-x="249" 
d="M86 107q30 0 30 226q0 74 -3 183.5t-3 115.5v5q-1 5 -1 7q0 15 6.5 19t19.5 4q23 0 71 -3q11 -6 11 -21q0 -16 1 -50t1 -54q0 -37 -0.5 -111.5t-0.5 -109.5q0 -46 -0.5 -74.5t-3 -62.5t-7 -54t-12.5 -41.5t-19.5 -33t-28.5 -22t-39 -14.5t-51 -4q-27 0 -27 19v58
q0 4 3.5 11t7.5 7h45zM30 708q53 81 77.5 103.5t45.5 22.5q23 0 48 -23.5t79 -105.5l-81 -7l-45 63l-43 -61z" />
    <glyph glyph-name="jcircumflex" unicode="&#x135;" horiz-adv-x="244" 
d="M33 6q-3 33 -3 67q0 25 10 25h48q29 0 29 69q0 83 -15 276t-16 223v7q0 24 38 24h28q2 0 8 0.5t11 0.5q43 0 43 -488q0 -49 -2 -78.5t-9.5 -59t-22.5 -44.5t-40.5 -24t-63.5 -9h-27q-16 5 -16 11zM2 734q53 81 77.5 103.5t45.5 22.5q23 0 48 -23.5t79 -105.5l-81 -7
l-45 63l-43 -61z" />
    <glyph glyph-name="Kcommaaccent" unicode="&#x136;" horiz-adv-x="388" 
d="M30 58l3 606q1 19 33 19q39 0 50.5 -4.5t11.5 -19.5v-11q0 -17 0.5 -120.5t0.5 -121.5q0 -6 5 -6q31 10 52.5 70t21.5 122v53q0 19 10 24.5t31 5.5q4 0 19.5 -0.5t19.5 -0.5q28 -1 28 -62v-4q0 -132 -75 -247q5 -2 13 -7.5t28 -29t35.5 -54.5t28 -89t12.5 -129v-20
q0 -31 -17 -31l-71 -1q-7 0 -7 22v23q0 27 -6 65t-18 80.5t-35.5 71.5t-53.5 30q-6 0 -12.5 -3t-6.5 -8q0 -52 -0.5 -137t-0.5 -118q0 -9 -2.5 -13.5t-18 -8.5t-45.5 -4h-23q-7 0 -10 10zM136 -83q1 23 15 38t35 15t35.5 -14.5t14.5 -35.5q0 -61 -38 -124l-16 2l10 72
q0 -3 -8 -3q-15 0 -31.5 12.5t-16.5 37.5z" />
    <glyph glyph-name="kcommaaccent" unicode="&#x137;" horiz-adv-x="379" 
d="M43 61l-13 608q5 18 22 18h65q12 0 16 -13q3 -71 3 -209q0 -12 -0.5 -28t-0.5 -18q0 -1 0.5 -6t1 -8t3 -6t5.5 -3q26 0 46 50t27 86q7 49 7 140q4 16 30 16q4 0 11 -0.5t10 -0.5h26q7 0 12 -4.5t7 -13t2.5 -16.5t1 -20t1.5 -18v-8q0 -43 -14 -92t-29.5 -81.5t-34 -66
t-20.5 -38.5q0 -1 2 -3q38 -21 70 -79.5t45 -136.5q4 -28 4 -33q0 -8 -0.5 -12t-1 -6.5t-3.5 -3.5t-5 -1.5t-8.5 -1t-11.5 -1.5l-53 -10q-7 0 -11.5 7t-4.5 13q-32 108 -52 150.5t-40 42.5q-8 0 -12 -11v-15q0 -28 5 -82t5 -81v-20q-5 -7 -13 -7h-81q-15 0 -19 23zM146 -49
q1 23 15 38t35 15t35.5 -14.5t14.5 -35.5q0 -61 -38 -124l-16 2l10 72q0 -3 -8 -3q-15 0 -31.5 12.5t-16.5 37.5z" />
    <glyph glyph-name="kgreenlandic" unicode="&#x138;" horiz-adv-x="379" 
d="M43 61l-13 608q5 18 22 18h65q12 0 16 -13q3 -71 3 -209q0 -12 -0.5 -28t-0.5 -18q0 -1 0.5 -6t1 -8t3 -6t5.5 -3q26 0 46 50t27 86q7 49 7 140q4 16 30 16q4 0 11 -0.5t10 -0.5h26q7 0 12 -4.5t7 -13t2.5 -16.5t1 -20t1.5 -18v-8q0 -43 -14 -92t-29.5 -81.5t-34 -66
t-20.5 -38.5q0 -1 2 -3q38 -21 70 -79.5t45 -136.5q4 -28 4 -33q0 -8 -0.5 -12t-1 -6.5t-3.5 -3.5t-5 -1.5t-8.5 -1t-11.5 -1.5l-53 -10q-7 0 -11.5 7t-4.5 13q-32 108 -52 150.5t-40 42.5q-8 0 -12 -11v-15q0 -28 5 -82t5 -81v-20q-5 -7 -13 -7h-81q-15 0 -19 23z" />
    <glyph glyph-name="Lacute" unicode="&#x139;" horiz-adv-x="258" 
d="M32 107q1 74 6 251.5t5 273.5v5q3 38 9.5 46.5t38.5 8.5h21q36 0 36 -25q0 -24 -2 -73t-6 -171.5t-7 -291.5q0 -17 12 -21t36 -4h5q14 0 21.5 -1t14 -6.5t6.5 -16.5l-1 -51q0 -23 -19 -23q-88 -4 -148 -4h-5q-25 0 -25 36q0 8 1 26.5t1 40.5zM16 732l70 90l92 -20
l-73 -76z" />
    <glyph glyph-name="lacute" unicode="&#x13a;" horiz-adv-x="294" 
d="M43 39q-1 86 -7 283.5t-6 319.5v18q2 12 28 12h15q8 0 23 -1.5t27 -1.5q14 0 14 -69l6 -468l8 -8h95q7 0 12.5 -5.5t5.5 -11.5v-64q0 -18 -26 -20q-20 -2 -63 -2q-21 0 -56 0.5t-39 0.5h-28q-9 4 -9 17zM-4 712l70 90l92 -20l-73 -76z" />
    <glyph glyph-name="Lcommaaccent" unicode="&#x13b;" horiz-adv-x="258" 
d="M32 107q1 74 6 251.5t5 273.5v5q3 38 9.5 46.5t38.5 8.5h21q36 0 36 -25q0 -24 -2 -73t-6 -171.5t-7 -291.5q0 -17 12 -21t36 -4h5q14 0 21.5 -1t14 -6.5t6.5 -16.5l-1 -51q0 -23 -19 -23q-88 -4 -148 -4h-5q-25 0 -25 36q0 8 1 26.5t1 40.5zM64 -83q1 23 15 38t35 15
t35.5 -14.5t14.5 -35.5q0 -61 -38 -124l-16 2l10 72q0 -3 -8 -3q-15 0 -31.5 12.5t-16.5 37.5z" />
    <glyph glyph-name="lcommaaccent" unicode="&#x13c;" horiz-adv-x="294" 
d="M43 39q-1 86 -7 283.5t-6 319.5v18q2 12 28 12h15q8 0 23 -1.5t27 -1.5q14 0 14 -69l6 -468l8 -8h95q7 0 12.5 -5.5t5.5 -11.5v-64q0 -18 -26 -20q-20 -2 -63 -2q-21 0 -56 0.5t-39 0.5h-28q-9 4 -9 17zM94 -83q1 23 15 38t35 15t35.5 -14.5t14.5 -35.5q0 -61 -38 -124
l-16 2l10 72q0 -3 -8 -3q-15 0 -31.5 12.5t-16.5 37.5z" />
    <glyph glyph-name="Lcaron" unicode="&#x13d;" horiz-adv-x="306" 
d="M32 107q1 74 6 251.5t5 273.5v5q3 38 9.5 46.5t38.5 8.5h21q36 0 36 -25q0 -24 -2 -73t-6 -171.5t-7 -291.5q0 -17 12 -21t36 -4h5q14 0 21.5 -1t14 -6.5t6.5 -16.5l-1 -51q0 -23 -19 -23q-88 -4 -148 -4h-5q-25 0 -25 36q0 8 1 26.5t1 40.5zM219 741l26 -1q29 0 31 -13
q-5 -53 -10 -123q-5 -65 -11 -77.5t-35 -12.5q-4 0 -6 1.5t-5.5 4.5t-6.5 5l-8 203v3q0 10 25 10z" />
    <glyph glyph-name="lcaron" unicode="&#x13e;" horiz-adv-x="436" 
d="M43 39q-1 86 -7 283.5t-6 319.5v18q2 12 28 12h15q8 0 23 -1.5t27 -1.5q14 0 14 -69l6 -468l8 -8h95q7 0 12.5 -5.5t5.5 -11.5v-64q0 -18 -26 -20q-20 -2 -63 -2q-21 0 -56 0.5t-39 0.5h-28q-9 4 -9 17zM349 716l26 -1q29 0 31 -13q-5 -53 -10 -123q-5 -65 -11 -77.5
t-35 -12.5q-4 0 -6 1.5t-5.5 4.5t-6.5 5l-8 203v3q0 10 25 10z" />
    <glyph glyph-name="Ldot" unicode="&#x13f;" horiz-adv-x="319" 
d="M32 107q1 74 6 251.5t5 273.5v5q3 38 9.5 46.5t38.5 8.5h21q36 0 36 -25q0 -24 -2 -73t-6 -171.5t-7 -291.5q0 -17 12 -21t36 -4h5q14 0 21.5 -1t14 -6.5t6.5 -16.5l-1 -51q0 -23 -19 -23q-88 -4 -148 -4h-5q-25 0 -25 36q0 8 1 26.5t1 40.5zM189 358q0 21 14.5 35.5
t35.5 14.5t35.5 -14.5t14.5 -35.5t-14.5 -35.5t-35.5 -14.5t-35.5 14.5t-14.5 35.5z" />
    <glyph glyph-name="ldot" unicode="&#x140;" horiz-adv-x="454" 
d="M43 39q-1 86 -7 283.5t-6 319.5v18q2 12 28 12h15q8 0 23 -1.5t27 -1.5q14 0 14 -69l6 -468l8 -8h95q7 0 12.5 -5.5t5.5 -11.5v-64q0 -18 -26 -20q-20 -2 -63 -2q-21 0 -56 0.5t-39 0.5h-28q-9 4 -9 17zM324 358q0 21 14.5 35.5t35.5 14.5t35.5 -14.5t14.5 -35.5
t-14.5 -35.5t-35.5 -14.5t-35.5 14.5t-14.5 35.5z" />
    <glyph glyph-name="Lslash" unicode="&#x141;" horiz-adv-x="288" 
d="M30 236v64l36 13q7 250 7 319v5q3 38 9.5 46.5t38.5 8.5h21q36 0 36 -25q0 -20 -1.5 -54t-4 -104t-4.5 -158l44 17v-68l-46 -16l-3 -153q0 -17 12 -21t36 -4h5q14 0 21.5 -1t14 -6.5t6.5 -16.5l-1 -51q0 -23 -19 -23q-88 -4 -148 -4h-5q-25 0 -25 36q0 8 1 26.5t1 40.5
q0 47 2 141z" />
    <glyph glyph-name="lslash" unicode="&#x142;" horiz-adv-x="324" 
d="M30 236v64l36 13q-6 210 -6 329v18q2 12 28 12h15q8 0 23 -1.5t27 -1.5q14 0 14 -69l3 -248l42 16v-68l-41 -15l2 -153l8 -8h95q7 0 12.5 -5.5t5.5 -11.5v-64q0 -18 -26 -20q-20 -2 -63 -2q-21 0 -56 0.5t-39 0.5h-28q-9 4 -9 17q-1 77 -5 210z" />
    <glyph glyph-name="Nacute" unicode="&#x143;" horiz-adv-x="406" 
d="M243 76l-109 341q-1 -59 -1 -181l-1 -188q0 -18 -2.5 -22.5t-14.5 -7.5q-1 0 -12.5 -1t-20.5 -1q-52 0 -52 26v322q0 37 0.5 112.5t0.5 113.5q0 6 -0.5 18.5t-0.5 19.5q0 51 25 51l82 -1q22 0 28 -21q86 -279 109 -343l1 137q0 28 -1.5 85t-1.5 87q0 45 25 45l62 -1
q14 0 16 -16q1 -61 1 -183q0 -70 -1.5 -207.5t-1.5 -220.5q-3 -16 -21 -16l-71 1q-25 0 -38 51zM132 704l70 90l92 -20l-73 -76z" />
    <glyph glyph-name="nacute" unicode="&#x144;" horiz-adv-x="441" 
d="M283 22l-148 471q-3 0 -3 -53q0 -33 2.5 -180.5t2.5 -235.5q0 -25 -34 -25q-3 0 -9 0.5t-9 0.5q-2 0 -8.5 -0.5t-10.5 -0.5q-28 0 -32 14l-1 287q0 42 -1.5 125.5t-1.5 124.5q0 8 0.5 49t0.5 49q2 15 16 15h117q18 0 18 -11l138 -460l-23 459q6 13 18 13h70q12 0 15 -8
v-6q0 -13 3 -90.5t3 -116.5q0 -5 2.5 -129t2.5 -194q0 -113 -6 -113h-102q-13 0 -20 15zM140 692l70 90l92 -20l-73 -76z" />
    <glyph glyph-name="Ncommaaccent" unicode="&#x145;" horiz-adv-x="406" 
d="M243 76l-109 341q-1 -59 -1 -181l-1 -188q0 -18 -2.5 -22.5t-14.5 -7.5q-1 0 -12.5 -1t-20.5 -1q-52 0 -52 26v322q0 37 0.5 112.5t0.5 113.5q0 6 -0.5 18.5t-0.5 19.5q0 51 25 51l82 -1q22 0 28 -21q86 -279 109 -343l1 137q0 28 -1.5 85t-1.5 87q0 45 25 45l62 -1
q14 0 16 -16q1 -61 1 -183q0 -70 -1.5 -207.5t-1.5 -220.5q-3 -16 -21 -16l-71 1q-25 0 -38 51zM154 -61q1 23 15 38t35 15t35.5 -14.5t14.5 -35.5q0 -61 -38 -124l-16 2l10 72q0 -3 -8 -3q-15 0 -31.5 12.5t-16.5 37.5z" />
    <glyph glyph-name="ncommaaccent" unicode="&#x146;" horiz-adv-x="441" 
d="M283 22l-148 471q-3 0 -3 -53q0 -33 2.5 -180.5t2.5 -235.5q0 -25 -34 -25q-3 0 -9 0.5t-9 0.5q-2 0 -8.5 -0.5t-10.5 -0.5q-28 0 -32 14l-1 287q0 42 -1.5 125.5t-1.5 124.5q0 8 0.5 49t0.5 49q2 15 16 15h117q18 0 18 -11l138 -460l-23 459q6 13 18 13h70q12 0 15 -8
v-6q0 -13 3 -90.5t3 -116.5q0 -5 2.5 -129t2.5 -194q0 -113 -6 -113h-102q-13 0 -20 15zM170 -65q1 23 15 38t35 15t35.5 -14.5t14.5 -35.5q0 -61 -38 -124l-16 2l10 72q0 -3 -8 -3q-15 0 -31.5 12.5t-16.5 37.5z" />
    <glyph glyph-name="Ncaron" unicode="&#x147;" horiz-adv-x="406" 
d="M243 76l-109 341q-1 -59 -1 -181l-1 -188q0 -18 -2.5 -22.5t-14.5 -7.5q-1 0 -12.5 -1t-20.5 -1q-52 0 -52 26v322q0 37 0.5 112.5t0.5 113.5q0 6 -0.5 18.5t-0.5 19.5q0 51 25 51l82 -1q22 0 28 -21q86 -279 109 -343l1 137q0 28 -1.5 85t-1.5 87q0 45 25 45l62 -1
q14 0 16 -16q1 -61 1 -183q0 -70 -1.5 -207.5t-1.5 -220.5q-3 -16 -21 -16l-71 1q-25 0 -38 51zM96 829l88 1l28 -74l30 74l94 -1q-45 -67 -72.5 -96t-51.5 -29q-23 0 -50 29.5t-66 95.5z" />
    <glyph glyph-name="ncaron" unicode="&#x148;" horiz-adv-x="441" 
d="M283 22l-148 471q-3 0 -3 -53q0 -33 2.5 -180.5t2.5 -235.5q0 -25 -34 -25q-3 0 -9 0.5t-9 0.5q-2 0 -8.5 -0.5t-10.5 -0.5q-28 0 -32 14l-1 287q0 42 -1.5 125.5t-1.5 124.5q0 8 0.5 49t0.5 49q2 15 16 15h117q18 0 18 -11l138 -460l-23 459q6 13 18 13h70q12 0 15 -8
v-6q0 -13 3 -90.5t3 -116.5q0 -5 2.5 -129t2.5 -194q0 -113 -6 -113h-102q-13 0 -20 15zM104 817l88 1l28 -74l30 74l94 -1q-45 -67 -72.5 -96t-51.5 -29q-23 0 -50 29.5t-66 95.5z" />
    <glyph glyph-name="napostrophe" unicode="&#x149;" horiz-adv-x="573" 
d="M415 22l-148 471q-3 0 -3 -53q0 -33 2.5 -180.5t2.5 -235.5q0 -25 -34 -25q-3 0 -9 0.5t-9 0.5q-2 0 -8.5 -0.5t-10.5 -0.5q-28 0 -32 14l-1 287q0 42 -1.5 125.5t-1.5 124.5q0 8 0.5 49t0.5 49q2 15 16 15h117q18 0 18 -11l138 -460l-23 459q6 13 18 13h70q12 0 15 -8
v-6q0 -13 3 -90.5t3 -116.5q0 -5 2.5 -129t2.5 -194q0 -113 -6 -113h-102q-13 0 -20 15zM30 671q1 23 15 38t35 15t35.5 -14.5t14.5 -35.5q0 -61 -38 -124l-16 2l10 72q0 -3 -8 -3q-15 0 -31.5 12.5t-16.5 37.5z" />
    <glyph glyph-name="Eng" unicode="&#x14a;" horiz-adv-x="406" 
d="M243 76l-109 341q-1 -59 -1 -181l-1 -188q0 -18 -2.5 -22.5t-14.5 -7.5q-1 0 -12.5 -1t-20.5 -1q-52 0 -52 26v322q0 37 0.5 112.5t0.5 113.5q0 6 -0.5 18.5t-0.5 19.5q0 51 25 51l82 -1q22 0 28 -21q86 -279 109 -343l1 137q0 28 -1.5 85t-1.5 87q0 45 25 45l62 -1
q14 0 16 -16q1 -61 1 -183v-29q0 -261 -12 -411q-6 -81 -39 -116.5t-113 -35.5q-27 0 -27 19v58q0 4 3.5 11t7.5 7h45q15 0 23 60q-14 12 -21 45z" />
    <glyph glyph-name="eng" unicode="&#x14b;" horiz-adv-x="441" 
d="M283 22l-148 471q-3 0 -3 -53q0 -33 2.5 -180.5t2.5 -235.5q0 -25 -34 -25q-3 0 -9 0.5t-9 0.5q-2 0 -8.5 -0.5t-10.5 -0.5q-28 0 -32 14l-1 287q0 42 -1.5 125.5t-1.5 124.5q0 8 0.5 49t0.5 49q2 15 16 15h117q18 0 18 -11l138 -460l-23 459q6 13 18 13h70q12 0 15 -8
v-6q0 -13 3 -90.5t3 -116.5q0 -5 2.5 -129t2.5 -194v-20q0 -37 -1 -59.5t-5.5 -56t-15 -54.5t-27.5 -41.5t-45.5 -30.5t-66.5 -10q-27 0 -27 19v58q0 4 3.5 11t7.5 7h45q16 0 23 64q-12 0 -19 15z" />
    <glyph glyph-name="Omacron" unicode="&#x14c;" 
d="M200 26q-43 0 -75.5 16.5t-50 41.5t-28 62.5t-13.5 70.5t-3 74q0 107 12 222q4 31 13.5 60t26.5 56t45.5 43t64.5 16q46 0 79.5 -16t52.5 -40.5t29.5 -64t13.5 -75.5t3 -86q0 -301 -73 -349q-46 -31 -97 -31zM210 577q-76 0 -76 -190q0 -16 0.5 -41t0.5 -34
q0 -168 54 -168q47 0 64 45.5t18 126.5v86q0 92 -11.5 133.5t-49.5 41.5zM80 757l1 24q2 27 14 29q8 0 21.5 -0.5t19.5 -0.5q163 -3 170 -8q2 -1 2 -5v-34q0 -22 -8 -31l-207 2h-3q-10 0 -10 24z" />
    <glyph glyph-name="omacron" unicode="&#x14d;" horiz-adv-x="369" 
d="M52 72q-22 79 -22 332q0 39 1 64.5t5.5 62t15 59t27 45t44 33.5t64.5 11q55 0 99.5 -34t48.5 -91q4 -68 4 -152q0 -28 -0.5 -60.5t-1.5 -72.5t-1 -64v-4q-3 -45 -5.5 -67.5t-11.5 -53.5t-23 -45.5t-40 -25.5t-64 -11q-122 0 -140 74zM141 132q2 -13 16 -23t30 -10
q32 0 39 35q8 165 8 344v52q-2 23 -12.5 33.5t-36.5 10.5q-16 0 -26.5 -5t-14.5 -15t-5 -18.5t-1 -23.5v-12q0 -289 3 -368zM66 747l1 24q2 27 14 29q8 0 21.5 -0.5t19.5 -0.5q163 -3 170 -8q2 -1 2 -5v-34q0 -22 -8 -31l-207 2h-3q-10 0 -10 24z" />
    <glyph glyph-name="Obreve" unicode="&#x14e;" 
d="M200 26q-43 0 -75.5 16.5t-50 41.5t-28 62.5t-13.5 70.5t-3 74q0 107 12 222q4 31 13.5 60t26.5 56t45.5 43t64.5 16q46 0 79.5 -16t52.5 -40.5t29.5 -64t13.5 -75.5t3 -86q0 -301 -73 -349q-46 -31 -97 -31zM210 577q-76 0 -76 -190q0 -16 0.5 -41t0.5 -34
q0 -168 54 -168q47 0 64 45.5t18 126.5v86q0 92 -11.5 133.5t-49.5 41.5zM164 821q0 -13 10 -22.5t24 -9.5q13 0 23.5 11t10.5 30q0 2 -0.5 4t-0.5 4l57 13q4 -24 4 -32q0 -39 -24 -68t-68 -29q-43 0 -74.5 24t-31.5 67q0 22 7 44l67 -17q-4 -16 -4 -19z" />
    <glyph glyph-name="obreve" unicode="&#x14f;" horiz-adv-x="369" 
d="M52 72q-22 79 -22 332q0 39 1 64.5t5.5 62t15 59t27 45t44 33.5t64.5 11q55 0 99.5 -34t48.5 -91q4 -68 4 -152q0 -28 -0.5 -60.5t-1.5 -72.5t-1 -64v-4q-3 -45 -5.5 -67.5t-11.5 -53.5t-23 -45.5t-40 -25.5t-64 -11q-122 0 -140 74zM141 132q2 -13 16 -23t30 -10
q32 0 39 35q8 165 8 344v52q-2 23 -12.5 33.5t-36.5 10.5q-16 0 -26.5 -5t-14.5 -15t-5 -18.5t-1 -23.5v-12q0 -289 3 -368zM150 811q0 -13 10 -22.5t24 -9.5q13 0 23.5 11t10.5 30q0 2 -0.5 4t-0.5 4l57 13q4 -24 4 -32q0 -39 -24 -68t-68 -29q-43 0 -74.5 24t-31.5 67
q0 22 7 44l67 -17q-4 -16 -4 -19z" />
    <glyph glyph-name="Ohungarumlaut" unicode="&#x150;" 
d="M200 26q-43 0 -75.5 16.5t-50 41.5t-28 62.5t-13.5 70.5t-3 74q0 107 12 222q4 31 13.5 60t26.5 56t45.5 43t64.5 16q46 0 79.5 -16t52.5 -40.5t29.5 -64t13.5 -75.5t3 -86q0 -301 -73 -349q-46 -31 -97 -31zM210 577q-76 0 -76 -190q0 -16 0.5 -41t0.5 -34
q0 -168 54 -168q47 0 64 45.5t18 126.5v86q0 92 -11.5 133.5t-49.5 41.5zM106 730l28 140l92 -20l-66 -120h-54zM222 726l28 140l92 -20l-66 -120h-54z" />
    <glyph glyph-name="ohungarumlaut" unicode="&#x151;" horiz-adv-x="369" 
d="M52 72q-22 79 -22 332q0 39 1 64.5t5.5 62t15 59t27 45t44 33.5t64.5 11q55 0 99.5 -34t48.5 -91q4 -68 4 -152q0 -28 -0.5 -60.5t-1.5 -72.5t-1 -64v-4q-3 -45 -5.5 -67.5t-11.5 -53.5t-23 -45.5t-40 -25.5t-64 -11q-122 0 -140 74zM141 132q2 -13 16 -23t30 -10
q32 0 39 35q8 165 8 344v52q-2 23 -12.5 33.5t-36.5 10.5q-16 0 -26.5 -5t-14.5 -15t-5 -18.5t-1 -23.5v-12q0 -289 3 -368zM92 720l28 140l92 -20l-66 -120h-54zM208 716l28 140l92 -20l-66 -120h-54z" />
    <glyph glyph-name="OE" unicode="&#x152;" horiz-adv-x="468" 
d="M192 679l118 1q124 0 124 -21v-72q0 -3 -8 -11q-17 0 -48.5 1t-47.5 1q-20 0 -20 -20q0 -62 7 -142q3 -2 17 -2h17q41 0 42 -16l5 -87q0 -13 -33 -13h-15q-20 0 -23 1q-7 -6 -7 -30v-51q0 -34 1 -52q2 -14 6.5 -19t17.5 -5q11 0 34 1t35 1q24 0 24 -19v-66q0 -25 -17 -25
l-227 -6q-42 0 -73 16.5t-48 41.5t-27 62t-13 69.5t-3 73.5q0 107 12 222q8 68 44.5 117t105.5 49zM210 577q-76 0 -76 -190q0 -16 0.5 -41t0.5 -34q0 -74 14 -133t44 -59q20 0 31 6q-1 37 -7 202.5t-7 248.5z" />
    <glyph glyph-name="oe" unicode="&#x153;" horiz-adv-x="474" 
d="M187 679q2 0 11.5 -0.5t35.5 -0.5h67q79 0 111 -2q9 -3 12 -11q1 -23 1 -73q0 -5 -1 -7.5t-2.5 -5.5t-5.5 -4.5t-10 -1.5h-105l-9 -9l6 -169l82 -3q14 -1 14 -43l-2 -33q0 -21 -14 -21h-74q-1 0 -2 -1l-1.5 -1.5t-1.5 -0.5l-3 -3l5 -158q3 -19 19 -19h105q19 0 19 -28
l-5 -58q-2 -13 -14 -16q-123 -6 -206 -11q-24 -1 -27 -1q-122 0 -141 74q-21 80 -21 332q0 39 1 64.5t5.5 62t15 59t27 45t44 33.5t64.5 11zM141 132q2 -13 16 -23t30 -10q8 0 12 2q-3 55 -3 158q0 33 -0.5 98.5t-0.5 99.5q0 77 1 116q-4 1 -11 1q-16 0 -26.5 -5t-14.5 -15
t-5 -18.5t-1 -23.5v-12q0 -289 3 -368z" />
    <glyph glyph-name="Racute" unicode="&#x154;" horiz-adv-x="356" 
d="M36 19l-6 627q0 44 17 44h161q109 0 109 -149q0 -52 -23.5 -113t-46.5 -93q0 -2 1 -3q75 -87 75 -216q0 -1 1.5 -27t1.5 -43q0 -50 -12 -50h-81q-2 0 -5 3.5t-3 5.5q0 137 -12 188q-11 52 -55 52l-6 -1h-7q-3 -1 -5.5 -2.5t-4.5 -4.5t-3 -5.5t-1.5 -6.5t-0.5 -6.5
t-0.5 -7.5t-0.5 -6l5 -177q0 -32 -12 -32h-74q-12 0 -12 23zM133 396q0 -17 12 -17l3 1h3q30 28 43.5 57t13.5 72q0 46 -9 63t-45 17q-13 0 -17 -7.5t-5 -23.5zM70 724l70 90l92 -20l-73 -76z" />
    <glyph glyph-name="racute" unicode="&#x155;" horiz-adv-x="364" 
d="M30 64l13 594q2 25 15 29q24 3 69 3h95q53 -5 75 -42.5t27 -97.5q0 -123 -4 -163q-6 -25 -18 -40t-26.5 -24t-18.5 -14q0 -3 1 -4q76 -161 76 -259q0 -5 -6 -8.5t-16 -6t-18.5 -4t-18.5 -2.5t-12 -1q-5 0 -8 2t-5.5 7.5t-3.5 8.5t-2.5 10.5t-1.5 8.5q0 41 -29.5 129.5
t-58.5 88.5q-19 0 -21 -9v-109q0 -19 -0.5 -58t-0.5 -58q0 -21 -14 -21h-70q-18 0 -18 40zM144 557l-3 -174q0 -17 25 -17q23 0 35 6.5t17 25.5q4 42 4 108v49q-8 32 -41 32q-34 0 -37 -30zM92 724l70 90l92 -20l-73 -76z" />
    <glyph glyph-name="Rcommaaccent" unicode="&#x156;" horiz-adv-x="356" 
d="M36 19l-6 627q0 44 17 44h161q109 0 109 -149q0 -52 -23.5 -113t-46.5 -93q0 -2 1 -3q75 -87 75 -216q0 -1 1.5 -27t1.5 -43q0 -50 -12 -50h-81q-2 0 -5 3.5t-3 5.5q0 137 -12 188q-11 52 -55 52l-6 -1h-7q-3 -1 -5.5 -2.5t-4.5 -4.5t-3 -5.5t-1.5 -6.5t-0.5 -6.5
t-0.5 -7.5t-0.5 -6l5 -177q0 -32 -12 -32h-74q-12 0 -12 23zM133 396q0 -17 12 -17l3 1h3q30 28 43.5 57t13.5 72q0 46 -9 63t-45 17q-13 0 -17 -7.5t-5 -23.5zM124 -79q1 23 15 38t35 15t35.5 -14.5t14.5 -35.5q0 -61 -38 -124l-16 2l10 72q0 -3 -8 -3q-15 0 -31.5 12.5
t-16.5 37.5z" />
    <glyph glyph-name="rcommaaccent" unicode="&#x157;" horiz-adv-x="364" 
d="M30 64l13 594q2 25 15 29q24 3 69 3h95q53 -5 75 -42.5t27 -97.5q0 -123 -4 -163q-6 -25 -18 -40t-26.5 -24t-18.5 -14q0 -3 1 -4q76 -161 76 -259q0 -5 -6 -8.5t-16 -6t-18.5 -4t-18.5 -2.5t-12 -1q-5 0 -8 2t-5.5 7.5t-3.5 8.5t-2.5 10.5t-1.5 8.5q0 41 -29.5 129.5
t-58.5 88.5q-19 0 -21 -9v-109q0 -19 -0.5 -58t-0.5 -58q0 -21 -14 -21h-70q-18 0 -18 40zM144 557l-3 -174q0 -17 25 -17q23 0 35 6.5t17 25.5q4 42 4 108v49q-8 32 -41 32q-34 0 -37 -30zM128 -57q1 23 15 38t35 15t35.5 -14.5t14.5 -35.5q0 -61 -38 -124l-16 2l10 72
q0 -3 -8 -3q-15 0 -31.5 12.5t-16.5 37.5z" />
    <glyph glyph-name="Rcaron" unicode="&#x158;" horiz-adv-x="356" 
d="M36 19l-6 627q0 44 17 44h161q109 0 109 -149q0 -52 -23.5 -113t-46.5 -93q0 -2 1 -3q75 -87 75 -216q0 -1 1.5 -27t1.5 -43q0 -50 -12 -50h-81q-2 0 -5 3.5t-3 5.5q0 137 -12 188q-11 52 -55 52l-6 -1h-7q-3 -1 -5.5 -2.5t-4.5 -4.5t-3 -5.5t-1.5 -6.5t-0.5 -6.5
t-0.5 -7.5t-0.5 -6l5 -177q0 -32 -12 -32h-74q-12 0 -12 23zM133 396q0 -17 12 -17l3 1h3q30 28 43.5 57t13.5 72q0 46 -9 63t-45 17q-13 0 -17 -7.5t-5 -23.5zM34 849l88 1l28 -74l30 74l94 -1q-45 -67 -72.5 -96t-51.5 -29q-23 0 -50 29.5t-66 95.5z" />
    <glyph glyph-name="rcaron" unicode="&#x159;" horiz-adv-x="364" 
d="M30 64l13 594q2 25 15 29q24 3 69 3h95q53 -5 75 -42.5t27 -97.5q0 -123 -4 -163q-6 -25 -18 -40t-26.5 -24t-18.5 -14q0 -3 1 -4q76 -161 76 -259q0 -5 -6 -8.5t-16 -6t-18.5 -4t-18.5 -2.5t-12 -1q-5 0 -8 2t-5.5 7.5t-3.5 8.5t-2.5 10.5t-1.5 8.5q0 41 -29.5 129.5
t-58.5 88.5q-19 0 -21 -9v-109q0 -19 -0.5 -58t-0.5 -58q0 -21 -14 -21h-70q-18 0 -18 40zM144 557l-3 -174q0 -17 25 -17q23 0 35 6.5t17 25.5q4 42 4 108v49q-8 32 -41 32q-34 0 -37 -30zM56 849l88 1l28 -74l30 74l94 -1q-45 -67 -72.5 -96t-51.5 -29q-23 0 -50 29.5
t-66 95.5z" />
    <glyph glyph-name="Sacute" unicode="&#x15a;" horiz-adv-x="372" 
d="M44 165q0 16 6.5 19t35.5 3h18q19 0 29 -6q8 -5 11.5 -20t4 -29t8 -25.5t23.5 -11.5q60 0 60 69q0 36 -21.5 74t-52.5 62q-47 36 -76.5 69t-41.5 61.5t-15 46t-3 42.5q0 66 44.5 109.5t113.5 43.5q128 0 128 -156q-3 -25 -19 -27h-56q-16 1 -21.5 13.5t-4 27.5t-3.5 27.5
t-20 12.5q-4 1 -12 1q-28 0 -41 -15t-13 -37q0 -5 2 -19q5 -25 29.5 -52.5t54.5 -54.5t60 -57t50 -71t20 -87q0 -82 -44 -131t-129 -49q-125 0 -125 167zM96 712l70 90l92 -20l-73 -76z" />
    <glyph glyph-name="sacute" unicode="&#x15b;" horiz-adv-x="339" 
d="M45 153v37q0 21 2 29q3 13 10 13h17q24 0 41 -1q16 -2 18 -34t6 -63.5t25 -33.5q7 -1 20 -1q20 0 26 8t6 28v23q0 5 -2 21q-8 57 -30.5 99.5t-47.5 66.5t-49.5 46t-40.5 53.5t-16 74.5q0 60 39.5 107t97.5 47q30 0 52.5 -9t35.5 -23t21.5 -32.5t11 -34t2.5 -31.5
q0 -17 -1 -26t-7 -18.5t-18 -10.5l-15 -2q-15 -1 -21 -1h-5q-17 0 -17 8q-6 80 -34 80q-24 0 -37 -15t-13 -40q0 -18 16 -40t40.5 -47t50.5 -56.5t48.5 -81.5t31.5 -109v-11q0 -85 -33.5 -122t-101.5 -37q-60 0 -94.5 34.5t-34.5 104.5zM88 710l70 90l92 -20l-73 -76z" />
    <glyph glyph-name="Scircumflex" unicode="&#x15c;" horiz-adv-x="372" 
d="M44 165q0 16 6.5 19t35.5 3h18q19 0 29 -6q8 -5 11.5 -20t4 -29t8 -25.5t23.5 -11.5q60 0 60 69q0 36 -21.5 74t-52.5 62q-47 36 -76.5 69t-41.5 61.5t-15 46t-3 42.5q0 66 44.5 109.5t113.5 43.5q128 0 128 -156q-3 -25 -19 -27h-56q-16 1 -21.5 13.5t-4 27.5t-3.5 27.5
t-20 12.5q-4 1 -12 1q-28 0 -41 -15t-13 -37q0 -5 2 -19q5 -25 29.5 -52.5t54.5 -54.5t60 -57t50 -71t20 -87q0 -82 -44 -131t-129 -49q-125 0 -125 167zM54 712q53 81 77.5 103.5t45.5 22.5q23 0 48 -23.5t79 -105.5l-81 -7l-45 63l-43 -61z" />
    <glyph glyph-name="scircumflex" unicode="&#x15d;" horiz-adv-x="339" 
d="M45 153v37q0 21 2 29q3 13 10 13h17q24 0 41 -1q16 -2 18 -34t6 -63.5t25 -33.5q7 -1 20 -1q20 0 26 8t6 28v23q0 5 -2 21q-8 57 -30.5 99.5t-47.5 66.5t-49.5 46t-40.5 53.5t-16 74.5q0 60 39.5 107t97.5 47q30 0 52.5 -9t35.5 -23t21.5 -32.5t11 -34t2.5 -31.5
q0 -17 -1 -26t-7 -18.5t-18 -10.5l-15 -2q-15 -1 -21 -1h-5q-17 0 -17 8q-6 80 -34 80q-24 0 -37 -15t-13 -40q0 -18 16 -40t40.5 -47t50.5 -56.5t48.5 -81.5t31.5 -109v-11q0 -85 -33.5 -122t-101.5 -37q-60 0 -94.5 34.5t-34.5 104.5zM46 710q53 81 77.5 103.5t45.5 22.5
q23 0 48 -23.5t79 -105.5l-81 -7l-45 63l-43 -61z" />
    <glyph glyph-name="Scedilla" unicode="&#x15e;" horiz-adv-x="372" 
d="M44 165q0 16 6.5 19t35.5 3h18q19 0 29 -6q8 -5 11.5 -20t4 -29t8 -25.5t23.5 -11.5q60 0 60 69q0 36 -21.5 74t-52.5 62q-47 36 -76.5 69t-41.5 61.5t-15 46t-3 42.5q0 66 44.5 109.5t113.5 43.5q128 0 128 -156q-3 -25 -19 -27h-56q-16 1 -21.5 13.5t-4 27.5t-3.5 27.5
t-20 12.5q-4 1 -12 1q-28 0 -41 -15t-13 -37q0 -5 2 -19q5 -25 29.5 -52.5t54.5 -54.5t60 -57t50 -71t20 -87q0 -67 -30 -113t-89 -61l-17 -32q2 1 5 1q37 0 67 -25.5t30 -65.5q0 -49 -28.5 -74.5t-70.5 -25.5q-71 0 -105 72l57 39q7 -19 21.5 -30t28.5 -11t22.5 9.5
t8.5 26.5q0 13 -7 21t-16 8q-13 0 -28 -25l-55 30l13 77q-105 12 -105 166z" />
    <glyph glyph-name="scedilla" unicode="&#x15f;" horiz-adv-x="339" 
d="M45 153v37q0 21 2 29q3 13 10 13h17q24 0 41 -1q16 -2 18 -34t6 -63.5t25 -33.5q7 -1 20 -1q20 0 26 8t6 28v23q0 5 -2 21q-8 57 -30.5 99.5t-47.5 66.5t-49.5 46t-40.5 53.5t-16 74.5q0 60 39.5 107t97.5 47q30 0 52.5 -9t35.5 -23t21.5 -32.5t11 -34t2.5 -31.5
q0 -17 -1 -26t-7 -18.5t-18 -10.5l-15 -2q-15 -1 -21 -1h-5q-17 0 -17 8q-6 80 -34 80q-24 0 -37 -15t-13 -40q0 -18 16 -40t40.5 -47t50.5 -56.5t48.5 -81.5t31.5 -109v-11q0 -137 -94 -155l-15 -28q2 1 5 1q37 0 67 -25.5t30 -65.5q0 -49 -28.5 -74.5t-70.5 -25.5
q-71 0 -105 72l57 39q7 -19 21.5 -30t28.5 -11t22.5 9.5t8.5 26.5q0 13 -7 21t-16 8q-13 0 -28 -25l-55 30l13 76q-98 18 -98 137z" />
    <glyph glyph-name="Scaron" unicode="&#x160;" horiz-adv-x="372" 
d="M44 165q0 16 6.5 19t35.5 3h18q19 0 29 -6q8 -5 11.5 -20t4 -29t8 -25.5t23.5 -11.5q60 0 60 69q0 36 -21.5 74t-52.5 62q-47 36 -76.5 69t-41.5 61.5t-15 46t-3 42.5q0 66 44.5 109.5t113.5 43.5q128 0 128 -156q-3 -25 -19 -27h-56q-16 1 -21.5 13.5t-4 27.5t-3.5 27.5
t-20 12.5q-4 1 -12 1q-28 0 -41 -15t-13 -37q0 -5 2 -19q5 -25 29.5 -52.5t54.5 -54.5t60 -57t50 -71t20 -87q0 -82 -44 -131t-129 -49q-125 0 -125 167zM70 820l88 1l28 -74l30 74l94 -1q-45 -67 -72.5 -96t-51.5 -29q-23 0 -50 29.5t-66 95.5z" />
    <glyph glyph-name="scaron" unicode="&#x161;" horiz-adv-x="339" 
d="M45 153v37q0 21 2 29q3 13 10 13h17q24 0 41 -1q16 -2 18 -34t6 -63.5t25 -33.5q7 -1 20 -1q20 0 26 8t6 28v23q0 5 -2 21q-8 57 -30.5 99.5t-47.5 66.5t-49.5 46t-40.5 53.5t-16 74.5q0 60 39.5 107t97.5 47q30 0 52.5 -9t35.5 -23t21.5 -32.5t11 -34t2.5 -31.5
q0 -17 -1 -26t-7 -18.5t-18 -10.5l-15 -2q-15 -1 -21 -1h-5q-17 0 -17 8q-6 80 -34 80q-24 0 -37 -15t-13 -40q0 -18 16 -40t40.5 -47t50.5 -56.5t48.5 -81.5t31.5 -109v-11q0 -85 -33.5 -122t-101.5 -37q-60 0 -94.5 34.5t-34.5 104.5zM49 825l88 1l28 -74l30 74l94 -1
q-45 -67 -72.5 -96t-51.5 -29q-23 0 -50 29.5t-66 95.5z" />
    <glyph glyph-name="Tcommaaccent" unicode="&#x162;" horiz-adv-x="328" 
d="M129 30l-8 544q0 12 -19 12q-6 0 -20.5 0.5t-21.5 0.5q-19 0 -24 5.5t-5 21.5v17q0 2 -0.5 9.5t-0.5 11.5q0 27 14 32h19q14 0 56.5 0.5t71.5 0.5q78 0 96 -3q11 -3 11 -10v-75q0 -13 -21 -13q-22 0 -43 -3q-10 -4 -11 -15l2 -518q-1 -21 -7.5 -26.5t-23.5 -5.5h-50
q-5 0 -10 4t-5 10zM121 -77q1 23 15 38t35 15t35.5 -14.5t14.5 -35.5q0 -61 -38 -124l-16 2l10 72q0 -3 -8 -3q-15 0 -31.5 12.5t-16.5 37.5z" />
    <glyph glyph-name="tcommaaccent" unicode="&#x163;" horiz-adv-x="347" 
d="M124 27q0 82 0.5 246t0.5 246v27q0 3 -3.5 10t-7.5 7l-66 -1q-12 0 -15 6t-3 22v9q0 24 1.5 35.5t9.5 20t25 8.5h15q124 0 194 -2q16 0 28 -3q14 -1 14 -32q0 -4 -0.5 -10.5t-0.5 -8.5v-15q0 -14 -6 -24t-16 -10l-71 -4l1 -518q0 -28 -15 -28h-67q-18 0 -18 19zM122 -83
q1 23 15 38t35 15t35.5 -14.5t14.5 -35.5q0 -61 -38 -124l-16 2l10 72q0 -3 -8 -3q-15 0 -31.5 12.5t-16.5 37.5z" />
    <glyph glyph-name="Tcaron" unicode="&#x164;" horiz-adv-x="328" 
d="M129 30l-8 544q0 12 -19 12q-6 0 -20.5 0.5t-21.5 0.5q-19 0 -24 5.5t-5 21.5v17q0 2 -0.5 9.5t-0.5 11.5q0 27 14 32h19q14 0 56.5 0.5t71.5 0.5q78 0 96 -3q11 -3 11 -10v-75q0 -13 -21 -13q-22 0 -43 -3q-10 -4 -11 -15l2 -518q-1 -21 -7.5 -26.5t-23.5 -5.5h-50
q-5 0 -10 4t-5 10zM51 841l88 1l28 -74l30 74l94 -1q-45 -67 -72.5 -96t-51.5 -29q-23 0 -50 29.5t-66 95.5z" />
    <glyph glyph-name="tcaron" unicode="&#x165;" horiz-adv-x="347" 
d="M124 27q0 82 0.5 246t0.5 246v27q0 3 -3.5 10t-7.5 7l-66 -1q-12 0 -15 6t-3 22v9q0 24 1.5 35.5t9.5 20t25 8.5h15q124 0 194 -2q16 0 28 -3q14 -1 14 -32q0 -4 -0.5 -10.5t-0.5 -8.5v-15q0 -14 -6 -24t-16 -10l-71 -4l1 -518q0 -28 -15 -28h-67q-18 0 -18 19zM58 817
l88 1l28 -74l30 74l94 -1q-45 -67 -72.5 -96t-51.5 -29q-23 0 -50 29.5t-66 95.5z" />
    <glyph glyph-name="Tbar" unicode="&#x166;" horiz-adv-x="328" 
d="M59 499l1 24q2 27 14 29q8 0 21.5 -0.5t19.5 -0.5h6v23q0 12 -19 12q-6 0 -20.5 0.5t-21.5 0.5q-19 0 -24 5.5t-5 21.5v17q0 2 -0.5 9.5t-0.5 11.5q0 27 14 32h19q14 0 56.5 0.5t71.5 0.5q78 0 96 -3q11 -3 11 -10v-75q0 -13 -21 -13q-22 0 -43 -3q-10 -4 -11 -15v-17
q24 -1 36.5 -1.5t19 -2t7.5 -3t1 -4.5v-34q0 -22 -8 -31h-56l2 -425q-1 -21 -7.5 -26.5t-23.5 -5.5h-50q-5 0 -10 4t-5 10l-7 444l-53 1q-10 0 -10 24z" />
    <glyph glyph-name="tbar" unicode="&#x167;" horiz-adv-x="347" 
d="M64 477l1 24q2 27 14 29q8 0 21.5 -0.5t19.5 -0.5h5v17q0 3 -3.5 10t-7.5 7l-66 -1q-12 0 -15 6t-3 22v9q0 24 1.5 35.5t9.5 20t25 8.5h15q124 0 194 -2q16 0 28 -3q14 -1 14 -32q0 -4 -0.5 -10.5t-0.5 -8.5v-15q0 -14 -6 -24t-16 -10l-71 -4v-27q25 -1 39 -1.5t20.5 -2
t8 -3t1.5 -4.5v-34q0 -22 -8 -31h-61l1 -415q0 -28 -15 -28h-67q-18 0 -18 19q0 71 0.5 212.5t0.5 212.5l-51 1q-10 0 -10 24z" />
    <glyph glyph-name="Utilde" unicode="&#x168;" horiz-adv-x="411" 
d="M216 4q-39 0 -69 10.5t-49 27.5t-32.5 44.5t-19.5 53t-9.5 62.5t-4 65.5t-1 68t-1.5 63.5v44q0 109 10 185q4 27 27 27h60q2 0 7 -3t5 -6v-383q0 -98 17.5 -127t79.5 -29q21 0 30.5 29t9.5 64l2 446h84q2 0 7 -2.5t6 -6.5q6 -235 6 -334v-64q0 -42 -2 -70t-11.5 -61
t-26.5 -53t-48.5 -34.5t-76.5 -16.5zM171 748q-14 0 -14 -21q0 -4 0.5 -13t0.5 -14q0 -12 -5 -17l-54 3q-10 36 -10 61q0 67 76 67q17 0 37 -20t35 -39.5t18 -19.5q2 0 2 4q0 3 3.5 18t3.5 39v8l59 -5q5 -10 5 -28q0 -33 -18.5 -63t-47.5 -30q-34 0 -54.5 11.5t-27 25
t-9.5 33.5z" />
    <glyph glyph-name="utilde" unicode="&#x169;" horiz-adv-x="386" 
d="M30 599v4q2 53 28 53h1l59 -3q15 0 17 -11v-55q0 -7 -0.5 -31.5t-0.5 -47.5v-94q0 -133 10.5 -214.5t43.5 -81.5q15 0 28 12.5t16 29.5q2 9 4 16.5t3.5 19.5t2 23t1.5 32.5t1.5 41.5t1 56.5t1.5 71t2 92t2 112.5q0 16 22 20h47q36 0 36 -26q-2 -20 -2 -82v-72
q0 -57 -1 -94t-3.5 -85.5t-7 -79t-12 -66t-19 -56.5t-27.5 -40t-37.5 -27.5t-48.5 -8.5q-46 0 -78.5 19t-49.5 46.5t-26.5 73t-11.5 81.5t-2 89v282zM159 748q-14 0 -14 -21q0 -4 0.5 -13t0.5 -14q0 -12 -5 -17l-54 3q-10 36 -10 61q0 67 76 67q17 0 37 -20t35 -39.5
t18 -19.5q2 0 2 4q0 3 3.5 18t3.5 39v8l59 -5q5 -10 5 -28q0 -33 -18.5 -63t-47.5 -30q-34 0 -54.5 11.5t-27 25t-9.5 33.5z" />
    <glyph glyph-name="Umacron" unicode="&#x16a;" horiz-adv-x="411" 
d="M216 4q-39 0 -69 10.5t-49 27.5t-32.5 44.5t-19.5 53t-9.5 62.5t-4 65.5t-1 68t-1.5 63.5v44q0 109 10 185q4 27 27 27h60q2 0 7 -3t5 -6v-383q0 -98 17.5 -127t79.5 -29q21 0 30.5 29t9.5 64l2 446h84q2 0 7 -2.5t6 -6.5q6 -235 6 -334v-64q0 -42 -2 -70t-11.5 -61
t-26.5 -53t-48.5 -34.5t-76.5 -16.5zM94 711l1 24q2 27 14 29q8 0 21.5 -0.5t19.5 -0.5q163 -3 170 -8q2 -1 2 -5v-34q0 -22 -8 -31l-207 2h-3q-10 0 -10 24z" />
    <glyph glyph-name="umacron" unicode="&#x16b;" horiz-adv-x="386" 
d="M30 599v4q2 53 28 53h1l59 -3q15 0 17 -11v-55q0 -7 -0.5 -31.5t-0.5 -47.5v-94q0 -133 10.5 -214.5t43.5 -81.5q15 0 28 12.5t16 29.5q2 9 4 16.5t3.5 19.5t2 23t1.5 32.5t1.5 41.5t1 56.5t1.5 71t2 92t2 112.5q0 16 22 20h47q36 0 36 -26q-2 -20 -2 -82v-72
q0 -57 -1 -94t-3.5 -85.5t-7 -79t-12 -66t-19 -56.5t-27.5 -40t-37.5 -27.5t-48.5 -8.5q-46 0 -78.5 19t-49.5 46.5t-26.5 73t-11.5 81.5t-2 89v282zM82 711l1 24q2 27 14 29q8 0 21.5 -0.5t19.5 -0.5q163 -3 170 -8q2 -1 2 -5v-34q0 -22 -8 -31l-207 2h-3q-10 0 -10 24z
" />
    <glyph glyph-name="Ubreve" unicode="&#x16c;" horiz-adv-x="411" 
d="M216 4q-39 0 -69 10.5t-49 27.5t-32.5 44.5t-19.5 53t-9.5 62.5t-4 65.5t-1 68t-1.5 63.5v44q0 109 10 185q4 27 27 27h60q2 0 7 -3t5 -6v-383q0 -98 17.5 -127t79.5 -29q21 0 30.5 29t9.5 64l2 446h84q2 0 7 -2.5t6 -6.5q6 -235 6 -334v-64q0 -42 -2 -70t-11.5 -61
t-26.5 -53t-48.5 -34.5t-76.5 -16.5zM178 775q0 -13 10 -22.5t24 -9.5q13 0 23.5 11t10.5 30q0 2 -0.5 4.5t-0.5 3.5l57 13q4 -24 4 -32q0 -39 -24 -68t-68 -29q-43 0 -74.5 24t-31.5 67q0 22 7 44l67 -17q-4 -16 -4 -19z" />
    <glyph glyph-name="ubreve" unicode="&#x16d;" horiz-adv-x="386" 
d="M30 599v4q2 53 28 53h1l59 -3q15 0 17 -11v-55q0 -7 -0.5 -31.5t-0.5 -47.5v-94q0 -133 10.5 -214.5t43.5 -81.5q15 0 28 12.5t16 29.5q2 9 4 16.5t3.5 19.5t2 23t1.5 32.5t1.5 41.5t1 56.5t1.5 71t2 92t2 112.5q0 16 22 20h47q36 0 36 -26q-2 -20 -2 -82v-72
q0 -57 -1 -94t-3.5 -85.5t-7 -79t-12 -66t-19 -56.5t-27.5 -40t-37.5 -27.5t-48.5 -8.5q-46 0 -78.5 19t-49.5 46.5t-26.5 73t-11.5 81.5t-2 89v282zM166 775q0 -13 10 -22.5t24 -9.5q13 0 23.5 11t10.5 30q0 2 -0.5 4.5t-0.5 3.5l57 13q4 -24 4 -32q0 -39 -24 -68t-68 -29
q-43 0 -74.5 24t-31.5 67q0 22 7 44l67 -17q-4 -16 -4 -19z" />
    <glyph glyph-name="Uring" unicode="&#x16e;" horiz-adv-x="411" 
d="M216 4q-39 0 -69 10.5t-49 27.5t-32.5 44.5t-19.5 53t-9.5 62.5t-4 65.5t-1 68t-1.5 63.5v44q0 109 10 185q4 27 27 27h60q2 0 7 -3t5 -6v-383q0 -98 17.5 -127t79.5 -29q21 0 30.5 29t9.5 64l2 446h84q2 0 7 -2.5t6 -6.5q6 -235 6 -334v-64q0 -42 -2 -70t-11.5 -61
t-26.5 -53t-48.5 -34.5t-76.5 -16.5zM106 771q0 39 32 67t77 28t77 -28t32 -67t-32 -67t-77 -28t-77 28t-32 67zM170 769q0 -33 55 -33q15 0 26 10t11 23q0 14 -12 23.5t-28 9.5q-52 0 -52 -33z" />
    <glyph glyph-name="uring" unicode="&#x16f;" horiz-adv-x="386" 
d="M30 599v4q2 53 28 53h1l59 -3q15 0 17 -11v-55q0 -7 -0.5 -31.5t-0.5 -47.5v-94q0 -133 10.5 -214.5t43.5 -81.5q15 0 28 12.5t16 29.5q2 9 4 16.5t3.5 19.5t2 23t1.5 32.5t1.5 41.5t1 56.5t1.5 71t2 92t2 112.5q0 16 22 20h47q36 0 36 -26q-2 -20 -2 -82v-72
q0 -57 -1 -94t-3.5 -85.5t-7 -79t-12 -66t-19 -56.5t-27.5 -40t-37.5 -27.5t-48.5 -8.5q-46 0 -78.5 19t-49.5 46.5t-26.5 73t-11.5 81.5t-2 89v282zM94 771q0 39 32 67t77 28t77 -28t32 -67t-32 -67t-77 -28t-77 28t-32 67zM158 769q0 -33 55 -33q15 0 26 10t11 23
q0 14 -12 23.5t-28 9.5q-52 0 -52 -33z" />
    <glyph glyph-name="Uhungarumlaut" unicode="&#x170;" horiz-adv-x="411" 
d="M216 4q-39 0 -69 10.5t-49 27.5t-32.5 44.5t-19.5 53t-9.5 62.5t-4 65.5t-1 68t-1.5 63.5v44q0 109 10 185q4 27 27 27h60q2 0 7 -3t5 -6v-383q0 -98 17.5 -127t79.5 -29q21 0 30.5 29t9.5 64l2 446h84q2 0 7 -2.5t6 -6.5q6 -235 6 -334v-64q0 -42 -2 -70t-11.5 -61
t-26.5 -53t-48.5 -34.5t-76.5 -16.5zM120 684l28 140l92 -20l-66 -120h-54zM236 680l28 140l92 -20l-66 -120h-54z" />
    <glyph glyph-name="uhungarumlaut" unicode="&#x171;" horiz-adv-x="386" 
d="M30 599v4q2 53 28 53h1l59 -3q15 0 17 -11v-55q0 -7 -0.5 -31.5t-0.5 -47.5v-94q0 -133 10.5 -214.5t43.5 -81.5q15 0 28 12.5t16 29.5q2 9 4 16.5t3.5 19.5t2 23t1.5 32.5t1.5 41.5t1 56.5t1.5 71t2 92t2 112.5q0 16 22 20h47q36 0 36 -26q-2 -20 -2 -82v-72
q0 -57 -1 -94t-3.5 -85.5t-7 -79t-12 -66t-19 -56.5t-27.5 -40t-37.5 -27.5t-48.5 -8.5q-46 0 -78.5 19t-49.5 46.5t-26.5 73t-11.5 81.5t-2 89v282zM108 684l28 140l92 -20l-66 -120h-54zM224 680l28 140l92 -20l-66 -120h-54z" />
    <glyph glyph-name="Uogonek" unicode="&#x172;" horiz-adv-x="411" 
d="M306 -91l-1 -59q-20 -2 -47 -2q-42 0 -69 27t-27 64q0 31 26 66q-38 4 -66 19t-44 41t-26 53t-14 67t-5 70t-1.5 74.5t-1.5 69.5v44q0 109 10 185q4 27 27 27h60q2 0 7 -3t5 -6v-383q0 -98 17.5 -127t79.5 -29q21 0 30.5 29t9.5 64l2 446h84q2 0 7 -2.5t6 -6.5
q6 -235 6 -334v-64q0 -46 -3.5 -77t-14.5 -65.5t-36.5 -56t-65.5 -30.5q-16 -36 -16 -53q0 -43 61 -48z" />
    <glyph glyph-name="uogonek" unicode="&#x173;" horiz-adv-x="386" 
d="M280 -95l-1 -59q-20 -2 -47 -2q-42 0 -69 27t-27 64q0 36 32 75q-31 5 -55 19.5t-38.5 39t-24 50t-13.5 62.5t-5.5 66t-1.5 70v286q2 53 29 53l59 -3q15 0 17 -11v-55q0 -7 -0.5 -31.5t-0.5 -47.5v-94q0 -133 10.5 -214.5t43.5 -81.5q15 0 28 12.5t16 29.5q2 9 4 16.5
t3.5 19.5t2 23t1.5 32.5t1.5 41.5t1 56.5t1.5 71t2 92t2 112.5q0 16 22 20h47q36 0 36 -26q-2 -20 -2 -82v-72q-1 -69 -2 -112t-5 -98t-11.5 -89.5t-19.5 -68.5t-31.5 -54t-45.5 -29q-20 -42 -20 -61q0 -43 61 -48z" />
    <glyph glyph-name="Wcircumflex" unicode="&#x174;" horiz-adv-x="531" 
d="M30 646q4 25 18 25h74q13 0 15 -17q0 -4 0.5 -24t0.5 -24q0 -54 -1.5 -192.5t-1.5 -184.5q0 -101 27 -101q43 0 43 123q0 11 -0.5 30t-0.5 25v9q1 44 12.5 53.5t53.5 9.5h26q15 -1 17 -28l6 -145q4 -25 15.5 -43t21.5 -18q11 0 18 10t12.5 44.5t6.5 96.5q0 9 0.5 30
t0.5 34q0 30 -3 120t-3 149q0 23 17 23h65q23 0 23 -25q0 -1 0.5 -3t0.5 -4q7 -56 7 -200q0 -101 -4 -225q-8 -70 -40 -110t-87 -40q-23 0 -60 28t-41 28q-2 0 -6 -6t-7 -12.5t-4 -7.5q-34 -46 -85 -46q-68 0 -99 44t-38 125v449zM142 680q53 81 77.5 103.5t45.5 22.5
q23 0 48 -23.5t79 -105.5l-81 -7l-45 63l-43 -61z" />
    <glyph glyph-name="wcircumflex" unicode="&#x175;" horiz-adv-x="533" 
d="M201 14q-15 -3 -28 -3q-31 0 -55 15t-39.5 45t-25.5 64.5t-15 82.5t-6.5 90.5t-1.5 96.5q0 46 2 122.5t2 101.5q0 28 15 28h78q16 0 16 -18q0 -1 -1 -4v-3q-5 -56 -5 -134q0 -30 1 -93.5t1 -97.5q6 -109 9.5 -140.5t13.5 -31.5q3 0 5 1q23 12 35 59t17 102t8 65
q2 14 21 16h6q5 0 13 0.5t17.5 1t18.5 0.5h15q10 0 10 -12q0 -2 2 -21.5t4 -38.5t5.5 -46t8.5 -49t10.5 -42.5t14 -32t17.5 -11.5q7 0 8 35t1 192q0 37 -3 109t-3 108q0 33 1 49q3 15 21 15h59q24 0 24 -21l5 -429q0 -175 -115 -175h-4q-32 1 -55 26.5t-46 97.5
q-25 -72 -44 -96t-38 -24zM156 670q53 81 77.5 103.5t45.5 22.5q23 0 48 -23.5t79 -105.5l-81 -7l-45 63l-43 -61z" />
    <glyph glyph-name="Ycircumflex" unicode="&#x176;" horiz-adv-x="409" 
d="M155 20v269q0 11 -12 19q-73 8 -93 33.5t-20 111.5q0 32 2.5 98t2.5 102q0 28 37 28q2 0 5.5 -0.5t12.5 -0.5h25q22 -2 22 -19q0 -31 -2 -105t-2 -106q0 -4 0.5 -13t0.5 -13q1 -22 83 -22q56 0 57 44l5 215q0 11 8 15q57 5 71 5q20 0 20 -14q0 -21 0.5 -58.5t0.5 -54.5
q0 -111 -15 -166t-64 -71q-5 -1 -14.5 -2t-17 -2.5t-11.5 -6.5v-28q0 -31 1 -93t1 -93q0 -46 -1 -69q-4 -13 -15 -13h-78zM80 700q53 81 77.5 103.5t45.5 22.5q23 0 48 -23.5t79 -105.5l-81 -7l-45 63l-43 -61z" />
    <glyph glyph-name="ycircumflex" unicode="&#x177;" 
d="M31 572v75q0 22 9.5 28.5t26.5 6.5h53q11 0 18 -12v-20q0 -21 -2.5 -64t-2.5 -65v-29q0 -93 35 -93q15 0 43.5 3t39.5 3q13 5 13 70q0 28 -1 82t-1 81v4q0 40 17 40h71q14 0 16 -18v-7q4 -51 4 -116q0 -66 -4 -125q-2 -36 -17 -56.5t-31.5 -25.5t-31.5 -11.5t-18 -18.5
v-62q0 -37 3 -109t3 -108v-14q-7 -13 -41 -13q-6 0 -16.5 0.5t-13.5 0.5h-10q-25 0 -26 21l-8 275q0 7 -12.5 10t-29.5 4.5t-21 3.5q-66 28 -66 184q0 15 0.5 40t0.5 35zM78 704q53 81 77.5 103.5t45.5 22.5q23 0 48 -23.5t79 -105.5l-81 -7l-45 63l-43 -61z" />
    <glyph glyph-name="Ydieresis" unicode="&#x178;" horiz-adv-x="417" 
d="M150 20v269q0 11 -12 19q-71 8 -89.5 33t-18.5 112q0 32 2.5 98t2.5 102q0 28 37 28q2 0 7.5 -0.5t16 -0.5h26.5q22 -2 22 -19q0 -31 -5 -95.5t-5 -96.5q0 -5 0.5 -13t0.5 -13q1 -13 24.5 -24t50.5 -11q54 0 57 44l12 209q0 11 8 15q57 5 80 5q20 0 20 -14q0 -12 -1 -21
q-3 -40 -4.5 -90t-2 -77t-4.5 -58.5t-11.5 -49t-23 -32t-40.5 -22.5q-4 -1 -13 -2t-15.5 -2.5t-10.5 -6.5v-28q0 -31 1 -93t1 -93q0 -46 -1 -69q-4 -13 -15 -13h-87zM87 756q0 18 14 30.5t34 12.5t34 -12.5t14 -30.5t-14 -30.5t-34 -12.5t-34 12.5t-14 30.5zM229 759
q0 18 14 30.5t34 12.5t34 -12.5t14 -30.5t-14 -30.5t-34 -12.5t-34 12.5t-14 30.5z" />
    <glyph glyph-name="Zacute" unicode="&#x179;" horiz-adv-x="350" 
d="M31 51q0 2 -0.5 19t-0.5 21v23q0 36 10 54l169 378v4q0 7 -3 7h-157q-19 0 -19 50v10q0 43 17 43h65q33 0 99 -2.5t99 -2.5l7 -9v-4q0 -3 0.5 -9t0.5 -13v-15v-14v-15q0 -33 -23 -93.5t-113 -248.5l-34 -82q-1 -5 -1 -12t9 -7h122q23 0 33 -1q9 -4 9 -27l-4 -47
q-2 -18 -10 -31h-266q-9 0 -9 24zM104 688l70 90l92 -20l-73 -76z" />
    <glyph glyph-name="zacute" unicode="&#x17a;" horiz-adv-x="366" 
d="M33 123q5 15 154 354l32 85v6q0 10 -12 12q-21 0 -68.5 -1t-75.5 -1q-23 0 -28 9t-5 39v11q0 12 0.5 18.5t2.5 15.5t7 13t14 4h208q2 0 20 -1.5t23 -1.5q22 -2 22 -22v-112q0 -23 -13 -46l-157 -361q-4 -5 -4 -11q0 -7 4 -8l166 5q13 -4 13 -14l-1 -74q0 -17 -10 -19
q-27 -1 -107.5 -4.5t-124.5 -3.5h-41q-20 0 -20 48zM98 718l70 90l92 -20l-73 -76z" />
    <glyph glyph-name="Zdotaccent" unicode="&#x17b;" horiz-adv-x="350" 
d="M31 51q0 2 -0.5 19t-0.5 21v23q0 36 10 54l169 378v4q0 7 -3 7h-157q-19 0 -19 50v10q0 43 17 43h65q33 0 99 -2.5t99 -2.5l7 -9v-4q0 -3 0.5 -9t0.5 -13v-15v-14v-15q0 -33 -23 -93.5t-113 -248.5l-34 -82q-1 -5 -1 -12t9 -7h122q23 0 33 -1q9 -4 9 -27l-4 -47
q-2 -18 -10 -31h-266q-9 0 -9 24zM122 741q0 24 18.5 40.5t45.5 16.5t45.5 -16.5t18.5 -40.5q0 -23 -18.5 -40t-45.5 -17t-45.5 17t-18.5 40z" />
    <glyph glyph-name="zdotaccent" unicode="&#x17c;" horiz-adv-x="366" 
d="M33 123q5 15 154 354l32 85v6q0 10 -12 12q-21 0 -68.5 -1t-75.5 -1q-23 0 -28 9t-5 39v11q0 12 0.5 18.5t2.5 15.5t7 13t14 4h208q2 0 20 -1.5t23 -1.5q22 -2 22 -22v-112q0 -23 -13 -46l-157 -361q-4 -5 -4 -11q0 -7 4 -8l166 5q13 -4 13 -14l-1 -74q0 -17 -10 -19
q-27 -1 -107.5 -4.5t-124.5 -3.5h-41q-20 0 -20 48zM116 771q0 24 18.5 40.5t45.5 16.5t45.5 -16.5t18.5 -40.5q0 -23 -18.5 -40t-45.5 -17t-45.5 17t-18.5 40z" />
    <glyph glyph-name="Zcaron" unicode="&#x17d;" horiz-adv-x="350" 
d="M31 51q0 2 -0.5 19t-0.5 21v23q0 36 10 54l169 378v4q0 7 -3 7h-157q-19 0 -19 50v10q0 43 17 43h65q33 0 99 -2.5t99 -2.5l7 -9v-4q0 -3 0.5 -9t0.5 -13v-15v-14v-15q0 -33 -23 -93.5t-113 -248.5l-34 -82q-1 -5 -1 -12t9 -7h122q23 0 33 -1q9 -4 9 -27l-4 -47
q-2 -18 -10 -31h-266q-9 0 -9 24zM53 814l88 1l28 -74l30 74l94 -1q-45 -67 -72.5 -96t-51.5 -29q-23 0 -50 29.5t-66 95.5z" />
    <glyph glyph-name="zcaron" unicode="&#x17e;" horiz-adv-x="366" 
d="M33 123q5 15 154 354l32 85v6q0 10 -12 12q-21 0 -68.5 -1t-75.5 -1q-23 0 -28 9t-5 39v11q0 12 0.5 18.5t2.5 15.5t7 13t14 4h208q2 0 20 -1.5t23 -1.5q22 -2 22 -22v-112q0 -23 -13 -46l-157 -361q-4 -5 -4 -11q0 -7 4 -8l166 5q13 -4 13 -14l-1 -74q0 -17 -10 -19
q-27 -1 -107.5 -4.5t-124.5 -3.5h-41q-20 0 -20 48zM63 865l88 1l28 -74l30 74l94 -1q-45 -67 -72.5 -96t-51.5 -29q-23 0 -50 29.5t-66 95.5z" />
    <glyph glyph-name="florin" unicode="&#x192;" horiz-adv-x="310" 
d="M30 79l4 584q17 18 116 18l96 -4q22 -1 31 -14q3 -36 3 -72q0 -9 -10 -13q-3 0 -19.5 -0.5t-20.5 -0.5q-13 0 -38.5 2t-37.5 2q-18 0 -20 -15v-115q0 -5 0.5 -16t1.5 -20v-9l9 -7l61 -8q24 -4 27 -18q4 -40 4 -48q0 -28 -9 -36q-26 -3 -54 -3q-6 0 -15.5 0.5t-13.5 0.5
q-11 0 -11 -9v-17q0 -33 2.5 -102t2.5 -104q0 -16 -1 -23t-7.5 -13.5t-20.5 -7.5q-24 -4 -52 -4h-5q-9 0 -11 6q-5 6 -7.5 16t-3 15.5t-1 19.5t-0.5 15z" />
    <glyph glyph-name="AEacute" unicode="&#x1fc;" horiz-adv-x="464" 
d="M232 35q-4 114 -5 171l-1 20q-2 24 -14 28h-54q-13 0 -15 -6v-17q0 -29 3.5 -96t3.5 -95v-18q-5 -8 -14 -8h-80q-5 0 -8.5 2t-5.5 4t-3.5 7t-1.5 7t-0.5 8.5t-0.5 7.5q-3 104 -3 212q0 42 -1.5 109.5t-1.5 92.5q0 78 11.5 125t45.5 79q33 32 90 32h7q6 0 17.5 -0.5
t16.5 -0.5q134 -2 173.5 -5.5t39.5 -15.5v-76q0 -4 -8 -12q-15 0 -45 1t-46 1q-18 0 -18 -21q0 -75 6 -150q3 -2 16 -2h16q39 0 40 -17l5 -91q0 -14 -32 -14h-14q-19 0 -21 1q-7 -6 -7 -32v-54q0 -36 1 -55q2 -15 6.5 -20t16.5 -5q10 0 31.5 1t33.5 1q22 0 22 -20v-69
q0 -27 -16 -27h-177q-9 0 -9 17zM135 375l2 -21q0 -2 5 -5.5t7 -3.5h57q15 0 17 24q-1 34 -2 88q-2 92 -8 116t-35 24h-6q-37 -2 -37 -38v-184zM122 732l70 90l92 -20l-73 -76z" />
    <glyph glyph-name="aeacute" unicode="&#x1fd;" horiz-adv-x="542" 
d="M30 51q3 71 3 217v119q0 164 35 223.5t140 59.5h40q9 0 54.5 -1t101.5 -2.5t75 -1.5q9 -3 12 -11q1 -23 1 -71q0 -5 -1 -7.5t-2.5 -5.5t-5.5 -4.5t-10 -1.5h-108l-9 -9l6 -165l84 -3q15 -1 15 -42v-8l-3 -24q0 -21 -14 -21h-76q-1 0 -2 -1l-1.5 -1.5t-1.5 -0.5l-3 -3
l5 -154q3 -19 20 -19h107q20 0 20 -27l-5 -57q-2 -12 -15 -16q-94 -3 -141 -3q-40 0 -59 2.5t-22 5.5t-4 11l-8 211q-5 8 -18 8h-92q-18 0 -18 -20v-202q0 -4 -6.5 -9t-11.5 -5h-61q-21 0 -21 39zM136 378q0 -32 24 -33q23 0 68 -3h9q15 0 20 16v182q-4 17 -20 22.5t-54 5.5
q-47 0 -47 -83v-107zM182 706l70 90l92 -20l-73 -76z" />
    <glyph glyph-name="Oslashacute" unicode="&#x1fe;" 
d="M200 26q-56 0 -94 27l-6 -19l-30 18l9 27q-49 62 -49 212q0 107 12 222q4 31 13.5 60t26.5 56t45.5 43t64.5 16q50 0 86 -19l6 19l32 -14l-9 -25q38 -35 50.5 -95t12.5 -148q0 -301 -73 -349q-46 -31 -97 -31zM271 402q0 82 -7 117l-114 -338q13 -37 39 -37q47 0 64 45.5
t18 126.5v86zM210 577q-76 0 -76 -190q0 -16 0.5 -41t0.5 -34q0 -41 2 -61l105 314q-12 12 -32 12zM110 712l70 90l92 -20l-73 -76z" />
    <glyph glyph-name="oslashacute" unicode="&#x1ff;" horiz-adv-x="369" 
d="M262 684l38 -6l-11 -35q42 -35 46 -89q4 -68 4 -152q0 -28 -0.5 -60.5t-1.5 -72.5t-1 -64v-4q-3 -45 -5.5 -67.5t-11.5 -53.5t-23 -45.5t-40 -25.5t-64 -11q-61 0 -97 19l-5 -17l-26 12l7 24q-15 15 -19 36q-22 79 -22 332q0 39 1 64.5t5.5 62t15 59t27 45t44 33.5
t64.5 11q36 0 69 -15zM141 132q2 -13 16 -23t30 -10q32 0 39 35q8 157 8 330l-94 -303q0 -20 1 -29zM138 500v-236l87 295q-11 15 -40 15q-16 0 -26.5 -5t-14.5 -15t-5 -18.5t-1 -23.5v-12zM88 702l70 90l92 -20l-73 -76z" />
    <glyph glyph-name="Scommaaccent" unicode="&#x218;" horiz-adv-x="372" 
d="M44 165q0 16 6.5 19t35.5 3h18q19 0 29 -6q8 -5 11.5 -20t4 -29t8 -25.5t23.5 -11.5q60 0 60 69q0 36 -21.5 74t-52.5 62q-47 36 -76.5 69t-41.5 61.5t-15 46t-3 42.5q0 66 44.5 109.5t113.5 43.5q128 0 128 -156q-3 -25 -19 -27h-56q-16 1 -21.5 13.5t-4 27.5t-3.5 27.5
t-20 12.5q-4 1 -12 1q-28 0 -41 -15t-13 -37q0 -5 2 -19q5 -25 29.5 -52.5t54.5 -54.5t60 -57t50 -71t20 -87q0 -82 -44 -131t-129 -49q-125 0 -125 167zM136 -75q1 23 15 38t35 15t35.5 -14.5t14.5 -35.5q0 -61 -38 -124l-16 2l10 72q0 -3 -8 -3q-15 0 -31.5 12.5
t-16.5 37.5z" />
    <glyph glyph-name="scommaaccent" unicode="&#x219;" horiz-adv-x="339" 
d="M45 153v37q0 21 2 29q3 13 10 13h17q24 0 41 -1q16 -2 18 -34t6 -63.5t25 -33.5q7 -1 20 -1q20 0 26 8t6 28v23q0 5 -2 21q-8 57 -30.5 99.5t-47.5 66.5t-49.5 46t-40.5 53.5t-16 74.5q0 60 39.5 107t97.5 47q30 0 52.5 -9t35.5 -23t21.5 -32.5t11 -34t2.5 -31.5
q0 -17 -1 -26t-7 -18.5t-18 -10.5l-15 -2q-15 -1 -21 -1h-5q-17 0 -17 8q-6 80 -34 80q-24 0 -37 -15t-13 -40q0 -18 16 -40t40.5 -47t50.5 -56.5t48.5 -81.5t31.5 -109v-11q0 -85 -33.5 -122t-101.5 -37q-60 0 -94.5 34.5t-34.5 104.5zM134 -81q1 23 15 38t35 15
t35.5 -14.5t14.5 -35.5q0 -61 -38 -124l-16 2l10 72q0 -3 -8 -3q-15 0 -31.5 12.5t-16.5 37.5z" />
    <glyph glyph-name="dotlessj" unicode="&#x237;" horiz-adv-x="244" 
d="M33 6q-3 33 -3 67q0 25 10 25h48q29 0 29 69q0 83 -15 276t-16 223v7q0 24 38 24h28q2 0 8 0.5t11 0.5q43 0 43 -488q0 -49 -2 -78.5t-9.5 -59t-22.5 -44.5t-40.5 -24t-63.5 -9h-27q-16 5 -16 11z" />
    <glyph glyph-name="circumflex" unicode="&#x2c6;" horiz-adv-x="310" 
d="M30 732q53 81 77.5 103.5t45.5 22.5q23 0 48 -23.5t79 -105.5l-81 -7l-45 63l-43 -61z" />
    <glyph glyph-name="caron" unicode="&#x2c7;" horiz-adv-x="300" 
d="M30 865l88 1l28 -74l30 74l94 -1q-45 -67 -72.5 -96t-51.5 -29q-23 0 -50 29.5t-66 95.5z" />
    <glyph glyph-name="breve" unicode="&#x2d8;" horiz-adv-x="258" 
d="M100 833q0 -13 10 -22.5t24 -9.5q13 0 23.5 11t10.5 30q0 2 -0.5 4t-0.5 4l57 13q4 -24 4 -32q0 -39 -24 -68t-68 -29q-43 0 -74.5 24t-31.5 67q0 22 7 44l67 -17q-4 -16 -4 -19z" />
    <glyph glyph-name="dotaccent" unicode="&#x2d9;" horiz-adv-x="188" 
d="M30 779q0 24 18.5 40.5t45.5 16.5t45.5 -16.5t18.5 -40.5q0 -23 -18.5 -40t-45.5 -17t-45.5 17t-18.5 40z" />
    <glyph glyph-name="ring" unicode="&#x2da;" horiz-adv-x="278" 
d="M30 827q0 39 32 67t77 28t77 -28t32 -67t-32 -67t-77 -28t-77 28t-32 67zM94 825q0 -33 55 -33q15 0 26 10t11 23q0 14 -12 23.5t-28 9.5q-52 0 -52 -33z" />
    <glyph glyph-name="ogonek" unicode="&#x2db;" horiz-adv-x="204" 
d="M174 -115l-1 -59q-20 -2 -47 -2q-42 0 -69 27t-27 64q0 45 56 101l57 -1q-30 -64 -30 -82q0 -43 61 -48z" />
    <glyph glyph-name="tilde" unicode="&#x2dc;" horiz-adv-x="299" 
d="M112 800q-14 0 -14 -21q0 -4 0.5 -13t0.5 -14q0 -12 -5 -17l-54 3q-10 36 -10 61q0 67 76 67q17 0 37 -20t35 -39.5t18 -19.5q2 0 2 4q0 2 3.5 17.5t3.5 39.5v8l59 -5q5 -10 5 -28q0 -33 -18.5 -63t-47.5 -30q-34 0 -54.5 11.5t-27 25t-9.5 33.5z" />
    <glyph glyph-name="hungarumlaut" unicode="&#x2dd;" horiz-adv-x="296" 
d="M30 728l28 140l92 -20l-66 -120h-54zM146 724l28 140l92 -20l-66 -120h-54z" />
    <glyph glyph-name="Wgrave" unicode="&#x1e80;" horiz-adv-x="531" 
d="M30 646q4 25 18 25h74q13 0 15 -17q0 -4 0.5 -24t0.5 -24q0 -54 -1.5 -192.5t-1.5 -184.5q0 -101 27 -101q43 0 43 123q0 11 -0.5 30t-0.5 25v9q1 44 12.5 53.5t53.5 9.5h26q15 -1 17 -28l6 -145q4 -25 15.5 -43t21.5 -18q11 0 18 10t12.5 44.5t6.5 96.5q0 9 0.5 30
t0.5 34q0 30 -3 120t-3 149q0 23 17 23h65q23 0 23 -25q0 -1 0.5 -3t0.5 -4q7 -56 7 -200q0 -101 -4 -225q-8 -70 -40 -110t-87 -40q-23 0 -60 28t-41 28q-2 0 -6 -6t-7 -12.5t-4 -7.5q-34 -46 -85 -46q-68 0 -99 44t-38 125v449zM276 770l70 -90l-89 -6l-73 76z" />
    <glyph glyph-name="wgrave" unicode="&#x1e81;" horiz-adv-x="533" 
d="M201 14q-15 -3 -28 -3q-31 0 -55 15t-39.5 45t-25.5 64.5t-15 82.5t-6.5 90.5t-1.5 96.5q0 46 2 122.5t2 101.5q0 28 15 28h78q16 0 16 -18q0 -1 -1 -4v-3q-5 -56 -5 -134q0 -30 1 -93.5t1 -97.5q6 -109 9.5 -140.5t13.5 -31.5q3 0 5 1q23 12 35 59t17 102t8 65
q2 14 21 16h6q5 0 13 0.5t17.5 1t18.5 0.5h15q10 0 10 -12q0 -2 2 -21.5t4 -38.5t5.5 -46t8.5 -49t10.5 -42.5t14 -32t17.5 -11.5q7 0 8 35t1 192q0 37 -3 109t-3 108q0 33 1 49q3 15 21 15h59q24 0 24 -21l5 -429q0 -175 -115 -175h-4q-32 1 -55 26.5t-46 97.5
q-25 -72 -44 -96t-38 -24zM290 760l70 -90l-89 -6l-73 76z" />
    <glyph glyph-name="Wacute" unicode="&#x1e82;" horiz-adv-x="531" 
d="M30 646q4 25 18 25h74q13 0 15 -17q0 -4 0.5 -24t0.5 -24q0 -54 -1.5 -192.5t-1.5 -184.5q0 -101 27 -101q43 0 43 123q0 11 -0.5 30t-0.5 25v9q1 44 12.5 53.5t53.5 9.5h26q15 -1 17 -28l6 -145q4 -25 15.5 -43t21.5 -18q11 0 18 10t12.5 44.5t6.5 96.5q0 9 0.5 30
t0.5 34q0 30 -3 120t-3 149q0 23 17 23h65q23 0 23 -25q0 -1 0.5 -3t0.5 -4q7 -56 7 -200q0 -101 -4 -225q-8 -70 -40 -110t-87 -40q-23 0 -60 28t-41 28q-2 0 -6 -6t-7 -12.5t-4 -7.5q-34 -46 -85 -46q-68 0 -99 44t-38 125v449zM184 680l70 90l92 -20l-73 -76z" />
    <glyph glyph-name="wacute" unicode="&#x1e83;" horiz-adv-x="533" 
d="M201 14q-15 -3 -28 -3q-31 0 -55 15t-39.5 45t-25.5 64.5t-15 82.5t-6.5 90.5t-1.5 96.5q0 46 2 122.5t2 101.5q0 28 15 28h78q16 0 16 -18q0 -1 -1 -4v-3q-5 -56 -5 -134q0 -30 1 -93.5t1 -97.5q6 -109 9.5 -140.5t13.5 -31.5q3 0 5 1q23 12 35 59t17 102t8 65
q2 14 21 16h6q5 0 13 0.5t17.5 1t18.5 0.5h15q10 0 10 -12q0 -2 2 -21.5t4 -38.5t5.5 -46t8.5 -49t10.5 -42.5t14 -32t17.5 -11.5q7 0 8 35t1 192q0 37 -3 109t-3 108q0 33 1 49q3 15 21 15h59q24 0 24 -21l5 -429q0 -175 -115 -175h-4q-32 1 -55 26.5t-46 97.5
q-25 -72 -44 -96t-38 -24zM198 670l70 90l92 -20l-73 -76z" />
    <glyph glyph-name="Wdieresis" unicode="&#x1e84;" horiz-adv-x="531" 
d="M30 646q4 25 18 25h74q13 0 15 -17q0 -4 0.5 -24t0.5 -24q0 -54 -1.5 -192.5t-1.5 -184.5q0 -101 27 -101q43 0 43 123q0 11 -0.5 30t-0.5 25v9q1 44 12.5 53.5t53.5 9.5h26q15 -1 17 -28l6 -145q4 -25 15.5 -43t21.5 -18q11 0 18 10t12.5 44.5t6.5 96.5q0 9 0.5 30
t0.5 34q0 30 -3 120t-3 149q0 23 17 23h65q23 0 23 -25q0 -1 0.5 -3t0.5 -4q7 -56 7 -200q0 -101 -4 -225q-8 -70 -40 -110t-87 -40q-23 0 -60 28t-41 28q-2 0 -6 -6t-7 -12.5t-4 -7.5q-34 -46 -85 -46q-68 0 -99 44t-38 125v449zM144 713q0 18 14 30.5t34 12.5t34 -12.5
t14 -30.5t-14 -30.5t-34 -12.5t-34 12.5t-14 30.5zM286 716q0 18 14 30.5t34 12.5t34 -12.5t14 -30.5t-14 -30.5t-34 -12.5t-34 12.5t-14 30.5z" />
    <glyph glyph-name="wdieresis" unicode="&#x1e85;" horiz-adv-x="533" 
d="M201 14q-15 -3 -28 -3q-31 0 -55 15t-39.5 45t-25.5 64.5t-15 82.5t-6.5 90.5t-1.5 96.5q0 46 2 122.5t2 101.5q0 28 15 28h78q16 0 16 -18q0 -1 -1 -4v-3q-5 -56 -5 -134q0 -30 1 -93.5t1 -97.5q6 -109 9.5 -140.5t13.5 -31.5q3 0 5 1q23 12 35 59t17 102t8 65
q2 14 21 16h6q5 0 13 0.5t17.5 1t18.5 0.5h15q10 0 10 -12q0 -2 2 -21.5t4 -38.5t5.5 -46t8.5 -49t10.5 -42.5t14 -32t17.5 -11.5q7 0 8 35t1 192q0 37 -3 109t-3 108q0 33 1 49q3 15 21 15h59q24 0 24 -21l5 -429q0 -175 -115 -175h-4q-32 1 -55 26.5t-46 97.5
q-25 -72 -44 -96t-38 -24zM158 703q0 18 14 30.5t34 12.5t34 -12.5t14 -30.5t-14 -30.5t-34 -12.5t-34 12.5t-14 30.5zM300 706q0 18 14 30.5t34 12.5t34 -12.5t14 -30.5t-14 -30.5t-34 -12.5t-34 12.5t-14 30.5z" />
    <glyph glyph-name="Ygrave" unicode="&#x1ef2;" horiz-adv-x="409" 
d="M155 20v269q0 11 -12 19q-73 8 -93 33.5t-20 111.5q0 32 2.5 98t2.5 102q0 28 37 28q2 0 5.5 -0.5t12.5 -0.5h25q22 -2 22 -19q0 -31 -2 -105t-2 -106q0 -4 0.5 -13t0.5 -13q1 -22 83 -22q56 0 57 44l5 215q0 11 8 15q57 5 71 5q20 0 20 -14q0 -21 0.5 -58.5t0.5 -54.5
q0 -111 -15 -166t-64 -71q-5 -1 -14.5 -2t-17 -2.5t-11.5 -6.5v-28q0 -31 1 -93t1 -93q0 -46 -1 -69q-4 -13 -15 -13h-78zM214 790l70 -90l-89 -6l-73 76z" />
    <glyph glyph-name="ygrave" unicode="&#x1ef3;" 
d="M31 572v75q0 22 9.5 28.5t26.5 6.5h53q11 0 18 -12v-20q0 -21 -2.5 -64t-2.5 -65v-29q0 -93 35 -93q15 0 43.5 3t39.5 3q13 5 13 70q0 28 -1 82t-1 81v4q0 40 17 40h71q14 0 16 -18v-7q4 -51 4 -116q0 -66 -4 -125q-2 -36 -17 -56.5t-31.5 -25.5t-31.5 -11.5t-18 -18.5
v-62q0 -37 3 -109t3 -108v-14q-7 -13 -41 -13q-6 0 -16.5 0.5t-13.5 0.5h-10q-25 0 -26 21l-8 275q0 7 -12.5 10t-29.5 4.5t-21 3.5q-66 28 -66 184q0 15 0.5 40t0.5 35zM212 794l70 -90l-89 -6l-73 76z" />
    <glyph glyph-name="figuredash" unicode="&#x2012;" horiz-adv-x="530" 
d="M30 327l1 27q2 31 26 32q118 -1 270 -2q115 0 143.5 -1.5t28.5 -8.5q0 -4 0.5 -19t0.5 -18q0 -24 -16 -35l-431 -2h-6q-17 1 -17 27z" />
    <glyph glyph-name="endash" unicode="&#x2013;" horiz-adv-x="487" 
d="M30 331l1 27q2 30 26 32q369 -4 388 -7q11 -3 11 -9q0 -4 0.5 -19.5t0.5 -18.5q0 -23 -16 -35l-388 2h-6q-17 1 -17 28z" />
    <glyph glyph-name="emdash" unicode="&#x2014;" horiz-adv-x="530" 
d="M30 327l1 27q2 31 26 32q118 -1 270 -2q115 0 143.5 -1.5t28.5 -8.5q0 -4 0.5 -19t0.5 -18q0 -24 -16 -35l-431 -2h-6q-17 1 -17 27z" />
    <glyph glyph-name="quoteleft" unicode="&#x2018;" horiz-adv-x="142" 
d="M87 489l-26 1q-29 0 -31 13q5 53 10 123q5 65 11 77.5t35 12.5q4 0 6 -1.5t5.5 -4.5t6.5 -5l8 -203v-3q0 -10 -25 -10z" />
    <glyph glyph-name="quoteright" unicode="&#x2019;" horiz-adv-x="142" 
d="M55 716l26 -1q29 0 31 -13q-5 -53 -10 -123q-5 -65 -11 -77.5t-35 -12.5q-4 0 -6 1.5t-5.5 4.5t-6.5 5l-8 203v3q0 10 25 10z" />
    <glyph glyph-name="quotesinglbase" unicode="&#x201a;" horiz-adv-x="142" 
d="M55 190l26 -1q29 0 31 -13q-5 -53 -10 -123q-5 -65 -11 -77.5t-35 -12.5q-4 0 -6 1.5t-5.5 4.5t-6.5 5l-8 203v3q0 10 25 10z" />
    <glyph glyph-name="quotedblleft" unicode="&#x201c;" horiz-adv-x="256" 
d="M201 487l-26 1q-29 0 -31 13q5 53 10 123q5 65 11 77.5t35 12.5q4 0 6 -1.5t5.5 -4.5t6.5 -5l8 -203v-3q0 -10 -25 -10zM87 489l-26 1q-29 0 -31 13q5 53 10 123q5 65 11 77.5t35 12.5q4 0 6 -1.5t5.5 -4.5t6.5 -5l8 -203v-3q0 -10 -25 -10z" />
    <glyph glyph-name="quotedblright" unicode="&#x201d;" horiz-adv-x="256" 
d="M55 716l26 -1q29 0 31 -13q-5 -53 -10 -123q-5 -65 -11 -77.5t-35 -12.5q-4 0 -6 1.5t-5.5 4.5t-6.5 5l-8 203v3q0 10 25 10zM169 714l26 -1q29 0 31 -13q-5 -53 -10 -123q-5 -65 -11 -77.5t-35 -12.5q-4 0 -6 1.5t-5.5 4.5t-6.5 5l-8 203v3q0 10 25 10z" />
    <glyph glyph-name="quotedblbase" unicode="&#x201e;" horiz-adv-x="256" 
d="M55 182l26 -1q29 0 31 -13q-5 -53 -10 -123q-5 -65 -11 -77.5t-35 -12.5q-4 0 -6 1.5t-5.5 4.5t-6.5 5l-8 203v3q0 10 25 10zM169 180l26 -1q29 0 31 -13q-5 -53 -10 -123q-5 -65 -11 -77.5t-35 -12.5q-4 0 -6 1.5t-5.5 4.5t-6.5 5l-8 203v3q0 10 25 10z" />
    <glyph glyph-name="dagger" unicode="&#x2020;" horiz-adv-x="258" 
d="M30 497v26q2 30 13 31q13 -1 35 -1v115q0 19 35 19h13q2 0 7.5 0.5t9.5 0.5q33 0 35 -17v-120l28.5 -1.5t14.5 -2t6 -3t1 -5.5v-36q0 -24 -7 -34h-43v-446q0 -25 -35 -25h-27q-35 0 -35 19l-2 453l-41 1q-8 1 -8 26z" />
    <glyph glyph-name="daggerdbl" unicode="&#x2021;" horiz-adv-x="262" 
d="M30 497v26q2 30 13 31q13 -1 35 -1v115q0 19 35 19h13q2 0 7.5 0.5t9.5 0.5q33 0 35 -17v-120l28.5 -1.5t14.5 -2t6 -3t1 -5.5v-36q0 -24 -7 -34h-43v-230q26 0 37.5 -1.5t14 -3.5t2.5 -7v-36q0 -23 -7 -34h-47v-134q0 -25 -35 -25h-27q-35 0 -35 19l-1 141l-38 1
q-8 1 -8 26v26q2 30 13 31q12 -1 33 -1l-1 229l-41 1q-8 1 -8 26z" />
    <glyph glyph-name="bullet" unicode="&#x2022;" horiz-adv-x="212" 
d="M30 344q0 30 22 51t54 21t54 -21t22 -51t-22 -51t-54 -21t-54 21t-22 51z" />
    <glyph glyph-name="ellipsis" unicode="&#x2026;" horiz-adv-x="480" 
d="M30 50q0 21 14.5 35.5t35.5 14.5t35.5 -14.5t14.5 -35.5t-14.5 -35.5t-35.5 -14.5t-35.5 14.5t-14.5 35.5zM190 50q0 21 14.5 35.5t35.5 14.5t35.5 -14.5t14.5 -35.5t-14.5 -35.5t-35.5 -14.5t-35.5 14.5t-14.5 35.5zM350 50q0 21 14.5 35.5t35.5 14.5t35.5 -14.5
t14.5 -35.5t-14.5 -35.5t-35.5 -14.5t-35.5 14.5t-14.5 35.5z" />
    <glyph glyph-name="perthousand" unicode="&#x2030;" horiz-adv-x="886" 
d="M194 6v9l141 645q5 27 27 27h38q19 0 19 -16l-146 -656q-2 -22 -23 -22h-50q-6 0 -6 13zM244 651q16 -39 16 -173q0 -32 -2.5 -51.5t-13 -44t-35.5 -36.5t-66 -12t-74 17.5t-36 47.5q-3 41 -3 80q0 15 0.5 32t1.5 37.5t1 33.5v2q3 29 6 43.5t13.5 31.5t31.5 24t56 7
q90 0 104 -39zM178 620q-6 17 -35 17q-23 0 -29 -18q-6 -108 -6 -180v-27q2 -12 9.5 -17.5t27.5 -5.5q16 0 24 5t9.5 11t1.5 16v7q0 151 -2 192zM574 323q16 -39 16 -173q0 -32 -2.5 -51.5t-13 -44t-35.5 -36.5t-66 -12t-74 17.5t-36 47.5q-3 40 -3 80q0 15 0.5 32t1.5 37.5
t1 33.5v2q3 29 6 43.5t13.5 31.5t31.5 24t56 7q90 0 104 -39zM508 292q-6 17 -35 17q-23 0 -29 -18q-6 -108 -6 -180v-27q2 -12 9.5 -17.5t27.5 -5.5q16 0 24 5t9.5 11t1.5 16v7q0 151 -2 192zM840 323q16 -39 16 -173q0 -32 -2.5 -51.5t-13 -44t-35.5 -36.5t-66 -12
t-74 17.5t-36 47.5q-3 40 -3 80q0 15 0.5 32t1.5 37.5t1 33.5v2q3 29 6 43.5t13.5 31.5t31.5 24t56 7q90 0 104 -39zM774 292q-6 17 -35 17q-23 0 -29 -18q-6 -108 -6 -180v-27q2 -12 9.5 -17.5t27.5 -5.5q16 0 24 5t9.5 11t1.5 16v7q0 151 -2 192z" />
    <glyph glyph-name="guilsinglleft" unicode="&#x2039;" horiz-adv-x="283" 
d="M234 117q-56 41 -125 91q-54 39 -66 50t-12 23v28q0 3 -0.5 9.5t-0.5 9.5q0 26 12 38q62 68 160 162l23 26q8 8 15 8q8 0 8 -9v-96q0 -19 -21.5 -43.5t-53 -51.5t-39.5 -36q-3 -3 -3 -9q0 -7 5 -11q39 -33 100 -64q17 -10 17 -29v-83q0 -15 -10 -15q-6 0 -9 2z" />
    <glyph glyph-name="guilsinglright" unicode="&#x203a;" horiz-adv-x="283" 
d="M49 117q-3 -2 -9 -2q-10 0 -10 15v83q0 19 17 29q61 31 100 64q5 4 5 11q0 6 -3 9q-8 9 -39.5 36t-53 51.5t-21.5 43.5v96q0 9 8 9q7 0 15 -8l23 -26q98 -94 160 -162q12 -12 12 -38q0 -3 -0.5 -9.5t-0.5 -9.5v-28q0 -12 -12 -23t-66 -50q-69 -50 -125 -91z" />
    <glyph glyph-name="lira" unicode="&#x20a4;" horiz-adv-x="448" 
d="M30 319l1 24q0 27 14 29h14q0 70 2.5 110.5t11 81t26 60t47 31.5t74.5 12q27 0 27 -19v-58q0 -4 -3.5 -11t-7.5 -7h-45q-28 0 -30 -202q35 -1 53 -1.5t27.5 -2t11 -3t1.5 -5.5v-34q0 -20 -8 -31l-85 1v-28l49.5 -1.5t25.5 -2.5t10.5 -3.5t1.5 -5.5v-35q0 -23 -8 -33
l-78 1l3 -77q252 -3 252 -17q0 -5 0.5 -21.5t0.5 -20.5q0 -25 -13 -39l-327 3q-3 0 -7 1q-11 5 -11 21t-1 50t-1 54v47h-19q-9 1 -9 26l1 25q0 29 13 30q2 0 7 -0.5t8 -0.5v28h-20q-9 0 -9 24z" />
    <glyph glyph-name="Euro" unicode="&#x20ac;" horiz-adv-x="396" 
d="M30 415v22q2 24 18 25h21v14q3 45 5.5 67.5t11.5 53.5t23 45.5t40 25.5t64 11q122 0 140 -74q7 -28 10 -54l-98 -29q0 4 -0.5 11.5t-0.5 11.5q-2 13 -16 23t-30 10q-32 0 -39 -35l-4 -82l129 -1q17 -1 17 -23q0 -3 0.5 -9t0.5 -9q0 -18 -11 -28l-138 1q0 -30 -1 -45
l86 -1q13 -1 13 -22q0 -3 0.5 -9t0.5 -8q0 -18 -9 -28l-92 1v-133q2 -23 12.5 -33.5t36.5 -10.5q16 0 26.5 5t14.5 15t5 18.5t1 23.5v7l99 -39q-13 -63 -47 -99t-101 -36q-55 0 -99.5 34t-48.5 91q-4 68 -4 152v6h-24q-10 1 -10 21l1 21q0 24 14 25h19q0 8 0.5 23t0.5 22
h-26q-11 1 -11 22z" />
    <glyph glyph-name="afii61352" unicode="&#x2116;" horiz-adv-x="721" 
d="M243 76l-109 341q-1 -59 -1 -181l-1 -188q0 -18 -2.5 -22.5t-14.5 -7.5q-1 0 -12.5 -1t-20.5 -1q-52 0 -52 26v322q0 37 0.5 112.5t0.5 113.5q0 6 -0.5 18.5t-0.5 19.5q0 51 25 51l82 -1q22 0 28 -21q86 -279 109 -343l1 137q0 28 -1.5 85t-1.5 87q0 45 25 45l62 -1
q14 0 16 -16q1 -61 1 -183q0 -70 -1.5 -207.5t-1.5 -220.5q-3 -16 -21 -16l-71 1q-25 0 -38 51zM445 301q-19 50 -19 209q0 25 1 41t5 38.5t12.5 37t23 28.5t38 21t55.5 7q47 0 85 -21.5t41 -57.5q4 -43 4 -95q0 -21 -1.5 -63t-1.5 -64q-3 -35 -7 -52.5t-15.5 -38t-36 -29
t-64.5 -8.5q-104 0 -120 47zM521 338q2 -8 14 -14t26 -6q27 0 33 22q7 114 7 216v33q-2 15 -10.5 21.5t-31.5 6.5q-27 0 -33.5 -10t-6.5 -29v-8q0 -182 2 -232zM461 156l41 54h144l-44 -56z" />
    <glyph glyph-name="trademark" unicode="&#x2122;" horiz-adv-x="551" 
d="M218 368l1 6l24 306h1h5.5t7 0.5t8 0.5h8.5q51 0 56 -14l40 -109l47 121l62 -1q7 0 12 -10t5 -16l26 -270v-14q-2 -5 -11 -5h-47q-9 1 -11 12q-1 19 -2 30.5t-2 21.5t-4 50.5t-8 103.5q-45 -117 -65 -117q-17 0 -21 2q-8 5 -11 12t-15 37t-32 71q-1 -10 -1 -90
q0 -141 -13 -141h-53q-7 0 -7 13zM94 361l-6 269q0 6 -12 6q-4 0 -13 0.5t-14 0.5q-12 0 -15 2.5t-3 10.5v8q0 1 -0.5 5t-0.5 6q0 14 9 16h100q51 0 63 -1q7 -4 7 -5v-38q0 -6 -14 -6q-2 0 -13.5 -0.5t-14.5 -0.5q-6 -2 -7 -8l1 -256q-1 -11 -5 -13.5t-15 -2.5h-38
q-9 0 -9 7z" />
    <glyph glyph-name="estimated" unicode="&#x212e;" horiz-adv-x="369" 
d="M338 338l-186 -32v-193q14 -14 35 -14q19 0 28.5 14t11 27.5t1.5 37.5v22l108 24v-23q-3 -45 -5.5 -67.5t-11.5 -53.5t-23 -45.5t-40 -25.5t-64 -11q-122 0 -141 74q-21 80 -21 332q0 39 1 64.5t5.5 62t15 59t27 45t44 33.5t64.5 11q55 0 99.5 -34t48.5 -91q4 -68 4 -152
zM185 574q-21 0 -33 -10v-165l60 9v162q-9 4 -27 4z" />
    <glyph glyph-name="minus" unicode="&#x2212;" horiz-adv-x="513" 
d="M30 328l1 28q2 32 28 34q15 0 42 -0.5t39 -0.5q318 -3 336 -8q6 -2 6 -8q0 -4 0.5 -20t0.5 -19q0 -25 -17 -37l-411 3h-7q-18 0 -18 28z" />
    <glyph glyph-name="notequal" unicode="&#x2260;" horiz-adv-x="487" 
d="M260 552l40 -2l-17 -80l99 -1.5t50.5 -2.5t20.5 -4t3 -6t0.5 -19.5t0.5 -19.5q0 -24 -16 -36l-176 1l-11 -52q76 -1 113.5 -1.5t58 -2.5t23.5 -4t3 -7q0 -4 0.5 -19.5t0.5 -18.5q0 -24 -16 -36l-201 1l-18 -86h-44l18 86l-139 1h-6q-17 1 -17 28l1 28q2 31 26 33
q14 0 39.5 -0.5t36.5 -0.5q29 -1 78 -1l12 52l-166 2h-6q-17 1 -17 28l1 27q2 31 26 33l181 -2z" />
    <glyph glyph-name="lessequal" unicode="&#x2264;" horiz-adv-x="496" 
d="M439 155l-386 68q-16 3 -16 8l-5 110q0 21 17 27l357 139q27 10 34 10q12 0 12 -12v-81q0 -15 -10 -20q-44 -16 -134 -43.5t-140 -46.5l-18 -7l-4 -3q-5 -4 -5 -6q0 -6 12 -6q6 -1 13 -2t27 -3t46 -4.5t83.5 -8.5t126.5 -14q17 -2 17 -22v-72q0 -13 -12 -13q-9 0 -15 2z
M30 45l1 27q2 30 26 32q369 -4 388 -7q11 -3 11 -9q0 -4 0.5 -19.5t0.5 -18.5q0 -23 -16 -35l-388 2h-6q-17 1 -17 28z" />
    <glyph glyph-name="greaterequal" unicode="&#x2265;" horiz-adv-x="496" 
d="M465 72l1 -27q0 -27 -17 -28h-6l-388 -2q-16 12 -16 35q0 3 0.5 18.5t0.5 19.5q0 7 9.5 9t72 3.5t185.5 2.5q82 0 132 1q24 -2 26 -32zM443 223l-386 -68q-6 -2 -15 -2q-12 0 -12 13v72q0 20 17 22q69 8 126.5 14t83.5 8.5t46 4.5t27 3t13 2q12 0 12 6q0 2 -5 6l-4 3
l-18 7q-50 19 -140 46.5t-134 43.5q-10 5 -10 20v81q0 12 12 12q6 0 34 -10l357 -139q17 -6 17 -27l-5 -110q0 -5 -16 -8z" />
    <glyph glyph-name="commaaccent" unicode="&#xf6c3;" horiz-adv-x="160" 
d="M30 -91q1 23 15 38t35 15t35.5 -14.5t14.5 -35.5q0 -61 -38 -124l-16 2l10 72q0 -3 -8 -3q-15 0 -31.5 12.5t-16.5 37.5z" />
    <hkern g1="t,tcommaacce</font>
</defs>
</svg>
