<svg id="Livello_1" data-name="Livello 1" xmlns="http://www.w3.org/2000/svg" xmlns:xlink="http://www.w3.org/1999/xlink" viewBox="0 0 283.46 283.46">
  <defs>
    <style>
      .cls-1 {
        fill: none;
      }

      .cls-2 {
        fill: #fff;
      }

      .cls-3, .cls-5 {
        fill: #45a041;
      }

      .cls-3 {
        stroke: #45a041;
        stroke-linecap: round;
        stroke-linejoin: round;
        stroke-width: 4.51px;
      }

      .cls-4 {
        clip-path: url(#clip-path);
      }
    </style>
    <clipPath id="clip-path">
      <circle class="cls-1" cx="143.07" cy="146.49" r="107.88"/>
    </clipPath>
  </defs>
  <title>icon</title>
  <g>
    <g>
      <path class="cls-2" d="M241.49,79.52c-27-35.48-55.14-57.94-109-52-55,4.58-91.61,36.59-109,89.13C6.25,168.65,43,228,80.47,247.5c15.4,8,30.92,12.9,47.71,13.92,33.57,2,58.94-4.1,87.14-23.53s53.61-53.12,51-91.11Q263.76,108.82,241.49,79.52Z"/>
      <path class="cls-3" d="M146.47,264.37c-10.95-.17-23.15-1.86-35.44-3.69C100.87,259.16,92,255,82.78,251.43c-5.51-2.15-10.29-6.42-14.87-10.3C60.4,234.77,53.22,228,46.08,221.29s-10.14-15.54-14.36-23.78c-3.27-6.38-6.28-12.89-9.28-19.39a55.18,55.18,0,0,1-4.68-31.48c.93-6.59.64-13.34,1.28-20a41.83,41.83,0,0,1,2.39-9.87c2.71-7.51,5.36-15.07,8.69-22.33s6.73-14.71,11.42-21.19C48.32,63.89,57.35,56.5,67.26,50A182.34,182.34,0,0,1,96,35.13a113.47,113.47,0,0,1,38.06-8.76c7.38-.44,14.8-1.5,22.13-1.08,6.39.37,12.77,2.11,19,3.84,5.57,1.54,10.91,3.85,16.32,5.9a75.09,75.09,0,0,1,23.29,13.58c11.82,10.44,23.9,20.7,32.63,33.93,2.06,3.13,5.05,5.7,7.13,8.81A61.6,61.6,0,0,1,261,102.9c2.45,6.24,5,12.63,6.06,19.17,2.29,14.65,3.63,29.45.64,44.22-1.39,6.87-2.45,13.9-4.86,20.45a58.3,58.3,0,0,1-9,16.07c-11.37,14.24-23.05,27.91-36.74,40-15.93,14.08-37.77,18.1-58.55,21C155.07,264.29,151.49,264.16,146.47,264.37ZM264.26,138.85c-.11-1.53-.19-3.06-.35-4.59-1.64-15.92-5.36-31.14-16.08-44-6.63-8-12.93-16.2-19.88-23.9-4-4.45-9.3-7.8-13.45-12.14-6.2-6.47-13.86-10.84-21.91-14.4A201.44,201.44,0,0,0,167,30.65a55.35,55.35,0,0,0-28-1.1c-4.65,1.06-9.43,1.62-14.17,2.27-3.35.45-6.85.22-10.07,1A169.78,169.78,0,0,0,70.66,51c-17.11,10.09-29,24.65-37,42.16-3.13,6.9-5.25,14.21-7.86,21.33-2.14,5.82-3.78,11.68-3.85,18a211,211,0,0,1-1.07,21.34,37.82,37.82,0,0,0,3.76,21.07c5.91,12.22,12.15,24.29,18.54,36.28a35.67,35.67,0,0,0,6.88,9c6.74,6.34,13.89,12.28,20.8,18.47a69.85,69.85,0,0,0,31.59,16.2c8.06,1.82,16.25,3.1,24.4,4.59a100.15,100.15,0,0,0,31.61.75c21.46-2.95,43.41-8.6,59.14-23.5,10.47-9.92,19.1-21.17,28.74-32,8.51-9.53,13.71-20.09,15.57-32.35C263.61,161.2,266,150.16,264.26,138.85Z"/>
    </g>
    <g class="cls-4">
      <path class="cls-5" d="M262.47,155.27a6.82,6.82,0,0,1,0,5c-.56,1.5-.32,3.28-.58,4.91s-.7,3.1-1.05,4.65a10.52,10.52,0,0,0-.28,1.68,12,12,0,0,1-1.37,5.83c-.39.64-.06,1.68-.33,2.44-.74,2-1.65,4-2.46,6-.15.38-.09.83-.21,1.22-.28.85-.62,1.68-.93,2.52a9.12,9.12,0,0,0-.35,1c-.21.91.06,2-1.19,2.45a.33.33,0,0,0-.16.26c.11,1.7-.82,3-1.61,4.4s-1.67,3.07-2.49,4.63a17.67,17.67,0,0,1-1.9,3.61c-1.14,1.28-1.08,3.13-2.5,4.29-.88.72-1.18,2.11-1.87,3.11s-1.43,1.68-2.15,2.53c-.16.18-.39.36-.44.58a8.85,8.85,0,0,1-4,5.16.86.86,0,0,0-.36.47c-.48,2.47-2.56,3.62-4.16,5.18-1.07,1.05-1.88,2.36-3,3.4-1.8,1.72-3.27,3.74-5.45,5.12-1.37.87-2.33,2.4-3.48,3.63-.17.18-.33.51-.5.51-1.83,0-2.47,1.62-3.6,2.6a26.41,26.41,0,0,1-3.24,1.89c-.69.44-1.27,1-1.93,1.54-1.72,1.28-3.45,2.54-5.18,3.8a.77.77,0,0,1-.42.17c-1.84,0-2.88,1.54-4.32,2.32s-3,1.45-4.43,2.2-3,1.54-4.42,2.32a2.76,2.76,0,0,1-.67.37,5.87,5.87,0,0,0-3.25,1.17c-1.35,1.12-3.5,1.26-5.29,1.88-2.15.75-4.27,1.58-6.42,2.35-.57.21-1.19.29-1.79.45l-2.61.68c0,.14,0,.28,0,.42l-1.14-.72.06.34-2.44.65c-1.27.32-2.53.66-3.8,1-.76.17-1.53.28-2.3.4-2.34.34-4.68.76-7,1-2.62.27-5.25.46-7.89.53-3.64.08-7.28.09-10.92,0a21.22,21.22,0,0,1-3.89-.82c-.25-.06-.53-.29-.72-.22-3.26,1.22-6.33-.8-9.56-.57-1.25.09-2.55-.74-3.85-1.1-.49-.13-1,0-1.54-.16-1.33-.3-2.64-.7-4-1-1.11-.23-2.26-.28-3.37-.53a14.51,14.51,0,0,1-2.25-.83c-.14,0-.24-.23-.38-.27-1.93-.6-3.88-1.16-5.8-1.78a7.47,7.47,0,0,1-1.43-.74c-.21-.12-.4-.44-.59-.44-1.31,0-2.3-1.08-3.31-1.25a22.29,22.29,0,0,1-4.73-1.77c-1.3-.53-2.54-1.19-3.8-1.79-.78-.38-1.57-.71-2.32-1.14s-1.35-.92-2-1.39L79.62,249a3.11,3.11,0,0,0-.4-.22,21.08,21.08,0,0,1-6.59-4.2,21.33,21.33,0,0,0-3-1.88,18.31,18.31,0,0,1-2.12-1.59c-.68-.59-1.28-1.26-1.91-1.9-1.48-1.48-2.93-3-4.43-4.44-1.69-1.61-3.49-3.11-5.11-4.79-2.15-2.22-4.15-4.59-6.25-6.86-.65-.7-1.45-1.26-2.17-1.9-.14-.13-.34-.29-.37-.45-.38-2.38-2.6-3.55-3.62-5.54a71.38,71.38,0,0,0-3.84-6.08c-1.22-1.9-2.45-3.79-3.66-5.69-.19-.3-.3-.65-.47-1-.8-1.54-1.61-3.07-2.41-4.6a1.88,1.88,0,0,1-.22-.42c-.6-1.8-1.1-3.63-1.8-5.39s-1.63-3.54-2.42-5.32c-.18-.41-.19-.9-.33-1.34s-.21-1.16-.54-1.33c-1.3-.69-.44-1.19.07-1.79-.27-.3-.68-.56-.77-.9-.56-2.12-1-4.27-1.56-6.4-.23-1-.49-1.89-.7-2.84q-.4-1.91-.75-3.81c-.38-2-.86-4-1.07-6-.25-2.52-.27-5.07-.39-7.61a3.64,3.64,0,0,0,0-1.24c-1.58-3.57.27-7.42-1-11-.07-.2.1-.48.17-.72a15.29,15.29,0,0,0,.84-3c.21-3.1.09-6.22.42-9.3a72.54,72.54,0,0,1,1.55-7.22c.32-1.48.55-3,.93-4.44.31-1.21.8-2.37,1.17-3.56a12.27,12.27,0,0,0,.26-1.37c.2-1.06-.2-2.31,1.1-3,.23-.13.15-.78.27-1.17.29-.91.61-1.82.92-2.73.15-.43.3-.87.48-1.28.34-.77.7-1.52,1-2.28a2.65,2.65,0,0,0,.32-.86c.15-2.13,1.42-3.71,2.52-5.4a32.7,32.7,0,0,0,1.71-3.52c.51-1,1.07-2.08,1.52-3.15.65-1.57,1.09-3.25,2.7-4.2a.58.58,0,0,0,.21-.4c.29-2.38,2.38-3.81,3.11-6,.28-.81,1.33-1.37,2-2,.18-.18.44-.34.49-.56.59-2.38,2.5-3.72,4.09-5.36a22.66,22.66,0,0,0,1.94-3,16.67,16.67,0,0,1,1.68-2.14c2.33-2.37,4.71-4.69,7.06-7,1-1,2-2,2.94-3a.35.35,0,0,1,.28-.1c1.62.37,2.17-1.14,3.09-1.87A37.83,37.83,0,0,0,70.23,50a.91.91,0,0,1,.55-.23c1.74-.13,2.73-1.38,3.82-2.51.19-.2.56-.23.81-.39,1.14-.75,2.26-1.53,3.39-2.29a9.91,9.91,0,0,1,.85-.59c1.38-.8,2.76-1.6,4.15-2.38.91-.51,1.83-1,2.77-1.47,1.42-.67,2.88-1.23,4.28-1.93,1.61-.8,3.18-1.69,4.76-2.55.09-.05.16-.14.25-.17,1.65-.52,3.31-1,4.93-1.56,1.92-.68,3.8-1.47,5.71-2.21a6.51,6.51,0,0,1,1.62-.52,21.69,21.69,0,0,0,5-1.28c2.78-1,5.82-1.18,8.75-1.71,2-.35,4-.1,5.89-1.07a5.08,5.08,0,0,1,2.15-.26c2.6,0,5.21.07,7.8-.08a41.16,41.16,0,0,0,4.17-.86,5.4,5.4,0,0,1,2,.08,23,23,0,0,0,3.07.78c4,.18,8.09.21,12.14.33a4.74,4.74,0,0,1,1,.27l3.42.81c1.4.31,2.8.62,4.21.9.91.17,1.85.23,2.76.44,1.33.32,2.65.71,4,1.1,2,.58,3.91,1.17,5.85,1.8.95.31,1.86.74,2.79,1.12.1,0,.18.16.26.16,1.72-.07,3.05,1,4.57,1.48a27.6,27.6,0,0,1,5.5,2.57c1.36.79,2.88,1.3,4.28,2s2.81,1.52,4.21,2.29a1.62,1.62,0,0,0,.55.26c1.76.06,2.65,1.6,4,2.35a34.51,34.51,0,0,1,3.22,2c1.21.85,2.34,1.82,3.53,2.69,1.42,1,2.88,2,4.3,3,.94.69,1.88,1.4,2.76,2.18,1.28,1.13,2.52,2.31,3.74,3.5s2.34,2.37,3.53,3.54,2.56,2.43,3.79,3.7,2.28,2.56,3.45,3.82c.7.75,1.52,1.38,2.2,2.14a18.84,18.84,0,0,1,1.62,2.22c.87,1.36,1.41,3,3,3.78a.18.18,0,0,1,.06.14c-.35,1.52.88,2.55,1.7,3.09,1.47,1,1,2.9,2.54,3.8.87.48,1.11,2.08,1.65,3.17a36.61,36.61,0,0,0,1.73,3.28,24.37,24.37,0,0,1,2.88,5.86,23,23,0,0,0,2,3.9c.07.13.22.23.27.37.55,1.73,1.09,3.47,1.64,5.2a8.09,8.09,0,0,0,.4,1c.28.58.63,1.12.85,1.71.38,1,.7,2.08,1,3.13.19.7.28,1.42.44,2.13.55,2.4,1.09,4.81,1.67,7.21.25,1.08.65,2.12.88,3.2a24.65,24.65,0,0,1,.5,3.52c.11,2-.29,4.06,1,5.87a.86.86,0,0,1,.12.75c-1,1.76.24,3.38.26,5.07.05,4.53.09,9.06,0,13.59A6.49,6.49,0,0,1,262.47,155.27Zm-165,70.26,0-.05c.4,1.46.27,2.61-1.22,3.54-1,.66-3.35,1.26-4.09.32-.89-1.14-1.95-.83-3-.74-.52,0-1,.83-1.49.91a36,36,0,0,1-4.64.39c-2.55.06-5.1,0-7.64,0a3.3,3.3,0,0,0-1.17.53c.27.31.53.64.82.93s.58.3.72.53c1.08,1.92,3.39,2.24,4.8,3.71,1.13,1.17,3,1.19,4,2.65A7.5,7.5,0,0,0,86.74,240a7.74,7.74,0,0,0,2.19,1.17,12.18,12.18,0,0,1,3.32,1.72c1.35.78,2.82,1.33,4.24,2,1.69.78,3.35,1.65,5.08,2.32,1.89.73,3.68,1.92,5.85,1.73a.56.56,0,0,1,.41.2c1.54,1.81,4.37.47,5.84,2.41a100.14,100.14,0,0,1,10.13,2A37.11,37.11,0,0,0,134,254.64c7.94.08,15.89-.13,23.84-.24a2.24,2.24,0,0,0,1.17-.33c1.12-.83,2.22-1.09,3.23-.15a5.86,5.86,0,0,1,1.59-1c2.85-.6,5.88-.7,8.53-1.78a27.49,27.49,0,0,1,5.13-1.33,3.23,3.23,0,0,0,.58-.24c.87-.35,1.73-.73,2.61-1.05.48-.18,1.11-.12,1.47-.41,2.23-1.81,5.21-2,7.56-3.66a20.26,20.26,0,0,1,4.39-1.77,1.92,1.92,0,0,0,.38-.25c1-.74,2-1.49,3.05-2.21a25.68,25.68,0,0,1,2.28-1.51c1.28-.7,2.67-1.22,3.88-2,2-1.3,3.82-2.78,5.73-4.17a23.85,23.85,0,0,0,2.23-1.61c1.25-1.15,2.41-2.41,3.64-3.59s2.48-2.24,3.69-3.4q2.07-2,4.05-4c.69-.71,1.29-1.51,1.91-2.28,1.19-1.49,2.36-3,3.55-4.48.63-.78,1.37-1.47,1.93-2.29,1.1-1.62,2.1-3.32,3.18-5,.82-1.25,2.06-2.36,2.47-3.73.71-2.34,3-3.67,3.44-6.18.25-1.37,1.82-2.47,2.14-3.84a16.12,16.12,0,0,1,1.5-3.93,33.65,33.65,0,0,0,1.77-5.33c.08-.24.17-.49.27-.73a52.76,52.76,0,0,0,2.27-5.59c.55-1.93.65-3.93,1.33-5.93.92-2.72.37-5.82,1.6-8.68.78-1.82-.33-4.18.88-6.12-.45-6.44.26-12.9-.56-19.37-.45-3.55-.76-7.11-1.55-10.62-.65-2.85-1-5.77-1.56-8.64a6.67,6.67,0,0,0-.64-1.39,17.11,17.11,0,0,1-.67-1.67c-.61-2-1.17-4-1.79-6-.11-.33-.46-.57-.63-.89a11.42,11.42,0,0,1-.53-1.25c-.58-1.58-1.14-3.16-1.72-4.74,0-.09-.15-.15-.2-.23-.75-1.27-1.56-2.5-2.22-3.81A42.7,42.7,0,0,0,237.26,93c-1.47-2.28-3.37-4.31-4.13-7,0-.17-.27-.28-.41-.43-.71-.72-1.47-1.41-2.11-2.19-1.45-1.76-2.84-3.57-4.25-5.36-1.59-2-3.17-4-4.78-6-.37-.46-.87-.81-1.27-1.24-1.12-1.21-2.13-2.54-3.35-3.64s-2.72-2-4.06-3.07c-.6-.46-1-1.22-1.69-1.53-1.73-.82-2.6-3-4.75-3.09,0,0-.08-.07-.12-.1-1.47-1.22-2.91-2.48-4.42-3.66a20.87,20.87,0,0,0-2.41-1.46c-1.46-.83-2.92-1.67-4.4-2.46s-2.69-1.4-4.06-2.05-2.6-1.22-3.91-1.79a59.28,59.28,0,0,0-5.91-2.44c-1.73-.53-3.15-2-5.15-1.66-.79-1.43-2.21-1-3.44-1.22a33.39,33.39,0,0,1-3.42-.69c-.59-.15-1.11-.6-1.7-.7-1.3-.23-3,.12-3.85-.57-1.38-1-2.72-.72-4.1-.83-.68-.06-1.35-.08-2-.17-3.16-.43-6.31-1.23-9.47-1.25-5.17,0-10.36-.52-15.54.65-3.46.78-7.09.79-10.63,1.24-1,.13-2,.7-3,.86a13.66,13.66,0,0,0-3.9,1c-1.76.81-3.93.83-5.78,1.79A20.94,20.94,0,0,1,106,44.94c-.39.13-.79.2-1.18.33A33.46,33.46,0,0,0,99,47.19c-1.77.93-3.33,2.27-5.4,2.6a1.14,1.14,0,0,0-.44.14c-1.34.82-2.68,1.66-4,2.46-1.09.65-2.26,1.19-3.33,1.86-1.29.81-2.5,1.75-3.78,2.57a18.35,18.35,0,0,0-3,1.74c-1.7,1.63-3,3.66-5.57,4.21-.18,0-.28.4-.46.57Q71.07,65.18,69.15,67c-1.7,1.63-3.43,3.23-5.09,4.89-.65.65-1.12,1.46-1.74,2.14A16.93,16.93,0,0,1,60,76.32c-1,.78-1.21,2.31-2,2.88-2.53,1.88-3.37,4.93-5.44,7.09a31.27,31.27,0,0,0-2.51,3.57,14.48,14.48,0,0,0-1.54,2c-.63,1.39-1.07,2.87-1.6,4.31a4,4,0,0,1-.3.53,44.58,44.58,0,0,0-2.34,4.07c-.74,1.63-1.24,3.37-1.85,5.06a5.6,5.6,0,0,1-.27.55c-.31.64-.61,1.27-.93,1.9a18.56,18.56,0,0,0-.85,1.66c-.43,1.18-.8,2.39-1.29,3.87l.42.72c-.38.55-.86,1-1,1.45-.7,2.9-1.33,5.81-2,8.72-.34,1.53-.72,3.06-1,4.6-.15.89.19,1.89-.92,2.46-.14.06,0,.76.08,1.17a8.76,8.76,0,0,1,.34,2.29c-.1.85-.78,1.67-.79,2.51-.12,5.72-.15,11.44-.15,17.17a3,3,0,0,0,.52,1.89c.68.68.7,1.06.12,1.8a2.42,2.42,0,0,0-.19,1.72c.24,1.33.69,2.62.92,3.95.19,1.08-.25,2.32.94,3.12.17.11.12.56.15.86.15,1.39,0,2.92.52,4.15a21.35,21.35,0,0,1,1.37,5.23,8.09,8.09,0,0,0,.49,1.46c.31.9.63,1.79.92,2.7.12.39.14.81.28,1.19.36,1,.74,1.94,1.14,2.9.28.69.6,1.36.9,2,.64,1.52,1.27,3.05,1.93,4.56s1.22,2.89,2,4.26c.66,1.22,1.53,2.33,2.26,3.52s1.49,2.72,2.33,4c1.05,1.62,2.23,3.15,3.32,4.74s2.21,3.39,3.35,5.05a9.7,9.7,0,0,0,1.42,1.52c1.13,1,2.61,1.75,2.71,3.57a1.11,1.11,0,0,0,.4.6,12.13,12.13,0,0,1,2.25,2c1.76,2.67,4.65,3.27,7.34,3.9a25.4,25.4,0,0,0,7.85.58,22.21,22.21,0,0,1,3.81.23c1.07-.3,1.72-.51,2.38-.67,1.39-.35,2.8-.61,4.16-1a4.3,4.3,0,0,1,3.67.12C94.54,225.5,96.07,225.35,97.42,225.53Z"/>
      <path class="cls-5" d="M97.42,225.53c1.28-2,2.56-3.9,2.68-6.36,0-.41.39-.81.61-1.21s.73-.88.73-1.32c0-2.52,1.46-4.42,2.6-6.48a9.68,9.68,0,0,0,.34-1.5c.3-.83.66-1.63,1-2.44.12-.29.4-.57.39-.84-.09-2.5,1.38-4.4,2.41-6.47a14.16,14.16,0,0,0,.53-2.11c.21-.67.53-1.3.8-2a34.37,34.37,0,0,0,2-4.76c.47-1.84-.55-3-2.48-3.12-1.62-.11-2.36-1.24-3.35-2.32-1.87-2-3.16-4.47-5.25-6.41s-4.22-3.32-6.26-5.05a1.39,1.39,0,0,0-.38-.27c-1.45-.59-2.92-1.12-4.34-1.77s-2.85-1.47-4.31-2.14a14.64,14.64,0,0,0-1.82-.4c-2.15-.65-4.33-1.23-6.43-2a28.37,28.37,0,0,1-3.56-2,2,2,0,0,0-.7-.31,10.94,10.94,0,0,1-3.87-1.23c-1.92-.95-4.18-1.19-6.25-1.87-1.75-.57-3.44-1.34-5.14-2-.56-.22-1.09-.49-1.64-.74-.78-.35-1.56-.69-2.33-1-.19-.08-.37-.28-.55-.28-1.67,0-3.08-.43-3.6-2.34a5.9,5.9,0,0,1,.79-1c.4-.36.9-.83,1.37-.84,1.19,0,1.53-.54,1.5-1.64a26.78,26.78,0,0,1,.06-5.3c.39-2.24,1-4.41.3-6.68a.29.29,0,0,1,0-.16c1-2,.84-4.21,1.33-6.27s.77-4,1.21-6A69.93,69.93,0,0,1,58,120c.06-.19.27-.36.28-.54.12-2.59,1.81-4.51,2.79-6.73.73-1.64,1.14-3.42,1.91-5A41.58,41.58,0,0,1,65.35,104c.69-1.12,1.23-2.34,2-3.41a26.82,26.82,0,0,1,2.21-2.46c.14-.15.34-.3.36-.47.34-2.49,2.36-3.73,3.88-5.36A13.29,13.29,0,0,0,75.45,90c1.47-2.45,3.69-4.16,5.8-6s4-3.78,6.1-5.43,4.78-3.13,7.14-4.74c1-.7,1.93-1.56,2.89-2.35a.92.92,0,0,1,.25-.19c1.43-.52,2.9-1,4.28-1.58s2.67-1.5,4-2.24c.35-.2.74-.32,1.09-.52.6-.33,1.18-.71,1.79-1a9.08,9.08,0,0,1,1-.41l2.44-1c.19-.08.37-.24.56-.25a19.45,19.45,0,0,0,4.65-1.33,59.51,59.51,0,0,1,9-1.88c4.21-.75,8.42-1.62,12.67-2.07,2.76-.29,5.59.11,8.39.13a26.35,26.35,0,0,0,2.9-.35,3,3,0,0,1,.9,0c1.71.3,3.4.71,5.12.93,1.94.26,4.14-.14,5.76.67s3.19.5,4.72,1c.94.28,1.64,1.56,3,.52-1.71-1.73-3.75-3.23-5-5.24-.77-1.29-2.4-2.56-1.76-4.54.53-1.66.85-3.39,2.89-4,.9-.26,1.72-.88,2.63-1.06a4.79,4.79,0,0,1,2,.4,23.77,23.77,0,0,1,2.46.71,27.5,27.5,0,0,1,3.71,1.57c1.76,1,3.44,2.12,5.16,3.18,1.54,1,2.84,2.27,4.74,2.7a11.46,11.46,0,0,1,2.93,1.72c1.41.87,2.84,1.7,4.24,2.58A26.44,26.44,0,0,0,197.18,62c1.34.58,2.16,1.89,3.77,2.17,1.19.22,2.2,1.34,3.35,2,1.35.71,2.18,2.11,3.87,2.43,1.09.22,2,1.25,3.05,1.86,1.3.76,2.64,1.45,3.94,2.22.92.54,1.82,1.11,2.69,1.74s1.94,1.53,2.93,2.27a1.19,1.19,0,0,0,.74.19c1.53-.14,2,1.3,3,2a17,17,0,0,1,2.55,3.17c.06.09.18.16.19.24.21,3,2.51,5.83.41,8.9a.7.7,0,0,0-.14.44c.14,3-1.94,5.2-2.94,7.78-.24.61-1,1-1.14,1.64a3.94,3.94,0,0,0,.5,2.11c.66,1.35,1.47,2.63,2.18,4,.8,1.51,1.64,3,2.31,4.57.78,1.82,1.39,3.7,2.1,5.55s1.53,3.94,2.3,5.9a1.75,1.75,0,0,1,.13.28c.57,2.63,1.13,5.26,1.71,7.88.18.86.45,1.69.62,2.55a11.92,11.92,0,0,1,.19,2.08,29.49,29.49,0,0,1,.63,3.7c.1,2.07-.38,4.26.12,6.21a15.65,15.65,0,0,1,0,6.1c-.46,3.68-.45,7.42-.75,11.13a36.55,36.55,0,0,1-.83,5c-.11.48-.62.86-1,1.31l.6.77c-.43,1.15-.77,2-1,2.79-.62,1.94-1.2,3.88-1.82,5.82a31.63,31.63,0,0,1-1.1,3c-.78,1.72-1.61,3.41-2.44,5.1-.55,1.12-1.08,2.25-1.7,3.33q-1.83,3.17-3.75,6.28c-1.13,1.84-2.24,3.7-3.5,5.45a45.6,45.6,0,0,1-3.28,3.82c-.93,1-2.33,1.58-2.61,3.25a4.81,4.81,0,0,1-1.5,2.13c-.94,1-2,1.9-3,2.83a1,1,0,0,1-.58.2c-1.7.09-2.35,1.51-3.36,2.54a42.81,42.81,0,0,1-3.81,3.29c-1.64,1.31-3.29,2.62-5,3.8-1.05.71-2.41,1-3.38,1.75a22.85,22.85,0,0,1-6.36,3.23,30.9,30.9,0,0,0-3.82,2.17c-.39.22-.86.31-1.28.5-.77.34-1.51.73-2.28,1-.42.17-.89.21-1.32.37-.88.34-1.75.72-2.64,1.06a6,6,0,0,1-1.15.39,14.55,14.55,0,0,0-4.79,1.28c-.37.21-.91.08-1.38.13s-1.05,0-1.35.21c-1.56,1.28-3.42,1.08-5.23,1.27a13.64,13.64,0,0,0-2.51.76,2.62,2.62,0,0,1-.72.14,15.12,15.12,0,0,0-3.15,0c-5.31,1.12-10.68.39-16,.53a13.57,13.57,0,0,1-2.42-.55c-.68-.12-1.4-.07-2.09-.15s-1.51-.28-2.27-.39c-1-.13-2-.15-2.92-.35-1.33-.28-2.64-.67-4-1-.2-.05-.39-.25-.57-.23-2.72.35-5.07-1.1-7.61-1.65a40.17,40.17,0,0,1-6.07-2.34c-.29-.12-.54-.32-.82-.42-1.56-.58-3.17-1.05-4.67-1.75a41.61,41.61,0,0,1-3.79-2.26.8.8,0,0,0-.43-.15,3.89,3.89,0,0,1-3.35-1.79ZM169.5,50.19c-.37.27-.71.73-1.09.76-1.23.11-1.2.83-1.13,1.75a3.81,3.81,0,0,0,1.48,3.1c1.1.87,1.69,2.39,3.37,2.53a1.13,1.13,0,0,1,.54.28c1.7,1.3,3.36,2.67,5.12,3.88,1.42,1,3,1.78,4.45,2.67,2.39,1.46,4.71,3,7.18,4.36a17.76,17.76,0,0,1,5.75,4.17,3.77,3.77,0,0,1,.15,4.6,20.59,20.59,0,0,0-2.13,3.34,20.63,20.63,0,0,1-1.81,3.5,15.5,15.5,0,0,0-2.58,5.09c-.35,1-.47,2-.75,3a5,5,0,0,1-4.56,3.25c-5.82-.07-11.65-.17-17.47-.19-8.22,0-16.45,0-24.67,0-3.67,0-7.27-.09-10.6,1.92a3.92,3.92,0,0,0-2.13,4.27c.2,1.32.47,2.63-.81,3.73a1.89,1.89,0,0,0,0,1.83,22.32,22.32,0,0,0,3.53,1.65c1.39.61,2.79,1.21,4.18,1.83.16.08.21.44.36.47a16.87,16.87,0,0,0,3.49.59c.3,0,.77-1.07.87-1.69.13-.83.45-1.28,1.27-1.2s2,0,2.49.52c1.12,1.17,2.41,1.07,3.74,1.07,7.28,0,14.57.17,21.85-.07,2.69-.09,4.82,1.37,7.32,1.61.13,0,.26.15.37.25.9.82,1.82,1.63,2.69,2.48a10.15,10.15,0,0,1,1.68,1.92,11.08,11.08,0,0,1,1.66,5.15c.06,1.43,1.19,2.87,1.08,4.24-.2,2.57,1.35,5,.55,7.54-.07.22.08.5.14.75a36,36,0,0,1,.8,4.06c.14,1.86,0,3.75,0,5.62,0,2.35,1.54,4.53.67,7-.2.56.41,1.37.42,2.07,0,1.6-.13,3.2-.17,4.81a1.8,1.8,0,0,0,2,1.83c.47,0,.93-.12,1.4-.12,9.05,0,18.11,0,27.16.05,1.49,0,2-.67,2-2,0-2.6,0-5.2,0-7.81s0-5.51,0-8.27V117.63c0-2.75.21-5.53-.06-8.26s.89-5.23,0-7.84a1.71,1.71,0,0,1,.25-1.18c.74-1.37,1.55-2.7,2.33-4.06a16.2,16.2,0,0,0,1.3-2.38c.51-1.34.8-2.76,1.3-4.1.65-1.77-.29-6.08-1.72-7.26q-2.53-2.08-5.13-4.08a5.43,5.43,0,0,0-2.15-1.35c-1.95-.28-3.15-1.71-4.6-2.7-1.75-1.2-3.87-1.68-5.44-3.26-.87-.88-2.34-1.14-3.48-1.78-1.5-.86-2.94-1.83-4.42-2.72-1.77-1.08-3.32-2.46-5.44-3-1.22-.34-2.19-1.57-3.3-2.37-.74-.53-1.51-1-2.29-1.49-1.34-.81-2.7-1.58-4-2.39-1-.61-2-1.75-3-1.81-2-.13-2.88-1.8-4.44-2.47S172.58,51,170.76,51C170.34,51,169.93,50.47,169.5,50.19ZM140.89,162.3a8.75,8.75,0,0,0,.68-2.23c0-2,1.29-3.21,2.3-4.59.57-.79.78-3.35.1-4-1.71-1.67-3.34-3.41-5-5.09a7.13,7.13,0,0,0-1.34-.86,5.36,5.36,0,0,0,.19,1.78c.66,1.3,1.58,2.47,2.19,3.79a2.58,2.58,0,0,1-.12,2c-.28.47-1.1.65-1.71.84-.14.05-.61-.34-.61-.53a6.49,6.49,0,0,0-1.45-3.66c-.84-1.26-1.11-2.89-1.86-4.23-.35-.64-1.23-1-1.87-1.47l-.92,1.42a3.26,3.26,0,0,0-.24.4c-1.16,2.22-2.38,4.39-2.61,7a1.68,1.68,0,0,1-.91,1.15,2.5,2.5,0,0,1-1.53-.13c-.07-1-.35-2.24.15-2.8,1.07-1.19.84-2.5.94-3.8,0-.29-.27-.61-.42-.92a8.62,8.62,0,0,0-.86.72,10.22,10.22,0,0,0-1.1,1.36c-.66,1-1.26,2.09-1.91,3.12-.23.37-.54.69-.79,1a4.38,4.38,0,0,0-.64,1.13c-.53,1.67,1,2.27,1.83,3.17,1,1.13,2.51,1.8,2.68,3.57a1,1,0,0,0,.43.59,2.28,2.28,0,0,1,.46,3.3c-1.43,2.07-3.34,3.8-4.88,5.81-.75,1-1.8,2.6-1.45,3.33.59,1.22.4,2-.43,3.18a14.86,14.86,0,0,0,2.63,0c1-.22,2-1,3-.92,3,.17,6.17-.85,9,1.13,1.33.91,3.1,1.19,4.51,2a21.18,21.18,0,0,0,7.31,2.44,35.31,35.31,0,0,0,4.83.07c1.26.05,1.74-.4,1.74-1.72,0-2.45-.46-5,.91-7.29.1-.16,0-.45,0-.3a19.83,19.83,0,0,0-2.92-.76c-1.95-.2-3.95.29-5.68-1.3a11.22,11.22,0,0,1-2.62-2.7,8,8,0,0,1-1.34-4.3C141.51,162.7,140.94,162.36,140.89,162.3Zm-4.24,26.22h0q11.08,0,22.16,0c1.89,0,2.32-.5,2.39-2.25.06-1.5-.58-2-2-2-2.55.06-5.1.08-7.65,0s-4.92-.36-7.38-.57a2.88,2.88,0,0,1-.68-.3c-.6-.23-1.2-.46-1.82-.66s-1.27-.38-1.91-.59c-1.76-.57-2.84-2.49-4.9-2.5-.08,0-.23-.07-.25-.15-.41-1.15-1.43-1-2.33-1.07l-4.14-.36c-.59,0-1.27-.36-1.74-.16-1.47.61-3.18.76-4.35,2a3.09,3.09,0,0,0-.71,1.06c-.66,2.06-2.24,3.29-4.09,3-.92-.17-1.88-.06-2.8-.23-1.18-.22-1.49.37-1.52,1.35,0,.41,0,.83,0,1.25,0,2.2,0,2.21,2.17,2.21Zm-7.68-77a16.9,16.9,0,0,0-.28,2.13c0,6.82,0,13.63,0,20.44a11.1,11.1,0,0,1-.65,2.45,8,8,0,0,1,.25,2c-.08,1.1.44,1.4,1.37,1.4H134c2.68,0,3.43-.71,3.43-3.41,0-6.4,0-12.8,0-19.19a4.09,4.09,0,0,0-2.24-3.2C133.17,113.34,131.24,112.49,129,111.53Zm-8.32,24.9c.92-.58,1.76-1.08,2.56-1.64,1.6-1.12,1.18-3,1.74-4.59.15-.44,0-1.41-.24-1.49a4.87,4.87,0,0,0-2,0c-.41.06-.77.52-1.16.54a4.22,4.22,0,0,0-4.15,3.55,2.08,2.08,0,0,0,.46,1.63A25.71,25.71,0,0,0,120.65,136.43Zm26,7c2.14-2.37,2.14-2.37.76-5-.07-.13-.07-.33-.17-.42a4,4,0,0,0-1.19-1,10.36,10.36,0,0,0-2.3-.41c-2.4-.25-2.57-.06-2.3,2.35,0,.31,0,.62,0,.93a3.68,3.68,0,0,0,2.72,3C145.07,143,145.86,143.23,146.7,143.41Zm-32.59,69.65c1.32,0,1.79-.52,1.84-1.72.07-1.6-.84-2.59-2.54-2.91a17.32,17.32,0,0,1-3.07-1.1c-1-.41-1.9-.45-2.56.62-.94,1.54-.19,3,1.74,3.38a22.63,22.63,0,0,1,2.91.87A14.8,14.8,0,0,1,114.11,213.06Zm105.55-59.7.15-.05V107.56h-.15Z"/>
    </g>
  </g>
</svg>
