<svg id="Livello_1" data-name="Livello 1" xmlns="http://www.w3.org/2000/svg" xmlns:xlink="http://www.w3.org/1999/xlink" viewBox="0 0 283.46 283.46">
  <defs>
    <style>
      .cls-1 {
        fill: none;
      }

      .cls-2 {
        fill: #fff;
      }

      .cls-3, .cls-5 {
        fill: #45a041;
      }

      .cls-3 {
        stroke: #45a041;
        stroke-linecap: round;
        stroke-linejoin: round;
        stroke-width: 4.51px;
      }

      .cls-4 {
        clip-path: url(#clip-path);
      }
    </style>
    <clipPath id="clip-path">
      <circle class="cls-1" cx="143.32" cy="139.94" r="106.43"/>
    </clipPath>
  </defs>
  <title>icon</title>
  <g>
    <g>
      <path class="cls-2" d="M239.91,75.83c-27-35.48-55.15-57.94-109-52-55,4.57-91.6,36.58-109,89.13-17.23,52,19.54,111.32,57,130.87,15.4,8,30.93,12.9,47.71,13.92,33.57,2,58.95-4.11,87.14-23.53s53.62-53.12,51-91.11Q262.16,105.13,239.91,75.83Z"/>
      <path class="cls-3" d="M144.89,260.68c-11-.18-23.16-1.86-35.45-3.69-10.15-1.52-19.08-5.69-28.25-9.26-5.51-2.14-10.28-6.41-14.87-10.3-7.51-6.36-14.69-13.08-21.83-19.83s-10.14-15.55-14.36-23.78c-3.27-6.38-6.27-12.89-9.28-19.4A55,55,0,0,1,16.18,143c.92-6.6.63-13.34,1.28-20a40.87,40.87,0,0,1,2.39-9.87c2.7-7.51,5.35-15.07,8.68-22.33S35.27,76.06,40,69.58c6.78-9.38,15.8-16.77,25.72-23.25a183.59,183.59,0,0,1,28.77-14.9,113.59,113.59,0,0,1,38.05-8.75c7.38-.44,14.81-1.51,22.14-1.08,6.39.37,12.77,2.11,19,3.83,5.56,1.55,10.91,3.85,16.31,5.91a74.94,74.94,0,0,1,23.3,13.58C225,55.36,237.12,65.61,245.86,78.85c2.06,3.13,5,5.69,7.13,8.81a62.12,62.12,0,0,1,6.44,11.55c2.45,6.24,5,12.62,6.06,19.17,2.3,14.65,3.63,29.45.65,44.21-1.39,6.88-2.46,13.91-4.86,20.46a58.44,58.44,0,0,1-9,16.07c-11.38,14.24-23,27.91-36.74,40-15.94,14.09-37.78,18.1-58.55,21C153.48,260.6,149.91,260.46,144.89,260.68ZM262.68,135.16c-.12-1.53-.2-3.06-.36-4.59-1.64-15.92-5.35-31.14-16.07-44-6.64-8-12.94-16.2-19.88-23.91-4-4.44-9.3-7.8-13.46-12.14-6.2-6.47-13.85-10.83-21.91-14.39A200.8,200.8,0,0,0,165.41,27a55.49,55.49,0,0,0-28-1.09c-4.65,1.06-9.43,1.62-14.17,2.26-3.34.46-6.85.22-10.07,1.05A169.36,169.36,0,0,0,69.08,47.3C52,57.39,40.06,72,32.1,89.46c-3.13,6.89-5.25,14.21-7.87,21.33-2.13,5.82-3.77,11.68-3.84,18-.09,7.12-.28,14.27-1.08,21.34a37.82,37.82,0,0,0,3.77,21.07c5.9,12.22,12.15,24.29,18.54,36.28a35.57,35.57,0,0,0,6.87,9c6.75,6.34,13.9,12.28,20.81,18.46a69.73,69.73,0,0,0,31.58,16.21c8.07,1.82,16.26,3.1,24.4,4.59a100.22,100.22,0,0,0,31.62.75c21.46-3,43.4-8.6,59.14-23.5,10.47-9.92,19.09-21.17,28.74-32,8.5-9.53,13.71-20.09,15.56-32.35C262,157.51,264.39,146.47,262.68,135.16Z"/>
    </g>
    <g class="cls-4">
      <path class="cls-5" d="M182.72,27c.27.13.54.26.82.37l2.83,1c1.87.69,3.78,1.31,5.61,2.09,1.61.69,3.13,1.58,4.69,2.38,1.15.59,2.33,1.13,3.44,1.81,2.75,1.68,5.79,2.91,8.21,5.16a20.08,20.08,0,0,0,3.39,1.95c.74.46,1.7.9,2,1.6.42.92,1.12.87,1.78,1.2A7.28,7.28,0,0,1,217.15,46c1.34,1.26,2.65,2.56,4,3.82,1.69,1.56,3.46,3.05,5.1,4.66s3.18,3.39,4.79,5.07a43.42,43.42,0,0,1,3.23,3.28c1.3,1.69,3.42,2.71,3.93,5.08a4.69,4.69,0,0,0,1.59,2.13,9.8,9.8,0,0,1,2.68,3.62A47.3,47.3,0,0,0,245.73,79c.84,1.42,1.54,2.93,2.34,4.38.72,1.3,1.49,2.57,2.25,3.86.05.09.15.15.19.24.61,1.57,1.18,3.15,1.83,4.7.54,1.32,1.2,2.59,1.77,3.89.34.77.6,1.58.92,2.36s.69,1.37.93,2.09.36,1.58.59,2.36c.28.93.63,1.85.95,2.78.05.14.22.28.21.4-.26,2.29,1,4.24,1.46,6.36.34,1.45.73,2.89,1,4.35s.37,3,.61,4.43c.18,1.1.44,2.18.68,3.27,0,.2.27.4.23.56-.81,3.85,1,7.54.6,11.42-.38,3.53-.06,7.12-.09,10.69a20.75,20.75,0,0,1-.24,2.61c-.39,2.79-.76,5.58-1.23,8.35-.34,2-.86,4-1.27,6-.11.5,0,1-.15,1.52-.34,1.36-.74,2.7-1.11,4.05-.11.4-.19.8-.28,1.19-.55,2.45-1,4.94-1.68,7.33a25.36,25.36,0,0,1-2,4c-.05.09-.14.17-.15.27-.37,2.69-1.81,4.89-3.12,7.18-.69,1.22-1,2.64-1.61,3.9-.7,1.43-1.54,2.79-2.33,4.17-1.07,1.88-2.1,3.77-3.24,5.61-.75,1.2-1.68,2.29-2.47,3.47-.65,1-1.15,2-1.83,2.92s-1.67,1.9-2.46,2.89c-.58.73-1.08,1.54-1.6,2.33a39.9,39.9,0,0,1-5.59,6.24c-1.6,1.58-3,3.41-4.57,5-1.17,1.15-2.6,2.05-3.88,3.1-.54.46-.93,1.11-1.49,1.54-1.37,1.06-2.82,2-4.19,3.07-1.16.9-2.17,2-3.37,2.82-2.11,1.48-4.3,2.85-6.47,4.24-1.89,1.22-3.76,2.48-5.71,3.57-1.4.79-3,1.29-4.4,2-1.27.66-2.45,1.48-3.66,2.23-.09.05-.16.14-.25.18l-4.45,1.6c-1.62.6-3.23,1.22-4.87,1.78-1.34.47-2.72.85-4.07,1.29-.77.25-1.52.55-2.27.84a7,7,0,0,1-1,.43,65.21,65.21,0,0,0-7.7,1.57,17.93,17.93,0,0,1-4.47,1.2c-1.18.07-2.38,0-3.55.16a27.38,27.38,0,0,0-2.93.64,4.25,4.25,0,0,1-.59.15c-6.75.22-13.5.44-20.26.61a17.17,17.17,0,0,1-2-.35c-1-.09-2-.1-3-.12-.52,0-1.16.23-1.53,0-2.19-1.31-4.64-.69-6.95-1.08a31.07,31.07,0,0,1-3.09-.9,8.05,8.05,0,0,0-1.79-.38,8.21,8.21,0,0,1-4.29-1c-.87-.55-2.2-.38-3.31-.57a12.21,12.21,0,0,1-1.78-.45c-.85-.28-1.68-.6-2.51-.92s-1.42-.54-2.11-.83c-.23-.1-.41-.35-.65-.42-1.69-.57-3.43-1-5.07-1.68S94.56,249,93,248.25c-1.17-.56-2.37-1.06-3.55-1.57-1.41-.62-2.84-1.17-4.21-1.86-1.08-.54-2.07-1.26-3.11-1.88-1.31-.79-2.63-1.55-3.93-2.36a14.09,14.09,0,0,1-1.87-1.38c-2-1.88-5-2.62-6.43-5.26a.46.46,0,0,0-.4-.19c-1.89.35-2.34-1.49-3.44-2.31A47.37,47.37,0,0,1,62,227.86c-1.12-1-2.16-2.16-3.23-3.24-1.3-1.3-2.63-2.55-3.88-3.9-1.56-1.69-3.06-3.43-4.55-5.18-1.29-1.52-2.58-3-3.77-4.62s-2.34-3.3-3.48-5c-.52-.76-1-1.56-1.5-2.33-1.29-2-2.69-3.82-3.83-5.84A43,43,0,0,1,36,193.4a27.46,27.46,0,0,0-1.73-3.53,19.83,19.83,0,0,1-2.63-5.67,37.82,37.82,0,0,0-2.3-5.63s-.07-.09-.08-.13l-1.65-6c-.39-1.4-.26-3-1.27-4.16a1.38,1.38,0,0,1-.2-.58c-.49-2.9-.94-5.8-1.48-8.69a5.63,5.63,0,0,0-.86-1.54l.31-.15c-.15-1.19-.32-2.38-.47-3.57s-.35-2.35-.39-3.53c-.13-3.56-.33-7.12-.25-10.68.11-5.1.22-10.21.75-15.28a99.67,99.67,0,0,1,2.15-10.44c.6-2.9,1.07-5.82,1.84-8.67.53-2,1.49-3.85,2.22-5.78.61-1.6,1.12-3.24,1.78-4.82.73-1.78,1.57-3.52,2.39-5.26.62-1.32,1.33-2.59,1.9-3.92,1-2.43,1.94-4.94,3.92-6.84a.92.92,0,0,0,.3-.52c.21-1.76,1.51-2.8,2.6-4a.94.94,0,0,0,.26-.55c0-1.68,1.42-2.41,2.32-3.5A17.49,17.49,0,0,0,47.2,67.5a19,19,0,0,1,4-4.72,9.31,9.31,0,0,0,1.54-2.23c1.42-2.41,3.66-4,5.61-5.93,1.14-1.11,2.19-2.3,3.34-3.4.74-.71,1.57-1.31,2.37-2a91,91,0,0,1,7.26-5.78c1.77-1.16,3.12-2.94,5.36-3.5.85-.21,1.48-1.34,2.2-2.06.11-.1.18-.28.3-.33,1.31-.55,2.66-1,4-1.61,1-.48,2-1.09,3-1.66C88.47,33,90.68,31.63,93,30.48a50,50,0,0,1,4.82-1.69c1.49-.56,3-1.22,4.42-1.81.73-.3,1.48-.57,2.22-.83.57-.2,1.15-.37,1.72-.57.82-.29,1.61-.63,2.44-.89,1.45-.44,2.91-.85,4.37-1.27,0,0,.09-.05.14-.06,2.64-.52,5.28-1.07,7.93-1.54,2.37-.42,4.74-.84,7.14-1.08,2.2-.23,4.43-.23,6.64-.32s4.76.47,6.94-1a1.59,1.59,0,0,1,1.48.11c1.34,1.17,2.94.81,4.44.86,2.84.11,5.69,0,8.52.16,1.25.07,2.47.61,3.72.79m11.22,169.54H157.64a1.17,1.17,0,0,1-.73-.18c-1.28-1.11-2.69-.66-4.11-.43a10.05,10.05,0,0,1-2.73.15c-1.83-.2-3.63-.6-5.46-.83-.91-.11-2.09.31-2.73-.12-1.66-1.13-3.26-.5-4.91-.38-.32,0-.89,0-1-.15-.49-1.11-1.44-.73-2.27-.84a15,15,0,0,0-3-.55c-1.77.12-3.31-.52-5-.91-2.83-.67-5.76-.92-8.59-1.6-.75-.17-1.73,0-2.13-.32-1.4-1.16-3-.74-4.56-1.07-.49-.11-.94-.37-1.42-.53-.7-.25-1.39-.49-2.1-.69-.44-.12-1,0-1.33-.26-1.34-1.27-3.06-1-4.65-1.37A19.63,19.63,0,0,1,95.37,179a8.78,8.78,0,0,0-3.57-1,4,4,0,0,1-1-.26c-1.85-.85-3.69-1.73-5.53-2.6-1.55-.74-3.14-1.4-4.63-2.24-1-.57-4.84-.91-5.7-.19a13.58,13.58,0,0,0-3,2.95c-.9,1.46-2.19,2.9-1.72,4.91a8,8,0,0,1,0,1.55c0,2.18.73,3,2.87,3.14a5.76,5.76,0,0,1,1.65.33c2,.76,3.86,1.74,5.88,2.3s4.21,1,5.8,2.92c.65.77.84,1.38.46,2-.5.78-1.34,1.84-2.07,1.87-1.12.05-2.61.66-3.52-.77-.12-.17-.59-.09-.89-.17-2.08-.54-4.15-1.09-6.23-1.65-.14,0-.25-.19-.39-.25-.72-.31-1.44-.64-2.18-.9-.9-.33-1.85-.53-2.72-.9s-1.27-.33-1.49.61a3.06,3.06,0,0,1-.59,1.51,7.39,7.39,0,0,0-2.18,4.07,13.45,13.45,0,0,0-.07,4,4,4,0,0,0,1,1.77A4.76,4.76,0,0,0,69.77,204a3.34,3.34,0,0,1,1.15.39c.79.3,1.56.62,2.36.88.44.14,1.12,0,1.33.27,1.55,1.94,4.55.2,6,2.4,0,0,.1,0,.15,0,1.42-.27,2.05.58,2.69,1.68s0,3.67-1.27,3.86c-1.67.25-3.47.68-4.91-.82-.22-.23-.66-.24-1-.33-2-.58-4.08-1.15-6.11-1.74-.15,0-.26-.2-.4-.24a32.71,32.71,0,0,0-3.5-.91c-1.07-.19-1.72.3-1.79,1.53a10.89,10.89,0,0,1-.6,2.23A15.2,15.2,0,0,0,66,215.73c1.64,1.25,2.35,3.71,4.88,3.82.16,0,.35.18.47.33a20.8,20.8,0,0,0,1.82,2.23c.72.66,1.78,1,2.4,1.7,1.35,1.55,4.81.37,4.72,3.69a.18.18,0,0,0,.09.12c1.58,1,3.16,2.08,4.72,3.14a13,13,0,0,0,1.69,1.33c1.4.65,2.86,1.14,4.3,1.7a4.22,4.22,0,0,1,.36.27c.56.33,1.11.68,1.69,1,.26.14.7.1.84.3,1.16,1.59,2.89,2,4.64,2.54,1.55.47,3,1.2,4.53,1.82.09,0,.16.14.25.18.84.31,1.66.65,2.51.92.43.14.92.1,1.34.26,2.08.81,4.09,1.83,6.23,2.43,2.63.74,5.35,1.13,8,1.65.76.15,1.53.22,2.3.34a100.24,100.24,0,0,0,10.43,1.58c4.6.21,9.23-.12,13.85-.22,1.47,0,2.95,0,4.41-.11,4.53-.53,9.06-1.14,13.58-1.73a1.26,1.26,0,0,0,.73-.21c1.13-1.17,2.61-1.1,4-1.24a6.5,6.5,0,0,0,1.52-.3c2.2-.77,4.38-1.56,6.57-2.37,2.94-1.09,5.89-2.15,8.8-3.33,1.92-.78,3.76-1.76,5.63-2.65a2.56,2.56,0,0,0,.4-.22c1.25-.81,2.47-1.66,3.74-2.44,1.07-.66,2.26-1.15,3.3-1.86,2.71-1.82,5.06-4.16,8.12-5.45a1.24,1.24,0,0,0,.36-.29c1.23-1.18,2.47-2.36,3.69-3.57.47-.47.8-1.14,1.34-1.49a8,8,0,0,0,3.18-3.66,35.28,35.28,0,0,1-4-2.85c-1.79-1.67-3.38-3.55-5-5.35a6.08,6.08,0,0,1-1.55-1.85,6,6,0,0,0-1.44-2.45,63.69,63.69,0,0,1-4.61-6c-.91-1.19-1.86-2.36-2.82-3.52-.46-.56-1-1-1.47-1.6-.66-.82-1.2-2.35-1.91-2.42-1.74-.18-2.28-1.7-3.5-2.39-2.68-1.53-5.22-3.34-7.91-4.86a33.84,33.84,0,0,0-4.45-1.78c-.14-.06-.33-.13-.38-.25-.73-1.6-2.35-1-3.53-1.36-.19-.07-.7.29-.78.55-.54,1.62-1.05,3.25-1.48,4.91C172.11,186.73,171.68,188.79,171.19,190.92Zm-9-134.3-.07.24a4,4,0,0,1,1.42-.2c2.53.62,5.07,1.27,7.58,2,2.05.59,4.08,1.27,6.1,2a31.81,31.81,0,0,1,3,1.18c.79.36,1.5.91,2.31,1.23a42.76,42.76,0,0,1,4.9,1.81c1.52.82,2.6,2.43,4.52,2.64.17,0,.32.22.49.34,1.64,1.19,3.15,2.7,5,3.5,2.15.94,3.59,2.59,5.29,4,1.18,1,2.07,2.64,3.38,3,2.19.65,3.11,2.54,4.68,3.75.88.68,1.26,2,1.95,2.94a20,20,0,0,0,1.73,2c1.18,1.3,2.49,2.5,3.54,3.89,1.22,1.6,2.23,3.36,3.3,5.07,1.4,2.24,2.81,4.48,4.14,6.76.68,1.18,1.17,2.46,1.8,3.68a35,35,0,0,1,2.06,3.86c.73,2,1.2,4.08,1.78,6.12.07.25.24.46.32.7.77,2.19,1.61,4.36,2.26,6.58.31,1.07-.07,2.4.41,3.33,1,2,1.07,4.15,1.15,6.32.06,1.92-.36,3.93.92,5.67.11.14,0,.53-.11.7-.62.81-.16,1.46,0,2.31a18.3,18.3,0,0,1,.07,7.33,33.67,33.67,0,0,0-.88,4.56c-.45,3.72-1,7.43-1.54,11.14,0,.14-.15.27-.2.41-.34,1-.68,2-1,3-.16.49-.23,1-.41,1.47a55.56,55.56,0,0,0-2.34,6.21c-.42,1.74-2.13,3-1.73,5,0,.07-.09.18-.14.26q-1.16,1.95-2.32,3.88a13.32,13.32,0,0,0-1.53,2.5,20,20,0,0,1-3.82,6.21c-.61.72-1.71,1.4-1.75,2.14-.1,1.7-1.74,2.09-2.29,3.34a3.22,3.22,0,0,1-1.22,1.45,2.34,2.34,0,0,0-1.14,3,8.94,8.94,0,0,0,1.3,2c1,1.61,1.49,3.64,3.88,3.83.21,0,.38.44.57.67.64.77,3.68,1.21,4.12.44,1.32-2.31,4.25-3.43,4.64-6.39,0-.15.3-.25.43-.39.71-.8,1.49-1.56,2.12-2.42,1.3-1.78,2.58-3.6,3.78-5.46a42.15,42.15,0,0,0,2.09-3.78c.67-1.33,1.22-2.71,1.91-4s1.62-2.5,2.21-3.84c.69-1.58,1.13-3.28,1.69-4.92a3,3,0,0,1,.18-.43c.81-1.85,1.77-3.66,2.41-5.58.72-2.17,1.1-4.45,1.73-6.66a24.94,24.94,0,0,0,1.45-6.79c0-1.55.85-2.94,1.11-4.41a37.36,37.36,0,0,0,.51-6.93c-.07-8.32-.24-16.64-.39-24.95,0-.36,0-.9-.2-1-1.65-1-.85-2.23-.23-3.42-.29-.35-.82-.68-.83-1a14.83,14.83,0,0,0-1.58-6.46,11,11,0,0,1-1.16-3.54,18.31,18.31,0,0,0-1.68-5.54,36.71,36.71,0,0,1-1.66-5.46A1.43,1.43,0,0,0,242,97c-.82-1.64-1.63-3.3-2.48-4.93-.74-1.43-1.5-2.86-2.31-4.26-1.08-1.85-2.21-3.68-3.33-5.51-.78-1.28-1.53-2.57-2.39-3.79-1.51-2.14-3.1-4.23-4.66-6.34a4.7,4.7,0,0,0-.5-.73c-1.05-1-2.6-1.6-2.61-3.41,0-.2-.23-.45-.41-.61-1.7-1.59-3.41-3.15-5.11-4.74s-3.05-3-4.63-4.35c-.63-.57-1.49-.88-2.14-1.43-1.75-1.45-3-3.5-5.45-4.08a1.09,1.09,0,0,1-.37-.26c-1.62-1.27-3.19-2.61-4.87-3.78a24.65,24.65,0,0,0-3.24-1.65l-.26-.17c-1.44-.86-2.86-1.78-4.34-2.57-1.2-.63-2.52-1.05-3.72-1.69s-2.51-1.63-3.85-2.29A14.75,14.75,0,0,0,181.43,39c-2.25-.4-4.07-2.16-6.47-2-.09,0-.18-.1-.27-.14l-4.57-1.69-.88.5,0-.41a15,15,0,0,0-2.34-.63c-3.23-.41-6.3-1.86-9.65-1.5-.14,0-.28-.16-.42-.18-.85-.15-1.69-.31-2.54-.42s-1.82-.15-2.72-.29a11.56,11.56,0,0,0-2.26-.44c-5.42.38-10.88-.79-16.29.76a25.06,25.06,0,0,1-7.65.61c-1.67,0-3.06,1.34-4.75.67-.85,1.26-2.17.59-3.28.8a11.42,11.42,0,0,0-2,.34c-1.85.69-3.63,1.56-5.5,2.19-2.23.74-4.53,1.3-6.79,1.94a4.16,4.16,0,0,0-.88.31c-1.88,1.12-3.73,2.3-6,2.55-.21,0-.39.25-.82.55a53,53,0,0,0,6.39,2c4,.71,8,1.13,12,1.68.25,0,.48.2.73.26,1.65.36,3.3.83,5,1.05,2.69.34,5.37.13,8.08,1.17a26.09,26.09,0,0,1,4.52,1.65c1,.6,1.8,1.54,3.09,1.6.09,0,.26.26.24.37-.29,1.84,1.28,2.3,2.29,3.11a35.74,35.74,0,0,0,5.93-.75c2.48-.72,4.7,1.48,7.12.34,0,0,.1,0,.15.05l2.26.11c.46,0,1-.16,1.37,0,1.7,1.11,3.59.65,5.41.82A11.05,11.05,0,0,1,162.17,56.62ZM55.45,161.75l-.37.06a5.09,5.09,0,0,0,.33-1.63c-.3-2.44-.68-4.86-1.07-7.28a15.93,15.93,0,0,1-.61-3.33c.35-5.28-.53-10.57.76-15.86.65-2.66.32-5.52,1.35-8.27S57,119.81,57.57,117c0-.29.12-.76.31-.83,1.18-.45.91-1.47,1-2.35a5.51,5.51,0,0,1,.51-1.58c.67-1.3,1.42-2.56,2.1-3.86.49-.94.93-1.9,1.36-2.87.69-1.57,1.27-3.21,2.06-4.74s2.38-2.5,2.54-4.37c0-.16.26-.3.39-.45,1-1.13,2.38-2,2.47-3.72a.9.9,0,0,1,.27-.53c1.19-1.26,2.43-2.48,3.61-3.74.56-.61,1.05-1.29,1.55-2a34.37,34.37,0,0,1,2.15-2.89,47,47,0,0,1,3.7-3.5c1-.87,2.13-1.6,3.2-2.39l1-.74c-.32-.2-.62-.42-1-.59A26.32,26.32,0,0,1,82,74.42c-.82-.56-.57-1.61.41-1.6a48.06,48.06,0,0,1,6.33.59c1.45.21,2.86.68,4.29,1,.44.11.9.13,1.33.25,1.48.38,2.94.83,4.43,1.15.85.18,1.78,0,2.61.24a7.5,7.5,0,0,0,4.26.3c1-.28,2.17.28,3.26.3,1.6,0,3.2-.08,4.8-.18.19,0,.33-.39.54-.52,1.17-.72.1-1.83.47-2.64a7.52,7.52,0,0,0,0-5.69c-.11-.36-.17-1.08,0-1.15,1.25-.58,1-1.66,1-2.67a1.46,1.46,0,0,1,.62-.89,10.32,10.32,0,0,1,1.38-.74l1.57,1.31a16.91,16.91,0,0,0-.79,2.44,17.69,17.69,0,0,1,0,2.31c-.91,3-.4,6,0,8.94,0,.41-.06.9.13,1.21,1.07,1.78,2.49,3.36,3,5.46,0,.12.2.22.32.31a26.34,26.34,0,0,1,2.2,1.86c1.57,1.63,2.9,3.48,5,4.55.74.38,1.38,1,2.09,1.42A44,44,0,0,0,135,94.25a10.84,10.84,0,0,0,3.58,1.28,26.8,26.8,0,0,0,5.66-.14c.84-.1,4.42-3.7,4.87-4.43a5.18,5.18,0,0,0,.15-.58c-4.16-1.91-8.73-1.64-13.33-2.6-.88-1.42-2-3.09-3-4.87-.7-1.34-2.12-2.37-1.76-4.24.19-1,.44-1.41,1.53-1.37,2.43.09,4.86.07,7.29,0a12.49,12.49,0,0,0,2.3-.46c-.36-.86-.66-1.43-.84-2-.6-2-1-4-1.75-6s-1.65-3.86-2.54-5.76-2-4-3-6A8.5,8.5,0,0,0,130,53c-.69-.32-1.8-.09-2.22-.56-1-1.12-2.16-.75-3.29-.87-1.33-.15-2.92.12-3.92-.53a5.74,5.74,0,0,0-3.13-.87c-2.15-.12-4.3-.17-6.45-.27-.19,0-.48-.11-.52-.24-.39-1.09-1.29-.8-2.09-.85-1-.07-2-.13-3.06-.3-2.25-.36-4.5-.72-6.73-1.2a47.81,47.81,0,0,1-5.79-1.51c-2.76-1-4.93.68-6.71,2-1.13.84-2.7.85-3.6,2.25s-2.8,1.6-4.07,2.84c-2.22,2.19-4.9,3.9-7.32,5.9-1.31,1.1-2.5,2.36-3.7,3.59s-2.18,2.31-3.27,3.47c-1.41,1.51-2.85,3-4.21,4.55-.59.68-1,1.53-1.55,2.23-1.39,1.72-3.38,3-4,5.34a1.11,1.11,0,0,1-.24.38,58.79,58.79,0,0,0-3.79,5c-1.24,2-2.19,4.2-3.26,6.31-.49,1-.73,2.26-1.5,2.85-1.64,1.25-1.18,3.3-2.27,4.8s-1.1,3.63-1.9,5.35c-.59,1.26-1.34,2.4-1.24,3.88,0,.21-.26.43-.35.66a29.06,29.06,0,0,0-1,3c-.27,1.14-.33,2.32-.59,3.46-.18.78-.59,1.5-.82,2.27a15.86,15.86,0,0,0-.42,2c-.35,1.91-.67,3.82-1,5.72-.19,1-.41,2-.6,2.93.07,1.77.15,3.55.21,5.33,0,.09-.11.17-.15.27a11,11,0,0,0-.82,2.47,29.38,29.38,0,0,0,0,4.5c.2,3.25-.75,6.63,1,9.72a1.87,1.87,0,0,1,.06.76c.1,2.57.18,5.15.32,7.72a9.82,9.82,0,0,0,.38,1.65c.34,1.43.69,2.87,1,4.31.28,1.23.5,2.48.86,3.69.61,2.11,1.33,4.18,2,6.27.6,1.93,1.14,3.88,1.73,5.82.05.17.29.27.39.44a8.15,8.15,0,0,1,.69,1.26c.59,1.53,1,3.12,1.72,4.6s1.64,2.87,2.42,4.33c1.14,2.15,2.13,4.39,3.37,6.48s2.55,3.81,3.87,5.69c.42.59,1.09,1,1.4,1.66s.24,1.37,1.19,1.78c.74.32,1.19,1.31,1.79,2a7.44,7.44,0,0,0,.73.62c.17-.28.46-.55.5-.84.15-1.5.28-3-.83-4.26a2.34,2.34,0,0,1-.45-1.43q-.06-3.25,0-6.51a4.68,4.68,0,0,1,.43-1.44c.24-.6.54-1.18.82-1.76.37-.75.77-1.49,1.14-2.25.67-1.36,2.32-2.18,2.22-4,0-.27.38-.56.53-.77-.6-1-1.2-1.92-1.7-2.89a34.52,34.52,0,0,1-2-4.12c-.69-1.86-1.17-3.8-1.76-5.7-.07-.23-.32-.39-.44-.6a3.7,3.7,0,0,1-.59-1.15c-.24-1.75-.31-3.52-1.37-5-.15-.22-.06-.6-.12-.9C55.83,163.39,55.64,162.57,55.45,161.75Zm100.37-18.47c-.15,0-.94.37-1.12.17-1-1.14-2.29-.68-3.47-.88-1.43-.24-2.84-.6-4.27-.9-.8-.16-1.6-.35-2.41-.47q-5-.76-10-1.48c-1.29-.19-2.95.13-3.81-.56-1.42-1.17-2.94-.58-4.35-1a33.44,33.44,0,0,0-4.34-1.24c-3.89-.6-7.82-1-11.72-1.58-1.12-.17-2.51.23-3.33-1.09,0-.05-1.21.31-1.3.64-.57,2.08-1.06,4.2-1.43,6.34-.15.84-.37,1.29-1.28,1.37a2.53,2.53,0,0,0-1.42.66,24.31,24.31,0,0,0-2,2.3c-1.34,1.65-3.67,2.48-4.06,4.92,0,.17-.26.29-.4.44a44.42,44.42,0,0,0-3.38,3.77,27.94,27.94,0,0,0-2,3.86c-.94,1.93-1.87,3.86-2.81,5.8-.09.18-.13.43-.27.54-1.51,1.14-.52,2.78-.82,4.15,0,.12.22.42.35.43A14.32,14.32,0,0,1,90.77,171a52.42,52.42,0,0,0,5.3,1.8c2.55.85,5.07,1.81,7.64,2.57,2.34.69,4.73,1.18,7.1,1.76.19,0,.35.23.54.28,1,.28,2,.57,2.94.78,1.15.23,2.35.28,3.48.59a49,49,0,0,0,5.3,1.63c2.89.43,5.69,1.53,8.69,1.22.13,0,.27.12.42.15,1.06.26,2.12.53,3.19.74.5.1,1.13-.09,1.51.15a6.36,6.36,0,0,0,5.12.47,5.72,5.72,0,0,0,2.15.73c3.35.17,6.7.21,10,.39.75,0,1.77.9,2.17.64a2.82,2.82,0,0,1,3.78.36c.1.08.3,0,.45,0,1.76,0,3.52.08,5.27,0,.38,0,.91-.66,1-1.11.37-1.33.57-2.71.85-4.07.34-1.68,1.07-3.38,1-5a72.59,72.59,0,0,0-1.23-8.79,23.57,23.57,0,0,0-1.07-3.66c-.27-.79-.69-1.53-1-2.3-.6-1.55-1.16-3.1-1.75-4.64,0-.12-.33-.14-.37-.25a15.56,15.56,0,0,1-1.37-4c-.11-1.36.55-2.77.7-4.18.21-1.84-.41-2.61-2.25-3-.69-.15-1.44,0-2.15-.18A22.87,22.87,0,0,1,155.82,143.28ZM143.58,115c.52.15,1.31.41,2.11.62a8.27,8.27,0,0,1,1.35.24,37.33,37.33,0,0,1,5,3.07c1.43,1,3.5,2.17,3.77,4.55.09.75.83,1.45,1.38,2.09.12.14.8.06,1-.14a16.06,16.06,0,0,0,2.39-2.78,8.75,8.75,0,0,0,1.54-3.73c.12-2.29-.39-4.61-.38-6.92,0-1.07.73-2.13.87-3.23s.58-1.69,1.83-1.65a7,7,0,0,0,2.11-.76,4.91,4.91,0,0,0,1.2,0,18.94,18.94,0,0,1,2-.57c1.49-.11,3,0,4.49-.16a1.68,1.68,0,0,0,1.13-1c.48-1.91,1.29-3.81.66-5.85a.92.92,0,0,1,.1-.75c1.58-1.88.57-4.06.73-6.1,0-.47-.33-1-.51-1.46a36,36,0,0,0-1.24,3.6c-.7,1.7-1.78,3.24-2.42,5-.31.81-.61,1.12-1.36,1s-1.62-.26-2.34-.38c.58-2.43,2.82-3.86,2.42-6.39-.05-.3.24-.65.37-1,.3-.77.6-1.55.89-2.33a18.15,18.15,0,0,0,.71-2A14.51,14.51,0,0,0,173.6,86a6.38,6.38,0,0,0-2.37-.08c-1.82.72-3.56,1.66-5.31,2.55-1.19.61-2.32,1.33-3.5,1.94a4.79,4.79,0,0,1-2.23.83c-.35,0-1-1.32-.82-1.89a3.64,3.64,0,0,1,1.54-2.07,34.57,34.57,0,0,1,4.15-1.74c.1,0,.22-.11.24-.19.34-1.23,1.47-.88,2.29-1.13.53-.16,1.08-.26,1.89-.46-2.38-1.22-3.61-1.08-4.95.41-.7-1.09-1.53-.8-2.5-.31a3.66,3.66,0,0,1-2.07.44c-2.28-.41-4,1.25-6,1.6a.82.82,0,0,0-.49.66,9.69,9.69,0,0,1-.8,5.47c-.57,1.34-1.06,2.71-1.73,4a5.36,5.36,0,0,1-1.76,2.3,34,34,0,0,1-4.71,1.76,3.89,3.89,0,0,1-.54.27,8.58,8.58,0,0,1-2.41.44c-1.37-.13-2.72-.74-4.07-.73-2.06,0-3.28-1.42-4.81-2.32-.52-.3-1.15-.68-1.33-1.18-.4-1.06-1.21-.82-1.93-.8-.26,0-.75.4-.73.56a4.24,4.24,0,0,0,.62,2.14c.69.74.68.92-.2,1.41a8.74,8.74,0,0,0-1.86,1.79c-.82.9-1.55,1.89-2.42,2.74-.68.67-1,2.13-.33,2.51a40,40,0,0,1,3.47,2.21c2.17,1.67,4.36,3.27,7.14,3.73.15,0,.35.05.43.16,1,1.21,2.43,1.17,3.84,1.2a11.67,11.67,0,0,1,1.8.41C141.81,114.77,142.48,114.83,143.58,115Zm18.67,24.91c1.35.17,2.07-.29,2.08-1.76a4.35,4.35,0,0,1,.53-1.58c.57-1.33.2-2.34-1.16-2.26-2.5.16-4.67-.95-7-1.41-.41-.08-1-.81-1-1.16.21-1.58.23-2.79-1.3-4-2.24-1.76-4.23-3.48-7.35-3.69a26.18,26.18,0,0,0-11.11,1.9,12.18,12.18,0,0,1-4.54,1.06c-4.6-.09-9.24.48-13.72-1.22a28.86,28.86,0,0,0-4.75-1c-.39-.08-.81,0-1.21,0-.58-.07-1.14-.23-1.72-.3a8.12,8.12,0,0,0-2.39-.16c-.25.05-.33,1-.48,1.59s-.26,1-.39,1.44-.55,1.31-.36,1.75,1,.65,1.55.79c.74.18,1.53.1,2.27.27,1.63.36,3.23.91,4.87,1.2,3.82.66,7.67,1.2,11.51,1.8a1.6,1.6,0,0,1,.75.15c1.74,1.28,3.75.79,5.66,1a7.81,7.81,0,0,1,1.37.21c1.4.38,2.81,1.18,4.17,1.1,1.63-.1,3.11,1.21,4.74.33.08,0,.26.12.4.17.93.31,1.84.66,2.78.89.6.15,1.25,0,1.84.17,1.81.41,3.59.92,5.4,1.31,1.24.28,2.5.41,3.75.63C159.07,139.27,160.66,139.58,162.25,139.88Zm-46.9-46.21-.44,0a14,14,0,0,0-.66-2.55,6.57,6.57,0,0,0-1.68-2.52c-.41-.31-1.52,0-2.17.35-1.33.67-2.51,1.65-3.85,2.31s-3,1.07-4.36,1.76a2.77,2.77,0,0,0-1,1.53,1.13,1.13,0,0,0,.48,1c1.36.66,2.75,1.25,4.17,1.78a1.44,1.44,0,0,1,.88,2,14.8,14.8,0,0,1-1.25,2.31c-1.3,2.46-2.64,4.89-3.84,7.39-.68,1.42-1.12,3-1.68,4.42-.07.19-.1.47-.24.54-1.49.79-1,2.34-1.33,3.55-.06.22.37.67.66.86a.84.84,0,0,0,.81-.16c.57-1,1.09-2,1.58-3,.66-1.4,1.22-2.86,1.93-4.25s1.56-2.6,2.26-3.94c.58-1.1,1.06-2.26,1.55-3.41.66-1.54,1.3-3.1,1.84-4.41.91.31,1.6.52,2.27.78a4.44,4.44,0,0,1,1.59.71,2.15,2.15,0,0,0,3.35.08c-.4-2.07-.77-4-1.14-6l-.42,0Zm19.72-13.33c.22.9.4,1.58.56,2.26.32,1.35,2,3.07,3.05,3.14,2.28.15,4.64-.36,6.81.84a1.3,1.3,0,0,0,1.17-.51,2.93,2.93,0,0,0-.33-1.58c-.12-.28-.55-.41-.74-.67a16.48,16.48,0,0,0-1.94-2.77,4.79,4.79,0,0,0-2.55-1,29.79,29.79,0,0,0-4.33,0A10,10,0,0,0,135.07,80.34Z"/>
    </g>
  </g>
</svg>
