<svg id="Livello_1" data-name="Livello 1" xmlns="http://www.w3.org/2000/svg" viewBox="0 0 283.46 283.46">
  <defs>
    <style>
      .cls-1 {
        fill: #fff;
      }

      .cls-2, .cls-3 {
        fill: #45a041;
      }

      .cls-2 {
        stroke: #45a041;
        stroke-linecap: round;
        stroke-linejoin: round;
        stroke-width: 4.51px;
      }
    </style>
  </defs>
  <title>icon</title>
  <g>
    <g>
      <path class="cls-1" d="M239.91,76.47c-27-35.47-55.15-57.94-109-52C75.88,29,39.3,61,21.9,113.58c-17.23,52,19.54,111.33,57,130.87,15.4,8,30.93,12.91,47.71,13.92,33.57,2,58.95-4.1,87.14-23.52s53.62-53.13,51-91.12Q262.16,105.77,239.91,76.47Z"/>
      <path class="cls-2" d="M144.89,261.32c-11-.17-23.16-1.85-35.45-3.69-10.15-1.51-19.08-5.68-28.25-9.25-5.51-2.15-10.28-6.42-14.87-10.3-7.51-6.36-14.69-13.09-21.83-19.84S34.35,202.7,30.13,194.46c-3.27-6.38-6.27-12.89-9.28-19.39a55.08,55.08,0,0,1-4.67-31.48c.92-6.59.63-13.34,1.28-20a41,41,0,0,1,2.39-9.87c2.7-7.51,5.35-15.06,8.68-22.33S35.27,76.7,40,70.22C46.74,60.84,55.76,53.45,65.68,47a182.74,182.74,0,0,1,28.77-14.9,113.36,113.36,0,0,1,38.05-8.76c7.38-.43,14.81-1.5,22.14-1.08,6.39.37,12.77,2.11,19,3.84,5.56,1.54,10.91,3.85,16.31,5.9a75.34,75.34,0,0,1,23.3,13.58C225,56,237.12,66.26,245.86,79.5c2.06,3.12,5,5.69,7.13,8.8a62.12,62.12,0,0,1,6.44,11.55c2.45,6.25,5,12.63,6.06,19.17,2.3,14.65,3.63,29.45.65,44.22-1.39,6.87-2.46,13.9-4.86,20.45a58.3,58.3,0,0,1-9,16.07c-11.38,14.24-23,27.91-36.74,40-15.94,14.08-37.78,18.1-58.55,21C153.48,261.25,149.91,261.11,144.89,261.32ZM262.68,135.8c-.12-1.53-.2-3.06-.36-4.59-1.64-15.92-5.35-31.13-16.07-44-6.64-8-12.94-16.2-19.88-23.9-4-4.45-9.3-7.8-13.46-12.14-6.2-6.47-13.85-10.84-21.91-14.4a200.75,200.75,0,0,0-25.59-9.17,55.38,55.38,0,0,0-28-1.1c-4.65,1.06-9.43,1.63-14.17,2.27-3.34.45-6.85.22-10.07,1A169.39,169.39,0,0,0,69.08,48C52,58,40.06,72.59,32.1,90.1,29,97,26.85,104.32,24.23,111.43c-2.13,5.82-3.77,11.68-3.84,18-.09,7.11-.28,14.26-1.08,21.33a37.82,37.82,0,0,0,3.77,21.07C29,184,35.23,196.08,41.62,208.07a35.22,35.22,0,0,0,6.87,9c6.75,6.35,13.9,12.29,20.81,18.47a69.81,69.81,0,0,0,31.58,16.2c8.07,1.82,16.26,3.1,24.4,4.59a100.22,100.22,0,0,0,31.62.75c21.46-2.95,43.4-8.59,59.14-23.5,10.47-9.92,19.09-21.17,28.74-32,8.5-9.52,13.71-20.08,15.56-32.35C262,158.15,264.39,147.11,262.68,135.8Z"/>
    </g>
    <path class="cls-3" d="M206.34,173.28c-1.85-1.65-3.88-3.38-5.83-5.2-1.35-1.27-2.54-2.73-3.91-4a37.12,37.12,0,0,0-3.14-2.24,28.28,28.28,0,0,1-2.41-1.93c-2-1.84-3.9-3.71-5.79-5.62a1.37,1.37,0,0,1-.23-1.25,10,10,0,0,0,1.37-6,7.73,7.73,0,0,0-.59-1.94c-.07-.19-.35-.38-.32-.53.45-2.51-1.38-4.16-2.46-6-.79-1.35-2.32-2.26-3.47-3.41-1.3-1.31-2.55-2.67-3.81-4-.14-.16-.23-.45-.38-.48-3.41-.69-4.79-3.81-7.05-5.86-1.78-1.61-3.7-3.06-5.48-4.67-1.18-1.07-2.22-2.29-3.33-3.42-1.3-1.32-2.56-2.68-3.93-3.91-2.2-2-4.69-3.53-6.65-5.82s-4.46-3.94-6.46-6.12a6.84,6.84,0,0,1-1.39-3.72,10.06,10.06,0,0,0-.85-2.76c-.74-1.78-1-3.77-1.66-5.59a55.48,55.48,0,0,0-2.41-5.27c-.65-1.34-1.35-2.66-2.11-3.94a10.26,10.26,0,0,0-1.22-1.35c-1-1.13-1.94-2.32-3-3.41-1.21-1.28-2.48-2.49-3.76-3.69-.74-.7-1.62-1.26-2.34-2-1.26-1.27-2.44-2.63-3.66-3.93S117.41,62.38,116,61c-.39-.38-1.14-.37-1.56-.73q-2.16-1.83-4.18-3.81c-1.64-1.58-3.2-3.25-4.83-4.85-1.93-1.89-3.66-4.14-5.93-5.48-1.65-1-1.37-2.34-1.93-3.53a1.23,1.23,0,0,1,.36-1.12,2.37,2.37,0,0,1,1.76,0,20.09,20.09,0,0,1,2.61,2.21c1.69,1.55,3.4,3.08,5,4.67,2,2,4,4,6,5.91a7.55,7.55,0,0,0,2,1c.73-.22,1.5-.48,2.28-.7a36.53,36.53,0,0,1,4.41-1.12c2.56-.35,5.16-.46,7.73-.77,2.4-.28,4.78-.69,7.17-1,.77-.11,1.54-.15,1.8.88,0,.19.42.39.65.4,1.82,0,2.55,1.57,3.62,2.64,1.26,1.26,2.6,2.45,3.88,3.7,2.28,2.24,4.48,4.57,6.83,6.75,1.33,1.24,2.87,2.24,4.31,3.35a23.32,23.32,0,0,1,2.59,2c1.66,1.69,2.95,3.88,4.87,5.13,2.79,1.8,4.57,4.54,7.11,6.55,1.34,1.07,2.67,2.08,4.08,3.05a28.53,28.53,0,0,1,3.53,3.51c1.2,1.17,2.43,2.3,3.64,3.44,1.36,1.28,2.68,2.61,4.1,3.82,1.61,1.39,2.54,3.54,4.93,4.11.8.19,1.42,1.2,2.07,1.88,1.63,1.67,3.17,3.43,4.86,5,1.24,1.18,2.72,2.09,4,3.27s2.38,2.71,3.67,4c.63.62,1.57.92,2.23,1.52,2.2,2,4.31,4.09,6.49,6.1,1.22,1.12,2.54,2.11,3.76,3.22s2.47,2.48,3.78,3.63c1.09,1,1.75,2.43,3.49,2.71.67.1,1.24,1,1.8,1.58a64,64,0,0,0,5.32,5.47c2.37,1.91,2.64,4,1.7,6.66a2,2,0,0,0,.14,1.27c.41,1.09.85,2.12-.08,3.19a1.13,1.13,0,0,0-.11.94c1.13,3.09-1,6-.5,9.07.06.38-.67,1.16-1.17,1.32-1.4.45-2.9,1.15-4.32.13-1-.72-1.81-1.71-2.82-2.43-3.1-2.18-5.21-5.45-8.12-7.71-1.93-1.49-3.53-3.27-5.4-4.79a38.52,38.52,0,0,1-3.56-3.76c-.24-.25-.56-.63-.82-.62-1.7.1-2.39-1.4-3.25-2.29a57.37,57.37,0,0,0-7.31-6.71c-1.32-1-2.25-2.41-3.46-3.53-1.62-1.51-2.68-3.68-5.16-4.25-.68-.16-1.19-1.08-1.78-1.64-1.52-1.44-3.09-2.85-4.57-4.34-1.76-1.76-3.41-3.63-5.18-5.36-1.2-1.17-2.77-2-3.74-3.34-1.17-1.59-2.93-2.16-4.34-3.29s-2.33-2.61-3.59-3.82-2.77-2.33-4.1-3.55-2.27-2.29-3.4-3.43a28.53,28.53,0,0,0-6.49-5.4A7.94,7.94,0,0,1,151,90.09c-1.67-1.75-3.25-3.59-5-5.3-1.18-1.16-2.57-2.12-3.79-3.24-.84-.77-1.56-1.67-2.36-2.48a3.82,3.82,0,0,0-.87-.53c-.15.3-.49.66-.42.9a14.83,14.83,0,0,0,.88,2.06c.09.18.33.31.37.5.45,2.26,1.79,4.11,3,6a16.44,16.44,0,0,0,2.65,2.46c1.19,1.11,2.35,2.26,3.57,3.35,2.18,2,3.73,4.56,6.69,5.77,1.42.58,2.39,2.26,3.59,3.41,1.41,1.34,2.88,2.62,4.28,4,1.15,1.11,2.25,2.28,3.37,3.42a47.1,47.1,0,0,0,3.65,3.69c2.34,1.92,4.92,3.48,6.86,6,1.43,1.81,3.55,3.08,5.34,4.63.67.57,1.26,1.23,1.89,1.84,1.45,1.42,2.86,2.89,4.38,4.23,1.84,1.62,3.84,3.06,5.65,4.71,1.26,1.16,2.29,2.57,3.49,3.82.59.6,1.35,1,2,1.6A44,44,0,0,0,204.5,145c1.72,1.24,2.52,3.63,5.05,3.93.63.07,1.2.9,1.74,1.45,1.53,1.55,3,3.17,4.55,4.69,1,1,2.13,1.75,3.14,2.69s2.12,2.16,3.2,3.24c.89.88,1.86,1.7,2.68,2.64a2.06,2.06,0,0,1,.37,1.54,1.85,1.85,0,0,1-1,1.16c-1.92.67-4,1-5.81,1.84-2.71,1.17-5.28,2.65-7.94,3.93a14.28,14.28,0,0,1-2.05.47C207.74,172.73,207.08,173,206.34,173.28Z"/>
    <path class="cls-3" d="M93.39,225.31l1.21-.45,6.48-2.61c1.74-.69,3.5-1.32,5.22-2.05,1.94-.83,3.83-1.76,5.76-2.6.43-.19,1-.18,1.4-.33.75-.26,1.47-.56,2.2-.86.54-.22,1.06-.45,1.59-.69.7-.32,1.38-.68,2.09-1,.48-.2,1-.29,1.5-.47.84-.32,1.67-.66,2.48-1,.29-.12.52-.47.79-.5a5.79,5.79,0,0,0,3.14-1.21c1.34-1,3.25-1.17,4.88-1.81,2.12-.82,4.19-1.75,6.29-2.62,1.51-.63,3.05-1.18,4.55-1.84,1.82-.8,3.61-1.67,5.41-2.51a2.09,2.09,0,0,1,.28-.17c1.76-.58,3.52-1.14,5.27-1.73.55-.18,1.09-.43,1.62-.65.78-.32,1.56-.62,2.32-1s1.24-.64,1.86-1c.13-.08.24-.24.38-.28,1.84-.58,3.71-1.1,5.53-1.74.64-.23,1.12-.86,1.75-1.14,1.35-.59,2.76-1.07,4.14-1.6,2.92-1.13,6-2,8.7-3.5a25.3,25.3,0,0,1,3.83-1.33c1.66-.63,3.24-1.48,4.85-2.25.19-.09.34-.29.54-.36,1.79-.59,3.59-1.14,5.37-1.75a13.7,13.7,0,0,0,1.42-.74c.61-.29,1.24-.52,1.85-.8s1.17-.55,1.74-.85c.18-.1.32-.38.49-.39a14.76,14.76,0,0,0,4.32-1.35q4.8-1.83,9.38-4.09c.43-.21.9-.32,1.35-.51,2.08-.89,4.16-1.8,6.25-2.66.54-.23,1.15-.28,1.7-.49s1.35-.65,2-1c0,0,.06-.1.11-.11,2-.68,4-1.4,6-2,1-.28,1.51.31,1.3,1.26-.34,1.55-.83,3.07-1.25,4.6a15.27,15.27,0,0,1-.39,1.55,16.32,16.32,0,0,1-.83,1.81c-.13.28-.42.53-.45.81-.24,2.35-1.62,4.13-2.8,6a39.44,39.44,0,0,0-1.87,4.36,19.55,19.55,0,0,1-1.67,2.91c-1.23,1.79-2.55,3.51-3.81,5.28-.58.81-1.1,1.66-1.61,2.51a30.51,30.51,0,0,1-5.82,6.6c-1.82,1.65-3.38,3.58-5.08,5.35a58.64,58.64,0,0,1-4.56,4.5c-1.55,1.27-3.36,2.24-5,3.37-.67.46-1.28,1-1.93,1.51a39,39,0,0,1-3.52,2.65c-1.12.68-2.48,1-3.59,1.69s-2,1.17-3,1.76c-2.08,1.23-4.4,1.82-6.48,2.91a47.47,47.47,0,0,1-8.79,3.06c-2.67.79-5.25,2-8,2.49-3.95.79-8,1.14-12,1.72-1.79.26-3.56.63-5.35.91a11.34,11.34,0,0,1-1.75.09c-1.48,0-3-.11-4.43,0-1.13.06-2.3.75-3.17-.65-.17-.28-.89-.27-1.36-.31-3.21-.25-6.45-.3-9.61-.8a70.58,70.58,0,0,1-7.3-2c-.73-.19-1.53-.09-2.26-.28-1-.29-2.06-.74-3.1-1.1a6,6,0,0,0-1.24-.34c-1.26-.16-2.66.12-3.47-1.26,0,0-.09-.05-.14-.07-1.78-.59-3.58-1.12-5.33-1.78A20.38,20.38,0,0,1,98,228.72C96.52,227.77,95.12,226.6,93.39,225.31Z"/>
    <path class="cls-3" d="M152.34,195.62c-3.29,1.37-6.17,2.5-9,3.76-1.76.79-3.41,1.82-5.14,2.68a7.92,7.92,0,0,1-1.43.22c-.54.15-1.06.4-1.6.6a14.17,14.17,0,0,1-2.3.85c-.85.17-1.77.18-2-1,0-.13-.33-.31-.51-.32-2.59-.1-3.38-2.58-5-3.87a65,65,0,0,1-5.64-5.12c-1.25-1.22-2.35-2.6-3.59-3.84a30.83,30.83,0,0,0-3.94-3.56,22.42,22.42,0,0,1-4.89-4.23,34.61,34.61,0,0,0-3.4-3.34c-1.44-1.39-2.87-2.79-4.34-4.15-1.74-1.6-3.64-3-5.24-4.78a22.89,22.89,0,0,0-4.43-3.32,22.08,22.08,0,0,1-3.35-3.41,29.42,29.42,0,0,0-5.72-5.3c-1.31-.82-2.25-2.23-3.38-3.35-1.6-1.57-2.66-3.76-5.25-4.21-.65-.11-1.17-1-1.73-1.64-1.65-1.75-3.25-3.57-5-5.27-1.16-1.15-2.51-2.1-3.7-3.22a52.39,52.39,0,0,0-4-4c-1.64-1.23-2.47-3.41-4.83-3.85-.82-.16-1.48-1.23-2.19-1.91-.88-.82-1.77-1.64-2.58-2.53a1.39,1.39,0,0,1-.3-1.09c.3-1.22.78-2.39,1.06-3.61.68-3,1.2-6,2-8.94a13.61,13.61,0,0,1,1.7-3,5.9,5.9,0,0,0,.61-1.13c.63-2.06.09-3.12-1.59-4.5-2-1.66-3.85-3.53-5.74-5.34a9.28,9.28,0,0,1-1.58-1.8c-.47-.79-.35-1.82.59-2s2.24,0,2.57.6c1.14,1.87,3.08,2.66,4.61,4a25.76,25.76,0,0,1,2.68,2.12,34.66,34.66,0,0,0,6,5.57c1.33.93,2.25,2.45,3.37,3.68A11.08,11.08,0,0,0,66,114c1,.7,1.74,1.92,3.29,1.94.57,0,1.18.89,1.69,1.45,1.12,1.24,2.14,2.57,3.3,3.77s2.42,2.24,3.65,3.34a11,11,0,0,1,2,1.66c1.18,1.68,3.26,1.9,4.67,3.14a14.44,14.44,0,0,0,6.13,3.1A63.13,63.13,0,0,1,96.93,135a15.71,15.71,0,0,0,2.09.25c.93.22,1.84.59,2.77.81.65.15,1.45-.05,2,.26a23.41,23.41,0,0,1,6.69,5.86,30.82,30.82,0,0,0,3.51,3.22c.53.48,1,1.06,1.53,1.51,2.09,1.66,4.32,3.16,6.28,4.95,1.74,1.59,3.17,3.5,4.78,5.23.52.57,1.21,1,1.76,1.51,2.05,2,4,4.07,6.11,6,1.38,1.25,3,2.24,4.43,3.44s2.73,2.41,4.07,3.64,2.77,2.63,4.2,3.88c3.28,2.88,7.3,3.37,11.35,2.86,1.87-.23,3.7-1.45,5.37-2.5a2.45,2.45,0,0,1,3.29.37c1.17,1.29,2.52,2.4,3.77,3.62s2.42,2.47,3.62,3.71c0,0,0,.1.07.15l1.37,1.69c-1,.62-2.07,1.28-3.14,1.86-.76.42-1.57.74-2.37,1.1-1.35.6-2.68,1.26-4.07,1.79-1.69.64-3.44,1.13-5.14,1.76-1,.38-1.94,1-2.94,1.35-2.14.81-3.5-.52-4.81-1.88s-2.43-2.61-3.68-3.87c-2.16-2.16-4.89-3.59-6.93-6s-4.72-4.14-7-6.3c-1.77-1.68-3.27-3.65-5-5.32-1.43-1.33-3.12-2.39-4.69-3.58a19.1,19.1,0,0,1-2.27-1.8c-1.62-1.72-2.87-4-4.79-5.18-2.83-1.77-4.41-4.72-7.12-6.53a11.14,11.14,0,0,1-2-2.3c-.11-.12-.23-.31-.35-.31-2.65,0-3.27-2.67-5.07-3.81a20.5,20.5,0,0,1-2.83-2.54c-.54-.52-1-1.11-1.55-1.64l-3.77-3.71c-.08-.08-.15-.19-.24-.22-2.09-.58-4.17-1.18-6.27-1.69-.3-.07-.71.31-1.07.48a3.84,3.84,0,0,0,.56.89c1.37,1.27,2.79,2.49,4.15,3.75q2.71,2.52,5.37,5.08c1.32,1.27,2.51,2.69,3.92,3.84,1.65,1.34,2.62,3.46,5,4,.78.19,1.42,1.1,2,1.75,2.16,2.25,4.22,4.6,6.44,6.78,1.2,1.19,2.72,2.05,3.95,3.2s2.26,2.64,3.54,3.79c1,.86,1.58,2.14,3.17,2.36a4.77,4.77,0,0,1,2.3,1.64c1.2,1.24,2.17,2.69,3.42,3.88s2.89,2.24,4.26,3.45c1.11,1,2,2.17,3.1,3.23,1.37,1.37,2.79,2.69,4.19,4,2.08,2,4.83,3.28,6.47,5.81C151,195,151.6,195.19,152.34,195.62ZM88.58,136.25l0-.71H86.47c.06.28.11.82.18.82C87.29,136.37,87.94,136.3,88.58,136.25Z"/>
    <path class="cls-3" d="M235.26,127.19l-.84,1.06c1,.85,1.66,4.45.93,5.37a1,1,0,0,1-.9.11c-1.22-1.32-2.29-2.78-3.57-4s-2.65-2.15-4-3.23c-1-.78-1.95-1.56-2.88-2.38-2-1.77-4.06-3.53-6-5.39-1.25-1.19-2.23-2.68-3.54-3.78-1.53-1.28-2.43-3.38-4.72-3.72a1.59,1.59,0,0,1-.79-.49c-1.43-1.38-2.86-2.76-4.26-4.17-2.22-2.25-4.36-4.58-6.64-6.76-1.36-1.3-3-2.35-4.39-3.58s-2.87-2.64-4.31-4c-1.72-1.55-3.46-3.08-5.19-4.62-.68-.61-1.38-1.2-2-1.87-1.69-1.77-3.36-3.58-5-5.37-.14-.15-.34-.35-.51-.35-1.9,0-2.58-1.61-3.65-2.75s-2.6-2.31-3.87-3.49-2.56-2.52-3.86-3.76-2.39-2.28-3.62-3.37q-3.31-3-6.68-5.89c-1.86-1.62-3.77-3.18-5.61-4.82-1.11-1-2.15-2-3.18-3.06-.16-.16-.26-.64-.18-.71.3-.24.71-.55,1-.51,1.65.19,3.28.51,4.92.74,1.88.26,3.78.41,5.64.74,1.63.28,3.21.81,4.82,1.12,1.06.21,2.18.13,3.22.37a16.08,16.08,0,0,1,2.58,1,6.05,6.05,0,0,0,.55.32c2.2.63,4.43,1.17,6.59,1.91a42.14,42.14,0,0,1,4.15,1.94,4.66,4.66,0,0,0,.68.4c1.82.65,4,.89,5.39,2s2.89,1.09,4.09,2.4c1.4,1.53,3.71,2.19,5.51,3.4s3.17,2.44,4.75,3.67a7.93,7.93,0,0,0,.86.67,14.89,14.89,0,0,1,5,4.25,7,7,0,0,0,1.7,1.35A19.09,19.09,0,0,1,212,82.67c.9,1.35,2.4,2.29,3.62,3.42a1.74,1.74,0,0,1,.51.78c.54,2.25,2.47,3.47,3.78,5.15.16.2.45.33.53.55.94,2.66,2.73,4.78,4.32,7,.92,1.3,1.27,3,2,4.43s1.56,2.87,2.35,4.31c.12.23.33.46.34.7,0,1.47.82,2.58,1.45,3.84,1,1.93,1.18,4.2,2,6.23a26.64,26.64,0,0,1,1.62,7C234.45,126.45,234.91,126.76,235.26,127.19Z"/>
    <path class="cls-3" d="M47.12,132.5c1.71,1.68,3.37,3.41,5.14,5,.86.78,2,1.25,2.85,2,1.45,1.27,2.78,2.66,4.17,4,.7.68,1.39,1.38,2.12,2,1.81,1.61,3.72,3.11,5.43,4.8s3.21,3.53,4.81,5.3c.11.11.26.27.38.26,2-.06,2.73,1.6,3.9,2.72,2.37,2.25,4.87,4.35,7.24,6.6,1.66,1.58,3.12,3.36,4.78,5,1.32,1.26,2.8,2.35,4.19,3.54s3,2.62,4.5,4c1.72,1.6,3.39,3.26,5.09,4.9a56.21,56.21,0,0,0,4.26,4.06c1.61,1.25,2.5,3.35,4.78,3.88.76.17,1.39,1.07,2,1.7,2.14,2.18,4.2,4.43,6.38,6.56,1.27,1.25,2.74,2.3,4.07,3.5q1.65,1.47,3.17,3.1a1.14,1.14,0,0,1-.07,1.08,14.45,14.45,0,0,1-3.39,1.57,16.39,16.39,0,0,0-6,2.7,2.88,2.88,0,0,1-1.22.39c-1,.17-2.17-.08-2.79,1.18-.12.24-.81.17-1.21.31a10.27,10.27,0,0,0-2.29.93,2.51,2.51,0,0,1-3.63-.42c-1.29-1.28-2.84-2.3-4.19-3.53-1.13-1-2.1-2.26-3.22-3.31-2-1.82-4-3.57-6-5.36-1.49-1.35-3-2.75-4.45-4.1s-2.73-2.36-4.05-3.59-2.36-2.38-3.58-3.53c-1.43-1.35-2.9-2.66-4.36-4l-4.52-4c-1.83-1.63-3.67-3.25-5.48-4.91-.75-.69-1.41-1.48-2.12-2.22s-1.23-1.32-1.87-1.95c-1.39-1.38-2.8-2.74-4.2-4.11-.19-.17-.39-.42-.61-.46-2.42-.41-3.43-2.59-5-4-1.38-1.23-2.69-2.52-4-3.79-.18-.18-.46-.35-.5-.57a38.31,38.31,0,0,1-1.42-6.77c-.22-5-.12-10,0-15a27,27,0,0,1,.7-3.35,6.91,6.91,0,0,0-.19-1.67Z"/>
    <path class="cls-3" d="M88.08,222.11c-.76-.4-1.6-.78-2.37-1.27-2-1.29-4.1-2.54-6-4a44.67,44.67,0,0,1-3.64-3.52c-1.31-1.27-2.67-2.49-4-3.78-1.16-1.15-2.23-2.39-3.42-3.52-1.7-1.62-2.43-3.95-4.39-5.44-1-.74-1.24-2.38-1.92-3.56-.37-.64-1-1.13-1.4-1.75-1.34-2-2.65-4-4-5.95a7.92,7.92,0,0,1-.37-.71c-.85-1.71-1.71-3.41-2.52-5.13-.23-.47-.27-1-.48-1.52-.33-.75-.74-1.46-1.08-2.2-.18-.38-.27-.8-.42-1.19-.38-1-.78-2-1.14-3-.18-.5-.25-1-.42-1.53a21.87,21.87,0,0,1-.86-2.29c-.27-1.18-.39-2.4-.57-3.61.42,0,1.07-.21,1.23,0a29.22,29.22,0,0,0,6.94,6c1.39.9,2.31,2.51,3.55,3.68,1.8,1.7,3.75,3.25,5.56,4.95,1.28,1.2,2.34,2.64,3.67,3.78,1.56,1.32,2.53,3.32,4.75,3.93A5.81,5.81,0,0,1,77,192.24c2.15,2.18,4.19,4.47,6.4,6.6,1.82,1.76,4,3.19,5.67,5.06a43.91,43.91,0,0,0,5.65,4.67,61.4,61.4,0,0,1,5.22,5.35c.32.33.89.46,1.12.82.65,1,0,1.72-.87,2.55-1.23,1.18-2.73,1-4.08,1.54-1.62.62-3.11,1.58-4.7,2.28A30.14,30.14,0,0,1,88.08,222.11Z"/>
    <path class="cls-3" d="M182.33,157.56c1.79,1.58,3.36,2.87,4.81,4.28s2.53,2.78,3.87,4.09c.55.54,1.41.74,2,1.26,2.31,2.11,4.27,4.86,6.93,6.3,2.84,1.52.84,1.78-.1,2.58-.24.21-.47.61-.7.62-1.36,0-2.34.8-3.48,1.37a60.67,60.67,0,0,1-5.87,2c-1.37.51-2.65,1.26-4,1.82a17.58,17.58,0,0,1-3.15,1,2.53,2.53,0,0,1-2.67-1.17c-1.15-1.4-2.93-2.27-4.38-3.44-.87-.71-1.61-1.57-2.43-2.35-1.47-1.41-2.95-2.8-4.56-4.33Z"/>
    <path class="cls-3" d="M116.19,142.94a8.2,8.2,0,0,0-1.42-1.42c-2.52-1.42-1.46-2.58.07-4,1.88-1.76,3.55-3.75,5.32-5.64s3.3-3.58,5-5.3c1.24-1.24,2.84-2.2,3.85-3.59,1.17-1.62,3.31-2.41,3.75-4.67.15-.71,1-1.3,1.61-1.88,1.27-1.24,2.63-2.39,3.86-3.67,1.73-1.81,3.37-3.71,5.07-5.55.18-.19.71-.36.8-.27,1.07,1.07,2.1,2.18,3.11,3.31a.59.59,0,0,1-.09.58c-1.2,1.13-2.46,2.2-3.64,3.35s-2.39,2.45-3.57,3.69q-2.6,2.73-5.17,5.49c-1.2,1.28-2.37,2.6-3.59,3.87s-2.31,2.28-3.46,3.43c-1.52,1.53-3.21,2.86-4.36,4.79a27.55,27.55,0,0,1-3.56,4c-.74.81-1.49,1.6-2.26,2.38C117.21,142.18,116.82,142.44,116.19,142.94Z"/>
    <path class="cls-3" d="M88.58,136.25c-.64.05-1.29.12-1.93.11-.07,0-.12-.54-.18-.82h2.08Z"/>
    <path class="cls-3" d="M180.6,140.94c-1.28-1.4-2.5-2.84-3.83-4.19s-2.55-2.42-3.88-3.56c-1.7-1.45-2.64-3.84-5.22-4.2-.18,0-.36-.21-.5-.35-.86-.87-1.68-1.77-2.55-2.62-1.64-1.62-3.3-3.2-5-4.81-1.31-1.28-2.6-2.59-3.92-3.87s-2.95-2.78-4.56-4.29l-4.61,4.9c.87.93,1.58,1.63,2.19,2.39a1.39,1.39,0,0,1,.23,1,6.42,6.42,0,0,1-.71,2.44c-1.41,2-1.22,5.26-4.6,5.59a.41.41,0,0,0-.25.18c-.92,1.68-2.86,1.61-4.29,2.38-1.79,1-4,1.12-5.85,2-1,.49-1.8,1.38-3,1.36-.09,0-.19.11-.26.18-1.19,1.34-2.31,2.73-3.57,4-2.21,2.22-4.5,4.36-6.72,6.5a12.11,12.11,0,0,0,1.59,2.33c1.31,1.13,2.82,2,4.12,3.15,1.47,1.28,2.81,2.71,4.19,4.08,1.12,1.12,2.17,2.31,3.33,3.37,1.85,1.7,3.8,3.28,5.64,5,1.3,1.2,2.47,2.54,3.72,3.79.58.57,1.21,1.49,1.86,1.52,1.7.08,2.33,1.48,3.1,2.41a9.85,9.85,0,0,0,4.55,3.3c4.37,1.29,8.6.68,12-2.7,2.52-2.47,5-4.93,7.48-7.47,2.23-2.32,4.36-4.74,6.53-7.12a15.28,15.28,0,0,1,1.45-1.65c1.44-1.18,2.9-2.29,2.89-4.43,0-.37.39-.72.56-1.1a4,4,0,0,0,.55-1.42A10.72,10.72,0,0,0,180.6,140.94Zm-7.77,9.65c0,.33-.39.64-.59,1-.26-.28-.71-.54-.75-.86-.31-2.59-2.16-4.33-3.55-6.3-.27-.39-1.38-.18-2.11-.24,0,.78-.34,1.69-.05,2.31.52,1.08,1.59,1.9,2.11,3a30.26,30.26,0,0,1,2.08,5.43c.27,1-.62,1.42-1.52,1-1.35-.55-2.78-.92-4.16-1.39-.86-.3-1.7-.66-2.55-1-.45-.17-.91-.3-1.35-.5s-1.08-.53-1.92-.95a20.28,20.28,0,0,0-.4,2.51c0,1,.53,1.37,1.54,1.42.61,0,1.17.58,1.79.78a26.06,26.06,0,0,0,2.76.73c.79.18,1.6.29,2.39.43,0,.18,0,.35,0,.53a7.05,7.05,0,0,1-1.75.45c-2.42,0-4.87.37-7.19-.76a1.87,1.87,0,0,0-1.31.17c-1.5.65-2.41.27-2.76-1.27a20.42,20.42,0,0,0-.39-2.07,10,10,0,0,0-1.44-3.33,36.82,36.82,0,0,0-4.33-3.93,3.6,3.6,0,0,0-1.3-.55c-.36-.12-.81,0-1.11-.23-3-1.86-5.37-.16-7.7,1.34-1.92,1.23-3.69,2.71-5.65,4.19-.19-.46-.58-.94-.51-1.35.52-3-2-4-3.7-5.35a2,2,0,0,1-.1-3.3c1.42-1.26,2.7-2.65,4-4,.11-.11.24-.28.36-.29,2-.19,3.35-1.73,5-2.66a4.72,4.72,0,0,1,.92-.3c2.08-.58,4.2-1.07,6.23-1.8a11.12,11.12,0,0,0,2.41-1.72c.61-.43,1.24-.82,1.85-1.25a2.16,2.16,0,0,0,.7-.6c1.29-2.23,2.55-4.48,3.81-6.72,1.24,1.25,2.42,2.44,3.59,3.65a.71.71,0,0,1,.16.45c-.08,2.19,1.39,4.2.71,6.47-.1.32.28.8.47,1.19a5.22,5.22,0,0,1,.53.94c.55,2.38,1.49,3.13,4,3.22,1.88.07,3.8,1.1,5.62-.27.08-.06.36.18.55.24,2.05.6,2.58,2.26,3,4.07s.05,3.68,1.36,5.26C173,148.88,172.84,149.84,172.83,150.59Z"/>
  </g>
</svg>
