<svg id="Livello_1" data-name="Livello 1" xmlns="http://www.w3.org/2000/svg" xmlns:xlink="http://www.w3.org/1999/xlink" viewBox="0 0 283.46 283.46">
  <defs>
    <style>
      .cls-1 {
        fill: none;
      }

      .cls-2 {
        fill: #fff;
      }

      .cls-3, .cls-5 {
        fill: #45a041;
      }

      .cls-3 {
        stroke: #45a041;
        stroke-linecap: round;
        stroke-linejoin: round;
        stroke-width: 4.51px;
      }

      .cls-4 {
        clip-path: url(#clip-path);
      }
    </style>
    <clipPath id="clip-path">
      <circle class="cls-1" cx="137.44" cy="145.07" r="99.19"/>
    </clipPath>
  </defs>
  <title>Senza titolo-13</title>
  <g>
    <g>
      <path class="cls-2" d="M235.32,79.05c-27-35.47-55.15-57.93-109-52-55,4.58-91.6,36.59-109,89.13-17.23,52,19.55,111.33,57,130.88,15.4,8,30.93,12.9,47.71,13.91,33.57,2,58.95-4.1,87.14-23.52s53.61-53.13,51-91.12Q257.58,108.36,235.32,79.05Z"/>
      <path class="cls-3" d="M140.29,263.9c-10.95-.17-23.15-1.85-35.44-3.69C94.69,258.7,85.77,254.53,76.6,251c-5.51-2.15-10.28-6.42-14.87-10.3C54.22,234.3,47,227.57,39.9,220.83S29.76,205.28,25.54,197c-3.27-6.38-6.28-12.89-9.28-19.39a55.14,55.14,0,0,1-4.68-31.47c.93-6.6.64-13.34,1.29-20a40.87,40.87,0,0,1,2.39-9.87c2.7-7.51,5.35-15.07,8.68-22.33s6.74-14.71,11.42-21.2C42.14,63.43,51.17,56,61.08,49.56a184,184,0,0,1,28.77-14.9,113.71,113.71,0,0,1,38.06-8.76c7.38-.43,14.8-1.5,22.13-1.08,6.4.37,12.78,2.12,19,3.84,5.56,1.55,10.9,3.85,16.31,5.9a75.17,75.17,0,0,1,23.3,13.59c11.81,10.44,23.89,20.69,32.62,33.93,2.07,3.13,5.05,5.69,7.14,8.81a62.36,62.36,0,0,1,6.44,11.54c2.45,6.25,5,12.63,6.06,19.17,2.3,14.66,3.63,29.46.65,44.22-1.39,6.87-2.46,13.9-4.87,20.46a58.1,58.1,0,0,1-9,16.06c-11.38,14.25-23,27.92-36.74,40-15.94,14.09-37.78,18.1-58.55,21C148.89,263.83,145.31,263.69,140.29,263.9ZM258.08,138.39c-.11-1.53-.19-3.07-.35-4.59-1.64-15.93-5.35-31.14-16.08-44-6.63-8-12.93-16.2-19.87-23.9-4-4.45-9.3-7.8-13.46-12.14-6.2-6.47-13.86-10.84-21.91-14.4a200.75,200.75,0,0,0-25.59-9.17,55.5,55.5,0,0,0-28-1.1c-4.65,1.06-9.43,1.63-14.17,2.27-3.34.45-6.85.22-10.07,1A169.43,169.43,0,0,0,64.48,50.53c-17.11,10.09-29,24.64-37,42.16-3.14,6.89-5.26,14.21-7.87,21.32-2.14,5.82-3.77,11.69-3.85,18a210.68,210.68,0,0,1-1.07,21.33,37.86,37.86,0,0,0,3.77,21.08c5.9,12.21,12.15,24.28,18.54,36.27a35.22,35.22,0,0,0,6.87,9c6.74,6.35,13.9,12.29,20.81,18.47a69.72,69.72,0,0,0,31.58,16.2c8.06,1.83,16.26,3.11,24.4,4.59a99.86,99.86,0,0,0,31.61.75c21.46-2.95,43.41-8.59,59.14-23.5,10.47-9.92,19.1-21.17,28.75-32,8.5-9.53,13.71-20.09,15.56-32.35C257.43,160.73,259.8,149.69,258.08,138.39Z"/>
    </g>
    <g class="cls-4">
      <path class="cls-5" d="M234.79,89.78c.86,1.23,1,2.83,2.25,3.86a5.59,5.59,0,0,1,1.26,2.29c.63,1.58,1.14,3.2,1.75,4.79.37,1,.84,1.9,1.25,2.86.75,1.76,1.52,3.5,2.21,5.29a17,17,0,0,1,.37,2,7.36,7.36,0,0,0,.82,2c-.24.54-1.06,1.08.16,1.72.29.16.21,1,.36,1.46s.45,1.16.69,1.74c.07.17.3.38.25.47-.45.84.16,1.49.31,2.23.38,1.92.58,3.87.88,5.81.44,2.9.93,5.8,1.32,8.71a22,22,0,0,1-.2,2.26c.06,3.57.17,7.14.25,10.71a31.77,31.77,0,0,1,0,4.14c-.32,2.65-.81,5.29-1.23,7.93-.31,2-.6,3.94-1,5.89-.16.82-.56,1.59-.75,2.4a24,24,0,0,1-.62,3.21c-.86,2.23-.76,4.78-2.27,6.81-.2.27-.08.75-.2,1.11-.23.76-.54,1.5-.79,2.26s-.38,1.26-.56,1.9a4.86,4.86,0,0,1-.36,1.36,23.74,23.74,0,0,0-2.52,5.74c-.38,1.28-1.43,2.35-2.07,3.57-1.1,2.06-2.11,4.18-3.19,6.25a16.72,16.72,0,0,1-1.21,1.88c-1.53,2.15-2.55,4.68-4.73,6.35a1.07,1.07,0,0,0-.4.56c-.55,2.05-2.23,3.19-3.57,4.62a22.17,22.17,0,0,0-1.83,2.71,15.31,15.31,0,0,1-1.56,2c-1.51,1.5-3.12,2.89-4.62,4.39-1.14,1.14-2.14,2.42-3.28,3.56-.45.45-1.17.61-1.67,1-1.71,1.45-3.32,3-5.09,4.4-1.35,1.05-2.91,1.83-4.33,2.79-1.73,1.18-3.37,2.48-5.11,3.63-1,.66-2.13,1.1-3.18,1.68-2,1.09-3.94,2.21-5.9,3.33-.2.11-.33.38-.53.45-1.64.55-3.29,1.07-4.93,1.62a2.67,2.67,0,0,0-.81.48c-.21.17-.32.52-.55.6-1.58.54-3.2,1-4.79,1.56-.94.34-1.81.94-2.77,1.2-2.09.58-4.23,1-6.34,1.53-.81.2-1.59.51-2.38.78a3.89,3.89,0,0,1-.53.21c-3.26.53-6.52,1-9.77,1.56-.94.16-1.86.38-2.79.58a5.61,5.61,0,0,1-1.11.27c-5.52,0-11,.84-16.55.45a37.59,37.59,0,0,1-4.07-.69c-.23,0-.5-.26-.67-.2-2.85,1.06-5.52-.78-8.36-.5-1.34.13-2.78-.68-4.17-1.06-.1,0-.18-.07-.28-.09-2.73-.51-5.46-1-8.19-1.55a7.78,7.78,0,0,1-1.59-.58c-.21-.09-.38-.32-.59-.38a34,34,0,0,1-5.67-1.77c-1.65-.85-3.55-.93-5.1-2.16-1.11-.87-2.79-1-4.16-1.58a29.08,29.08,0,0,1-3.21-1.71,22.34,22.34,0,0,0-3.42-2.06c-2.38-.85-4.21-2.52-6.31-3.77-1-.6-2.09-1.12-3-1.8-1.55-1.11-3-2.32-4.55-3.5-1.82-1.43-3.67-2.85-5.44-4.35-1.34-1.13-2.56-2.38-3.83-3.58a25.58,25.58,0,0,1-3.35-3.22c-1.08-1.49-3.26-2.11-3.38-4.41,0-.5-.88-1-1.35-1.45-1.12-1.14-2.24-2.27-3.35-3.42a1.07,1.07,0,0,1-.32-.45c-.44-2.1-2.33-3.22-3.3-5-1.14-2-2.37-4-3.57-6-.41-.68-.88-1.33-1.27-2-1.19-2.11-2.39-4.22-3.52-6.36a25.11,25.11,0,0,1-1.27-3c-.63-1.69-1.2-3.41-1.81-5.11a14.28,14.28,0,0,0-.61-1.39c-.08-.16-.28-.28-.33-.45-.57-1.93-1.1-3.87-1.67-5.79a14.31,14.31,0,0,0-.69-1.67,6.48,6.48,0,0,1-.58-1.3c-.47-2.72-.88-5.45-1.34-8.16a3,3,0,0,0-.58-1.28,1.81,1.81,0,0,1-.08-2.44,7.91,7.91,0,0,1-.64-2c-.17-6.71-.27-13.42-.42-20.12a10.55,10.55,0,0,0-.27-1.36c-.09-.56-.38-1.24-.17-1.66,1.41-2.92.4-6.08,1.06-9.05.51-2.33,1.54-4.61,1.66-6.94.07-1.32,1.15-2.32.75-3.66a2.21,2.21,0,0,1,.19-1.1,11.78,11.78,0,0,0,.44-1.75c.26-.8.51-1.6.8-2.39s.57-1.38.86-2.07a4.94,4.94,0,0,0,.3-.49c.48-1.59.83-3.23,1.44-4.77s1.48-3,2.23-4.55c.06-.13.15-.24.2-.37.55-1.54,1-3.13,1.67-4.61a22.47,22.47,0,0,1,2-3,4.72,4.72,0,0,0,.41-.73c.53-1.22,1-2.48,1.57-3.67.25-.5.8-.84,1.15-1.31,1.21-1.61,2.4-3.24,3.6-4.86a.85.85,0,0,0,.23-.35c.44-2.25,2.25-3.46,3.7-5a1,1,0,0,0,.35-.59c.09-1.55,1.36-2.14,2.33-3,.56-.51,1-1.15,1.53-1.72,1.19-1.28,2.38-2.55,3.59-3.81,1-1.06,2-2.11,3-3.15a20.15,20.15,0,0,1,1.85-1.73c1.89-1.51,4-2.77,5.67-4.51s3.86-2.3,5.3-3.9,3.73-2.28,5.41-3.67a21.84,21.84,0,0,1,5.26-2.87,63.51,63.51,0,0,0,6.07-3.5,1.42,1.42,0,0,1,.54-.17c2-.16,3.63-1.38,5.34-2.32l.12-.08c1.86-.57,3.73-1.12,5.59-1.7s3.76-1.23,5.66-1.8c1.16-.34,2.36-.58,3.53-.9.69-.18,1.36-.43,2-.65l.09-.39c.32.19.64.38,1,.56l0-.37a53.47,53.47,0,0,0,5.69-.56A49.3,49.3,0,0,1,132,32.81c1.56,0,3.13-.63,4.72-.79a11,11,0,0,1,2.69.37,17.93,17.93,0,0,0,2.5.44c2.25.07,4.51,0,6.77.06a19.57,19.57,0,0,1,2.1.35,14.92,14.92,0,0,0,2.41.13,24.34,24.34,0,0,0,2.88.74c1.47.2,3,.09,4.42.4,1.66.35,3.26,1,5.18,1.64l.84-.51-.06.36c.8.27,1.62.49,2.39.82,2,.88,4.36.86,6.17,2.32a1.67,1.67,0,0,0,.95.25c2.08,0,3.72,1.14,5.38,2.2a1.22,1.22,0,0,0,.51.25c2.85.11,4.74,2.54,7.41,3.07.62,1.43,2.6.67,3.36,2.19.37.74,1.72,1,2.6,1.49,1.62.93,3.27,1.84,4.83,2.86,1.8,1.19,3.56,2.45,5.28,3.75s3.58,2.71,5.25,4.2q3.5,3.14,6.79,6.5c1.47,1.51,2.71,3.25,4.12,4.83m-83.76,173.1v-.44c-1.73-.13-1.73-.13-3.07-1.47a1.52,1.52,0,0,0-.48-.31c-2.26-.92-4.51-1.84-6.78-2.74a2.43,2.43,0,0,0-.86-.06c-4.46,0-8.94.17-13.4,0a57.5,57.5,0,0,1-7.4-1.26c-.09,0-.22-.06-.25-.13-.76-1.57-2.75-1.32-3.77-2.6-.89-1.11-2.18-1.91-3-3a25.73,25.73,0,0,1-1.84-3.63,7.79,7.79,0,0,1-.12-7.17,8.72,8.72,0,0,0,.72-2.76c.2-2-.26-2.58-2.13-3.33a2.5,2.5,0,0,1-.62-.34q-2.22-1.59-4.42-3.2c-1.67-1.22-3.39-2.37-5-3.66-2-1.59-3.9-3.28-5.82-5a5.58,5.58,0,0,1-1.71-1.83c-.7-1.87-2.55-2.6-3.63-4.08-.91-1.24-2.23-2.18-3-3.46a19.57,19.57,0,0,0-1.5-2.34,23.89,23.89,0,0,1-4.1-6.83,23.46,23.46,0,0,0-1.57-3.23c-.68-1.19-1.58-2.26-2.15-3.49A44.36,44.36,0,0,1,60.12,173c0-.09,0-.21-.12-.25-1.12-.72-.84-1.93-1.09-3-.5-2-1.06-4-1.6-6,0-.09-.11-.16-.14-.25-.32-1.13-.66-2.26-.94-3.41-.19-.77-.3-1.56-.46-2.34a28.3,28.3,0,0,1-.86-4.48q-.16-7,0-14.12c0-2.13.41-4.25.66-6.38.2-1.77.45-3.53.68-5.3a5.28,5.28,0,0,1,.16-1c.78-2.27,1.58-4.52,2.35-6.79a6.38,6.38,0,0,0,.13-1,7.19,7.19,0,0,1,.28-1.55c.74-1.83,1.53-3.63,2.3-5.44.54-1.25,1-2.54,1.63-3.75,1.17-2.22,2.41-4.4,3.67-6.58A37.18,37.18,0,0,1,69,97.91c.93-1.26,2-2.4,3-3.63s1.75-2.35,2.65-3.51c.54-.7,1.11-1.39,1.71-2,1.3-1.43,2.57-2.91,4-4.25A47.66,47.66,0,0,1,84,81.38q2.36-1.87,4.76-3.7c1.07-.82,2.18-1.61,3.28-2.4a22.22,22.22,0,0,1,2.13-1.51c1.1-.63,2.27-1.14,3.38-1.76s2.33-1.68,3.62-2c1.51-.39,1.71-1.31,1.81-2.49.06-.62.11-1.25.11-1.87,0-4.16,0-8.32,0-12.56a4.58,4.58,0,0,1,.91-1,3.42,3.42,0,0,1,1.67-.58c.22,0,.55.71.65,1.14a6.4,6.4,0,0,1,.06,1.58q0,18.52,0,37c0,1.74-.36,3.55.88,5.1a1.29,1.29,0,0,1,.11.84c-.3,2.82,1.62,5.07,2,7.73a8.67,8.67,0,0,0,1.39,2.83c.72,1.24,1.51,2.44,2.25,3.66a16,16,0,0,0,1.74,2.86,5,5,0,0,1,1.61,4.77c-.4,1.93.86,3,2.81,2.91,3.55-.13,7.09-.19,10.64-.18s7,.13,10.48.17c3.06,0,6.13,0,9.2,0,3.46,0,6.92.06,10.37,0,1.94,0,2.09-.35,2.12-2.26s-.49-4.13,1.46-5.75c.76-.63,1.07-1.77,1.71-2.58a2.91,2.91,0,0,0,.16-3.7,4.88,4.88,0,0,1-.65-2c-.43-3.19,1.87-5.17,3.17-7.14-1.12-2.44-2.63-4.6-3-6.94-.29-1.74.85-3.73,1.37-5.6,0-.07.15-.11.22-.16a2.78,2.78,0,0,0,.11-4.13A13.38,13.38,0,0,1,165,79.47l.71-1c-.86-.76-1.27-3.5-.63-4.32s1.39-1.4,2-2.19c1-1.33,2-2.3,3.81-2.31,1.5,0,1.56-.36.91-1.8a5.44,5.44,0,0,1-.15-.84c-.28-1.22.49-2,1-3a1.17,1.17,0,0,1,1.61-.68,1.56,1.56,0,0,1,.92,1.1,29.53,29.53,0,0,1,.1,3.88c0,.81.12,1.28,1,1.6a29.58,29.58,0,0,1,3.67,1.79c1.32.7,2.32,2,3.94,2.14a1.14,1.14,0,0,1,.52.22c2.45,1.79,4.63,4,7.5,5.17a.87.87,0,0,1,.23.16c1,.93,1.94,1.88,2.91,2.8.51.49,1.07.91,1.55,1.42a30.57,30.57,0,0,0,2.81,3.08,35.12,35.12,0,0,1,6.56,7.16c.49.69,1,1.4,1.46,2.08,1.16,1.54,2.46,3,3.46,4.63,1.12,1.84,1.86,3.92,3,5.77s2.39,3.68,2.72,5.92a1.09,1.09,0,0,0,.12.41c1.14,1.68,2.18,3.39,2.18,5.52,0,.18.09.45.22.51,1,.51.84,1.5,1,2.37.19,1.19.07,2.65.73,3.49,1,1.25.55,2.56.89,3.8a3.39,3.39,0,0,0,.09.57c1.18,2.57,1.15,5.31,1.13,8.05a4,4,0,0,0,.17,1.55c1.21,2.8.63,5.74.6,8.6a55,55,0,0,1-.77,6.35c-.11.8-.16,1.61-.33,2.39-.35,1.66-.46,3.34-1,5-.75,2.38-.9,5-1.84,7.26a10.07,10.07,0,0,0-.94,3,2.45,2.45,0,0,1-.24.67c-.77,1.84-1.53,3.69-2.31,5.53-.59,1.38-1.11,2.79-1.82,4.1-1.19,2.17-2.87,4.06-3.62,6.48a1.72,1.72,0,0,1-.41.54c-.62.71-1.66,1.35-1.79,2.15-.29,1.67-1.8,2.26-2.48,3.5-.91,1.66-3.15,2.37-3.27,4.59,0,.13-.26.24-.39.37-.78.7-1.59,1.37-2.31,2.13-1,1-1.78,2.21-2.83,3.12-1.28,1.11-3,1.52-4.2,2.9-.84,1-2,1.69-3,2.63-.24.24-.15.94,0,1.37.19.63.66,1.18.83,1.82a23.61,23.61,0,0,0,.61,3.1c1.33,3.14-.31,6-.59,9,0,.12-.17.22-.25.34-.32.47-.65.94-1,1.42s-.6.91-.86,1.38a7.74,7.74,0,0,0-.36.95c.38,0,.85.08,1.12-.11a50,50,0,0,1,4.69-3.33c2.47-1.31,4.45-3.23,6.68-4.85a15.22,15.22,0,0,0,1.76-1.15c1.05-1,2-2.17,3-3.21,1.35-1.35,2.77-2.63,4.13-4,.49-.48.88-1,1.33-1.56,1.32-1.5,3.51-2.3,3.77-4.68,0-.17.32-.3.47-.47,1.09-1.18,2.25-2.3,3.24-3.55.72-.91,1.19-2,1.83-3,1.33-2,3.33-3.69,3.73-6.3,0-.15.2-.29.31-.43a24.73,24.73,0,0,0,1.94-2.66c.93-1.69,1.74-3.45,2.54-5.2a37.81,37.81,0,0,0,1.57-3.79c.66-2,1.18-4,1.77-6,0-.13.17-.23.22-.37a39.43,39.43,0,0,0,2-5.28c.69-3,1.08-6.14,1.63-9.22a5.35,5.35,0,0,1,.58-1.24c-.29-.77-.62-1.88-.23-2.29.92-1,.75-2,.76-3.08,0-2,0-4,0-6.05,0-1-.23-2.16.81-3,.29-.24.09-1.18,0-1.76a19.83,19.83,0,0,1-.75-2.81c-.12-2.74,0-5.48-.1-8.21a23.53,23.53,0,0,0-.38-3.65c-.15-.8-.6-1.54-.78-2.33-.61-2.77-1.13-5.56-1.75-8.32a33.63,33.63,0,0,0-1.05-3.51c-.16-.49-.45-.94-.66-1.42s-.42-1-.58-1.53c-.55-1.83-1-3.68-1.65-5.47a27.47,27.47,0,0,0-1.52-3.14c-.75-1.51-1.53-3-2.28-4.52-.58-1.16-1-2.39-1.71-3.5S223,92,222.75,90.49a1.65,1.65,0,0,0-.45-.69c-.9-1-2.06-1.85-2.3-3.33a1.65,1.65,0,0,0-.29-.63c-1.18-1.55-2.38-3.09-3.56-4.63a7.17,7.17,0,0,0-.57-.76c-1.09-1.16-2.21-2.3-3.3-3.46s-1.95-2.23-3-3.26-2.35-2-3.45-3c-1.58-1.53-3.07-3.15-4.62-4.7-.47-.48-1-1.21-1.53-1.28-1.68-.22-2.36-1.64-3.49-2.5A21.09,21.09,0,0,0,194,60.58c-1.13-.66-2.37-1.15-3.5-1.81-2-1.15-3.84-2.42-5.81-3.55-1.13-.65-2.37-1.11-3.55-1.68-1.64-.77-3.26-1.57-4.9-2.34-.76-.35-1.54-.66-2.31-1a15.52,15.52,0,0,0-3.64-1.49c-2.38-.32-4.44-1.89-6.94-1.62-.13,0-.27-.09-.41-.13a17.48,17.48,0,0,0-3-.92,15.59,15.59,0,0,1-4.61-1.19,2.34,2.34,0,0,0-.7-.13c-2.65-.25-5.29-.47-7.93-.77-.93-.11-1.86-.65-2.75-.57-4.87.42-9.76-.75-14.64.65-2.6.74-5.48.46-8.23.72a13.56,13.56,0,0,0-2.2.6c-.33.23-.75,0-1.13,0a29,29,0,0,0-3.71.74c-.92.26-1.76.88-2.69,1.07-1.69.34-3.57-.11-5,1.3-.19.18-.66.05-1,.14a20.25,20.25,0,0,0-2,.7c-1.53.61-3,1.31-4.57,1.87a30.91,30.91,0,0,1-4.22,1.68c-1.5.31-2.83,1.5-4.21,2.35-1.92,1.18-3.82,2.42-5.74,3.62a17.08,17.08,0,0,1-2.56,1.52,7.93,7.93,0,0,0-2.38,1.29c-1.28,1.08-2.32,2.78-4.26,3a.92.92,0,0,0-.49.27c-1.56,1.54-3.1,3.11-4.68,4.63S67.07,72.45,65.51,74c-1.24,1.2-2.44,2.45-3.62,3.72-1,1-2,2.09-2.84,3.2s-1.69,2.33-2.54,3.5c-.5.68-1.08,1.32-1.52,2a16,16,0,0,1-1.66,3c-1.16,1.19-1.65,2.72-2.5,4.07a34.29,34.29,0,0,0-1.6,3.28c-.77,1.56-1.57,3.11-2.37,4.66-.12.25-.29.48-.42.73a38,38,0,0,0-2.09,4.19c-.67,1.8-1,3.73-1.62,5.54s-1.64,3.57-2.13,5.44-.66,4.1-1.31,6.14a50.9,50.9,0,0,0-1.38,7.64c-.54,3.32-.29,6.69-.64,10-.46,4.48.26,9.08.48,13.63a8.47,8.47,0,0,0,.19,1c.4,2.2.81,4.41,1.2,6.61.07.42-.07,1,.16,1.25,1.19,1.28.74,2.9,1.06,4.35.46,2.07,1,4.13,1.47,6.19,0,.17.23.3.3.48.27.69.53,1.38.78,2.08s.45,1.32.68,2,.54,1.38.8,2.08c.12.3.15.64.3.93.72,1.46,1.5,2.9,2.18,4.38s1.05,2.79,1.72,4.12c.78,1.53,1.69,3,2.61,4.45.55.86,1.26,1.61,1.83,2.45s1.13,1.86,1.74,2.75c1.11,1.59,2.29,3.13,3.39,4.73.69,1,2.23,1.42,2.1,3a.74.74,0,0,0,.2.52c1.34,1.43,2.65,2.9,4.07,4.25,1.6,1.51,3.31,2.91,5,4.38s3.13,3,4.79,4.34c1.86,1.55,3.83,3,5.75,4.44a21.53,21.53,0,0,0,1.75,1.31q2.72,1.72,5.47,3.38c1.17.69,2.37,1.34,3.6,1.93s2.63,1,3.86,1.71c2,1.12,4,2.42,6.33,2.66a1.87,1.87,0,0,1,.68.22c1.82,1.05,3.58,2.27,5.84,2.13.27,0,.68,0,.8.22.82,1.21,2.1.93,3.25,1.11.56.08,1.11.24,1.66.37,1.23.3,2.46.62,3.7.89.41.1.94-.06,1.26.15a9.28,9.28,0,0,0,5.2,1.1c2.91,0,5.7,1.51,8.62.52.16-.05.37.08.56.1Zm48.48-31.09c-.42,1.66-.33,3.3-1.59,4.53-.82.8-1.27,2-2,2.84-1.06,1.19-2.26,2.25-3.42,3.36-.91.88-1.49,2.21-3.05,2.22a1.36,1.36,0,0,0-.61.33,14,14,0,0,1-2.64,1.91,40.33,40.33,0,0,1-7.65,2.59c-1.28.23-2.69.14-4.08.39-3.16.56-6.33-.43-9.52-.3a1.6,1.6,0,0,1-.42-.1c-2.82-.77-5.65-1.48-8.45-2.34a3.34,3.34,0,0,1-1.63-1.35c-.53-.83.2-1.15.86-1.42a.59.59,0,0,0,.26-.33c.51-1.4,1.37-.53,2.09-.29s1.37.63,2.08.88c.5.18,1.16.06,1.52.35,1.38,1.1,2.95,1,4.53,1a15.92,15.92,0,0,1,1.79.3c.76.12,1.52.27,2.29.34s1.27,0,1.9,0a11.1,11.1,0,0,0,1.71.12,52.72,52.72,0,0,0,5.89-.94,23.31,23.31,0,0,0,5.68-2.09,18.51,18.51,0,0,0,3.35-2,52.4,52.4,0,0,0,6.2-6.44c1.12-1.38,2.39-2.81,2.23-4.94a5.43,5.43,0,0,1,.75-2.91c.56-1,.27-2.6.09-3.9a11.8,11.8,0,0,0-1.08-2.66c-.13-.31-.13-.74-.35-.93-1.67-1.43-3.38-3-5.59-3.31-1.81-.26-2-1.17-2.08-2.6a7.59,7.59,0,0,0-.77-3.3,34,34,0,0,0-3-3.53,5.42,5.42,0,0,0-3.82-2.42c-.38,0-.72-.4-1.1-.57a4.36,4.36,0,0,0-1.43-.55,30.72,30.72,0,0,0-3.46,0c-.41,0-1,.09-1.18.36-.78,1.13-1.95.87-3,.93a1.17,1.17,0,0,1-.95-.65c-.56-2.52-2.59-4-4.06-5.88a6.11,6.11,0,0,0-1.76-1.42c-1.06-.62-2.23-1.07-3.28-1.71-2.16-1.31-4.53-1.1-6.88-1.07a10.7,10.7,0,0,0-5.42,1.36,17.69,17.69,0,0,0-2,1.19,45.3,45.3,0,0,0-3.56,3.07,22.48,22.48,0,0,0-2.07,2.58,4.68,4.68,0,0,1-3.72,2.3c-2.27,0-4.57-.48-6.8.3-.31.11-.71.08-1,.27-1.54,1.21-3,2.48-4.56,3.7-1.31,1.05-2.69,2-2.57,4,0,.26-.18.53-.28.79a12.92,12.92,0,0,0-.79,2.12,7.71,7.71,0,0,0,0,2.3c.19,1.43-.64,2.08-1.75,2.61a8.3,8.3,0,0,0-1,.67c-1.23.79-2.84,1.21-2.93,3.07-1.09.13-.94,1.06-1.12,1.75-.13.51,0,1.21-.3,1.53-1.52,1.58-.62,3.46-.75,5.2a1.47,1.47,0,0,0,.53.92,4.19,4.19,0,0,1,.21,4.75c-1,1.1-1.37,4.52-1,5.93a19.48,19.48,0,0,0,1.27,3.44c.78,1.65,1.47,3,3.47,3.2.17,0,.44.1.49.23.68,1.63,2.52,1.33,3.72,2.08,1.38.86,3.42.83,5.18.87,3.92.09,7.85-.12,11.78,0a27.37,27.37,0,0,1,4.73,1c.09,0,.16.1.25.13l2.69,1.11c.26.1.53.17.79.28.64.29,1.27.62,1.93.88.39.16.83.2,1.23.32,1.21.35,2.42,1.08,3.6,1,3-.18,6.1.87,9.05-.77l.7.37c1.56-.74,3-1.45,4.37-2.08s2.63-1.09,4-1.64c.12-.05.21-.19.3-.3a5.33,5.33,0,0,1,4.29-2.13c1.31,0,2.61.51,3.92.6,2.2.15,4.4.14,6.61.19a1.82,1.82,0,0,0,.69-.11c.78-.27,1.56-.55,2.32-.86a15.52,15.52,0,0,0,2-.9,10.83,10.83,0,0,1,2.22-1.4,3.86,3.86,0,0,0,2.28-1.35,19.62,19.62,0,0,0,3.74-6c.06-.17.11-.43.24-.5,1.18-.57,1-1.65,1-2.63a39,39,0,0,0,0-4.46,5,5,0,0,0-.88-2A11.65,11.65,0,0,0,186.16,212.74Zm-64.5-69.17a23,23,0,0,1-1.87-1.74,5,5,0,0,0-3.74-2.22c-.37,0-1-.06-1.07-.29-.56-1.07-1.51-.83-2.39-.84-1.44,0-2.89,0-4.33,0a7.52,7.52,0,0,0-1.83.23c-.9.24-1.76.67-2.66.84a1.3,1.3,0,0,1-1.11-.61c-.15-.6-.52-1.31.51-1.79,1.93-.91,4-.9,6-1.24,1.09-.19,1.65-.47,1.3-1.62a18.67,18.67,0,0,1-.8-7.19,69.22,69.22,0,0,1,.89-6.9c.12-.64.75-1.17.29-1.93-.06-.11.21-.39.27-.61a7.11,7.11,0,0,0,.46-2.25c-.06-.56-.69-1-1-1.6-.61-1-1.17-2-1.8-3s-1.77-2.13-2.15-3.35-.74-2.33-1.22-3.5c-.87-2.14-.89-4.62-1.56-6.86a10.48,10.48,0,0,1-.5-5.27c.27-1.4-.12-2.92-.13-4.38,0-4.08-.08-8.15,0-12.22,0-1.23-.52-1.35-1.49-1.56-1.35-.29-1.89.81-2.73,1.33a14.35,14.35,0,0,0-4.39,3.59c-.41.56-.92,1.05-1.34,1.6a12.94,12.94,0,0,0-.93,1.39c-.61,1-1.22,2.1-1.79,3.17-.37.69-.67,1.41-1,2.12a27.6,27.6,0,0,0-1.47,3.36,27.11,27.11,0,0,0-1.07,5,74.35,74.35,0,0,0-.38,8.17,43.48,43.48,0,0,0,.68,6.72c.48,2.73,1.23,5.41,1.8,8.13.19.88.07,1.82.25,2.7.42,2,1,4,1.4,6,.51,2.49.87,5,1.39,7.49.22,1.05.91,2,1,3.07a31.68,31.68,0,0,0,2.45,10.07c.92,2.3,2.83,3.1,4.63,4,1.35.68,2.68,1.84,4.43,1.48a.44.44,0,0,1,.36.21c.42,1.24,1.54.85,2.41,1.06s1.75.61,2.64.85c1.26.34,2.52.63,3.79.89.16,0,.48-.22.55-.41a7.07,7.07,0,0,0,.78-2.23c.07-1.36-.14-2.73-.17-4.1,0-.46.12-1.25.34-1.31a3.25,3.25,0,0,1,2,0,30.74,30.74,0,0,1,4.45,2.4,4.2,4.2,0,0,1,1.82,2.09c.65,2.73,1,5.53,1.5,8.3a3.36,3.36,0,0,0,.42.85,4.31,4.31,0,0,0,1.18-.64c.77-.85,1.9-1.69,2.09-2.69a26,26,0,0,0,.07-5.44,2.49,2.49,0,0,0-.34-1.07c-.32-.66-.71-1.29-1.06-1.93a7.06,7.06,0,0,0-.54-1c-1-1.21-2-2.37-2.93-3.61s-.59-1.6.75-1.55a10.69,10.69,0,0,1,7.06,2.43c1.16,1,2.53,1.77,2.38,3.61a.6.6,0,0,0,.23.51c.81.45.66,1.1.53,1.85a11.73,11.73,0,0,0,.1,1.86,3.44,3.44,0,0,1-.22,1.33c-.58,1.24-1.32,2.4-1.84,3.65-1.08,2.57-.16,4,1.43,5.78,1.3,1.46,2.54,3,3.82,4.43a9.37,9.37,0,0,0,.87.8,5.34,5.34,0,0,0,0-1.55c-.14-.46-.62-.81-.84-1.25-.63-1.3-1.25-2.6-1.76-3.94a2.38,2.38,0,0,1,0-1.72,1.58,1.58,0,0,1,1.39-.6,2.07,2.07,0,0,1,1.27,1.23,7.78,7.78,0,0,0,1.35,3.66,14.21,14.21,0,0,1,1.74,3.46c.34.82.78.87,1.44.45,1.51-1,1.83-2.67,2.3-4.17.62-1.94.27-4.22,2.24-5.62,1.67,1.67,1.67,1.67.71,3.74a1.53,1.53,0,0,0-.13.56c-.09,1.18-.05,2.38-1.15,3.25-.18.14.13.9.21,1.38.28-.12.69-.16.82-.37.59-1,1.1-2.06,1.67-3.08.1-.19.34-.29.48-.47.64-.86,1.29-1.73,1.9-2.62a7.86,7.86,0,0,0,1-1.72,1.32,1.32,0,0,0-.2-1.1c-.62-.8-1.4-1.48-2-2.29s-1.09-1.93-1.83-2.73a3.34,3.34,0,0,1-1-3.54,5.88,5.88,0,0,1,1.62-2.53c1-1.12,1.89-2.38,3-3.45s1.36-4.44.32-5.66c-.71.14-1.35.23-2,.4s-1.26.47-1.9.66a2.64,2.64,0,0,1-1.07.14,36.06,36.06,0,0,1-4.28-.72,22.69,22.69,0,0,1-5.11-1.76,20.6,20.6,0,0,0-6.57-2.74c-.51-.08-1.3.2-1.52-.06-1.11-1.32-2.56-.82-3.87-.84-3.51-.06-3.64,0-3.47,3.56A6.62,6.62,0,0,1,121.66,143.57Zm1-17.3v-.13h-4c-1.94,0-2.46.64-2.27,3.35.08,1.29,1.27,1,2.13,1,4.08,0,8.16,0,12.24,0a6.27,6.27,0,0,1,2.23.43c1.58.63,3.1,1.4,4.67,2.07,1.33.57,2.7,1.07,4,1.63.16.06.26.28.41.38a3.6,3.6,0,0,0,1.32.7c2.08.2,4.13,1.26,6.28.12,1.28-.68,2.69-1.1,4-1.7.18-.08.27-.48.3-.74a12.56,12.56,0,0,0,.06-1.73c0-.88.37-1.19,1.22-1.17,1.34,0,2.68,0,4,0,2.72,0,2.68,0,2.72-2.75,0-.94-.26-1.26-1.22-1.27Q141.71,126.43,122.64,126.27Zm56.13-37.09c-.82-2.13-2.47-2.49-4.23-2.63-.76-.06-1.5.23-2.14-.67-.23-.32-1.54.07-2.33.25-.31.07-.55.45-.82.69-.9.78-1.9,1.48-2,2.83a8.27,8.27,0,0,0,1.18,5.53c.86,1.3,1.78,2.41,3.34,2.42.82,0,1.63,0,2.45,0a4.28,4.28,0,0,0,2.59-.89c.83-.63.93-1.45,1.44-2.13,1.24-1.64,1.25-3.08-.09-4.55Zm-8-17.75-1.2.79c-1.26.85-2.33,1.8-2.4,3.52a8.17,8.17,0,0,0,1.19,4.64C169.51,82.32,170,83,172.22,83h2.59a3,3,0,0,0,2.07-.87c.88-.73,1-1.63,1.43-2.44,1.32-2.25,1.15-4.41-.75-6.07a7,7,0,0,0-2.06-1.22,21.39,21.39,0,0,0-2.72-.74C172.26,72.42,171.51,72.29,170.78,71.43ZM172,100.06c-1,.08-2.38-.22-2.9.32a9.74,9.74,0,0,0-1.85,3.66c-.25.73.07,1.63-.07,2.42-.31,1.8,1.26,2.68,1.9,4a2.51,2.51,0,0,0,1.9,1c1.41.07,2.83-.17,4.26-.24,1.76-.1,2.29-.64,2.74-2.25a5.68,5.68,0,0,0,.2-3.31,1.91,1.91,0,0,1,.07-1.27,2.1,2.1,0,0,0-1-2.64C175.71,100.75,174.1,99.46,172,100.06Zm-55,53.73h0c0,.72,0,1.44,0,2.16a1.36,1.36,0,0,0,.34.87,27.92,27.92,0,0,0,2.76,2.22,6.72,6.72,0,0,0,1.7.6,4.58,4.58,0,0,0,.45-1.53,25.86,25.86,0,0,0-.62-3.81c-.32-1.31-.71-2.63-2.44-2.8-.31,0-.59-.38-.89-.57s-.53-.39-.79-.38-.38.41-.41.66C117.06,152.06,117,152.93,117,153.79Zm38.84,87.27c3.73,1.09,6.62-.58,9.83-1.79l.82.5,0-.45,4.55-1,0-.37c-.45-.1-.89-.24-1.35-.3a49.32,49.32,0,0,0-5.52-.62,5,5,0,0,0-3.12.82c-1.31,1.16-2.44,2.4-4.33,2.52C156.43,240.42,156.24,240.72,155.83,241.06Z"/>
      <path class="cls-5" d="M109.7,208l1.44-1.85a2.78,2.78,0,0,1,2.09,1.6,20.8,20.8,0,0,0,3.23,3.35c.69.7,1.3,1.49,2,2.13a11.86,11.86,0,0,0,2,1.3c1.25.73,2.5,1.43,3.78,2.1a33.5,33.5,0,0,0,4.39,2.13,26.19,26.19,0,0,0,3.8.62,9.23,9.23,0,0,1,1.55.61,3.61,3.61,0,0,0,1.18.38c2.16,0,4.33.1,6.48,0a10.31,10.31,0,0,0,2.5-.82c.32-.11.66-.34,1-.28,1.85.34,3.1-1,4.55-1.68a3.91,3.91,0,0,0,1.62-4.51,2.77,2.77,0,0,0-1.47-1.58c-1.63-.42-1.17-1.45-1-2.46.09-.44.26-.87.47-1.56,1.27.88,2.4,1.55,3.4,2.38,2.16,1.8,2.69,6.19.92,8.48a8.89,8.89,0,0,1-2.7,2.09c-1.53.87-3.15,1.58-4.73,2.37a1.92,1.92,0,0,1-.51.23,66.07,66.07,0,0,1-7.5,1c-1.36,0-3,.26-4.19-.83a.39.39,0,0,0-.27-.08c-2.57.61-4.63-1.15-7-1.55-1.64-.29-3.13-1.44-4.68-2.21a21.89,21.89,0,0,1-3.22-1.7,11.12,11.12,0,0,1-3.07-3c-.68-1.18-1.93-.53-2.53-1.29s.09-1.72-1.15-2.36C111,210.41,110.45,209,109.7,208Z"/>
      <path class="cls-5" d="M126.54,226.37c1-.3,1.77-.55,2.52-.72,1-.23,2.29.4,2.76-1.12,0-.08.33-.18.37-.14a7,7,0,0,1,1.78,1.87,1.9,1.9,0,0,1-.89,1.65c-1.09.28-1.93,1.51-3.25.93-2.54,1.54-5.33.44-8,.75-2.19.26-4.18-.68-6.25-1.05-2.46-.43-3.94-2.25-6-3.24-1.31-.63-2.15-2.21-3.22-3.35-.18-.2-.46-.3-.65-.49s-.49-.55-.44-.61c.49-.63,1-1.51,1.61-1.73a2.67,2.67,0,0,1,2,.75c1.51,1.32,2.88,2.81,4.35,4.18.24.23.74.17,1.08.32s1,.5,1.42.75a3.38,3.38,0,0,0,.86.41c.37.09.79,0,1.14.1a18,18,0,0,0,7.42.36A3.18,3.18,0,0,1,126.54,226.37Z"/>
      <path class="cls-5" d="M139.62,208.2c1.55-1.8,2.78-3.29,4.06-4.73,1.46-1.65,1.82-3.82,2.76-5.65,1.35-2.65.94-5.22.82-7.8-.08-1.56-1.16-3.07-1.79-4.61a7.85,7.85,0,0,1-.71-1.94c0-.45.31-1.27.62-1.34.69-.15,1.54-.61,2.13.47s1.34,1.69,1.91,2.6A9.43,9.43,0,0,1,150,187c.26.73.57,1.44.86,2.16.07.17.21.34.21.51,0,1.86.43,3.9-.2,5.52s-.28,3.76-1.77,5.26c-.8.82-1.07,2.16-1.67,3.2-.9,1.55-1.88,3.06-2.83,4.58a.53.53,0,0,1-.36.2C142.75,208.34,141.27,208.27,139.62,208.2Z"/>
      <path class="cls-5" d="M159.58,199.28a21.11,21.11,0,0,1,2.87,0,9.57,9.57,0,0,1,2.05.75c.18.07.34.29.49.27,1.67-.21,2.84.95,4.19,1.55a6.32,6.32,0,0,1,1.95,1.51c2.05,2.2,3.22,4.74,2.69,7.85a2.42,2.42,0,0,0,0,.71c.15,1.2-.36,1.7-1.56,1.86a17.72,17.72,0,0,0-2.19.9,3.81,3.81,0,0,1-1.43-.17,5.83,5.83,0,0,0,.72-.87c.42-.76,1.13-1.56,1.11-2.34a19.93,19.93,0,0,0-.75-5A3,3,0,0,0,168,204.8c-1.52-.63-3.14-1-4.7-1.58-2.25-.78-4.59-.48-6.9-.66-1.29-.1-.93-1.43-1-2.34s.44-1,1.16-1c1,0,2,0,3,0Z"/>
      <path class="cls-5" d="M123.79,197.58a7.43,7.43,0,0,1,1.35-5.93,20.69,20.69,0,0,1,2.89-3,8.55,8.55,0,0,1,1.48-1.41,19.05,19.05,0,0,1,5.77-2.64c1.14-.27,2.07-.86,3.06.12.32.33.83.85.74,1.13a2.14,2.14,0,0,1-1.06,1.32c-1.47.61-3.11.84-4.5,1.57a12.21,12.21,0,0,0-6.15,6.32c-.78,2,0,3.59.14,5.37a3.49,3.49,0,0,1-.12,1.92,3.14,3.14,0,0,1-1.67,1c-.12,0-.51-.61-.74-1C124.07,200.86,123.17,199.4,123.79,197.58Z"/>
      <path class="cls-5" d="M155.78,189.58c.85-1.06.69-2.93,2.49-2.2a16.33,16.33,0,0,1,3.64,2.25c1.25,1,2.37,2.08,3.52,3.16a1.78,1.78,0,0,1,.38.72c.13.41.07,1.05.33,1.22,1.6,1,.76,1.76-.2,2.5-.33.25-.82.58-1.14.49-.47-.13-1.17-.56-1.21-.93-.18-1.5-1.35-2.18-2.27-3.06a26.82,26.82,0,0,0-2.52-2.25C157.88,190.79,156.85,190.24,155.78,189.58Z"/>
    </g>
  </g>
</svg>
