<svg id="Livello_1" data-name="Livello 1" xmlns="http://www.w3.org/2000/svg" viewBox="0 0 283.46 283.46">
  <defs>
    <style>
      .cls-1 {
        fill: #fff;
      }

      .cls-2, .cls-3 {
        fill: #45a041;
      }

      .cls-2 {
        stroke: #45a041;
        stroke-linecap: round;
        stroke-linejoin: round;
        stroke-width: 4.51px;
      }
    </style>
  </defs>
  <title>icon</title>
  <g>
    <g>
      <path class="cls-1" d="M242.08,79.05c-27-35.47-55.15-57.93-109-52-55,4.58-91.61,36.59-109,89.13-17.23,52,19.55,111.33,57,130.88,15.4,8,30.93,12.9,47.71,13.91,33.57,2,58.94-4.1,87.14-23.52s53.61-53.13,51-91.12Q264.33,108.36,242.08,79.05Z"/>
      <path class="cls-2" d="M147.05,263.9c-11-.17-23.15-1.85-35.44-3.69-10.16-1.51-19.08-5.68-28.25-9.25-5.51-2.15-10.29-6.42-14.87-10.3C61,234.3,53.8,227.57,46.66,220.83S36.52,205.28,32.3,197C29,190.66,26,184.15,23,177.65a55.14,55.14,0,0,1-4.68-31.47c.93-6.6.64-13.34,1.29-20A41.32,41.32,0,0,1,22,116.33c2.71-7.51,5.36-15.07,8.69-22.33s6.73-14.71,11.42-21.2C48.9,63.43,57.93,56,67.84,49.56a184,184,0,0,1,28.77-14.9,113.71,113.71,0,0,1,38.06-8.76c7.38-.43,14.8-1.5,22.13-1.08,6.39.37,12.78,2.12,19,3.84,5.56,1.55,10.9,3.85,16.31,5.9a75.17,75.17,0,0,1,23.3,13.59C227.21,58.59,239.29,68.84,248,82.08c2.07,3.13,5,5.69,7.14,8.81a62.36,62.36,0,0,1,6.44,11.54c2.45,6.25,5,12.63,6.06,19.17,2.29,14.66,3.63,29.46.65,44.22-1.39,6.87-2.46,13.9-4.87,20.46a58.1,58.1,0,0,1-9,16.06c-11.38,14.25-23.05,27.92-36.75,40-15.93,14.09-37.77,18.1-58.55,21C155.65,263.83,152.07,263.69,147.05,263.9ZM264.84,138.39c-.11-1.53-.19-3.07-.35-4.59-1.64-15.93-5.35-31.14-16.08-44-6.63-8-12.93-16.2-19.88-23.9-4-4.45-9.3-7.8-13.45-12.14-6.2-6.47-13.86-10.84-21.91-14.4a200.75,200.75,0,0,0-25.59-9.17,55.5,55.5,0,0,0-28-1.1c-4.65,1.06-9.43,1.63-14.17,2.27-3.35.45-6.85.22-10.07,1A169.43,169.43,0,0,0,71.24,50.53c-17.11,10.09-29,24.64-37,42.16C31.13,99.58,29,106.9,26.4,114c-2.14,5.82-3.77,11.69-3.85,18a210.68,210.68,0,0,1-1.07,21.33,37.94,37.94,0,0,0,3.76,21.08c5.91,12.21,12.16,24.28,18.55,36.27a35.22,35.22,0,0,0,6.87,9C57.4,226,64.55,231.92,71.47,238.1a69.72,69.72,0,0,0,31.58,16.2c8.06,1.83,16.26,3.11,24.4,4.59a99.86,99.86,0,0,0,31.61.75c21.46-2.95,43.41-8.59,59.14-23.5,10.47-9.92,19.1-21.17,28.74-32,8.51-9.53,13.71-20.09,15.57-32.35C264.19,160.73,266.56,149.69,264.84,138.39Z"/>
    </g>
    <path class="cls-3" d="M164.44,234.55c-.85.22-1.72.41-2.56.67a11.09,11.09,0,0,0-1.54.68c-.22.1-.4.37-.61.39-1.7.15-3.42.2-5.12.42-1.41.19-2.8.57-4.2.87a3.6,3.6,0,0,1-.76.17c-4.6-.09-9.21-.29-13.81-.25a82.13,82.13,0,0,1-12.91-1.43c-2.4-.36-4.7-1.4-7.06-2.09-.6-.18-1.26-.09-1.86-.27a20.15,20.15,0,0,1-2.22-.89c-.19-.08-.36-.28-.54-.29-3.38-.27-6.22-2.09-9.3-3.21a35.13,35.13,0,0,1-4.4-2.43,31.38,31.38,0,0,1-3.67-1.83c-1.81-1.32-4.3-1.66-5.5-3.85a.9.9,0,0,0-.51-.3c-2.19-.67-3.58-2.43-5.29-3.76-1-.8-1.5-2.3-3.2-2.33-.56,0-1.13-.92-1.65-1.46-1.66-1.73-3.31-3.46-4.94-5.23-1.83-2-3.73-3.93-5.42-6C66.1,200.5,65.12,198.67,64,197c-.42-.63-.91-1.21-1.31-1.85C61.37,193,60,191,58.79,188.84c-.69-1.2-1.13-2.56-1.73-3.82-.8-1.7-1.66-3.37-2.47-5.07a12.23,12.23,0,0,1-.31-1.19c-.45-1.28-1-2.54-1.39-3.83-.14-.43-.1-.92-.24-1.36-.3-1-.65-2-1-3a5.64,5.64,0,0,1-.33-.86c-.76-4.75-1.74-9.48-2.19-14.26-.36-3.89,0-7.84-.1-11.76-.14-4.56.75-9,1.3-13.46a17.54,17.54,0,0,1,1.1-5.25A31,31,0,0,0,53,119.55a39.34,39.34,0,0,1,2.34-5.14c.68-1.56,1-3.38,1.94-4.69s.84-3.16,2.29-4.29c.73-.57.89-1.83,1.42-2.7,1.59-2.62,3.18-5.24,4.88-7.78a44,44,0,0,1,3.63-4.74c2.1-2.42,4.3-4.76,6.51-7.08,1.43-1.49,2.72-3.55,4.49-4.17,2.13-.75,3-2.69,4.91-3.59s3.31-2.46,5-3.64a33.57,33.57,0,0,1,3.22-1.9c1.62-.88,3.17-2.09,4.9-2.5,2.85-.67,4.78-3.31,7.84-3.38.31,0,.61-.33.93-.49l1.69-.8c.53-.24,1.07-.48,1.59-.74a6.85,6.85,0,0,1,1.06-.51c1.26-.29,2.63.05,3.78-1.07.36-.35,1.56-.13,2.43-.43,1.34-.47,3-.07,4.27-.69,2.06-1,4.16-.61,6.23-.9.5-.07.92-.59,1.52-1l1.42.48a15.36,15.36,0,0,0,1.93-6.61c0-2-.09-3.94,1.09-5.72.42-.64.56-1.74,1.56-1.23a3.42,3.42,0,0,1,1.81,2,18.92,18.92,0,0,1-.17,5c-.18,1.41-.67,2.77-1,4.17-.18.81-.28,1.64-.39,2.47-.19,1.44-.37,2.87-.54,4.31-.3,2.63-.53,5.27-.92,7.89-.29,1.94-.82,3.84-1.2,5.76a20.84,20.84,0,0,0-.28,2.49c-.14,1.92.21,4-.5,5.73-1,2.34-.66,4.66-1,7-.25,1.91.6,2.84,2.46,3.35s3.65,1.56,5.52,2.22c1,.34,2,.32,3,.57s2.19.68,3.28,1a6.88,6.88,0,0,0,.87.3l10.46,2.14c.16,0,.31.07.47.09,2.92.25,5.84.48,8.76.74a36.62,36.62,0,0,1,6,.68c2.14.57,4-.17,6-.54.31-.06.66-.76.7-1.19.18-2.13.27-4.27.39-6.41,0-.21-.05-.47.06-.61,1.86-2.73.75-5.93,1.4-8.86.55-2.52.81-5.1,1.2-7.65.47-3.09.92-6.17,1.41-9.25.12-.71.41-1.39.56-2.1.3-1.38.92-2.8.75-4.12-.21-1.75,1.33-1.89,1.92-2.85.78.66,2.09,1.23,2.22,2,.22,1.28-.72,2.78-.44,4,.37,1.65-1.28,2.78-.71,4.2A4.76,4.76,0,0,0,189.94,71c2,1.24,4,2.3,5.49,4.22a.79.79,0,0,0,.4.22c2.33.56,3.71,2.39,5.31,3.94s3.36,3.15,5,4.73c1.12,1.07,2.23,2.16,3.3,3.28A36.52,36.52,0,0,1,213,91.27c.85,1.18,2.47,1.83,2.5,3.68,0,.53.93,1,1.4,1.59.7.83,1.37,1.69,2,2.54a1.65,1.65,0,0,1,.27.38c.66,1.39,1.23,2.83,2,4.17s1.67,2.56,2.43,3.88A23.76,23.76,0,0,1,225,110.3c.6,1.43,1.15,2.88,1.73,4.33a15.12,15.12,0,0,1,1.34,3.54,7.32,7.32,0,0,0,1.78,3.72c.15.2.46.51.57.47,1.47-.63,2.49.79,3.8.79s1.2,1.06,1.19,1.8c0,.38-.69.79-1.13,1.1a3.85,3.85,0,0,1-1.28.55c-1.07.27-2.19.88-3.1-.39a1.27,1.27,0,0,0-.84-.31c-2.08-.14-4.17-.18-6.25-.4-.91-.1-1.77-.65-2.68-.81-1.69-.29-3.73.06-5-.79s-3.44-.13-4.36-1.88c-.09-.18-.44-.24-.69-.31a4.7,4.7,0,0,1-3.54-3.44,4.43,4.43,0,0,0-1.74-2.33c-.83-.51-.78-1.17-1.06-1.86a15.79,15.79,0,0,0-1.77-2.61c-.35-.5-.68-1-1-1.5-.64-1-1.21-2-1.93-2.84-.92-1.13-2.61-1.69-2.55-3.55a.59.59,0,0,0-.36-.45c-2.63-.67-4.12-3.14-6.5-4.16-1.45-.62-2.34-2.42-4.37-1.94-.95.22-1.58.39-1.52,1.49a5.1,5.1,0,0,1,0,1.41c-.43,1.78-.88,3.55-1.44,5.29-.08.27-.77.47-1.18.48-5.39,0-10.78.06-16.17,0a5.64,5.64,0,0,1-2.24-.74c-1.61.26-3.22.58-4.81-.43a2.91,2.91,0,0,0-1.52-.22c-2,0-4,0-5.82-1.15a.66.66,0,0,0-.15,0c-2.88-.58-5.77-1.12-8.63-1.76a15.42,15.42,0,0,1-2.55-1c-.23-.1-.44-.36-.66-.37-2.53-.12-4.57-1.47-6.7-2.6-.44-.24-1-.13-1.52-.3a8.49,8.49,0,0,1-1.39-.75c-.08,0-.1-.26-.15-.26C127,96,125.57,95,124,94.4c-.5-.17-1.49,1.21-2.32,1.8-1.81,1.28-1.58,3.39-2,5.18a10.47,10.47,0,0,0,0,3.62c0,.27.69.56,1.1.69,2,.6,4.24.83,6,1.84a17.12,17.12,0,0,0,3.79,1.43c1.3.4,1.48,1.33.89,3.78-1.66,0-3.24.49-4.93-.84-1.27-1-3.16-1.31-4.82-1.73a33.35,33.35,0,0,0-4-.51c-.36,2.14-.64,3.82-1,5.77a25.06,25.06,0,0,1,.63,3.14,1.57,1.57,0,0,0,1.3,1.58c1.79.62,3.46,1.53,5.19,2.31a11.47,11.47,0,0,0,1.31.51c1.54.48,3.11.88,4.61,1.46.31.11.55.83.53,1.26a2.64,2.64,0,0,1-.6,1.53,4.21,4.21,0,0,1-1.25.78c-1-.28-1.8-.48-2.61-.77s-1.63-.73-2.47-1c-1.67-.59-3.35-1.14-5-1.68a1,1,0,0,0-.74.14c-.44.28-1.15,4.85-.88,5.3a3,3,0,0,1,.37.82c.26.92-.33,2.14,1.2,2.56a24.19,24.19,0,0,1,2.68,1.27c2.51,1,5.06,2,7.55,3,.77.34.61,2.41-.17,2.67a7.11,7.11,0,0,1-5.9-.68,4.84,4.84,0,0,0-4.49-.36,35.16,35.16,0,0,1,.66,4.55,4,4,0,0,0,2.66,3.78c1.27.61,2.3,1.69,3.54,2.34,1.46.76,3.05,1.29,4.58,1.91a11.4,11.4,0,0,1,1.46.5,16.4,16.4,0,0,0,6.12,2.5c1.38.19,2.65,1.17,4,1.78.65.29,1.32.56,2,.83,1.08.45,2.15.92,3.24,1.34.38.14.82.12,1.21.25.8.28,1.59.61,2.38.92.15.06.26.21.41.24a66.78,66.78,0,0,0,7.45,1.59c3.46.34,7,.37,10.45.39,2.61,0,5.22-.18,7.82-.38a11.87,11.87,0,0,0,2.06-.69c.94-.24,1.91-.42,2.87-.61.4-.08,1,0,1.18-.2.91-1.4,2.4-.95,3.64-1.31,2.58-.74,5.12-1.63,7.68-2.43.64-.2,1.33-.25,2-.43a24.35,24.35,0,0,1,3.32-.95,19.78,19.78,0,0,1,4,.13c.54.05,1,.48,1.59.6,2.51.57,5.06,1,7.52,1.67a57,57,0,0,1,5.76,2.35,1.47,1.47,0,0,0,.28.14c2.2.59,4.42,1.14,6.61,1.77a20.32,20.32,0,0,1,2.32,1c.09,0,.15.16.24.18,2,.63,4,1.14,5.93,1.9a5.21,5.21,0,0,1,2.45,1.86c.66,1.06-.25,2.18-1.58,2.24s-2.78-.36-3.48.25-.38,2.23-.66,3.38a10.28,10.28,0,0,1-1,2c-.07.14-.22.24-.26.38-.54,1.6-1,3.24-1.62,4.8-.73,1.8-1.64,3.54-2.47,5.3-.51,1.08-1,2.16-1.54,3.25-.62,1.39-1.16,2.82-1.85,4.18a7,7,0,0,1-1.36,1.77c-1.52,1.54-1.8,4-3.75,5.2a.89.89,0,0,0-.34.66c-.1,1.69-1.54,2.36-2.52,3.38s-2.11,2.28-3.19,3.4c-1.28,1.33-2.61,2.61-3.88,3.95s-2.3,2.61-3.55,3.8-2.52,2.13-3.81,3.15c-1.7,1.34-3.4,2.67-5.16,3.93-1,.72-2.13,1.25-3.18,1.91-1.26.78-2.49,1.62-3.74,2.43a2.24,2.24,0,0,1-.4.22,22.27,22.27,0,0,0-4.59,1.81c-2.16,1.47-4.66,2-7,3.1a23.15,23.15,0,0,1-7.59,2.5,9.18,9.18,0,0,0-2.3.89Zm-7.63-69.37c.26-1.61-.9-1.93-2.38-1.93-.4,0-1-.05-1.16-.29-.59-1.13-1.66-.87-2.58-1.11-2.11-.54-4.2-1.17-6.29-1.77-.1,0-.18-.11-.28-.15-.86-.31-1.72-.63-2.59-.93-.38-.13-.8-.17-1.19-.31-2.34-.85-4.66-1.78-7-2.56-2-.65-4-1.13-6-1.71-.22-.07-.36-.38-.57-.51a2.6,2.6,0,0,0-1.09-.52,5.57,5.57,0,0,1-3.8-1.17c-.2-.17-1.31.19-1.38.47a43.76,43.76,0,0,0-1.61,7.16c-.36,3.78-.42,7.59-.47,11.39a30.82,30.82,0,0,0,2,10.12.9.9,0,0,0,.22.41,5.61,5.61,0,0,1,2.14,5.43,3.53,3.53,0,0,0,.14,1.4c.1.32.34.75.62.83,1.44.46,2.91.85,4.38,1.21s3.25-.68,4.61.75c.07.08.46-.19.71-.2,1.24,0,2.85-.53,3.64.06a4.63,4.63,0,0,0,3,.78,32.82,32.82,0,0,1,3.28.33c2.75.38,5.49.79,8.24,1.2A24.63,24.63,0,0,1,154,194c1.43.37,2.25.05,2.33-1.2a7.68,7.68,0,0,1,2.65-5.55,13.81,13.81,0,0,0,1.92-2.94c.13-.2.34-.35.5-.55,1.37-1.74,3.28-3.08,3.88-5.41a7.57,7.57,0,0,1,1.41-3.43c1.39-1.38,1.05-3,1.12-4.5a23.82,23.82,0,0,0-.22-3.22c-1.52,0-2.72.28-3.69-.07-1.59-.55-3-1.63-4.55-2.24C158.67,164.64,157.77,165.05,156.81,165.18ZM75,198.26l-.09.56c1.75.62,3.49,1.27,5.25,1.87.42.15.91.14,1.34.26,1.41.42,2.82.87,4.22,1.31a18.2,18.2,0,0,0,2.92.9c1.4.19,3.11.62,4.17,0,.91-.51,1.17-2.29,1.6-3.54.62-1.87,1.13-3.78,1.71-5.66.05-.17.3-.28.4-.45.26-.46.52-.93.75-1.41a11.33,11.33,0,0,0,.84-2.05,12.7,12.7,0,0,0,.17-2.14,7.57,7.57,0,0,0-2.21.31c-1.5.69-2.91,1.58-4.37,2.38a6.16,6.16,0,0,1-1.72.86,6.59,6.59,0,0,1-2.43,0A6.22,6.22,0,0,0,86,188.67a28.82,28.82,0,0,1-2.68-4.77,31.44,31.44,0,0,1-1.75-3.72c-.6-1.66-1-3.39-1.52-5.09,0-.14-.18-.26-.24-.4-.34-.72-1-1.47-.93-2.16.13-1.52-1.58-2.61-.83-4.19,0-.07-.3-.27-.37-.45a7.4,7.4,0,0,1-.51-1.55c-.2-1.12-.27-2.27-.47-3.39a29.19,29.19,0,0,1-.89-4.64c-.09-6.53,0-13.07,0-19.61a3.44,3.44,0,0,1,.08-.78c.93-4.3,1.86-8.61,2.82-12.91a7.24,7.24,0,0,1,.5-1c.3-.71.61-1.41.84-2.14.59-1.89,1.15-3.79,1.72-5.68,0,0,.05-.09.07-.14l2.58-5.23c.6-1.19,1.16-2.41,1.83-3.56s1.58-2.45,2.37-3.68c1.06-1.67,2-3.4,3.2-5s2.8-3.22,4.12-4.9a1.66,1.66,0,0,1,2.73-.12,13.13,13.13,0,0,0,2.57,2c1.49.94,3,1.8,4.59,2.65a1.8,1.8,0,0,0,1.26.23c.24-.07.46-.68.43-1a19.77,19.77,0,0,0-.49-3.25c-.83-3.38-1.77-6.73-2.58-10.12-.18-.78-.24-1.43-1.2-1.48a22.51,22.51,0,0,0-2.3-.19,28.19,28.19,0,0,0-3.57.32,15,15,0,0,0-2.22.69l.07.23L86,84.5a13.08,13.08,0,0,0,2,2.54c1.52,1.1,3.2,2,4.75,3,.17.11,0,.88-.17,1.26-.28.62-.71,1.16-1,1.75-.18.31-.2.81-.45,1-2.59,1.5-3.4,4.4-5.16,6.55a38,38,0,0,0-2.59,4c-.63,1-1.25,2.09-1.8,3.17-.65,1.31-1.22,2.65-1.83,4-.81,1.78-1.74,3.53-2.4,5.37s-1.17,4-1.75,6a.52.52,0,0,1-.13.28c-1.26,1-1,2.51-1.16,3.89-.1,1.14-.25,2.27-.37,3.4l-.21,0c0-.19-.09-.38-.17-.71a23.94,23.94,0,0,0-.54,2.34c-.47,3.46-1.11,6.92-1.3,10.4a113.25,113.25,0,0,0,0,12.36c.16,3.05.8,6.08,1.26,9.11.16,1,.45,2,.68,3l.49,0-.67.95c.68,1.72,1.83,3.34,1.79,4.94,0,1.38,1,2.43.62,3.77,0,.19.31.49.45.75a13.69,13.69,0,0,1,.77,1.59c.63,1.76,1.23,3.53,1.85,5.3,0,.09.14.15.2.24.8,1.33,1.61,2.65,2.38,4a25.9,25.9,0,0,0,1.94,3.37c.77.94.87,2-.24,2.56-1.34.7-2.76,1.22-4.14,1.82-.28.12-.54.3-.81.43-.66.34-1.31.69-2,1A10.74,10.74,0,0,1,75,198.26Zm57.23,27.63h.61a8.29,8.29,0,0,0,.42-1.51c.07-.88,0-1.78.06-2.66,0-.31.42-.59.65-.88.24.23.61.42.7.7.6,1.86,1.11,3.75,1.73,5.61a1.48,1.48,0,0,0,.89.84c.46.1,1.39,0,1.41-.19a6.18,6.18,0,0,1,1.78-3.34c.49-.5.82-1.16,1.32-1.64a1.07,1.07,0,0,1,.95.24,1.67,1.67,0,0,1-.57,2.19c-.22.19,0,.9.05,1.37a7.11,7.11,0,0,0,1.3-.54,1.82,1.82,0,0,0,.79-.81c.52-1.37,2.57-2.14,1.84-3.95a12,12,0,0,0-2-2.88c-.75-.92-1.15-3.43-.38-4.23,1.2-1.24,2.57-2.3,3.86-3.46a6.28,6.28,0,0,0,1.29-1.34c1-1.74.22-3-1.76-3a9.81,9.81,0,0,0-1.88,0c-3.59.66-6.36-1-8.95-3.14a10,10,0,0,0-6.22-2.72,5.77,5.77,0,0,1-1.22-.26c-1.77-.45-2.67.36-2.82,2.14a34.88,34.88,0,0,1-.94,4.33.86.86,0,0,0,0,.38c2.07.31,4.13.18,5.58,1.86A9.28,9.28,0,0,1,132.8,212c.39,1.29.69,3.06.09,4.08a8,8,0,0,0-1.23,2.77.51.51,0,0,1-.28.35c-1.37.16-1.22,1.25-1,2C130.86,222.8,131.57,224.33,132.18,225.89ZM130,197.17c.06.05.46.62.84.62a6.29,6.29,0,0,1,4,1.28,27.19,27.19,0,0,0,3.79,1.86c.12,0,.16.28.27.35a16.11,16.11,0,0,0,3.66,2.23,12.71,12.71,0,0,0,4,0,1.45,1.45,0,0,0,1-.41c1.5-1.61,2.94-3.24,5.53-2.42a2.18,2.18,0,0,0,1.53-.13c.46-.24,1.12-.9,1-1.18-.18-.58-.73-1.37-1.23-1.45-1.73-.3-3.51-.33-5.27-.48-.3,0-.75,0-.88-.14-.93-1.24-2.25-.84-3.45-.95-1.76-.15-3.52-.29-5.28-.47-.83-.09-1.66-.25-2.49-.38s-1.51-.4-2.27-.5c-1.54-.21-3.1-.29-4.64-.49-2.33-.31-4.64-.68-7-1-1.43-.21-1.25.82-1.36,1.7-.12,1.07.5,1.13,1.33,1.21a16.39,16.39,0,0,1,2.67.74Z"/>
  </g>
</svg>
