<svg id="Livello_1" data-name="Livello 1" xmlns="http://www.w3.org/2000/svg" viewBox="0 0 283.46 283.46">
  <defs>
    <style>
      .cls-1 {
        fill: #fff;
      }

      .cls-2 {
        fill: #94c023;
      }

      .cls-3 {
        fill: #95c11f;
      }

      .cls-4 {
        fill: #1d1d1b;
      }

      .cls-5, .cls-6, .cls-7 {
        fill: #45a041;
      }

      .cls-6 {
        font-size: 22.84px;
      }

      .cls-6, .cls-7 {
        stroke: #45a041;
        stroke-miterlimit: 10;
        stroke-width: 0.71px;
        font-family: Helvetica-Bold, Helvetica;
        font-weight: 700;
      }

      .cls-7 {
        font-size: 22.84px;
      }
    </style>
  </defs>
  <title>icon</title>
  <g>
    <g>
      <path class="cls-1" d="M24.37,142.49A111.75,111.75,0,1,1,136.1,254.25,111.88,111.88,0,0,1,24.37,142.49Z"/>
      <g>
        <path class="cls-2" d="M64.19,142.49A71.91,71.91,0,1,0,136.1,70.58,72,72,0,0,0,64.19,142.49Zm5.94,0a66,66,0,1,1,66,66A66.08,66.08,0,0,1,70.13,142.49Z"/>
        <path class="cls-3" d="M21.07,142.49a115,115,0,1,0,115-115A115.17,115.17,0,0,0,21.07,142.49Zm5.93,0A109.12,109.12,0,1,1,136.1,251.61,109.23,109.23,0,0,1,27,142.49Z"/>
        <path class="cls-4" d="M193.71,162c-2.12-1.38-2.12-3.15-4.31-3.91s-4.21-1.47-4.85-.51-.2.94.85,1.45a2.2,2.2,0,0,1,1.26,2.54,8.18,8.18,0,0,0,.41,4.39c.65,1.06,6.39,9.32,7.42,9.34,1.12-1.81,3-5.52,3.8-7.28C198.78,166,195.81,163.36,193.71,162Zm6.75-15.61c-.54-.73-1.53-.83-2.9-2.61a33.25,33.25,0,0,1-1.85-3c-1.76-3.21-12.35-3.14-15.21-3.21-2.05-.05-4.68-1.2-11.88-1.18-9.7.06-9.52-3.51-9-6.32.18-.87,3.67-.85,5.42-1.18.49-.13,1.18.71,2.15.56,2.22-.28,3-1.51,4.23-1.54,8.35-.15,7-.88,11.77-1.6,6.78-1,11.12-5.08,14.68-9s11.25-12.77,2.81-19.13c-6.05-4.63-11.47-7.18-18.63-6.42-6.77.73-11.93,5.69-15.81,9.2-6.64,6-6.48.38-6.64-2-.25-3.59-5-2.09-6.25-4.08-2-3.08-1.93-1.65-3.07-2.78-1.46-1.46-4.45-5.24-8.34-7.33-3.32-1.76-14.54-2.26-16.81-1.1-4.68,2.46-8.5,3-13.82,6.29-2.57,1.57-4.78,5.09-6.09,4.85-5.86-1-7.14,2.83-7.25,6.41-.1,2.65-3.78,3.52-5.22,1.94C88.87,98.85,79,93.48,73.09,93c-6.4-.52-16-.17-19.47,5.07-2.11,3.14.25,9.8,1.75,12.21,3,4.93,12.77,14.21,17.6,15.39,2.62.67,13-1.45,13.87,1.37s5.22-.27,5.33,1.27S96.39,130,96.39,130A26.28,26.28,0,0,1,95.9,139c-1.13,4.35-4,8.18-5.64,13.27-1.26,3.87-3.32,11.77-5.46,16.22s-6.45,11.6-4.33,14.31c16.77,21.48,38.62,25.21,41.39,25.65.06-.87,2.25-2.93,2.25-4.23s.37-3.8,1.26-4.7-.39-5.5-.12-6.64,8.91-.12,9.69-.26.51,2.7-.13,3a7.5,7.5,0,0,0-1.9,3.33c-.26,1,.23,1.29-3.08,3.46s-2.56,4.06-2.56,4.06l-.17,2.71a68.65,68.65,0,0,0,12.29.32,67.71,67.71,0,0,0,35-12.38c-1.77-5.31-5.71-16.26-6.39-17.93-.8-2-4.48-10.37-12.51-8.93-2,.34-3.76-6.6-2.55-10.48.64-2.05,3.55-15.61,3.55-22.81,0-1.65,3.78-.37,4.69,0a79.71,79.71,0,0,1,10.26,5.2c5.15,3.15,15.25,13.29,21.23,11.29,1.58-.52,2.54-1.74,3.66-1.69.8.06,2.84.2,3.24.71.72.76,1.39,2.17,2,3,.31.44.51.63.89.63.17-.42,1.32-5.51,1.47-6.92C203.73,148.69,202.35,148.73,200.46,146.4ZM152.12,185c-.73,1.29-6.12.73-7.21.56s-2.6-2.78-1.3-3.33a3.27,3.27,0,0,0,1.45-3.9c-.53-1.28-1.45.17-2.38,1.1s-2.42.76-3-2,2.2-2.79,3.7-3.52,3.52-1.31,3-4.84-5.58-.35-6.49-.74-1-1.85-1.91.19-4.26,1-4.89,3.35c-.29,1.22-2.67-.21-2.67-1.3s-2-4.65-3.91-5.38-3.63,2.4-4.23-1.12c-.82-4.57,4.07-12.41,5.54-15.76s-.17-8.9-.94-11.69-1.28-3.35-1.28-5.56-3-3.7-5.37-5.93-3-6.66-4.45-9.08-4.62-4.43-4.82-6.48-2.64-3.3-1.48-5.2c3.88-6.49,5.32-5.85,6.71-7.61a21.82,21.82,0,0,1,6.44-5.76c2.78-1.47,7.3-1.19,13.62-1,2.51,0,6.59,3.25,10.13,8.28,3,4.36,5.93,7.78,4.25,8.53s-1.11,6.47-1.88,8.9-2,1.65-3.5,4.44-.35,4.27,1.3,4.09c5.26-.6,5.18,2.22,5.18,3.69s-.74,3.73-1.67,4.46-5.37-.73-6.46,1.32,1.83,6.09-.76,8.33a5.26,5.26,0,0,0-1.07,5.9c.38.67,1.44,0,1.63.77a25.28,25.28,0,0,1,.22,7.48c-.19,1.82,3.82,5.47,5.13,7.16.54.65,2.88,3.56,2.5,5.05s-.72,5.7,1.25,6.65C153,175.17,152.85,183.65,152.12,185ZM141.4,169.84c0-.37.76-.67,1.44-.22.26.2,0,.66.78.6.36,0,.36,1,.06,1.66-.18.3-1.12.48-1.5.48S141.38,170.71,141.4,169.84Z"/>
        <path class="cls-3" d="M202.1,142.49a66,66,0,1,1-132,0H64.19a71.91,71.91,0,0,0,143.82,0"/>
      </g>
    </g>
    <path class="cls-3" d="M122,175.62c4.36-16.49-23-14.85-11.59-.52-3.91-3.33-13.61-3.36-14.54,3-1,6.6,6.4,5.45,11.4,6-6.11,2.12-5.75,11.07.93,13.59,8.34,3.14,12.43-4,12-10.71,4.25,2.08,13.37,4.14,15.25-3.21C137.45,176.14,127.67,174.92,122,175.62Z"/>
    <path class="cls-5" d="M223,184.06a5.74,5.74,0,1,1-5.75-5.74A5.74,5.74,0,0,1,223,184.06Z"/>
    <text class="cls-6" transform="translate(73.84 81.85) rotate(-37.22) scale(1.04 1)">L</text>
    <text class="cls-6" transform="matrix(0.92, -0.48, 0.46, 0.89, 84.82, 73.31)">A</text>
    <text class="cls-6" transform="translate(97.96 66.4) rotate(-18.95) scale(1.04 1)">T</text>
    <text class="cls-6" transform="matrix(1.03, -0.18, 0.18, 0.98, 111.12, 61.83)">T</text>
    <text class="cls-6" transform="matrix(1.04, -0.01, 0.01, 1, 124.81, 59.29)">E</text>
    <text class="cls-6" transform="matrix(1.03, 0.12, -0.11, 0.99, 140.17, 59.36)"> </text>
    <text class="cls-6" transform="translate(146.31 59.67) rotate(13.87) scale(1.04 1)">D</text>
    <text class="cls-6" transform="translate(162.38 63.95) rotate(21.42) scale(1.04 1)">I</text>
    <text class="cls-6" transform="translate(168.26 66.25) rotate(25.67) scale(1.04 1)"> </text>
    <text class="cls-6" transform="matrix(0.87, 0.57, -0.54, 0.84, 173.92, 68.61)">P</text>
    <text class="cls-6" transform="matrix(0.76, 0.71, -0.68, 0.73, 185.39, 75.74)">A</text>
    <text class="cls-6" transform="matrix(0.61, 0.84, -0.81, 0.59, 197.45, 86.91)">S</text>
    <text class="cls-6" transform="matrix(0.43, 0.95, -0.91, 0.42, 206.44, 99.09)">C</text>
    <text class="cls-6" transform="matrix(0.23, 1.02, -0.98, 0.22, 213.42, 113.94)">O</text>
    <text class="cls-6" transform="matrix(0.02, 1.04, -1, 0.02, 217.15, 131.28)">L</text>
    <text class="cls-6" transform="matrix(-0.18, 1.03, -0.99, -0.17, 217.71, 145.09)">O</text>
    <text class="cls-7" transform="translate(35.82 125.25) rotate(94.58) scale(1.04 1)">L</text>
    <text class="cls-7" transform="matrix(0.09, 1.04, -1, 0.09, 34.56, 142.02)">A</text>
    <text class="cls-7" transform="matrix(0.25, 1.01, -0.97, 0.24, 36.25, 159.44)">T</text>
    <text class="cls-7" transform="translate(40.44 175.63) rotate(66.87) scale(1.04 1)">T</text>
    <text class="cls-7" transform="matrix(0.57, 0.87, -0.84, 0.54, 47.2, 191.09)">E</text>
    <text class="cls-7" transform="translate(57.12 205.62) rotate(49.6) scale(1.04 1)"> </text>
    <text class="cls-7" transform="matrix(0.78, 0.69, -0.66, 0.75, 62.44, 212.24)">D</text>
    <text class="cls-7" transform="translate(76.97 224.51) rotate(33.77) scale(1.04 1)">I</text>
    <text class="cls-7" transform="translate(83.37 228.74) rotate(29.41) scale(1.04 1)"> </text>
    <text class="cls-7" transform="translate(90.57 233.02) rotate(21.97) scale(1.04 1)">P</text>
    <text class="cls-7" transform="translate(105.81 239.17) rotate(12.13) scale(1.04 1)">A</text>
    <text class="cls-7" transform="matrix(1.04, 0.02, -0.02, 1, 125.2, 243.02)">S</text>
    <text class="cls-7" transform="translate(143.62 243.23) rotate(-9.41) scale(1.04 1)">C</text>
    <text class="cls-7" transform="translate(163.16 239.79) rotate(-20.61) scale(1.04 1)">O</text>
    <text class="cls-7" transform="matrix(0.89, -0.53, 0.51, 0.86, 182.59, 232.06)">L</text>
    <text class="cls-7" transform="matrix(0.79, -0.68, 0.65, 0.76, 197.1, 223.37)">O</text>
  </g>
</svg>
